<?xml version="1.0" encoding="UTF-8"?>
<!-- Generated by SVGo -->
<svg width="362.427mm" height="137.406mm" viewBox="0.000 0.000 362.427 137.406" xmlns="http://www.w3.org/2000/svg" xmlns:xlink="http://www.w3.org/1999/xlink">
<polygon points="357.427,132.406 5.001,132.406 5.001,5.000 357.427,5.000" style="fill:none;stroke-width:0.050000mm;stroke:black"/>
<polygon points="134.970,121.955 147.095,128.955 154.095,116.831 141.970,109.831" style="fill:none;stroke-width:0.050000mm;stroke:black"/>
<polygon points="209.436,116.193 216.436,128.317 228.561,121.317 221.561,109.193" style="fill:none;stroke-width:0.050000mm;stroke:black"/>
<polygon points="114.095,115.771 127.618,119.394 131.242,105.871 117.719,102.248" style="fill:none;stroke-width:0.050000mm;stroke:black"/>
<polygon points="231.437,104.957 235.061,118.480 248.584,114.857 244.960,101.334" style="fill:none;stroke-width:0.050000mm;stroke:black"/>
<polygon points="93.251,100.870 93.251,114.870 107.251,114.870 107.251,100.870" style="fill:none;stroke-width:0.050000mm;stroke:black"/>
<polygon points="255.176,100.870 255.176,114.870 269.176,114.870 269.176,100.870" style="fill:none;stroke-width:0.050000mm;stroke:black"/>
<polygon points="7.526,77.057 7.526,91.057 21.526,91.057 21.526,77.057" style="fill:none;stroke-width:0.050000mm;stroke:black"/>
<polygon points="26.576,77.057 26.576,91.057 40.576,91.057 40.576,77.057" style="fill:none;stroke-width:0.050000mm;stroke:black"/>
<polygon points="102.776,77.057 102.776,91.057 116.776,91.057 116.776,77.057" style="fill:none;stroke-width:0.050000mm;stroke:black"/>
<polygon points="245.651,77.057 245.651,91.057 259.650,91.057 259.650,77.057" style="fill:none;stroke-width:0.050000mm;stroke:black"/>
<polygon points="321.851,77.057 321.851,91.057 335.851,91.057 335.851,77.057" style="fill:none;stroke-width:0.050000mm;stroke:black"/>
<polygon points="340.901,77.057 340.901,91.057 354.901,91.057 354.901,77.057" style="fill:none;stroke-width:0.050000mm;stroke:black"/>
<polygon points="45.626,72.295 45.626,86.295 59.626,86.295 59.626,72.295" style="fill:none;stroke-width:0.050000mm;stroke:black"/>
<polygon points="83.726,72.295 83.726,86.295 97.726,86.295 97.726,72.295" style="fill:none;stroke-width:0.050000mm;stroke:black"/>
<polygon points="264.701,72.295 264.701,86.295 278.701,86.295 278.701,72.295" style="fill:none;stroke-width:0.050000mm;stroke:black"/>
<polygon points="302.801,72.295 302.801,86.295 316.801,86.295 316.801,72.295" style="fill:none;stroke-width:0.050000mm;stroke:black"/>
<polygon points="64.676,67.532 64.676,81.532 78.676,81.532 78.676,67.532" style="fill:none;stroke-width:0.050000mm;stroke:black"/>
<polygon points="283.751,67.532 283.751,81.532 297.751,81.532 297.751,67.532" style="fill:none;stroke-width:0.050000mm;stroke:black"/>
<polygon points="7.526,58.007 7.526,72.007 21.526,72.007 21.526,58.007" style="fill:none;stroke-width:0.050000mm;stroke:black"/>
<polygon points="26.576,58.007 26.576,72.007 40.576,72.007 40.576,58.007" style="fill:none;stroke-width:0.050000mm;stroke:black"/>
<polygon points="102.776,58.007 102.776,72.007 116.776,72.007 116.776,58.007" style="fill:none;stroke-width:0.050000mm;stroke:black"/>
<polygon points="245.651,58.007 245.651,72.007 259.650,72.007 259.650,58.007" style="fill:none;stroke-width:0.050000mm;stroke:black"/>
<polygon points="321.851,58.007 321.851,72.007 335.851,72.007 335.851,58.007" style="fill:none;stroke-width:0.050000mm;stroke:black"/>
<polygon points="340.901,58.007 340.901,72.007 354.901,72.007 354.901,58.007" style="fill:none;stroke-width:0.050000mm;stroke:black"/>
<polygon points="45.626,53.244 45.626,67.244 59.626,67.244 59.626,53.244" style="fill:none;stroke-width:0.050000mm;stroke:black"/>
<polygon points="83.726,53.244 83.726,67.244 97.726,67.244 97.726,53.244" style="fill:none;stroke-width:0.050000mm;stroke:black"/>
<polygon points="264.701,53.244 264.701,67.244 278.701,67.244 278.701,53.244" style="fill:none;stroke-width:0.050000mm;stroke:black"/>
<polygon points="302.801,53.244 302.801,67.244 316.801,67.244 316.801,53.244" style="fill:none;stroke-width:0.050000mm;stroke:black"/>
<polygon points="64.676,48.482 64.676,62.482 78.676,62.482 78.676,48.482" style="fill:none;stroke-width:0.050000mm;stroke:black"/>
<polygon points="283.751,48.482 283.751,62.482 297.751,62.482 297.751,48.482" style="fill:none;stroke-width:0.050000mm;stroke:black"/>
<polygon points="202.788,44.672 202.788,58.672 216.788,58.672 216.788,44.672" style="fill:none;stroke-width:0.050000mm;stroke:black"/>
<polygon points="7.526,38.957 7.526,52.957 21.526,52.957 21.526,38.957" style="fill:none;stroke-width:0.050000mm;stroke:black"/>
<polygon points="26.576,38.957 26.576,52.957 40.576,52.957 40.576,38.957" style="fill:none;stroke-width:0.050000mm;stroke:black"/>
<polygon points="102.776,38.957 102.776,52.957 116.776,52.957 116.776,38.957" style="fill:none;stroke-width:0.050000mm;stroke:black"/>
<polygon points="245.651,38.957 245.651,52.957 259.650,52.957 259.650,38.957" style="fill:none;stroke-width:0.050000mm;stroke:black"/>
<polygon points="321.851,38.957 321.851,52.957 335.851,52.957 335.851,38.957" style="fill:none;stroke-width:0.050000mm;stroke:black"/>
<polygon points="340.901,38.957 340.901,52.957 354.901,52.957 354.901,38.957" style="fill:none;stroke-width:0.050000mm;stroke:black"/>
<polygon points="45.626,34.194 45.626,48.194 59.626,48.194 59.626,34.194" style="fill:none;stroke-width:0.050000mm;stroke:black"/>
<polygon points="83.726,34.194 83.726,48.194 97.726,48.194 97.726,34.194" style="fill:none;stroke-width:0.050000mm;stroke:black"/>
<polygon points="264.701,34.194 264.701,48.194 278.701,48.194 278.701,34.194" style="fill:none;stroke-width:0.050000mm;stroke:black"/>
<polygon points="302.801,34.194 302.801,48.194 316.801,48.194 316.801,34.194" style="fill:none;stroke-width:0.050000mm;stroke:black"/>
<polygon points="64.676,29.432 64.676,43.432 78.676,43.432 78.676,29.432" style="fill:none;stroke-width:0.050000mm;stroke:black"/>
<polygon points="283.751,29.432 283.751,43.432 297.751,43.432 297.751,29.432" style="fill:none;stroke-width:0.050000mm;stroke:black"/>
<polygon points="193.263,25.622 193.263,39.622 207.263,39.622 207.263,25.622" style="fill:none;stroke-width:0.050000mm;stroke:black"/>
<polygon points="212.313,25.622 212.313,39.622 226.313,39.622 226.313,25.622" style="fill:none;stroke-width:0.050000mm;stroke:black"/>
<polygon points="7.526,19.907 7.526,33.907 21.526,33.907 21.526,19.907" style="fill:none;stroke-width:0.050000mm;stroke:black"/>
<polygon points="26.576,19.907 26.576,33.907 40.576,33.907 40.576,19.907" style="fill:none;stroke-width:0.050000mm;stroke:black"/>
<polygon points="102.776,19.907 102.776,33.907 116.776,33.907 116.776,19.907" style="fill:none;stroke-width:0.050000mm;stroke:black"/>
<polygon points="245.651,19.907 245.651,33.907 259.650,33.907 259.650,19.907" style="fill:none;stroke-width:0.050000mm;stroke:black"/>
<polygon points="321.851,19.907 321.851,33.907 335.851,33.907 335.851,19.907" style="fill:none;stroke-width:0.050000mm;stroke:black"/>
<polygon points="340.901,19.907 340.901,33.907 354.901,33.907 354.901,19.907" style="fill:none;stroke-width:0.050000mm;stroke:black"/>
<polygon points="45.626,15.145 45.626,29.145 59.626,29.145 59.626,15.145" style="fill:none;stroke-width:0.050000mm;stroke:black"/>
<polygon points="83.726,15.145 83.726,29.145 97.726,29.145 97.726,15.145" style="fill:none;stroke-width:0.050000mm;stroke:black"/>
<polygon points="264.701,15.145 264.701,29.145 278.701,29.145 278.701,15.145" style="fill:none;stroke-width:0.050000mm;stroke:black"/>
<polygon points="302.801,15.145 302.801,29.145 316.801,29.145 316.801,15.145" style="fill:none;stroke-width:0.050000mm;stroke:black"/>
<polygon points="64.676,10.382 64.676,24.382 78.676,24.382 78.676,10.382" style="fill:none;stroke-width:0.050000mm;stroke:black"/>
<polygon points="283.751,10.382 283.751,24.382 297.751,24.382 297.751,10.382" style="fill:none;stroke-width:0.050000mm;stroke:black"/>
</svg>