solid ASCII
  facet normal -1.000000e+00 0.000000e+00 0.000000e+00
    outer loop
      vertex   -1.000000e+01 0.000000e+00 -1.500000e+01
      vertex   -1.000000e+01 0.000000e+00 3.650000e+00
      vertex   -1.000000e+01 1.220000e+01 -1.500000e+01
    endloop
  endfacet
  facet normal -1.000000e+00 0.000000e+00 0.000000e+00
    outer loop
      vertex   -1.000000e+01 1.220000e+01 -1.500000e+01
      vertex   -1.000000e+01 0.000000e+00 3.650000e+00
      vertex   -1.000000e+01 1.220000e+01 3.650000e+00
    endloop
  endfacet
  facet normal 0.000000e+00 0.000000e+00 -1.000000e+00
    outer loop
      vertex   5.800000e+00 0.000000e+00 -1.500000e+01
      vertex   -1.000000e+01 0.000000e+00 -1.500000e+01
      vertex   5.800000e+00 1.220000e+01 -1.500000e+01
    endloop
  endfacet
  facet normal -0.000000e+00 0.000000e+00 -1.000000e+00
    outer loop
      vertex   5.800000e+00 1.220000e+01 -1.500000e+01
      vertex   -1.000000e+01 0.000000e+00 -1.500000e+01
      vertex   -1.000000e+01 1.220000e+01 -1.500000e+01
    endloop
  endfacet
  facet normal 1.000000e+00 -0.000000e+00 0.000000e+00
    outer loop
      vertex   5.800000e+00 0.000000e+00 3.650000e+00
      vertex   5.800000e+00 0.000000e+00 -1.500000e+01
      vertex   5.800000e+00 1.220000e+01 3.650000e+00
    endloop
  endfacet
  facet normal 1.000000e+00 0.000000e+00 0.000000e+00
    outer loop
      vertex   5.800000e+00 1.220000e+01 3.650000e+00
      vertex   5.800000e+00 0.000000e+00 -1.500000e+01
      vertex   5.800000e+00 1.220000e+01 -1.500000e+01
    endloop
  endfacet
  facet normal 0.000000e+00 0.000000e+00 1.000000e+00
    outer loop
      vertex   -1.000000e+01 0.000000e+00 3.650000e+00
      vertex   5.800000e+00 0.000000e+00 3.650000e+00
      vertex   -1.000000e+01 1.220000e+01 3.650000e+00
    endloop
  endfacet
  facet normal -0.000000e+00 0.000000e+00 1.000000e+00
    outer loop
      vertex   -1.000000e+01 1.220000e+01 3.650000e+00
      vertex   5.800000e+00 0.000000e+00 3.650000e+00
      vertex   5.800000e+00 1.220000e+01 3.650000e+00
    endloop
  endfacet
  facet normal 0.000000e+00 1.000000e+00 0.000000e+00
    outer loop
      vertex   5.800000e+00 1.220000e+01 3.650000e+00
      vertex   5.800000e+00 1.220000e+01 -1.500000e+01
      vertex   -1.000000e+01 1.220000e+01 3.650000e+00
    endloop
  endfacet
  facet normal 0.000000e+00 1.000000e+00 0.000000e+00
    outer loop
      vertex   -1.000000e+01 1.220000e+01 3.650000e+00
      vertex   5.800000e+00 1.220000e+01 -1.500000e+01
      vertex   -1.000000e+01 1.220000e+01 -1.500000e+01
    endloop
  endfacet
  facet normal -0.000000e+00 -1.000000e+00 -0.000000e+00
    outer loop
      vertex   5.800000e+00 0.000000e+00 3.650000e+00
      vertex   -1.000000e+01 0.000000e+00 3.650000e+00
      vertex   5.800000e+00 0.000000e+00 -1.500000e+01
    endloop
  endfacet
  facet normal 0.000000e+00 -1.000000e+00 0.000000e+00
    outer loop
      vertex   5.800000e+00 0.000000e+00 -1.500000e+01
      vertex   -1.000000e+01 0.000000e+00 3.650000e+00
      vertex   -1.000000e+01 0.000000e+00 -1.500000e+01
    endloop
  endfacet
endsolid
