M48
; DRILL file {KiCad 8.0.8} date 2025-01-28T12:55:13+1000
; FORMAT={-:-/ absolute / metric / decimal}
; #@! TF.CreationDate,2025-01-28T12:55:13+10:00
; #@! TF.GenerationSoftware,Kicad,Pcbnew,8.0.8
; #@! TF.FileFunction,NonPlated,1,2,NPTH
FMAT,2
METRIC
; #@! TA.AperFunction,NonPlated,NPTH,ComponentDrill
T1C0.650
; #@! TA.AperFunction,NonPlated,NPTH,ComponentDrill
T2C1.702
; #@! TA.AperFunction,NonPlated,NPTH,ComponentDrill
T3C3.000
; #@! TA.AperFunction,NonPlated,NPTH,ComponentDrill
T4C3.988
%
G90
G05
T1
X165.099Y-87.765
X165.099Y-94.965
T2
X40.879Y-68.865
X40.879Y-87.915
X40.879Y-106.965
X40.879Y-126.015
X51.039Y-68.865
X51.039Y-87.915
X51.039Y-106.965
X51.039Y-126.015
X59.929Y-87.915
X59.929Y-106.965
X59.929Y-126.015
X59.929Y-68.865
X70.089Y-87.915
X70.089Y-106.965
X70.089Y-126.015
X70.089Y-68.865
X78.979Y-58.865
X78.979Y-77.915
X78.979Y-96.965
X78.979Y-116.015
X89.139Y-58.865
X89.139Y-77.915
X89.139Y-96.965
X89.139Y-116.015
X98.029Y-53.365
X98.029Y-72.415
X98.029Y-91.465
X98.029Y-110.515
X108.189Y-53.365
X108.189Y-72.415
X108.189Y-91.465
X108.189Y-110.515
X117.079Y-58.865
X117.079Y-77.915
X117.079Y-96.965
X117.079Y-116.015
X127.239Y-58.865
X127.239Y-77.915
X127.239Y-96.965
X127.239Y-116.015
X131.455Y-139.865
X136.129Y-61.285
X136.129Y-80.335
X136.129Y-99.385
X136.129Y-118.435
X141.615Y-139.865
X146.289Y-61.285
X146.289Y-80.335
X146.289Y-99.385
X146.289Y-118.435
X152.486Y-140.253
X162.492Y-142.017
X173.134Y-144.866
X182.486Y-148.836
T3
X43.419Y-63.785
X43.419Y-73.945
X43.419Y-82.835
X43.419Y-92.995
X43.419Y-101.885
X43.419Y-112.045
X43.419Y-120.935
X43.419Y-131.095
X49.769Y-66.325
X49.769Y-71.405
X49.769Y-85.375
X49.769Y-90.455
X49.769Y-104.425
X49.769Y-109.505
X49.769Y-123.475
X49.769Y-128.555
X62.469Y-82.835
X62.469Y-92.995
X62.469Y-101.885
X62.469Y-112.045
X62.469Y-120.935
X62.469Y-131.095
X62.469Y-63.785
X62.469Y-73.945
X68.819Y-85.375
X68.819Y-90.455
X68.819Y-104.425
X68.819Y-109.505
X68.819Y-123.475
X68.819Y-128.555
X68.819Y-66.325
X68.819Y-71.405
X81.519Y-53.785
X81.519Y-63.945
X81.519Y-72.835
X81.519Y-82.995
X81.519Y-91.885
X81.519Y-102.045
X81.519Y-110.935
X81.519Y-121.095
X87.869Y-56.325
X87.869Y-61.405
X87.869Y-75.375
X87.869Y-80.455
X87.869Y-94.425
X87.869Y-99.505
X87.869Y-113.475
X87.869Y-118.555
X100.569Y-48.285
X100.569Y-58.445
X100.569Y-67.335
X100.569Y-77.495
X100.569Y-86.385
X100.569Y-96.545
X100.569Y-105.435
X100.569Y-115.595
X106.919Y-50.825
X106.919Y-55.905
X106.919Y-69.875
X106.919Y-74.955
X106.919Y-88.925
X106.919Y-94.005
X106.919Y-107.975
X106.919Y-113.055
X119.619Y-53.785
X119.619Y-63.945
X119.619Y-72.835
X119.619Y-82.995
X119.619Y-91.885
X119.619Y-102.045
X119.619Y-110.935
X119.619Y-121.095
X125.969Y-56.325
X125.969Y-61.405
X125.969Y-75.375
X125.969Y-80.455
X125.969Y-94.425
X125.969Y-99.505
X125.969Y-113.475
X125.969Y-118.555
X133.995Y-134.785
X133.995Y-144.945
X138.669Y-56.205
X138.669Y-66.365
X138.669Y-75.255
X138.669Y-85.415
X138.669Y-94.305
X138.669Y-104.465
X138.669Y-113.355
X138.669Y-123.515
X140.345Y-137.325
X140.345Y-142.405
X145.019Y-58.745
X145.019Y-63.825
X145.019Y-77.795
X145.019Y-82.875
X145.019Y-96.845
X145.019Y-101.925
X145.019Y-115.895
X145.019Y-120.975
X154.105Y-145.697
X155.87Y-135.691
X160.8Y-144.298
X161.682Y-139.295
X173.487Y-150.534
X177.457Y-141.182
X180.325Y-150.677
X182.31Y-146.001
T4
X45.959Y-68.865
X45.959Y-87.915
X45.959Y-106.965
X45.959Y-126.015
X65.009Y-87.915
X65.009Y-106.965
X65.009Y-126.015
X65.009Y-68.865
X84.059Y-58.865
X84.059Y-77.915
X84.059Y-96.965
X84.059Y-116.015
X103.109Y-53.365
X103.109Y-72.415
X103.109Y-91.465
X103.109Y-110.515
X122.159Y-58.865
X122.159Y-77.915
X122.159Y-96.965
X122.159Y-116.015
X136.535Y-139.865
X141.209Y-61.285
X141.209Y-80.335
X141.209Y-99.385
X141.209Y-118.435
X157.489Y-141.135
X177.81Y-146.851
T1
X165.099Y-87.915G85X165.099Y-87.615
G05
X165.099Y-94.815G85X165.099Y-95.115
G05
M30
