%TF.GenerationSoftware,KiCad,Pcbnew,8.0.8*%
%TF.CreationDate,2025-01-28T12:55:14+10:00*%
%TF.ProjectId,wetsocks54k,77657473-6f63-46b7-9335-346b2e6b6963,2*%
%TF.SameCoordinates,Original*%
%TF.FileFunction,Drillmap*%
%TF.FilePolarity,Positive*%
%FSLAX45Y45*%
G04 Gerber Fmt 4.5, Leading zero omitted, Abs format (unit mm)*
G04 Created by KiCad (PCBNEW 8.0.8) date 2025-01-28 12:55:14*
%MOMM*%
%LPD*%
G01*
G04 APERTURE LIST*
%ADD10C,0.038100*%
%ADD11C,0.200000*%
%ADD12C,0.100000*%
%ADD13C,0.170180*%
%ADD14C,0.300000*%
%ADD15C,0.398780*%
G04 APERTURE END LIST*
D10*
X12445860Y-12636500D02*
X11245860Y-12636500D01*
X12662927Y-14836500D02*
X12645860Y-12836500D01*
X3645860Y-13436500D02*
X3645860Y-6136500D01*
X13045860Y-4936500D02*
G75*
G02*
X13245860Y-5136500I0J-200000D01*
G01*
X14945860Y-5136500D02*
G75*
G02*
X15145860Y-5336500I0J-200000D01*
G01*
X9445860Y-12236500D02*
G75*
G02*
X9545860Y-12136500I100000J0D01*
G01*
X17545860Y-5736500D02*
X17545860Y-11236500D01*
X3845860Y-13636500D02*
G75*
G02*
X3645860Y-13436500I0J200000D01*
G01*
X19041952Y-14134593D02*
G75*
G02*
X19148919Y-14430132I-96092J-201907D01*
G01*
X11045860Y-12436500D02*
X11045860Y-12236500D01*
X10945860Y-12136500D02*
G75*
G02*
X11045860Y-12236500I0J-100000D01*
G01*
X17545860Y-11236500D02*
X17561547Y-12758851D01*
X9445860Y-12236500D02*
X9445860Y-12436500D01*
X12759813Y-14918250D02*
X12944286Y-14919428D01*
X9345860Y-4736500D02*
X9345860Y-4536500D01*
X12759813Y-14918250D02*
G75*
G02*
X12662927Y-14836500I-13953J81751D01*
G01*
X7545860Y-12836500D02*
X7545860Y-13336500D01*
X3845860Y-5936500D02*
X7245860Y-5936500D01*
X9245860Y-12636500D02*
X7745860Y-12636500D01*
X13245860Y-5136500D02*
X14945860Y-5136500D01*
X7445860Y-5736500D02*
G75*
G02*
X7245860Y-5936500I-200000J0D01*
G01*
X11345860Y-4536500D02*
X11345860Y-4736500D01*
X11145860Y-4336500D02*
G75*
G02*
X11345860Y-4536500I0J-200000D01*
G01*
X18116017Y-13682810D02*
G75*
G02*
X17561546Y-12758851I529843J946310D01*
G01*
X11545860Y-4936500D02*
X13045860Y-4936500D01*
X18548991Y-15678928D02*
X19148919Y-14430132D01*
X9545860Y-4336500D02*
X11145860Y-4336500D01*
X7545860Y-13336500D02*
G75*
G02*
X7245860Y-13636500I-300000J0D01*
G01*
X7445860Y-5136500D02*
G75*
G02*
X7645860Y-4936500I200000J0D01*
G01*
X3645860Y-6136500D02*
G75*
G02*
X3845860Y-5936500I200000J0D01*
G01*
X7445860Y-5736500D02*
X7445860Y-5136500D01*
X11545860Y-4936500D02*
G75*
G02*
X11345860Y-4736500I0J200000D01*
G01*
X9445860Y-12436500D02*
G75*
G02*
X9245860Y-12636500I-200000J0D01*
G01*
X15345860Y-5536500D02*
X17145860Y-5536500D01*
X11245860Y-12636500D02*
G75*
G02*
X11045860Y-12436500I0J200000D01*
G01*
X10945860Y-12136500D02*
X9545860Y-12136500D01*
X19041952Y-14134593D02*
X18116017Y-13682810D01*
X9345860Y-4736500D02*
G75*
G02*
X9145860Y-4936500I-200000J0D01*
G01*
X12944286Y-14919428D02*
G75*
G02*
X18078926Y-15826857I907619J-9845046D01*
G01*
X7645860Y-4936500D02*
X9145860Y-4936500D01*
X15345860Y-5536500D02*
G75*
G02*
X15145860Y-5336500I0J200000D01*
G01*
X7545860Y-12836500D02*
G75*
G02*
X7745860Y-12636500I200000J0D01*
G01*
X9345860Y-4536500D02*
G75*
G02*
X9545860Y-4336500I200000J0D01*
G01*
X17145860Y-5536500D02*
X17345860Y-5536500D01*
X12445860Y-12636500D02*
G75*
G02*
X12645860Y-12836500I0J-200000D01*
G01*
X7145860Y-13636500D02*
X3845860Y-13636500D01*
X17345860Y-5536500D02*
G75*
G02*
X17545860Y-5736500I0J-200000D01*
G01*
X7145860Y-13636500D02*
X7245860Y-13636500D01*
X18548991Y-15678928D02*
G75*
G02*
X18078926Y-15826857I-303131J142428D01*
G01*
D11*
D12*
X16477360Y-8744000D02*
X16542360Y-8809000D01*
X16542360Y-8744000D02*
X16477360Y-8809000D01*
X16542360Y-8791500D02*
X16542360Y-8761500D01*
X16477360Y-8761500D02*
G75*
G02*
X16542360Y-8761500I32500J0D01*
G01*
X16477360Y-8761500D02*
X16477360Y-8791500D01*
X16477360Y-8791500D02*
G75*
G03*
X16542360Y-8791500I32500J0D01*
G01*
X16477360Y-8744000D02*
X16542360Y-8809000D01*
X16542360Y-8744000D02*
X16477360Y-8809000D01*
X16477360Y-9464000D02*
X16542360Y-9529000D01*
X16542360Y-9464000D02*
X16477360Y-9529000D01*
X16477360Y-9481500D02*
X16477360Y-9511500D01*
X16542360Y-9511500D02*
G75*
G02*
X16477360Y-9511500I-32500J0D01*
G01*
X16542360Y-9511500D02*
X16542360Y-9481500D01*
X16542360Y-9481500D02*
G75*
G03*
X16477360Y-9481500I-32500J0D01*
G01*
X16477360Y-9464000D02*
X16542360Y-9529000D01*
X16542360Y-9464000D02*
X16477360Y-9529000D01*
D13*
X4172950Y-6886500D02*
G75*
G02*
X4002770Y-6886500I-85090J0D01*
G01*
X4002770Y-6886500D02*
G75*
G02*
X4172950Y-6886500I85090J0D01*
G01*
X4172950Y-8791500D02*
G75*
G02*
X4002770Y-8791500I-85090J0D01*
G01*
X4002770Y-8791500D02*
G75*
G02*
X4172950Y-8791500I85090J0D01*
G01*
X4172950Y-10696500D02*
G75*
G02*
X4002770Y-10696500I-85090J0D01*
G01*
X4002770Y-10696500D02*
G75*
G02*
X4172950Y-10696500I85090J0D01*
G01*
X4172950Y-12601500D02*
G75*
G02*
X4002770Y-12601500I-85090J0D01*
G01*
X4002770Y-12601500D02*
G75*
G02*
X4172950Y-12601500I85090J0D01*
G01*
X5188950Y-6886500D02*
G75*
G02*
X5018770Y-6886500I-85090J0D01*
G01*
X5018770Y-6886500D02*
G75*
G02*
X5188950Y-6886500I85090J0D01*
G01*
X5188950Y-8791500D02*
G75*
G02*
X5018770Y-8791500I-85090J0D01*
G01*
X5018770Y-8791500D02*
G75*
G02*
X5188950Y-8791500I85090J0D01*
G01*
X5188950Y-10696500D02*
G75*
G02*
X5018770Y-10696500I-85090J0D01*
G01*
X5018770Y-10696500D02*
G75*
G02*
X5188950Y-10696500I85090J0D01*
G01*
X5188950Y-12601500D02*
G75*
G02*
X5018770Y-12601500I-85090J0D01*
G01*
X5018770Y-12601500D02*
G75*
G02*
X5188950Y-12601500I85090J0D01*
G01*
X6077950Y-8791500D02*
G75*
G02*
X5907770Y-8791500I-85090J0D01*
G01*
X5907770Y-8791500D02*
G75*
G02*
X6077950Y-8791500I85090J0D01*
G01*
X6077950Y-10696500D02*
G75*
G02*
X5907770Y-10696500I-85090J0D01*
G01*
X5907770Y-10696500D02*
G75*
G02*
X6077950Y-10696500I85090J0D01*
G01*
X6077950Y-12601500D02*
G75*
G02*
X5907770Y-12601500I-85090J0D01*
G01*
X5907770Y-12601500D02*
G75*
G02*
X6077950Y-12601500I85090J0D01*
G01*
X6077950Y-6886500D02*
G75*
G02*
X5907770Y-6886500I-85090J0D01*
G01*
X5907770Y-6886500D02*
G75*
G02*
X6077950Y-6886500I85090J0D01*
G01*
X7093950Y-8791500D02*
G75*
G02*
X6923770Y-8791500I-85090J0D01*
G01*
X6923770Y-8791500D02*
G75*
G02*
X7093950Y-8791500I85090J0D01*
G01*
X7093950Y-10696500D02*
G75*
G02*
X6923770Y-10696500I-85090J0D01*
G01*
X6923770Y-10696500D02*
G75*
G02*
X7093950Y-10696500I85090J0D01*
G01*
X7093950Y-12601500D02*
G75*
G02*
X6923770Y-12601500I-85090J0D01*
G01*
X6923770Y-12601500D02*
G75*
G02*
X7093950Y-12601500I85090J0D01*
G01*
X7093950Y-6886500D02*
G75*
G02*
X6923770Y-6886500I-85090J0D01*
G01*
X6923770Y-6886500D02*
G75*
G02*
X7093950Y-6886500I85090J0D01*
G01*
X7982950Y-5886500D02*
G75*
G02*
X7812770Y-5886500I-85090J0D01*
G01*
X7812770Y-5886500D02*
G75*
G02*
X7982950Y-5886500I85090J0D01*
G01*
X7982950Y-7791500D02*
G75*
G02*
X7812770Y-7791500I-85090J0D01*
G01*
X7812770Y-7791500D02*
G75*
G02*
X7982950Y-7791500I85090J0D01*
G01*
X7982950Y-9696500D02*
G75*
G02*
X7812770Y-9696500I-85090J0D01*
G01*
X7812770Y-9696500D02*
G75*
G02*
X7982950Y-9696500I85090J0D01*
G01*
X7982950Y-11601500D02*
G75*
G02*
X7812770Y-11601500I-85090J0D01*
G01*
X7812770Y-11601500D02*
G75*
G02*
X7982950Y-11601500I85090J0D01*
G01*
X8998950Y-5886500D02*
G75*
G02*
X8828770Y-5886500I-85090J0D01*
G01*
X8828770Y-5886500D02*
G75*
G02*
X8998950Y-5886500I85090J0D01*
G01*
X8998950Y-7791500D02*
G75*
G02*
X8828770Y-7791500I-85090J0D01*
G01*
X8828770Y-7791500D02*
G75*
G02*
X8998950Y-7791500I85090J0D01*
G01*
X8998950Y-9696500D02*
G75*
G02*
X8828770Y-9696500I-85090J0D01*
G01*
X8828770Y-9696500D02*
G75*
G02*
X8998950Y-9696500I85090J0D01*
G01*
X8998950Y-11601500D02*
G75*
G02*
X8828770Y-11601500I-85090J0D01*
G01*
X8828770Y-11601500D02*
G75*
G02*
X8998950Y-11601500I85090J0D01*
G01*
X9887950Y-5336500D02*
G75*
G02*
X9717770Y-5336500I-85090J0D01*
G01*
X9717770Y-5336500D02*
G75*
G02*
X9887950Y-5336500I85090J0D01*
G01*
X9887950Y-7241500D02*
G75*
G02*
X9717770Y-7241500I-85090J0D01*
G01*
X9717770Y-7241500D02*
G75*
G02*
X9887950Y-7241500I85090J0D01*
G01*
X9887950Y-9146500D02*
G75*
G02*
X9717770Y-9146500I-85090J0D01*
G01*
X9717770Y-9146500D02*
G75*
G02*
X9887950Y-9146500I85090J0D01*
G01*
X9887950Y-11051500D02*
G75*
G02*
X9717770Y-11051500I-85090J0D01*
G01*
X9717770Y-11051500D02*
G75*
G02*
X9887950Y-11051500I85090J0D01*
G01*
X10903950Y-5336500D02*
G75*
G02*
X10733770Y-5336500I-85090J0D01*
G01*
X10733770Y-5336500D02*
G75*
G02*
X10903950Y-5336500I85090J0D01*
G01*
X10903950Y-7241500D02*
G75*
G02*
X10733770Y-7241500I-85090J0D01*
G01*
X10733770Y-7241500D02*
G75*
G02*
X10903950Y-7241500I85090J0D01*
G01*
X10903950Y-9146500D02*
G75*
G02*
X10733770Y-9146500I-85090J0D01*
G01*
X10733770Y-9146500D02*
G75*
G02*
X10903950Y-9146500I85090J0D01*
G01*
X10903950Y-11051500D02*
G75*
G02*
X10733770Y-11051500I-85090J0D01*
G01*
X10733770Y-11051500D02*
G75*
G02*
X10903950Y-11051500I85090J0D01*
G01*
X11792950Y-5886500D02*
G75*
G02*
X11622770Y-5886500I-85090J0D01*
G01*
X11622770Y-5886500D02*
G75*
G02*
X11792950Y-5886500I85090J0D01*
G01*
X11792950Y-7791500D02*
G75*
G02*
X11622770Y-7791500I-85090J0D01*
G01*
X11622770Y-7791500D02*
G75*
G02*
X11792950Y-7791500I85090J0D01*
G01*
X11792950Y-9696500D02*
G75*
G02*
X11622770Y-9696500I-85090J0D01*
G01*
X11622770Y-9696500D02*
G75*
G02*
X11792950Y-9696500I85090J0D01*
G01*
X11792950Y-11601500D02*
G75*
G02*
X11622770Y-11601500I-85090J0D01*
G01*
X11622770Y-11601500D02*
G75*
G02*
X11792950Y-11601500I85090J0D01*
G01*
X12808950Y-5886500D02*
G75*
G02*
X12638770Y-5886500I-85090J0D01*
G01*
X12638770Y-5886500D02*
G75*
G02*
X12808950Y-5886500I85090J0D01*
G01*
X12808950Y-7791500D02*
G75*
G02*
X12638770Y-7791500I-85090J0D01*
G01*
X12638770Y-7791500D02*
G75*
G02*
X12808950Y-7791500I85090J0D01*
G01*
X12808950Y-9696500D02*
G75*
G02*
X12638770Y-9696500I-85090J0D01*
G01*
X12638770Y-9696500D02*
G75*
G02*
X12808950Y-9696500I85090J0D01*
G01*
X12808950Y-11601500D02*
G75*
G02*
X12638770Y-11601500I-85090J0D01*
G01*
X12638770Y-11601500D02*
G75*
G02*
X12808950Y-11601500I85090J0D01*
G01*
X13230590Y-13986500D02*
G75*
G02*
X13060410Y-13986500I-85090J0D01*
G01*
X13060410Y-13986500D02*
G75*
G02*
X13230590Y-13986500I85090J0D01*
G01*
X13697950Y-6128500D02*
G75*
G02*
X13527770Y-6128500I-85090J0D01*
G01*
X13527770Y-6128500D02*
G75*
G02*
X13697950Y-6128500I85090J0D01*
G01*
X13697950Y-8033500D02*
G75*
G02*
X13527770Y-8033500I-85090J0D01*
G01*
X13527770Y-8033500D02*
G75*
G02*
X13697950Y-8033500I85090J0D01*
G01*
X13697950Y-9938500D02*
G75*
G02*
X13527770Y-9938500I-85090J0D01*
G01*
X13527770Y-9938500D02*
G75*
G02*
X13697950Y-9938500I85090J0D01*
G01*
X13697950Y-11843500D02*
G75*
G02*
X13527770Y-11843500I-85090J0D01*
G01*
X13527770Y-11843500D02*
G75*
G02*
X13697950Y-11843500I85090J0D01*
G01*
X14246590Y-13986500D02*
G75*
G02*
X14076410Y-13986500I-85090J0D01*
G01*
X14076410Y-13986500D02*
G75*
G02*
X14246590Y-13986500I85090J0D01*
G01*
X14713950Y-6128500D02*
G75*
G02*
X14543770Y-6128500I-85090J0D01*
G01*
X14543770Y-6128500D02*
G75*
G02*
X14713950Y-6128500I85090J0D01*
G01*
X14713950Y-8033500D02*
G75*
G02*
X14543770Y-8033500I-85090J0D01*
G01*
X14543770Y-8033500D02*
G75*
G02*
X14713950Y-8033500I85090J0D01*
G01*
X14713950Y-9938500D02*
G75*
G02*
X14543770Y-9938500I-85090J0D01*
G01*
X14543770Y-9938500D02*
G75*
G02*
X14713950Y-9938500I85090J0D01*
G01*
X14713950Y-11843500D02*
G75*
G02*
X14543770Y-11843500I-85090J0D01*
G01*
X14543770Y-11843500D02*
G75*
G02*
X14713950Y-11843500I85090J0D01*
G01*
X15333712Y-14025287D02*
G75*
G02*
X15163532Y-14025287I-85090J0D01*
G01*
X15163532Y-14025287D02*
G75*
G02*
X15333712Y-14025287I85090J0D01*
G01*
X16334276Y-14201713D02*
G75*
G02*
X16164096Y-14201713I-85090J0D01*
G01*
X16164096Y-14201713D02*
G75*
G02*
X16334276Y-14201713I85090J0D01*
G01*
X17398474Y-14486579D02*
G75*
G02*
X17228294Y-14486579I-85090J0D01*
G01*
X17228294Y-14486579D02*
G75*
G02*
X17398474Y-14486579I85090J0D01*
G01*
X18333707Y-14883562D02*
G75*
G02*
X18163527Y-14883562I-85090J0D01*
G01*
X18163527Y-14883562D02*
G75*
G02*
X18333707Y-14883562I85090J0D01*
G01*
D14*
X4341860Y-6228500D02*
X4341860Y-6528500D01*
X4191860Y-6378500D02*
X4491860Y-6378500D01*
X4341860Y-7244500D02*
X4341860Y-7544500D01*
X4191860Y-7394500D02*
X4491860Y-7394500D01*
X4341860Y-8133500D02*
X4341860Y-8433500D01*
X4191860Y-8283500D02*
X4491860Y-8283500D01*
X4341860Y-9149500D02*
X4341860Y-9449500D01*
X4191860Y-9299500D02*
X4491860Y-9299500D01*
X4341860Y-10038500D02*
X4341860Y-10338500D01*
X4191860Y-10188500D02*
X4491860Y-10188500D01*
X4341860Y-11054500D02*
X4341860Y-11354500D01*
X4191860Y-11204500D02*
X4491860Y-11204500D01*
X4341860Y-11943500D02*
X4341860Y-12243500D01*
X4191860Y-12093500D02*
X4491860Y-12093500D01*
X4341860Y-12959500D02*
X4341860Y-13259500D01*
X4191860Y-13109500D02*
X4491860Y-13109500D01*
X4976860Y-6482500D02*
X4976860Y-6782500D01*
X4826860Y-6632500D02*
X5126860Y-6632500D01*
X4976860Y-6990500D02*
X4976860Y-7290500D01*
X4826860Y-7140500D02*
X5126860Y-7140500D01*
X4976860Y-8387500D02*
X4976860Y-8687500D01*
X4826860Y-8537500D02*
X5126860Y-8537500D01*
X4976860Y-8895500D02*
X4976860Y-9195500D01*
X4826860Y-9045500D02*
X5126860Y-9045500D01*
X4976860Y-10292500D02*
X4976860Y-10592500D01*
X4826860Y-10442500D02*
X5126860Y-10442500D01*
X4976860Y-10800500D02*
X4976860Y-11100500D01*
X4826860Y-10950500D02*
X5126860Y-10950500D01*
X4976860Y-12197500D02*
X4976860Y-12497500D01*
X4826860Y-12347500D02*
X5126860Y-12347500D01*
X4976860Y-12705500D02*
X4976860Y-13005500D01*
X4826860Y-12855500D02*
X5126860Y-12855500D01*
X6246860Y-8133500D02*
X6246860Y-8433500D01*
X6096860Y-8283500D02*
X6396860Y-8283500D01*
X6246860Y-9149500D02*
X6246860Y-9449500D01*
X6096860Y-9299500D02*
X6396860Y-9299500D01*
X6246860Y-10038500D02*
X6246860Y-10338500D01*
X6096860Y-10188500D02*
X6396860Y-10188500D01*
X6246860Y-11054500D02*
X6246860Y-11354500D01*
X6096860Y-11204500D02*
X6396860Y-11204500D01*
X6246860Y-11943500D02*
X6246860Y-12243500D01*
X6096860Y-12093500D02*
X6396860Y-12093500D01*
X6246860Y-12959500D02*
X6246860Y-13259500D01*
X6096860Y-13109500D02*
X6396860Y-13109500D01*
X6246860Y-6228500D02*
X6246860Y-6528500D01*
X6096860Y-6378500D02*
X6396860Y-6378500D01*
X6246860Y-7244500D02*
X6246860Y-7544500D01*
X6096860Y-7394500D02*
X6396860Y-7394500D01*
X6881860Y-8387500D02*
X6881860Y-8687500D01*
X6731860Y-8537500D02*
X7031860Y-8537500D01*
X6881860Y-8895500D02*
X6881860Y-9195500D01*
X6731860Y-9045500D02*
X7031860Y-9045500D01*
X6881860Y-10292500D02*
X6881860Y-10592500D01*
X6731860Y-10442500D02*
X7031860Y-10442500D01*
X6881860Y-10800500D02*
X6881860Y-11100500D01*
X6731860Y-10950500D02*
X7031860Y-10950500D01*
X6881860Y-12197500D02*
X6881860Y-12497500D01*
X6731860Y-12347500D02*
X7031860Y-12347500D01*
X6881860Y-12705500D02*
X6881860Y-13005500D01*
X6731860Y-12855500D02*
X7031860Y-12855500D01*
X6881860Y-6482500D02*
X6881860Y-6782500D01*
X6731860Y-6632500D02*
X7031860Y-6632500D01*
X6881860Y-6990500D02*
X6881860Y-7290500D01*
X6731860Y-7140500D02*
X7031860Y-7140500D01*
X8151860Y-5228500D02*
X8151860Y-5528500D01*
X8001860Y-5378500D02*
X8301860Y-5378500D01*
X8151860Y-6244500D02*
X8151860Y-6544500D01*
X8001860Y-6394500D02*
X8301860Y-6394500D01*
X8151860Y-7133500D02*
X8151860Y-7433500D01*
X8001860Y-7283500D02*
X8301860Y-7283500D01*
X8151860Y-8149500D02*
X8151860Y-8449500D01*
X8001860Y-8299500D02*
X8301860Y-8299500D01*
X8151860Y-9038500D02*
X8151860Y-9338500D01*
X8001860Y-9188500D02*
X8301860Y-9188500D01*
X8151860Y-10054500D02*
X8151860Y-10354500D01*
X8001860Y-10204500D02*
X8301860Y-10204500D01*
X8151860Y-10943500D02*
X8151860Y-11243500D01*
X8001860Y-11093500D02*
X8301860Y-11093500D01*
X8151860Y-11959500D02*
X8151860Y-12259500D01*
X8001860Y-12109500D02*
X8301860Y-12109500D01*
X8786860Y-5482500D02*
X8786860Y-5782500D01*
X8636860Y-5632500D02*
X8936860Y-5632500D01*
X8786860Y-5990500D02*
X8786860Y-6290500D01*
X8636860Y-6140500D02*
X8936860Y-6140500D01*
X8786860Y-7387500D02*
X8786860Y-7687500D01*
X8636860Y-7537500D02*
X8936860Y-7537500D01*
X8786860Y-7895500D02*
X8786860Y-8195500D01*
X8636860Y-8045500D02*
X8936860Y-8045500D01*
X8786860Y-9292500D02*
X8786860Y-9592500D01*
X8636860Y-9442500D02*
X8936860Y-9442500D01*
X8786860Y-9800500D02*
X8786860Y-10100500D01*
X8636860Y-9950500D02*
X8936860Y-9950500D01*
X8786860Y-11197500D02*
X8786860Y-11497500D01*
X8636860Y-11347500D02*
X8936860Y-11347500D01*
X8786860Y-11705500D02*
X8786860Y-12005500D01*
X8636860Y-11855500D02*
X8936860Y-11855500D01*
X10056860Y-4678500D02*
X10056860Y-4978500D01*
X9906860Y-4828500D02*
X10206860Y-4828500D01*
X10056860Y-5694500D02*
X10056860Y-5994500D01*
X9906860Y-5844500D02*
X10206860Y-5844500D01*
X10056860Y-6583500D02*
X10056860Y-6883500D01*
X9906860Y-6733500D02*
X10206860Y-6733500D01*
X10056860Y-7599500D02*
X10056860Y-7899500D01*
X9906860Y-7749500D02*
X10206860Y-7749500D01*
X10056860Y-8488500D02*
X10056860Y-8788500D01*
X9906860Y-8638500D02*
X10206860Y-8638500D01*
X10056860Y-9504500D02*
X10056860Y-9804500D01*
X9906860Y-9654500D02*
X10206860Y-9654500D01*
X10056860Y-10393500D02*
X10056860Y-10693500D01*
X9906860Y-10543500D02*
X10206860Y-10543500D01*
X10056860Y-11409500D02*
X10056860Y-11709500D01*
X9906860Y-11559500D02*
X10206860Y-11559500D01*
X10691860Y-4932500D02*
X10691860Y-5232500D01*
X10541860Y-5082500D02*
X10841860Y-5082500D01*
X10691860Y-5440500D02*
X10691860Y-5740500D01*
X10541860Y-5590500D02*
X10841860Y-5590500D01*
X10691860Y-6837500D02*
X10691860Y-7137500D01*
X10541860Y-6987500D02*
X10841860Y-6987500D01*
X10691860Y-7345500D02*
X10691860Y-7645500D01*
X10541860Y-7495500D02*
X10841860Y-7495500D01*
X10691860Y-8742500D02*
X10691860Y-9042500D01*
X10541860Y-8892500D02*
X10841860Y-8892500D01*
X10691860Y-9250500D02*
X10691860Y-9550500D01*
X10541860Y-9400500D02*
X10841860Y-9400500D01*
X10691860Y-10647500D02*
X10691860Y-10947500D01*
X10541860Y-10797500D02*
X10841860Y-10797500D01*
X10691860Y-11155500D02*
X10691860Y-11455500D01*
X10541860Y-11305500D02*
X10841860Y-11305500D01*
X11961860Y-5228500D02*
X11961860Y-5528500D01*
X11811860Y-5378500D02*
X12111860Y-5378500D01*
X11961860Y-6244500D02*
X11961860Y-6544500D01*
X11811860Y-6394500D02*
X12111860Y-6394500D01*
X11961860Y-7133500D02*
X11961860Y-7433500D01*
X11811860Y-7283500D02*
X12111860Y-7283500D01*
X11961860Y-8149500D02*
X11961860Y-8449500D01*
X11811860Y-8299500D02*
X12111860Y-8299500D01*
X11961860Y-9038500D02*
X11961860Y-9338500D01*
X11811860Y-9188500D02*
X12111860Y-9188500D01*
X11961860Y-10054500D02*
X11961860Y-10354500D01*
X11811860Y-10204500D02*
X12111860Y-10204500D01*
X11961860Y-10943500D02*
X11961860Y-11243500D01*
X11811860Y-11093500D02*
X12111860Y-11093500D01*
X11961860Y-11959500D02*
X11961860Y-12259500D01*
X11811860Y-12109500D02*
X12111860Y-12109500D01*
X12596860Y-5482500D02*
X12596860Y-5782500D01*
X12446860Y-5632500D02*
X12746860Y-5632500D01*
X12596860Y-5990500D02*
X12596860Y-6290500D01*
X12446860Y-6140500D02*
X12746860Y-6140500D01*
X12596860Y-7387500D02*
X12596860Y-7687500D01*
X12446860Y-7537500D02*
X12746860Y-7537500D01*
X12596860Y-7895500D02*
X12596860Y-8195500D01*
X12446860Y-8045500D02*
X12746860Y-8045500D01*
X12596860Y-9292500D02*
X12596860Y-9592500D01*
X12446860Y-9442500D02*
X12746860Y-9442500D01*
X12596860Y-9800500D02*
X12596860Y-10100500D01*
X12446860Y-9950500D02*
X12746860Y-9950500D01*
X12596860Y-11197500D02*
X12596860Y-11497500D01*
X12446860Y-11347500D02*
X12746860Y-11347500D01*
X12596860Y-11705500D02*
X12596860Y-12005500D01*
X12446860Y-11855500D02*
X12746860Y-11855500D01*
X13399500Y-13328500D02*
X13399500Y-13628500D01*
X13249500Y-13478500D02*
X13549500Y-13478500D01*
X13399500Y-14344500D02*
X13399500Y-14644500D01*
X13249500Y-14494500D02*
X13549500Y-14494500D01*
X13866860Y-5470500D02*
X13866860Y-5770500D01*
X13716860Y-5620500D02*
X14016860Y-5620500D01*
X13866860Y-6486500D02*
X13866860Y-6786500D01*
X13716860Y-6636500D02*
X14016860Y-6636500D01*
X13866860Y-7375500D02*
X13866860Y-7675500D01*
X13716860Y-7525500D02*
X14016860Y-7525500D01*
X13866860Y-8391500D02*
X13866860Y-8691500D01*
X13716860Y-8541500D02*
X14016860Y-8541500D01*
X13866860Y-9280500D02*
X13866860Y-9580500D01*
X13716860Y-9430500D02*
X14016860Y-9430500D01*
X13866860Y-10296500D02*
X13866860Y-10596500D01*
X13716860Y-10446500D02*
X14016860Y-10446500D01*
X13866860Y-11185500D02*
X13866860Y-11485500D01*
X13716860Y-11335500D02*
X14016860Y-11335500D01*
X13866860Y-12201500D02*
X13866860Y-12501500D01*
X13716860Y-12351500D02*
X14016860Y-12351500D01*
X14034500Y-13582500D02*
X14034500Y-13882500D01*
X13884500Y-13732500D02*
X14184500Y-13732500D01*
X14034500Y-14090500D02*
X14034500Y-14390500D01*
X13884500Y-14240500D02*
X14184500Y-14240500D01*
X14501860Y-5724500D02*
X14501860Y-6024500D01*
X14351860Y-5874500D02*
X14651860Y-5874500D01*
X14501860Y-6232500D02*
X14501860Y-6532500D01*
X14351860Y-6382500D02*
X14651860Y-6382500D01*
X14501860Y-7629500D02*
X14501860Y-7929500D01*
X14351860Y-7779500D02*
X14651860Y-7779500D01*
X14501860Y-8137500D02*
X14501860Y-8437500D01*
X14351860Y-8287500D02*
X14651860Y-8287500D01*
X14501860Y-9534500D02*
X14501860Y-9834500D01*
X14351860Y-9684500D02*
X14651860Y-9684500D01*
X14501860Y-10042500D02*
X14501860Y-10342500D01*
X14351860Y-10192500D02*
X14651860Y-10192500D01*
X14501860Y-11439500D02*
X14501860Y-11739500D01*
X14351860Y-11589500D02*
X14651860Y-11589500D01*
X14501860Y-11947500D02*
X14501860Y-12247500D01*
X14351860Y-12097500D02*
X14651860Y-12097500D01*
X15410550Y-14419676D02*
X15410550Y-14719676D01*
X15260550Y-14569676D02*
X15560550Y-14569676D01*
X15586976Y-13419111D02*
X15586976Y-13719111D01*
X15436976Y-13569111D02*
X15736976Y-13569111D01*
X16080009Y-14279801D02*
X16080009Y-14579801D01*
X15930009Y-14429801D02*
X16230009Y-14429801D01*
X16168222Y-13779519D02*
X16168222Y-14079519D01*
X16018222Y-13929519D02*
X16318222Y-13929519D01*
X17348700Y-14903442D02*
X17348700Y-15203442D01*
X17198700Y-15053442D02*
X17498700Y-15053442D01*
X17745683Y-13968209D02*
X17745683Y-14268209D01*
X17595683Y-14118209D02*
X17895683Y-14118209D01*
X18032467Y-14917748D02*
X18032467Y-15217748D01*
X17882467Y-15067748D02*
X18182467Y-15067748D01*
X18230958Y-14450131D02*
X18230958Y-14750131D01*
X18080958Y-14600131D02*
X18380958Y-14600131D01*
D15*
X4736851Y-7027491D02*
X4736851Y-6745509D01*
X4454869Y-6745509D01*
X4454869Y-7027491D01*
X4736851Y-7027491D01*
X4736851Y-8932491D02*
X4736851Y-8650509D01*
X4454869Y-8650509D01*
X4454869Y-8932491D01*
X4736851Y-8932491D01*
X4736851Y-10837491D02*
X4736851Y-10555509D01*
X4454869Y-10555509D01*
X4454869Y-10837491D01*
X4736851Y-10837491D01*
X4736851Y-12742491D02*
X4736851Y-12460509D01*
X4454869Y-12460509D01*
X4454869Y-12742491D01*
X4736851Y-12742491D01*
X6641851Y-8932491D02*
X6641851Y-8650509D01*
X6359869Y-8650509D01*
X6359869Y-8932491D01*
X6641851Y-8932491D01*
X6641851Y-10837491D02*
X6641851Y-10555509D01*
X6359869Y-10555509D01*
X6359869Y-10837491D01*
X6641851Y-10837491D01*
X6641851Y-12742491D02*
X6641851Y-12460509D01*
X6359869Y-12460509D01*
X6359869Y-12742491D01*
X6641851Y-12742491D01*
X6641851Y-7027491D02*
X6641851Y-6745509D01*
X6359869Y-6745509D01*
X6359869Y-7027491D01*
X6641851Y-7027491D01*
X8546851Y-6027491D02*
X8546851Y-5745509D01*
X8264869Y-5745509D01*
X8264869Y-6027491D01*
X8546851Y-6027491D01*
X8546851Y-7932491D02*
X8546851Y-7650509D01*
X8264869Y-7650509D01*
X8264869Y-7932491D01*
X8546851Y-7932491D01*
X8546851Y-9837491D02*
X8546851Y-9555509D01*
X8264869Y-9555509D01*
X8264869Y-9837491D01*
X8546851Y-9837491D01*
X8546851Y-11742491D02*
X8546851Y-11460509D01*
X8264869Y-11460509D01*
X8264869Y-11742491D01*
X8546851Y-11742491D01*
X10451851Y-5477491D02*
X10451851Y-5195509D01*
X10169869Y-5195509D01*
X10169869Y-5477491D01*
X10451851Y-5477491D01*
X10451851Y-7382491D02*
X10451851Y-7100509D01*
X10169869Y-7100509D01*
X10169869Y-7382491D01*
X10451851Y-7382491D01*
X10451851Y-9287491D02*
X10451851Y-9005509D01*
X10169869Y-9005509D01*
X10169869Y-9287491D01*
X10451851Y-9287491D01*
X10451851Y-11192491D02*
X10451851Y-10910509D01*
X10169869Y-10910509D01*
X10169869Y-11192491D01*
X10451851Y-11192491D01*
X12356851Y-6027491D02*
X12356851Y-5745509D01*
X12074869Y-5745509D01*
X12074869Y-6027491D01*
X12356851Y-6027491D01*
X12356851Y-7932491D02*
X12356851Y-7650509D01*
X12074869Y-7650509D01*
X12074869Y-7932491D01*
X12356851Y-7932491D01*
X12356851Y-9837491D02*
X12356851Y-9555509D01*
X12074869Y-9555509D01*
X12074869Y-9837491D01*
X12356851Y-9837491D01*
X12356851Y-11742491D02*
X12356851Y-11460509D01*
X12074869Y-11460509D01*
X12074869Y-11742491D01*
X12356851Y-11742491D01*
X13794491Y-14127491D02*
X13794491Y-13845509D01*
X13512509Y-13845509D01*
X13512509Y-14127491D01*
X13794491Y-14127491D01*
X14261851Y-6269491D02*
X14261851Y-5987509D01*
X13979869Y-5987509D01*
X13979869Y-6269491D01*
X14261851Y-6269491D01*
X14261851Y-8174491D02*
X14261851Y-7892509D01*
X13979869Y-7892509D01*
X13979869Y-8174491D01*
X14261851Y-8174491D01*
X14261851Y-10079491D02*
X14261851Y-9797509D01*
X13979869Y-9797509D01*
X13979869Y-10079491D01*
X14261851Y-10079491D01*
X14261851Y-11984491D02*
X14261851Y-11702509D01*
X13979869Y-11702509D01*
X13979869Y-11984491D01*
X14261851Y-11984491D01*
X15889895Y-14254491D02*
X15889895Y-13972509D01*
X15607913Y-13972509D01*
X15607913Y-14254491D01*
X15889895Y-14254491D01*
X17921991Y-14826062D02*
X17921991Y-14544079D01*
X17640009Y-14544079D01*
X17640009Y-14826062D01*
X17921991Y-14826062D01*
D11*
X3904732Y-16184813D02*
X3904732Y-15984813D01*
X3904732Y-15984813D02*
X3952351Y-15984813D01*
X3952351Y-15984813D02*
X3980922Y-15994337D01*
X3980922Y-15994337D02*
X3999970Y-16013384D01*
X3999970Y-16013384D02*
X4009494Y-16032432D01*
X4009494Y-16032432D02*
X4019017Y-16070527D01*
X4019017Y-16070527D02*
X4019017Y-16099099D01*
X4019017Y-16099099D02*
X4009494Y-16137194D01*
X4009494Y-16137194D02*
X3999970Y-16156241D01*
X3999970Y-16156241D02*
X3980922Y-16175289D01*
X3980922Y-16175289D02*
X3952351Y-16184813D01*
X3952351Y-16184813D02*
X3904732Y-16184813D01*
X4104732Y-16184813D02*
X4104732Y-16051479D01*
X4104732Y-16089575D02*
X4114256Y-16070527D01*
X4114256Y-16070527D02*
X4123779Y-16061003D01*
X4123779Y-16061003D02*
X4142827Y-16051479D01*
X4142827Y-16051479D02*
X4161875Y-16051479D01*
X4228541Y-16184813D02*
X4228541Y-16051479D01*
X4228541Y-15984813D02*
X4219018Y-15994337D01*
X4219018Y-15994337D02*
X4228541Y-16003860D01*
X4228541Y-16003860D02*
X4238065Y-15994337D01*
X4238065Y-15994337D02*
X4228541Y-15984813D01*
X4228541Y-15984813D02*
X4228541Y-16003860D01*
X4352351Y-16184813D02*
X4333303Y-16175289D01*
X4333303Y-16175289D02*
X4323779Y-16156241D01*
X4323779Y-16156241D02*
X4323779Y-15984813D01*
X4457113Y-16184813D02*
X4438065Y-16175289D01*
X4438065Y-16175289D02*
X4428541Y-16156241D01*
X4428541Y-16156241D02*
X4428541Y-15984813D01*
X4685684Y-16184813D02*
X4685684Y-15984813D01*
X4685684Y-15984813D02*
X4752351Y-16127670D01*
X4752351Y-16127670D02*
X4819018Y-15984813D01*
X4819018Y-15984813D02*
X4819018Y-16184813D01*
X4999970Y-16184813D02*
X4999970Y-16080051D01*
X4999970Y-16080051D02*
X4990446Y-16061003D01*
X4990446Y-16061003D02*
X4971399Y-16051479D01*
X4971399Y-16051479D02*
X4933303Y-16051479D01*
X4933303Y-16051479D02*
X4914256Y-16061003D01*
X4999970Y-16175289D02*
X4980922Y-16184813D01*
X4980922Y-16184813D02*
X4933303Y-16184813D01*
X4933303Y-16184813D02*
X4914256Y-16175289D01*
X4914256Y-16175289D02*
X4904732Y-16156241D01*
X4904732Y-16156241D02*
X4904732Y-16137194D01*
X4904732Y-16137194D02*
X4914256Y-16118146D01*
X4914256Y-16118146D02*
X4933303Y-16108622D01*
X4933303Y-16108622D02*
X4980922Y-16108622D01*
X4980922Y-16108622D02*
X4999970Y-16099099D01*
X5095208Y-16051479D02*
X5095208Y-16251479D01*
X5095208Y-16061003D02*
X5114256Y-16051479D01*
X5114256Y-16051479D02*
X5152351Y-16051479D01*
X5152351Y-16051479D02*
X5171399Y-16061003D01*
X5171399Y-16061003D02*
X5180922Y-16070527D01*
X5180922Y-16070527D02*
X5190446Y-16089575D01*
X5190446Y-16089575D02*
X5190446Y-16146718D01*
X5190446Y-16146718D02*
X5180922Y-16165765D01*
X5180922Y-16165765D02*
X5171399Y-16175289D01*
X5171399Y-16175289D02*
X5152351Y-16184813D01*
X5152351Y-16184813D02*
X5114256Y-16184813D01*
X5114256Y-16184813D02*
X5095208Y-16175289D01*
X5276160Y-16165765D02*
X5285684Y-16175289D01*
X5285684Y-16175289D02*
X5276160Y-16184813D01*
X5276160Y-16184813D02*
X5266637Y-16175289D01*
X5266637Y-16175289D02*
X5276160Y-16165765D01*
X5276160Y-16165765D02*
X5276160Y-16184813D01*
X5276160Y-16061003D02*
X5285684Y-16070527D01*
X5285684Y-16070527D02*
X5276160Y-16080051D01*
X5276160Y-16080051D02*
X5266637Y-16070527D01*
X5266637Y-16070527D02*
X5276160Y-16061003D01*
X5276160Y-16061003D02*
X5276160Y-16080051D01*
D12*
X3578955Y-16480829D02*
X3643955Y-16545829D01*
X3643955Y-16480829D02*
X3578955Y-16545829D01*
D11*
X3942827Y-16404813D02*
X3961875Y-16404813D01*
X3961875Y-16404813D02*
X3980922Y-16414337D01*
X3980922Y-16414337D02*
X3990446Y-16423860D01*
X3990446Y-16423860D02*
X3999970Y-16442908D01*
X3999970Y-16442908D02*
X4009494Y-16481003D01*
X4009494Y-16481003D02*
X4009494Y-16528622D01*
X4009494Y-16528622D02*
X3999970Y-16566718D01*
X3999970Y-16566718D02*
X3990446Y-16585765D01*
X3990446Y-16585765D02*
X3980922Y-16595289D01*
X3980922Y-16595289D02*
X3961875Y-16604813D01*
X3961875Y-16604813D02*
X3942827Y-16604813D01*
X3942827Y-16604813D02*
X3923779Y-16595289D01*
X3923779Y-16595289D02*
X3914256Y-16585765D01*
X3914256Y-16585765D02*
X3904732Y-16566718D01*
X3904732Y-16566718D02*
X3895208Y-16528622D01*
X3895208Y-16528622D02*
X3895208Y-16481003D01*
X3895208Y-16481003D02*
X3904732Y-16442908D01*
X3904732Y-16442908D02*
X3914256Y-16423860D01*
X3914256Y-16423860D02*
X3923779Y-16414337D01*
X3923779Y-16414337D02*
X3942827Y-16404813D01*
X4095208Y-16585765D02*
X4104732Y-16595289D01*
X4104732Y-16595289D02*
X4095208Y-16604813D01*
X4095208Y-16604813D02*
X4085684Y-16595289D01*
X4085684Y-16595289D02*
X4095208Y-16585765D01*
X4095208Y-16585765D02*
X4095208Y-16604813D01*
X4276160Y-16404813D02*
X4238065Y-16404813D01*
X4238065Y-16404813D02*
X4219018Y-16414337D01*
X4219018Y-16414337D02*
X4209494Y-16423860D01*
X4209494Y-16423860D02*
X4190446Y-16452432D01*
X4190446Y-16452432D02*
X4180922Y-16490527D01*
X4180922Y-16490527D02*
X4180922Y-16566718D01*
X4180922Y-16566718D02*
X4190446Y-16585765D01*
X4190446Y-16585765D02*
X4199970Y-16595289D01*
X4199970Y-16595289D02*
X4219018Y-16604813D01*
X4219018Y-16604813D02*
X4257113Y-16604813D01*
X4257113Y-16604813D02*
X4276160Y-16595289D01*
X4276160Y-16595289D02*
X4285684Y-16585765D01*
X4285684Y-16585765D02*
X4295208Y-16566718D01*
X4295208Y-16566718D02*
X4295208Y-16519099D01*
X4295208Y-16519099D02*
X4285684Y-16500051D01*
X4285684Y-16500051D02*
X4276160Y-16490527D01*
X4276160Y-16490527D02*
X4257113Y-16481003D01*
X4257113Y-16481003D02*
X4219018Y-16481003D01*
X4219018Y-16481003D02*
X4199970Y-16490527D01*
X4199970Y-16490527D02*
X4190446Y-16500051D01*
X4190446Y-16500051D02*
X4180922Y-16519099D01*
X4476160Y-16404813D02*
X4380922Y-16404813D01*
X4380922Y-16404813D02*
X4371399Y-16500051D01*
X4371399Y-16500051D02*
X4380922Y-16490527D01*
X4380922Y-16490527D02*
X4399970Y-16481003D01*
X4399970Y-16481003D02*
X4447589Y-16481003D01*
X4447589Y-16481003D02*
X4466637Y-16490527D01*
X4466637Y-16490527D02*
X4476160Y-16500051D01*
X4476160Y-16500051D02*
X4485684Y-16519099D01*
X4485684Y-16519099D02*
X4485684Y-16566718D01*
X4485684Y-16566718D02*
X4476160Y-16585765D01*
X4476160Y-16585765D02*
X4466637Y-16595289D01*
X4466637Y-16595289D02*
X4447589Y-16604813D01*
X4447589Y-16604813D02*
X4399970Y-16604813D01*
X4399970Y-16604813D02*
X4380922Y-16595289D01*
X4380922Y-16595289D02*
X4371399Y-16585765D01*
X4609494Y-16404813D02*
X4628541Y-16404813D01*
X4628541Y-16404813D02*
X4647589Y-16414337D01*
X4647589Y-16414337D02*
X4657113Y-16423860D01*
X4657113Y-16423860D02*
X4666637Y-16442908D01*
X4666637Y-16442908D02*
X4676160Y-16481003D01*
X4676160Y-16481003D02*
X4676160Y-16528622D01*
X4676160Y-16528622D02*
X4666637Y-16566718D01*
X4666637Y-16566718D02*
X4657113Y-16585765D01*
X4657113Y-16585765D02*
X4647589Y-16595289D01*
X4647589Y-16595289D02*
X4628541Y-16604813D01*
X4628541Y-16604813D02*
X4609494Y-16604813D01*
X4609494Y-16604813D02*
X4590446Y-16595289D01*
X4590446Y-16595289D02*
X4580922Y-16585765D01*
X4580922Y-16585765D02*
X4571399Y-16566718D01*
X4571399Y-16566718D02*
X4561875Y-16528622D01*
X4561875Y-16528622D02*
X4561875Y-16481003D01*
X4561875Y-16481003D02*
X4571399Y-16442908D01*
X4571399Y-16442908D02*
X4580922Y-16423860D01*
X4580922Y-16423860D02*
X4590446Y-16414337D01*
X4590446Y-16414337D02*
X4609494Y-16404813D01*
X4761875Y-16604813D02*
X4761875Y-16471479D01*
X4761875Y-16490527D02*
X4771399Y-16481003D01*
X4771399Y-16481003D02*
X4790446Y-16471479D01*
X4790446Y-16471479D02*
X4819018Y-16471479D01*
X4819018Y-16471479D02*
X4838065Y-16481003D01*
X4838065Y-16481003D02*
X4847589Y-16500051D01*
X4847589Y-16500051D02*
X4847589Y-16604813D01*
X4847589Y-16500051D02*
X4857113Y-16481003D01*
X4857113Y-16481003D02*
X4876160Y-16471479D01*
X4876160Y-16471479D02*
X4904732Y-16471479D01*
X4904732Y-16471479D02*
X4923780Y-16481003D01*
X4923780Y-16481003D02*
X4933303Y-16500051D01*
X4933303Y-16500051D02*
X4933303Y-16604813D01*
X5028541Y-16604813D02*
X5028541Y-16471479D01*
X5028541Y-16490527D02*
X5038065Y-16481003D01*
X5038065Y-16481003D02*
X5057113Y-16471479D01*
X5057113Y-16471479D02*
X5085684Y-16471479D01*
X5085684Y-16471479D02*
X5104732Y-16481003D01*
X5104732Y-16481003D02*
X5114256Y-16500051D01*
X5114256Y-16500051D02*
X5114256Y-16604813D01*
X5114256Y-16500051D02*
X5123780Y-16481003D01*
X5123780Y-16481003D02*
X5142827Y-16471479D01*
X5142827Y-16471479D02*
X5171399Y-16471479D01*
X5171399Y-16471479D02*
X5190446Y-16481003D01*
X5190446Y-16481003D02*
X5199970Y-16500051D01*
X5199970Y-16500051D02*
X5199970Y-16604813D01*
X5590446Y-16395289D02*
X5419018Y-16652432D01*
X5847589Y-16404813D02*
X5866637Y-16404813D01*
X5866637Y-16404813D02*
X5885684Y-16414337D01*
X5885684Y-16414337D02*
X5895208Y-16423860D01*
X5895208Y-16423860D02*
X5904732Y-16442908D01*
X5904732Y-16442908D02*
X5914256Y-16481003D01*
X5914256Y-16481003D02*
X5914256Y-16528622D01*
X5914256Y-16528622D02*
X5904732Y-16566718D01*
X5904732Y-16566718D02*
X5895208Y-16585765D01*
X5895208Y-16585765D02*
X5885684Y-16595289D01*
X5885684Y-16595289D02*
X5866637Y-16604813D01*
X5866637Y-16604813D02*
X5847589Y-16604813D01*
X5847589Y-16604813D02*
X5828541Y-16595289D01*
X5828541Y-16595289D02*
X5819018Y-16585765D01*
X5819018Y-16585765D02*
X5809494Y-16566718D01*
X5809494Y-16566718D02*
X5799970Y-16528622D01*
X5799970Y-16528622D02*
X5799970Y-16481003D01*
X5799970Y-16481003D02*
X5809494Y-16442908D01*
X5809494Y-16442908D02*
X5819018Y-16423860D01*
X5819018Y-16423860D02*
X5828541Y-16414337D01*
X5828541Y-16414337D02*
X5847589Y-16404813D01*
X5999970Y-16585765D02*
X6009494Y-16595289D01*
X6009494Y-16595289D02*
X5999970Y-16604813D01*
X5999970Y-16604813D02*
X5990446Y-16595289D01*
X5990446Y-16595289D02*
X5999970Y-16585765D01*
X5999970Y-16585765D02*
X5999970Y-16604813D01*
X6133303Y-16404813D02*
X6152351Y-16404813D01*
X6152351Y-16404813D02*
X6171399Y-16414337D01*
X6171399Y-16414337D02*
X6180922Y-16423860D01*
X6180922Y-16423860D02*
X6190446Y-16442908D01*
X6190446Y-16442908D02*
X6199970Y-16481003D01*
X6199970Y-16481003D02*
X6199970Y-16528622D01*
X6199970Y-16528622D02*
X6190446Y-16566718D01*
X6190446Y-16566718D02*
X6180922Y-16585765D01*
X6180922Y-16585765D02*
X6171399Y-16595289D01*
X6171399Y-16595289D02*
X6152351Y-16604813D01*
X6152351Y-16604813D02*
X6133303Y-16604813D01*
X6133303Y-16604813D02*
X6114256Y-16595289D01*
X6114256Y-16595289D02*
X6104732Y-16585765D01*
X6104732Y-16585765D02*
X6095208Y-16566718D01*
X6095208Y-16566718D02*
X6085684Y-16528622D01*
X6085684Y-16528622D02*
X6085684Y-16481003D01*
X6085684Y-16481003D02*
X6095208Y-16442908D01*
X6095208Y-16442908D02*
X6104732Y-16423860D01*
X6104732Y-16423860D02*
X6114256Y-16414337D01*
X6114256Y-16414337D02*
X6133303Y-16404813D01*
X6276161Y-16423860D02*
X6285684Y-16414337D01*
X6285684Y-16414337D02*
X6304732Y-16404813D01*
X6304732Y-16404813D02*
X6352351Y-16404813D01*
X6352351Y-16404813D02*
X6371399Y-16414337D01*
X6371399Y-16414337D02*
X6380922Y-16423860D01*
X6380922Y-16423860D02*
X6390446Y-16442908D01*
X6390446Y-16442908D02*
X6390446Y-16461956D01*
X6390446Y-16461956D02*
X6380922Y-16490527D01*
X6380922Y-16490527D02*
X6266637Y-16604813D01*
X6266637Y-16604813D02*
X6390446Y-16604813D01*
X6571399Y-16404813D02*
X6476161Y-16404813D01*
X6476161Y-16404813D02*
X6466637Y-16500051D01*
X6466637Y-16500051D02*
X6476161Y-16490527D01*
X6476161Y-16490527D02*
X6495208Y-16481003D01*
X6495208Y-16481003D02*
X6542827Y-16481003D01*
X6542827Y-16481003D02*
X6561875Y-16490527D01*
X6561875Y-16490527D02*
X6571399Y-16500051D01*
X6571399Y-16500051D02*
X6580922Y-16519099D01*
X6580922Y-16519099D02*
X6580922Y-16566718D01*
X6580922Y-16566718D02*
X6571399Y-16585765D01*
X6571399Y-16585765D02*
X6561875Y-16595289D01*
X6561875Y-16595289D02*
X6542827Y-16604813D01*
X6542827Y-16604813D02*
X6495208Y-16604813D01*
X6495208Y-16604813D02*
X6476161Y-16595289D01*
X6476161Y-16595289D02*
X6466637Y-16585765D01*
X6752351Y-16404813D02*
X6714256Y-16404813D01*
X6714256Y-16404813D02*
X6695208Y-16414337D01*
X6695208Y-16414337D02*
X6685684Y-16423860D01*
X6685684Y-16423860D02*
X6666637Y-16452432D01*
X6666637Y-16452432D02*
X6657113Y-16490527D01*
X6657113Y-16490527D02*
X6657113Y-16566718D01*
X6657113Y-16566718D02*
X6666637Y-16585765D01*
X6666637Y-16585765D02*
X6676161Y-16595289D01*
X6676161Y-16595289D02*
X6695208Y-16604813D01*
X6695208Y-16604813D02*
X6733303Y-16604813D01*
X6733303Y-16604813D02*
X6752351Y-16595289D01*
X6752351Y-16595289D02*
X6761875Y-16585765D01*
X6761875Y-16585765D02*
X6771399Y-16566718D01*
X6771399Y-16566718D02*
X6771399Y-16519099D01*
X6771399Y-16519099D02*
X6761875Y-16500051D01*
X6761875Y-16500051D02*
X6752351Y-16490527D01*
X6752351Y-16490527D02*
X6733303Y-16481003D01*
X6733303Y-16481003D02*
X6695208Y-16481003D01*
X6695208Y-16481003D02*
X6676161Y-16490527D01*
X6676161Y-16490527D02*
X6666637Y-16500051D01*
X6666637Y-16500051D02*
X6657113Y-16519099D01*
X6847589Y-16404813D02*
X6847589Y-16442908D01*
X6923780Y-16404813D02*
X6923780Y-16442908D01*
X7219018Y-16681003D02*
X7209494Y-16671479D01*
X7209494Y-16671479D02*
X7190446Y-16642908D01*
X7190446Y-16642908D02*
X7180923Y-16623860D01*
X7180923Y-16623860D02*
X7171399Y-16595289D01*
X7171399Y-16595289D02*
X7161875Y-16547670D01*
X7161875Y-16547670D02*
X7161875Y-16509575D01*
X7161875Y-16509575D02*
X7171399Y-16461956D01*
X7171399Y-16461956D02*
X7180923Y-16433384D01*
X7180923Y-16433384D02*
X7190446Y-16414337D01*
X7190446Y-16414337D02*
X7209494Y-16385765D01*
X7209494Y-16385765D02*
X7219018Y-16376241D01*
X7285684Y-16423860D02*
X7295208Y-16414337D01*
X7295208Y-16414337D02*
X7314256Y-16404813D01*
X7314256Y-16404813D02*
X7361875Y-16404813D01*
X7361875Y-16404813D02*
X7380923Y-16414337D01*
X7380923Y-16414337D02*
X7390446Y-16423860D01*
X7390446Y-16423860D02*
X7399970Y-16442908D01*
X7399970Y-16442908D02*
X7399970Y-16461956D01*
X7399970Y-16461956D02*
X7390446Y-16490527D01*
X7390446Y-16490527D02*
X7276161Y-16604813D01*
X7276161Y-16604813D02*
X7399970Y-16604813D01*
X7638065Y-16604813D02*
X7638065Y-16404813D01*
X7723780Y-16604813D02*
X7723780Y-16500051D01*
X7723780Y-16500051D02*
X7714256Y-16481003D01*
X7714256Y-16481003D02*
X7695208Y-16471479D01*
X7695208Y-16471479D02*
X7666637Y-16471479D01*
X7666637Y-16471479D02*
X7647589Y-16481003D01*
X7647589Y-16481003D02*
X7638065Y-16490527D01*
X7847589Y-16604813D02*
X7828542Y-16595289D01*
X7828542Y-16595289D02*
X7819018Y-16585765D01*
X7819018Y-16585765D02*
X7809494Y-16566718D01*
X7809494Y-16566718D02*
X7809494Y-16509575D01*
X7809494Y-16509575D02*
X7819018Y-16490527D01*
X7819018Y-16490527D02*
X7828542Y-16481003D01*
X7828542Y-16481003D02*
X7847589Y-16471479D01*
X7847589Y-16471479D02*
X7876161Y-16471479D01*
X7876161Y-16471479D02*
X7895208Y-16481003D01*
X7895208Y-16481003D02*
X7904732Y-16490527D01*
X7904732Y-16490527D02*
X7914256Y-16509575D01*
X7914256Y-16509575D02*
X7914256Y-16566718D01*
X7914256Y-16566718D02*
X7904732Y-16585765D01*
X7904732Y-16585765D02*
X7895208Y-16595289D01*
X7895208Y-16595289D02*
X7876161Y-16604813D01*
X7876161Y-16604813D02*
X7847589Y-16604813D01*
X8028542Y-16604813D02*
X8009494Y-16595289D01*
X8009494Y-16595289D02*
X7999970Y-16576241D01*
X7999970Y-16576241D02*
X7999970Y-16404813D01*
X8180923Y-16595289D02*
X8161875Y-16604813D01*
X8161875Y-16604813D02*
X8123780Y-16604813D01*
X8123780Y-16604813D02*
X8104732Y-16595289D01*
X8104732Y-16595289D02*
X8095208Y-16576241D01*
X8095208Y-16576241D02*
X8095208Y-16500051D01*
X8095208Y-16500051D02*
X8104732Y-16481003D01*
X8104732Y-16481003D02*
X8123780Y-16471479D01*
X8123780Y-16471479D02*
X8161875Y-16471479D01*
X8161875Y-16471479D02*
X8180923Y-16481003D01*
X8180923Y-16481003D02*
X8190446Y-16500051D01*
X8190446Y-16500051D02*
X8190446Y-16519099D01*
X8190446Y-16519099D02*
X8095208Y-16538146D01*
X8266637Y-16595289D02*
X8285685Y-16604813D01*
X8285685Y-16604813D02*
X8323780Y-16604813D01*
X8323780Y-16604813D02*
X8342827Y-16595289D01*
X8342827Y-16595289D02*
X8352351Y-16576241D01*
X8352351Y-16576241D02*
X8352351Y-16566718D01*
X8352351Y-16566718D02*
X8342827Y-16547670D01*
X8342827Y-16547670D02*
X8323780Y-16538146D01*
X8323780Y-16538146D02*
X8295208Y-16538146D01*
X8295208Y-16538146D02*
X8276161Y-16528622D01*
X8276161Y-16528622D02*
X8266637Y-16509575D01*
X8266637Y-16509575D02*
X8266637Y-16500051D01*
X8266637Y-16500051D02*
X8276161Y-16481003D01*
X8276161Y-16481003D02*
X8295208Y-16471479D01*
X8295208Y-16471479D02*
X8323780Y-16471479D01*
X8323780Y-16471479D02*
X8342827Y-16481003D01*
X8590447Y-16528622D02*
X8742828Y-16528622D01*
X8666637Y-16604813D02*
X8666637Y-16452432D01*
X8980923Y-16423860D02*
X8990447Y-16414337D01*
X8990447Y-16414337D02*
X9009494Y-16404813D01*
X9009494Y-16404813D02*
X9057113Y-16404813D01*
X9057113Y-16404813D02*
X9076161Y-16414337D01*
X9076161Y-16414337D02*
X9085685Y-16423860D01*
X9085685Y-16423860D02*
X9095209Y-16442908D01*
X9095209Y-16442908D02*
X9095209Y-16461956D01*
X9095209Y-16461956D02*
X9085685Y-16490527D01*
X9085685Y-16490527D02*
X8971399Y-16604813D01*
X8971399Y-16604813D02*
X9095209Y-16604813D01*
X9323780Y-16595289D02*
X9342828Y-16604813D01*
X9342828Y-16604813D02*
X9380923Y-16604813D01*
X9380923Y-16604813D02*
X9399971Y-16595289D01*
X9399971Y-16595289D02*
X9409494Y-16576241D01*
X9409494Y-16576241D02*
X9409494Y-16566718D01*
X9409494Y-16566718D02*
X9399971Y-16547670D01*
X9399971Y-16547670D02*
X9380923Y-16538146D01*
X9380923Y-16538146D02*
X9352351Y-16538146D01*
X9352351Y-16538146D02*
X9333304Y-16528622D01*
X9333304Y-16528622D02*
X9323780Y-16509575D01*
X9323780Y-16509575D02*
X9323780Y-16500051D01*
X9323780Y-16500051D02*
X9333304Y-16481003D01*
X9333304Y-16481003D02*
X9352351Y-16471479D01*
X9352351Y-16471479D02*
X9380923Y-16471479D01*
X9380923Y-16471479D02*
X9399971Y-16481003D01*
X9523780Y-16604813D02*
X9504732Y-16595289D01*
X9504732Y-16595289D02*
X9495209Y-16576241D01*
X9495209Y-16576241D02*
X9495209Y-16404813D01*
X9628542Y-16604813D02*
X9609494Y-16595289D01*
X9609494Y-16595289D02*
X9599971Y-16585765D01*
X9599971Y-16585765D02*
X9590447Y-16566718D01*
X9590447Y-16566718D02*
X9590447Y-16509575D01*
X9590447Y-16509575D02*
X9599971Y-16490527D01*
X9599971Y-16490527D02*
X9609494Y-16481003D01*
X9609494Y-16481003D02*
X9628542Y-16471479D01*
X9628542Y-16471479D02*
X9657113Y-16471479D01*
X9657113Y-16471479D02*
X9676161Y-16481003D01*
X9676161Y-16481003D02*
X9685685Y-16490527D01*
X9685685Y-16490527D02*
X9695209Y-16509575D01*
X9695209Y-16509575D02*
X9695209Y-16566718D01*
X9695209Y-16566718D02*
X9685685Y-16585765D01*
X9685685Y-16585765D02*
X9676161Y-16595289D01*
X9676161Y-16595289D02*
X9657113Y-16604813D01*
X9657113Y-16604813D02*
X9628542Y-16604813D01*
X9752352Y-16471479D02*
X9828542Y-16471479D01*
X9780923Y-16404813D02*
X9780923Y-16576241D01*
X9780923Y-16576241D02*
X9790447Y-16595289D01*
X9790447Y-16595289D02*
X9809494Y-16604813D01*
X9809494Y-16604813D02*
X9828542Y-16604813D01*
X9885685Y-16595289D02*
X9904732Y-16604813D01*
X9904732Y-16604813D02*
X9942828Y-16604813D01*
X9942828Y-16604813D02*
X9961875Y-16595289D01*
X9961875Y-16595289D02*
X9971399Y-16576241D01*
X9971399Y-16576241D02*
X9971399Y-16566718D01*
X9971399Y-16566718D02*
X9961875Y-16547670D01*
X9961875Y-16547670D02*
X9942828Y-16538146D01*
X9942828Y-16538146D02*
X9914256Y-16538146D01*
X9914256Y-16538146D02*
X9895209Y-16528622D01*
X9895209Y-16528622D02*
X9885685Y-16509575D01*
X9885685Y-16509575D02*
X9885685Y-16500051D01*
X9885685Y-16500051D02*
X9895209Y-16481003D01*
X9895209Y-16481003D02*
X9914256Y-16471479D01*
X9914256Y-16471479D02*
X9942828Y-16471479D01*
X9942828Y-16471479D02*
X9961875Y-16481003D01*
X10038066Y-16681003D02*
X10047590Y-16671479D01*
X10047590Y-16671479D02*
X10066637Y-16642908D01*
X10066637Y-16642908D02*
X10076161Y-16623860D01*
X10076161Y-16623860D02*
X10085685Y-16595289D01*
X10085685Y-16595289D02*
X10095209Y-16547670D01*
X10095209Y-16547670D02*
X10095209Y-16509575D01*
X10095209Y-16509575D02*
X10085685Y-16461956D01*
X10085685Y-16461956D02*
X10076161Y-16433384D01*
X10076161Y-16433384D02*
X10066637Y-16414337D01*
X10066637Y-16414337D02*
X10047590Y-16385765D01*
X10047590Y-16385765D02*
X10038066Y-16376241D01*
X10399971Y-16681003D02*
X10390447Y-16671479D01*
X10390447Y-16671479D02*
X10371399Y-16642908D01*
X10371399Y-16642908D02*
X10361875Y-16623860D01*
X10361875Y-16623860D02*
X10352352Y-16595289D01*
X10352352Y-16595289D02*
X10342828Y-16547670D01*
X10342828Y-16547670D02*
X10342828Y-16509575D01*
X10342828Y-16509575D02*
X10352352Y-16461956D01*
X10352352Y-16461956D02*
X10361875Y-16433384D01*
X10361875Y-16433384D02*
X10371399Y-16414337D01*
X10371399Y-16414337D02*
X10390447Y-16385765D01*
X10390447Y-16385765D02*
X10399971Y-16376241D01*
X10476161Y-16471479D02*
X10476161Y-16604813D01*
X10476161Y-16490527D02*
X10485685Y-16481003D01*
X10485685Y-16481003D02*
X10504732Y-16471479D01*
X10504732Y-16471479D02*
X10533304Y-16471479D01*
X10533304Y-16471479D02*
X10552352Y-16481003D01*
X10552352Y-16481003D02*
X10561875Y-16500051D01*
X10561875Y-16500051D02*
X10561875Y-16604813D01*
X10685685Y-16604813D02*
X10666637Y-16595289D01*
X10666637Y-16595289D02*
X10657113Y-16585765D01*
X10657113Y-16585765D02*
X10647590Y-16566718D01*
X10647590Y-16566718D02*
X10647590Y-16509575D01*
X10647590Y-16509575D02*
X10657113Y-16490527D01*
X10657113Y-16490527D02*
X10666637Y-16481003D01*
X10666637Y-16481003D02*
X10685685Y-16471479D01*
X10685685Y-16471479D02*
X10714256Y-16471479D01*
X10714256Y-16471479D02*
X10733304Y-16481003D01*
X10733304Y-16481003D02*
X10742828Y-16490527D01*
X10742828Y-16490527D02*
X10752352Y-16509575D01*
X10752352Y-16509575D02*
X10752352Y-16566718D01*
X10752352Y-16566718D02*
X10742828Y-16585765D01*
X10742828Y-16585765D02*
X10733304Y-16595289D01*
X10733304Y-16595289D02*
X10714256Y-16604813D01*
X10714256Y-16604813D02*
X10685685Y-16604813D01*
X10809494Y-16471479D02*
X10885685Y-16471479D01*
X10838066Y-16404813D02*
X10838066Y-16576241D01*
X10838066Y-16576241D02*
X10847590Y-16595289D01*
X10847590Y-16595289D02*
X10866637Y-16604813D01*
X10866637Y-16604813D02*
X10885685Y-16604813D01*
X11104733Y-16471479D02*
X11104733Y-16671479D01*
X11104733Y-16481003D02*
X11123780Y-16471479D01*
X11123780Y-16471479D02*
X11161875Y-16471479D01*
X11161875Y-16471479D02*
X11180923Y-16481003D01*
X11180923Y-16481003D02*
X11190447Y-16490527D01*
X11190447Y-16490527D02*
X11199971Y-16509575D01*
X11199971Y-16509575D02*
X11199971Y-16566718D01*
X11199971Y-16566718D02*
X11190447Y-16585765D01*
X11190447Y-16585765D02*
X11180923Y-16595289D01*
X11180923Y-16595289D02*
X11161875Y-16604813D01*
X11161875Y-16604813D02*
X11123780Y-16604813D01*
X11123780Y-16604813D02*
X11104733Y-16595289D01*
X11314256Y-16604813D02*
X11295209Y-16595289D01*
X11295209Y-16595289D02*
X11285685Y-16576241D01*
X11285685Y-16576241D02*
X11285685Y-16404813D01*
X11476161Y-16604813D02*
X11476161Y-16500051D01*
X11476161Y-16500051D02*
X11466637Y-16481003D01*
X11466637Y-16481003D02*
X11447590Y-16471479D01*
X11447590Y-16471479D02*
X11409494Y-16471479D01*
X11409494Y-16471479D02*
X11390447Y-16481003D01*
X11476161Y-16595289D02*
X11457113Y-16604813D01*
X11457113Y-16604813D02*
X11409494Y-16604813D01*
X11409494Y-16604813D02*
X11390447Y-16595289D01*
X11390447Y-16595289D02*
X11380923Y-16576241D01*
X11380923Y-16576241D02*
X11380923Y-16557194D01*
X11380923Y-16557194D02*
X11390447Y-16538146D01*
X11390447Y-16538146D02*
X11409494Y-16528622D01*
X11409494Y-16528622D02*
X11457113Y-16528622D01*
X11457113Y-16528622D02*
X11476161Y-16519099D01*
X11542828Y-16471479D02*
X11619018Y-16471479D01*
X11571399Y-16404813D02*
X11571399Y-16576241D01*
X11571399Y-16576241D02*
X11580923Y-16595289D01*
X11580923Y-16595289D02*
X11599971Y-16604813D01*
X11599971Y-16604813D02*
X11619018Y-16604813D01*
X11761875Y-16595289D02*
X11742828Y-16604813D01*
X11742828Y-16604813D02*
X11704732Y-16604813D01*
X11704732Y-16604813D02*
X11685685Y-16595289D01*
X11685685Y-16595289D02*
X11676161Y-16576241D01*
X11676161Y-16576241D02*
X11676161Y-16500051D01*
X11676161Y-16500051D02*
X11685685Y-16481003D01*
X11685685Y-16481003D02*
X11704732Y-16471479D01*
X11704732Y-16471479D02*
X11742828Y-16471479D01*
X11742828Y-16471479D02*
X11761875Y-16481003D01*
X11761875Y-16481003D02*
X11771399Y-16500051D01*
X11771399Y-16500051D02*
X11771399Y-16519099D01*
X11771399Y-16519099D02*
X11676161Y-16538146D01*
X11942828Y-16604813D02*
X11942828Y-16404813D01*
X11942828Y-16595289D02*
X11923780Y-16604813D01*
X11923780Y-16604813D02*
X11885685Y-16604813D01*
X11885685Y-16604813D02*
X11866637Y-16595289D01*
X11866637Y-16595289D02*
X11857113Y-16585765D01*
X11857113Y-16585765D02*
X11847590Y-16566718D01*
X11847590Y-16566718D02*
X11847590Y-16509575D01*
X11847590Y-16509575D02*
X11857113Y-16490527D01*
X11857113Y-16490527D02*
X11866637Y-16481003D01*
X11866637Y-16481003D02*
X11885685Y-16471479D01*
X11885685Y-16471479D02*
X11923780Y-16471479D01*
X11923780Y-16471479D02*
X11942828Y-16481003D01*
X12019018Y-16681003D02*
X12028542Y-16671479D01*
X12028542Y-16671479D02*
X12047590Y-16642908D01*
X12047590Y-16642908D02*
X12057113Y-16623860D01*
X12057113Y-16623860D02*
X12066637Y-16595289D01*
X12066637Y-16595289D02*
X12076161Y-16547670D01*
X12076161Y-16547670D02*
X12076161Y-16509575D01*
X12076161Y-16509575D02*
X12066637Y-16461956D01*
X12066637Y-16461956D02*
X12057113Y-16433384D01*
X12057113Y-16433384D02*
X12047590Y-16414337D01*
X12047590Y-16414337D02*
X12028542Y-16385765D01*
X12028542Y-16385765D02*
X12019018Y-16376241D01*
D13*
X3643955Y-16777329D02*
G75*
G02*
X3473775Y-16777329I-85090J0D01*
G01*
X3473775Y-16777329D02*
G75*
G02*
X3643955Y-16777329I85090J0D01*
G01*
D11*
X4009494Y-16868813D02*
X3895208Y-16868813D01*
X3952351Y-16868813D02*
X3952351Y-16668813D01*
X3952351Y-16668813D02*
X3933303Y-16697384D01*
X3933303Y-16697384D02*
X3914256Y-16716432D01*
X3914256Y-16716432D02*
X3895208Y-16725956D01*
X4095208Y-16849765D02*
X4104732Y-16859289D01*
X4104732Y-16859289D02*
X4095208Y-16868813D01*
X4095208Y-16868813D02*
X4085684Y-16859289D01*
X4085684Y-16859289D02*
X4095208Y-16849765D01*
X4095208Y-16849765D02*
X4095208Y-16868813D01*
X4171398Y-16668813D02*
X4304732Y-16668813D01*
X4304732Y-16668813D02*
X4219018Y-16868813D01*
X4419018Y-16668813D02*
X4438065Y-16668813D01*
X4438065Y-16668813D02*
X4457113Y-16678337D01*
X4457113Y-16678337D02*
X4466637Y-16687860D01*
X4466637Y-16687860D02*
X4476160Y-16706908D01*
X4476160Y-16706908D02*
X4485684Y-16745003D01*
X4485684Y-16745003D02*
X4485684Y-16792622D01*
X4485684Y-16792622D02*
X4476160Y-16830718D01*
X4476160Y-16830718D02*
X4466637Y-16849765D01*
X4466637Y-16849765D02*
X4457113Y-16859289D01*
X4457113Y-16859289D02*
X4438065Y-16868813D01*
X4438065Y-16868813D02*
X4419018Y-16868813D01*
X4419018Y-16868813D02*
X4399970Y-16859289D01*
X4399970Y-16859289D02*
X4390446Y-16849765D01*
X4390446Y-16849765D02*
X4380922Y-16830718D01*
X4380922Y-16830718D02*
X4371399Y-16792622D01*
X4371399Y-16792622D02*
X4371399Y-16745003D01*
X4371399Y-16745003D02*
X4380922Y-16706908D01*
X4380922Y-16706908D02*
X4390446Y-16687860D01*
X4390446Y-16687860D02*
X4399970Y-16678337D01*
X4399970Y-16678337D02*
X4419018Y-16668813D01*
X4561875Y-16687860D02*
X4571399Y-16678337D01*
X4571399Y-16678337D02*
X4590446Y-16668813D01*
X4590446Y-16668813D02*
X4638065Y-16668813D01*
X4638065Y-16668813D02*
X4657113Y-16678337D01*
X4657113Y-16678337D02*
X4666637Y-16687860D01*
X4666637Y-16687860D02*
X4676160Y-16706908D01*
X4676160Y-16706908D02*
X4676160Y-16725956D01*
X4676160Y-16725956D02*
X4666637Y-16754527D01*
X4666637Y-16754527D02*
X4552351Y-16868813D01*
X4552351Y-16868813D02*
X4676160Y-16868813D01*
X4761875Y-16868813D02*
X4761875Y-16735479D01*
X4761875Y-16754527D02*
X4771399Y-16745003D01*
X4771399Y-16745003D02*
X4790446Y-16735479D01*
X4790446Y-16735479D02*
X4819018Y-16735479D01*
X4819018Y-16735479D02*
X4838065Y-16745003D01*
X4838065Y-16745003D02*
X4847589Y-16764051D01*
X4847589Y-16764051D02*
X4847589Y-16868813D01*
X4847589Y-16764051D02*
X4857113Y-16745003D01*
X4857113Y-16745003D02*
X4876160Y-16735479D01*
X4876160Y-16735479D02*
X4904732Y-16735479D01*
X4904732Y-16735479D02*
X4923780Y-16745003D01*
X4923780Y-16745003D02*
X4933303Y-16764051D01*
X4933303Y-16764051D02*
X4933303Y-16868813D01*
X5028541Y-16868813D02*
X5028541Y-16735479D01*
X5028541Y-16754527D02*
X5038065Y-16745003D01*
X5038065Y-16745003D02*
X5057113Y-16735479D01*
X5057113Y-16735479D02*
X5085684Y-16735479D01*
X5085684Y-16735479D02*
X5104732Y-16745003D01*
X5104732Y-16745003D02*
X5114256Y-16764051D01*
X5114256Y-16764051D02*
X5114256Y-16868813D01*
X5114256Y-16764051D02*
X5123780Y-16745003D01*
X5123780Y-16745003D02*
X5142827Y-16735479D01*
X5142827Y-16735479D02*
X5171399Y-16735479D01*
X5171399Y-16735479D02*
X5190446Y-16745003D01*
X5190446Y-16745003D02*
X5199970Y-16764051D01*
X5199970Y-16764051D02*
X5199970Y-16868813D01*
X5590446Y-16659289D02*
X5419018Y-16916432D01*
X5847589Y-16668813D02*
X5866637Y-16668813D01*
X5866637Y-16668813D02*
X5885684Y-16678337D01*
X5885684Y-16678337D02*
X5895208Y-16687860D01*
X5895208Y-16687860D02*
X5904732Y-16706908D01*
X5904732Y-16706908D02*
X5914256Y-16745003D01*
X5914256Y-16745003D02*
X5914256Y-16792622D01*
X5914256Y-16792622D02*
X5904732Y-16830718D01*
X5904732Y-16830718D02*
X5895208Y-16849765D01*
X5895208Y-16849765D02*
X5885684Y-16859289D01*
X5885684Y-16859289D02*
X5866637Y-16868813D01*
X5866637Y-16868813D02*
X5847589Y-16868813D01*
X5847589Y-16868813D02*
X5828541Y-16859289D01*
X5828541Y-16859289D02*
X5819018Y-16849765D01*
X5819018Y-16849765D02*
X5809494Y-16830718D01*
X5809494Y-16830718D02*
X5799970Y-16792622D01*
X5799970Y-16792622D02*
X5799970Y-16745003D01*
X5799970Y-16745003D02*
X5809494Y-16706908D01*
X5809494Y-16706908D02*
X5819018Y-16687860D01*
X5819018Y-16687860D02*
X5828541Y-16678337D01*
X5828541Y-16678337D02*
X5847589Y-16668813D01*
X5999970Y-16849765D02*
X6009494Y-16859289D01*
X6009494Y-16859289D02*
X5999970Y-16868813D01*
X5999970Y-16868813D02*
X5990446Y-16859289D01*
X5990446Y-16859289D02*
X5999970Y-16849765D01*
X5999970Y-16849765D02*
X5999970Y-16868813D01*
X6133303Y-16668813D02*
X6152351Y-16668813D01*
X6152351Y-16668813D02*
X6171399Y-16678337D01*
X6171399Y-16678337D02*
X6180922Y-16687860D01*
X6180922Y-16687860D02*
X6190446Y-16706908D01*
X6190446Y-16706908D02*
X6199970Y-16745003D01*
X6199970Y-16745003D02*
X6199970Y-16792622D01*
X6199970Y-16792622D02*
X6190446Y-16830718D01*
X6190446Y-16830718D02*
X6180922Y-16849765D01*
X6180922Y-16849765D02*
X6171399Y-16859289D01*
X6171399Y-16859289D02*
X6152351Y-16868813D01*
X6152351Y-16868813D02*
X6133303Y-16868813D01*
X6133303Y-16868813D02*
X6114256Y-16859289D01*
X6114256Y-16859289D02*
X6104732Y-16849765D01*
X6104732Y-16849765D02*
X6095208Y-16830718D01*
X6095208Y-16830718D02*
X6085684Y-16792622D01*
X6085684Y-16792622D02*
X6085684Y-16745003D01*
X6085684Y-16745003D02*
X6095208Y-16706908D01*
X6095208Y-16706908D02*
X6104732Y-16687860D01*
X6104732Y-16687860D02*
X6114256Y-16678337D01*
X6114256Y-16678337D02*
X6133303Y-16668813D01*
X6371399Y-16668813D02*
X6333303Y-16668813D01*
X6333303Y-16668813D02*
X6314256Y-16678337D01*
X6314256Y-16678337D02*
X6304732Y-16687860D01*
X6304732Y-16687860D02*
X6285684Y-16716432D01*
X6285684Y-16716432D02*
X6276161Y-16754527D01*
X6276161Y-16754527D02*
X6276161Y-16830718D01*
X6276161Y-16830718D02*
X6285684Y-16849765D01*
X6285684Y-16849765D02*
X6295208Y-16859289D01*
X6295208Y-16859289D02*
X6314256Y-16868813D01*
X6314256Y-16868813D02*
X6352351Y-16868813D01*
X6352351Y-16868813D02*
X6371399Y-16859289D01*
X6371399Y-16859289D02*
X6380922Y-16849765D01*
X6380922Y-16849765D02*
X6390446Y-16830718D01*
X6390446Y-16830718D02*
X6390446Y-16783099D01*
X6390446Y-16783099D02*
X6380922Y-16764051D01*
X6380922Y-16764051D02*
X6371399Y-16754527D01*
X6371399Y-16754527D02*
X6352351Y-16745003D01*
X6352351Y-16745003D02*
X6314256Y-16745003D01*
X6314256Y-16745003D02*
X6295208Y-16754527D01*
X6295208Y-16754527D02*
X6285684Y-16764051D01*
X6285684Y-16764051D02*
X6276161Y-16783099D01*
X6457113Y-16668813D02*
X6590446Y-16668813D01*
X6590446Y-16668813D02*
X6504732Y-16868813D01*
X6704732Y-16668813D02*
X6723780Y-16668813D01*
X6723780Y-16668813D02*
X6742827Y-16678337D01*
X6742827Y-16678337D02*
X6752351Y-16687860D01*
X6752351Y-16687860D02*
X6761875Y-16706908D01*
X6761875Y-16706908D02*
X6771399Y-16745003D01*
X6771399Y-16745003D02*
X6771399Y-16792622D01*
X6771399Y-16792622D02*
X6761875Y-16830718D01*
X6761875Y-16830718D02*
X6752351Y-16849765D01*
X6752351Y-16849765D02*
X6742827Y-16859289D01*
X6742827Y-16859289D02*
X6723780Y-16868813D01*
X6723780Y-16868813D02*
X6704732Y-16868813D01*
X6704732Y-16868813D02*
X6685684Y-16859289D01*
X6685684Y-16859289D02*
X6676161Y-16849765D01*
X6676161Y-16849765D02*
X6666637Y-16830718D01*
X6666637Y-16830718D02*
X6657113Y-16792622D01*
X6657113Y-16792622D02*
X6657113Y-16745003D01*
X6657113Y-16745003D02*
X6666637Y-16706908D01*
X6666637Y-16706908D02*
X6676161Y-16687860D01*
X6676161Y-16687860D02*
X6685684Y-16678337D01*
X6685684Y-16678337D02*
X6704732Y-16668813D01*
X6847589Y-16668813D02*
X6847589Y-16706908D01*
X6923780Y-16668813D02*
X6923780Y-16706908D01*
X7219018Y-16945003D02*
X7209494Y-16935480D01*
X7209494Y-16935480D02*
X7190446Y-16906908D01*
X7190446Y-16906908D02*
X7180923Y-16887861D01*
X7180923Y-16887861D02*
X7171399Y-16859289D01*
X7171399Y-16859289D02*
X7161875Y-16811670D01*
X7161875Y-16811670D02*
X7161875Y-16773575D01*
X7161875Y-16773575D02*
X7171399Y-16725956D01*
X7171399Y-16725956D02*
X7180923Y-16697384D01*
X7180923Y-16697384D02*
X7190446Y-16678337D01*
X7190446Y-16678337D02*
X7209494Y-16649765D01*
X7209494Y-16649765D02*
X7219018Y-16640241D01*
X7390446Y-16668813D02*
X7295208Y-16668813D01*
X7295208Y-16668813D02*
X7285684Y-16764051D01*
X7285684Y-16764051D02*
X7295208Y-16754527D01*
X7295208Y-16754527D02*
X7314256Y-16745003D01*
X7314256Y-16745003D02*
X7361875Y-16745003D01*
X7361875Y-16745003D02*
X7380923Y-16754527D01*
X7380923Y-16754527D02*
X7390446Y-16764051D01*
X7390446Y-16764051D02*
X7399970Y-16783099D01*
X7399970Y-16783099D02*
X7399970Y-16830718D01*
X7399970Y-16830718D02*
X7390446Y-16849765D01*
X7390446Y-16849765D02*
X7380923Y-16859289D01*
X7380923Y-16859289D02*
X7361875Y-16868813D01*
X7361875Y-16868813D02*
X7314256Y-16868813D01*
X7314256Y-16868813D02*
X7295208Y-16859289D01*
X7295208Y-16859289D02*
X7285684Y-16849765D01*
X7571399Y-16735479D02*
X7571399Y-16868813D01*
X7523780Y-16659289D02*
X7476161Y-16802146D01*
X7476161Y-16802146D02*
X7599970Y-16802146D01*
X7828542Y-16868813D02*
X7828542Y-16668813D01*
X7914256Y-16868813D02*
X7914256Y-16764051D01*
X7914256Y-16764051D02*
X7904732Y-16745003D01*
X7904732Y-16745003D02*
X7885685Y-16735479D01*
X7885685Y-16735479D02*
X7857113Y-16735479D01*
X7857113Y-16735479D02*
X7838065Y-16745003D01*
X7838065Y-16745003D02*
X7828542Y-16754527D01*
X8038065Y-16868813D02*
X8019018Y-16859289D01*
X8019018Y-16859289D02*
X8009494Y-16849765D01*
X8009494Y-16849765D02*
X7999970Y-16830718D01*
X7999970Y-16830718D02*
X7999970Y-16773575D01*
X7999970Y-16773575D02*
X8009494Y-16754527D01*
X8009494Y-16754527D02*
X8019018Y-16745003D01*
X8019018Y-16745003D02*
X8038065Y-16735479D01*
X8038065Y-16735479D02*
X8066637Y-16735479D01*
X8066637Y-16735479D02*
X8085685Y-16745003D01*
X8085685Y-16745003D02*
X8095208Y-16754527D01*
X8095208Y-16754527D02*
X8104732Y-16773575D01*
X8104732Y-16773575D02*
X8104732Y-16830718D01*
X8104732Y-16830718D02*
X8095208Y-16849765D01*
X8095208Y-16849765D02*
X8085685Y-16859289D01*
X8085685Y-16859289D02*
X8066637Y-16868813D01*
X8066637Y-16868813D02*
X8038065Y-16868813D01*
X8219018Y-16868813D02*
X8199970Y-16859289D01*
X8199970Y-16859289D02*
X8190446Y-16840241D01*
X8190446Y-16840241D02*
X8190446Y-16668813D01*
X8371399Y-16859289D02*
X8352351Y-16868813D01*
X8352351Y-16868813D02*
X8314256Y-16868813D01*
X8314256Y-16868813D02*
X8295208Y-16859289D01*
X8295208Y-16859289D02*
X8285685Y-16840241D01*
X8285685Y-16840241D02*
X8285685Y-16764051D01*
X8285685Y-16764051D02*
X8295208Y-16745003D01*
X8295208Y-16745003D02*
X8314256Y-16735479D01*
X8314256Y-16735479D02*
X8352351Y-16735479D01*
X8352351Y-16735479D02*
X8371399Y-16745003D01*
X8371399Y-16745003D02*
X8380923Y-16764051D01*
X8380923Y-16764051D02*
X8380923Y-16783099D01*
X8380923Y-16783099D02*
X8285685Y-16802146D01*
X8457113Y-16859289D02*
X8476161Y-16868813D01*
X8476161Y-16868813D02*
X8514256Y-16868813D01*
X8514256Y-16868813D02*
X8533304Y-16859289D01*
X8533304Y-16859289D02*
X8542828Y-16840241D01*
X8542828Y-16840241D02*
X8542828Y-16830718D01*
X8542828Y-16830718D02*
X8533304Y-16811670D01*
X8533304Y-16811670D02*
X8514256Y-16802146D01*
X8514256Y-16802146D02*
X8485685Y-16802146D01*
X8485685Y-16802146D02*
X8466637Y-16792622D01*
X8466637Y-16792622D02*
X8457113Y-16773575D01*
X8457113Y-16773575D02*
X8457113Y-16764051D01*
X8457113Y-16764051D02*
X8466637Y-16745003D01*
X8466637Y-16745003D02*
X8485685Y-16735479D01*
X8485685Y-16735479D02*
X8514256Y-16735479D01*
X8514256Y-16735479D02*
X8533304Y-16745003D01*
X8609494Y-16945003D02*
X8619018Y-16935480D01*
X8619018Y-16935480D02*
X8638066Y-16906908D01*
X8638066Y-16906908D02*
X8647589Y-16887861D01*
X8647589Y-16887861D02*
X8657113Y-16859289D01*
X8657113Y-16859289D02*
X8666637Y-16811670D01*
X8666637Y-16811670D02*
X8666637Y-16773575D01*
X8666637Y-16773575D02*
X8657113Y-16725956D01*
X8657113Y-16725956D02*
X8647589Y-16697384D01*
X8647589Y-16697384D02*
X8638066Y-16678337D01*
X8638066Y-16678337D02*
X8619018Y-16649765D01*
X8619018Y-16649765D02*
X8609494Y-16640241D01*
X8971399Y-16945003D02*
X8961875Y-16935480D01*
X8961875Y-16935480D02*
X8942828Y-16906908D01*
X8942828Y-16906908D02*
X8933304Y-16887861D01*
X8933304Y-16887861D02*
X8923780Y-16859289D01*
X8923780Y-16859289D02*
X8914256Y-16811670D01*
X8914256Y-16811670D02*
X8914256Y-16773575D01*
X8914256Y-16773575D02*
X8923780Y-16725956D01*
X8923780Y-16725956D02*
X8933304Y-16697384D01*
X8933304Y-16697384D02*
X8942828Y-16678337D01*
X8942828Y-16678337D02*
X8961875Y-16649765D01*
X8961875Y-16649765D02*
X8971399Y-16640241D01*
X9047589Y-16735479D02*
X9047589Y-16868813D01*
X9047589Y-16754527D02*
X9057113Y-16745003D01*
X9057113Y-16745003D02*
X9076161Y-16735479D01*
X9076161Y-16735479D02*
X9104732Y-16735479D01*
X9104732Y-16735479D02*
X9123780Y-16745003D01*
X9123780Y-16745003D02*
X9133304Y-16764051D01*
X9133304Y-16764051D02*
X9133304Y-16868813D01*
X9257113Y-16868813D02*
X9238066Y-16859289D01*
X9238066Y-16859289D02*
X9228542Y-16849765D01*
X9228542Y-16849765D02*
X9219018Y-16830718D01*
X9219018Y-16830718D02*
X9219018Y-16773575D01*
X9219018Y-16773575D02*
X9228542Y-16754527D01*
X9228542Y-16754527D02*
X9238066Y-16745003D01*
X9238066Y-16745003D02*
X9257113Y-16735479D01*
X9257113Y-16735479D02*
X9285685Y-16735479D01*
X9285685Y-16735479D02*
X9304732Y-16745003D01*
X9304732Y-16745003D02*
X9314256Y-16754527D01*
X9314256Y-16754527D02*
X9323780Y-16773575D01*
X9323780Y-16773575D02*
X9323780Y-16830718D01*
X9323780Y-16830718D02*
X9314256Y-16849765D01*
X9314256Y-16849765D02*
X9304732Y-16859289D01*
X9304732Y-16859289D02*
X9285685Y-16868813D01*
X9285685Y-16868813D02*
X9257113Y-16868813D01*
X9380923Y-16735479D02*
X9457113Y-16735479D01*
X9409494Y-16668813D02*
X9409494Y-16840241D01*
X9409494Y-16840241D02*
X9419018Y-16859289D01*
X9419018Y-16859289D02*
X9438066Y-16868813D01*
X9438066Y-16868813D02*
X9457113Y-16868813D01*
X9676161Y-16735479D02*
X9676161Y-16935480D01*
X9676161Y-16745003D02*
X9695209Y-16735479D01*
X9695209Y-16735479D02*
X9733304Y-16735479D01*
X9733304Y-16735479D02*
X9752351Y-16745003D01*
X9752351Y-16745003D02*
X9761875Y-16754527D01*
X9761875Y-16754527D02*
X9771399Y-16773575D01*
X9771399Y-16773575D02*
X9771399Y-16830718D01*
X9771399Y-16830718D02*
X9761875Y-16849765D01*
X9761875Y-16849765D02*
X9752351Y-16859289D01*
X9752351Y-16859289D02*
X9733304Y-16868813D01*
X9733304Y-16868813D02*
X9695209Y-16868813D01*
X9695209Y-16868813D02*
X9676161Y-16859289D01*
X9885685Y-16868813D02*
X9866637Y-16859289D01*
X9866637Y-16859289D02*
X9857113Y-16840241D01*
X9857113Y-16840241D02*
X9857113Y-16668813D01*
X10047590Y-16868813D02*
X10047590Y-16764051D01*
X10047590Y-16764051D02*
X10038066Y-16745003D01*
X10038066Y-16745003D02*
X10019018Y-16735479D01*
X10019018Y-16735479D02*
X9980923Y-16735479D01*
X9980923Y-16735479D02*
X9961875Y-16745003D01*
X10047590Y-16859289D02*
X10028542Y-16868813D01*
X10028542Y-16868813D02*
X9980923Y-16868813D01*
X9980923Y-16868813D02*
X9961875Y-16859289D01*
X9961875Y-16859289D02*
X9952351Y-16840241D01*
X9952351Y-16840241D02*
X9952351Y-16821194D01*
X9952351Y-16821194D02*
X9961875Y-16802146D01*
X9961875Y-16802146D02*
X9980923Y-16792622D01*
X9980923Y-16792622D02*
X10028542Y-16792622D01*
X10028542Y-16792622D02*
X10047590Y-16783099D01*
X10114256Y-16735479D02*
X10190447Y-16735479D01*
X10142828Y-16668813D02*
X10142828Y-16840241D01*
X10142828Y-16840241D02*
X10152351Y-16859289D01*
X10152351Y-16859289D02*
X10171399Y-16868813D01*
X10171399Y-16868813D02*
X10190447Y-16868813D01*
X10333304Y-16859289D02*
X10314256Y-16868813D01*
X10314256Y-16868813D02*
X10276161Y-16868813D01*
X10276161Y-16868813D02*
X10257113Y-16859289D01*
X10257113Y-16859289D02*
X10247590Y-16840241D01*
X10247590Y-16840241D02*
X10247590Y-16764051D01*
X10247590Y-16764051D02*
X10257113Y-16745003D01*
X10257113Y-16745003D02*
X10276161Y-16735479D01*
X10276161Y-16735479D02*
X10314256Y-16735479D01*
X10314256Y-16735479D02*
X10333304Y-16745003D01*
X10333304Y-16745003D02*
X10342828Y-16764051D01*
X10342828Y-16764051D02*
X10342828Y-16783099D01*
X10342828Y-16783099D02*
X10247590Y-16802146D01*
X10514256Y-16868813D02*
X10514256Y-16668813D01*
X10514256Y-16859289D02*
X10495209Y-16868813D01*
X10495209Y-16868813D02*
X10457113Y-16868813D01*
X10457113Y-16868813D02*
X10438066Y-16859289D01*
X10438066Y-16859289D02*
X10428542Y-16849765D01*
X10428542Y-16849765D02*
X10419018Y-16830718D01*
X10419018Y-16830718D02*
X10419018Y-16773575D01*
X10419018Y-16773575D02*
X10428542Y-16754527D01*
X10428542Y-16754527D02*
X10438066Y-16745003D01*
X10438066Y-16745003D02*
X10457113Y-16735479D01*
X10457113Y-16735479D02*
X10495209Y-16735479D01*
X10495209Y-16735479D02*
X10514256Y-16745003D01*
X10590447Y-16945003D02*
X10599971Y-16935480D01*
X10599971Y-16935480D02*
X10619018Y-16906908D01*
X10619018Y-16906908D02*
X10628542Y-16887861D01*
X10628542Y-16887861D02*
X10638066Y-16859289D01*
X10638066Y-16859289D02*
X10647590Y-16811670D01*
X10647590Y-16811670D02*
X10647590Y-16773575D01*
X10647590Y-16773575D02*
X10638066Y-16725956D01*
X10638066Y-16725956D02*
X10628542Y-16697384D01*
X10628542Y-16697384D02*
X10619018Y-16678337D01*
X10619018Y-16678337D02*
X10599971Y-16649765D01*
X10599971Y-16649765D02*
X10590447Y-16640241D01*
X3543955Y-16967509D02*
X3543955Y-17167509D01*
X3443955Y-17067509D02*
X3643955Y-17067509D01*
X3885684Y-16958993D02*
X4009494Y-16958993D01*
X4009494Y-16958993D02*
X3942827Y-17035183D01*
X3942827Y-17035183D02*
X3971398Y-17035183D01*
X3971398Y-17035183D02*
X3990446Y-17044707D01*
X3990446Y-17044707D02*
X3999970Y-17054231D01*
X3999970Y-17054231D02*
X4009494Y-17073279D01*
X4009494Y-17073279D02*
X4009494Y-17120898D01*
X4009494Y-17120898D02*
X3999970Y-17139945D01*
X3999970Y-17139945D02*
X3990446Y-17149469D01*
X3990446Y-17149469D02*
X3971398Y-17158993D01*
X3971398Y-17158993D02*
X3914256Y-17158993D01*
X3914256Y-17158993D02*
X3895208Y-17149469D01*
X3895208Y-17149469D02*
X3885684Y-17139945D01*
X4095208Y-17139945D02*
X4104732Y-17149469D01*
X4104732Y-17149469D02*
X4095208Y-17158993D01*
X4095208Y-17158993D02*
X4085684Y-17149469D01*
X4085684Y-17149469D02*
X4095208Y-17139945D01*
X4095208Y-17139945D02*
X4095208Y-17158993D01*
X4228541Y-16958993D02*
X4247589Y-16958993D01*
X4247589Y-16958993D02*
X4266637Y-16968517D01*
X4266637Y-16968517D02*
X4276160Y-16978041D01*
X4276160Y-16978041D02*
X4285684Y-16997088D01*
X4285684Y-16997088D02*
X4295208Y-17035183D01*
X4295208Y-17035183D02*
X4295208Y-17082802D01*
X4295208Y-17082802D02*
X4285684Y-17120898D01*
X4285684Y-17120898D02*
X4276160Y-17139945D01*
X4276160Y-17139945D02*
X4266637Y-17149469D01*
X4266637Y-17149469D02*
X4247589Y-17158993D01*
X4247589Y-17158993D02*
X4228541Y-17158993D01*
X4228541Y-17158993D02*
X4209494Y-17149469D01*
X4209494Y-17149469D02*
X4199970Y-17139945D01*
X4199970Y-17139945D02*
X4190446Y-17120898D01*
X4190446Y-17120898D02*
X4180922Y-17082802D01*
X4180922Y-17082802D02*
X4180922Y-17035183D01*
X4180922Y-17035183D02*
X4190446Y-16997088D01*
X4190446Y-16997088D02*
X4199970Y-16978041D01*
X4199970Y-16978041D02*
X4209494Y-16968517D01*
X4209494Y-16968517D02*
X4228541Y-16958993D01*
X4419018Y-16958993D02*
X4438065Y-16958993D01*
X4438065Y-16958993D02*
X4457113Y-16968517D01*
X4457113Y-16968517D02*
X4466637Y-16978041D01*
X4466637Y-16978041D02*
X4476160Y-16997088D01*
X4476160Y-16997088D02*
X4485684Y-17035183D01*
X4485684Y-17035183D02*
X4485684Y-17082802D01*
X4485684Y-17082802D02*
X4476160Y-17120898D01*
X4476160Y-17120898D02*
X4466637Y-17139945D01*
X4466637Y-17139945D02*
X4457113Y-17149469D01*
X4457113Y-17149469D02*
X4438065Y-17158993D01*
X4438065Y-17158993D02*
X4419018Y-17158993D01*
X4419018Y-17158993D02*
X4399970Y-17149469D01*
X4399970Y-17149469D02*
X4390446Y-17139945D01*
X4390446Y-17139945D02*
X4380922Y-17120898D01*
X4380922Y-17120898D02*
X4371399Y-17082802D01*
X4371399Y-17082802D02*
X4371399Y-17035183D01*
X4371399Y-17035183D02*
X4380922Y-16997088D01*
X4380922Y-16997088D02*
X4390446Y-16978041D01*
X4390446Y-16978041D02*
X4399970Y-16968517D01*
X4399970Y-16968517D02*
X4419018Y-16958993D01*
X4609494Y-16958993D02*
X4628541Y-16958993D01*
X4628541Y-16958993D02*
X4647589Y-16968517D01*
X4647589Y-16968517D02*
X4657113Y-16978041D01*
X4657113Y-16978041D02*
X4666637Y-16997088D01*
X4666637Y-16997088D02*
X4676160Y-17035183D01*
X4676160Y-17035183D02*
X4676160Y-17082802D01*
X4676160Y-17082802D02*
X4666637Y-17120898D01*
X4666637Y-17120898D02*
X4657113Y-17139945D01*
X4657113Y-17139945D02*
X4647589Y-17149469D01*
X4647589Y-17149469D02*
X4628541Y-17158993D01*
X4628541Y-17158993D02*
X4609494Y-17158993D01*
X4609494Y-17158993D02*
X4590446Y-17149469D01*
X4590446Y-17149469D02*
X4580922Y-17139945D01*
X4580922Y-17139945D02*
X4571399Y-17120898D01*
X4571399Y-17120898D02*
X4561875Y-17082802D01*
X4561875Y-17082802D02*
X4561875Y-17035183D01*
X4561875Y-17035183D02*
X4571399Y-16997088D01*
X4571399Y-16997088D02*
X4580922Y-16978041D01*
X4580922Y-16978041D02*
X4590446Y-16968517D01*
X4590446Y-16968517D02*
X4609494Y-16958993D01*
X4761875Y-17158993D02*
X4761875Y-17025660D01*
X4761875Y-17044707D02*
X4771399Y-17035183D01*
X4771399Y-17035183D02*
X4790446Y-17025660D01*
X4790446Y-17025660D02*
X4819018Y-17025660D01*
X4819018Y-17025660D02*
X4838065Y-17035183D01*
X4838065Y-17035183D02*
X4847589Y-17054231D01*
X4847589Y-17054231D02*
X4847589Y-17158993D01*
X4847589Y-17054231D02*
X4857113Y-17035183D01*
X4857113Y-17035183D02*
X4876160Y-17025660D01*
X4876160Y-17025660D02*
X4904732Y-17025660D01*
X4904732Y-17025660D02*
X4923780Y-17035183D01*
X4923780Y-17035183D02*
X4933303Y-17054231D01*
X4933303Y-17054231D02*
X4933303Y-17158993D01*
X5028541Y-17158993D02*
X5028541Y-17025660D01*
X5028541Y-17044707D02*
X5038065Y-17035183D01*
X5038065Y-17035183D02*
X5057113Y-17025660D01*
X5057113Y-17025660D02*
X5085684Y-17025660D01*
X5085684Y-17025660D02*
X5104732Y-17035183D01*
X5104732Y-17035183D02*
X5114256Y-17054231D01*
X5114256Y-17054231D02*
X5114256Y-17158993D01*
X5114256Y-17054231D02*
X5123780Y-17035183D01*
X5123780Y-17035183D02*
X5142827Y-17025660D01*
X5142827Y-17025660D02*
X5171399Y-17025660D01*
X5171399Y-17025660D02*
X5190446Y-17035183D01*
X5190446Y-17035183D02*
X5199970Y-17054231D01*
X5199970Y-17054231D02*
X5199970Y-17158993D01*
X5590446Y-16949469D02*
X5419018Y-17206612D01*
X5847589Y-16958993D02*
X5866637Y-16958993D01*
X5866637Y-16958993D02*
X5885684Y-16968517D01*
X5885684Y-16968517D02*
X5895208Y-16978041D01*
X5895208Y-16978041D02*
X5904732Y-16997088D01*
X5904732Y-16997088D02*
X5914256Y-17035183D01*
X5914256Y-17035183D02*
X5914256Y-17082802D01*
X5914256Y-17082802D02*
X5904732Y-17120898D01*
X5904732Y-17120898D02*
X5895208Y-17139945D01*
X5895208Y-17139945D02*
X5885684Y-17149469D01*
X5885684Y-17149469D02*
X5866637Y-17158993D01*
X5866637Y-17158993D02*
X5847589Y-17158993D01*
X5847589Y-17158993D02*
X5828541Y-17149469D01*
X5828541Y-17149469D02*
X5819018Y-17139945D01*
X5819018Y-17139945D02*
X5809494Y-17120898D01*
X5809494Y-17120898D02*
X5799970Y-17082802D01*
X5799970Y-17082802D02*
X5799970Y-17035183D01*
X5799970Y-17035183D02*
X5809494Y-16997088D01*
X5809494Y-16997088D02*
X5819018Y-16978041D01*
X5819018Y-16978041D02*
X5828541Y-16968517D01*
X5828541Y-16968517D02*
X5847589Y-16958993D01*
X5999970Y-17139945D02*
X6009494Y-17149469D01*
X6009494Y-17149469D02*
X5999970Y-17158993D01*
X5999970Y-17158993D02*
X5990446Y-17149469D01*
X5990446Y-17149469D02*
X5999970Y-17139945D01*
X5999970Y-17139945D02*
X5999970Y-17158993D01*
X6199970Y-17158993D02*
X6085684Y-17158993D01*
X6142827Y-17158993D02*
X6142827Y-16958993D01*
X6142827Y-16958993D02*
X6123780Y-16987564D01*
X6123780Y-16987564D02*
X6104732Y-17006612D01*
X6104732Y-17006612D02*
X6085684Y-17016136D01*
X6390446Y-17158993D02*
X6276161Y-17158993D01*
X6333303Y-17158993D02*
X6333303Y-16958993D01*
X6333303Y-16958993D02*
X6314256Y-16987564D01*
X6314256Y-16987564D02*
X6295208Y-17006612D01*
X6295208Y-17006612D02*
X6276161Y-17016136D01*
X6504732Y-17044707D02*
X6485684Y-17035183D01*
X6485684Y-17035183D02*
X6476161Y-17025660D01*
X6476161Y-17025660D02*
X6466637Y-17006612D01*
X6466637Y-17006612D02*
X6466637Y-16997088D01*
X6466637Y-16997088D02*
X6476161Y-16978041D01*
X6476161Y-16978041D02*
X6485684Y-16968517D01*
X6485684Y-16968517D02*
X6504732Y-16958993D01*
X6504732Y-16958993D02*
X6542827Y-16958993D01*
X6542827Y-16958993D02*
X6561875Y-16968517D01*
X6561875Y-16968517D02*
X6571399Y-16978041D01*
X6571399Y-16978041D02*
X6580922Y-16997088D01*
X6580922Y-16997088D02*
X6580922Y-17006612D01*
X6580922Y-17006612D02*
X6571399Y-17025660D01*
X6571399Y-17025660D02*
X6561875Y-17035183D01*
X6561875Y-17035183D02*
X6542827Y-17044707D01*
X6542827Y-17044707D02*
X6504732Y-17044707D01*
X6504732Y-17044707D02*
X6485684Y-17054231D01*
X6485684Y-17054231D02*
X6476161Y-17063755D01*
X6476161Y-17063755D02*
X6466637Y-17082802D01*
X6466637Y-17082802D02*
X6466637Y-17120898D01*
X6466637Y-17120898D02*
X6476161Y-17139945D01*
X6476161Y-17139945D02*
X6485684Y-17149469D01*
X6485684Y-17149469D02*
X6504732Y-17158993D01*
X6504732Y-17158993D02*
X6542827Y-17158993D01*
X6542827Y-17158993D02*
X6561875Y-17149469D01*
X6561875Y-17149469D02*
X6571399Y-17139945D01*
X6571399Y-17139945D02*
X6580922Y-17120898D01*
X6580922Y-17120898D02*
X6580922Y-17082802D01*
X6580922Y-17082802D02*
X6571399Y-17063755D01*
X6571399Y-17063755D02*
X6561875Y-17054231D01*
X6561875Y-17054231D02*
X6542827Y-17044707D01*
X6771399Y-17158993D02*
X6657113Y-17158993D01*
X6714256Y-17158993D02*
X6714256Y-16958993D01*
X6714256Y-16958993D02*
X6695208Y-16987564D01*
X6695208Y-16987564D02*
X6676161Y-17006612D01*
X6676161Y-17006612D02*
X6657113Y-17016136D01*
X6847589Y-16958993D02*
X6847589Y-16997088D01*
X6923780Y-16958993D02*
X6923780Y-16997088D01*
X7219018Y-17235183D02*
X7209494Y-17225660D01*
X7209494Y-17225660D02*
X7190446Y-17197088D01*
X7190446Y-17197088D02*
X7180923Y-17178041D01*
X7180923Y-17178041D02*
X7171399Y-17149469D01*
X7171399Y-17149469D02*
X7161875Y-17101850D01*
X7161875Y-17101850D02*
X7161875Y-17063755D01*
X7161875Y-17063755D02*
X7171399Y-17016136D01*
X7171399Y-17016136D02*
X7180923Y-16987564D01*
X7180923Y-16987564D02*
X7190446Y-16968517D01*
X7190446Y-16968517D02*
X7209494Y-16939945D01*
X7209494Y-16939945D02*
X7219018Y-16930421D01*
X7399970Y-17158993D02*
X7285684Y-17158993D01*
X7342827Y-17158993D02*
X7342827Y-16958993D01*
X7342827Y-16958993D02*
X7323780Y-16987564D01*
X7323780Y-16987564D02*
X7304732Y-17006612D01*
X7304732Y-17006612D02*
X7285684Y-17016136D01*
X7523780Y-16958993D02*
X7542827Y-16958993D01*
X7542827Y-16958993D02*
X7561875Y-16968517D01*
X7561875Y-16968517D02*
X7571399Y-16978041D01*
X7571399Y-16978041D02*
X7580923Y-16997088D01*
X7580923Y-16997088D02*
X7590446Y-17035183D01*
X7590446Y-17035183D02*
X7590446Y-17082802D01*
X7590446Y-17082802D02*
X7580923Y-17120898D01*
X7580923Y-17120898D02*
X7571399Y-17139945D01*
X7571399Y-17139945D02*
X7561875Y-17149469D01*
X7561875Y-17149469D02*
X7542827Y-17158993D01*
X7542827Y-17158993D02*
X7523780Y-17158993D01*
X7523780Y-17158993D02*
X7504732Y-17149469D01*
X7504732Y-17149469D02*
X7495208Y-17139945D01*
X7495208Y-17139945D02*
X7485684Y-17120898D01*
X7485684Y-17120898D02*
X7476161Y-17082802D01*
X7476161Y-17082802D02*
X7476161Y-17035183D01*
X7476161Y-17035183D02*
X7485684Y-16997088D01*
X7485684Y-16997088D02*
X7495208Y-16978041D01*
X7495208Y-16978041D02*
X7504732Y-16968517D01*
X7504732Y-16968517D02*
X7523780Y-16958993D01*
X7704732Y-17044707D02*
X7685684Y-17035183D01*
X7685684Y-17035183D02*
X7676161Y-17025660D01*
X7676161Y-17025660D02*
X7666637Y-17006612D01*
X7666637Y-17006612D02*
X7666637Y-16997088D01*
X7666637Y-16997088D02*
X7676161Y-16978041D01*
X7676161Y-16978041D02*
X7685684Y-16968517D01*
X7685684Y-16968517D02*
X7704732Y-16958993D01*
X7704732Y-16958993D02*
X7742827Y-16958993D01*
X7742827Y-16958993D02*
X7761875Y-16968517D01*
X7761875Y-16968517D02*
X7771399Y-16978041D01*
X7771399Y-16978041D02*
X7780923Y-16997088D01*
X7780923Y-16997088D02*
X7780923Y-17006612D01*
X7780923Y-17006612D02*
X7771399Y-17025660D01*
X7771399Y-17025660D02*
X7761875Y-17035183D01*
X7761875Y-17035183D02*
X7742827Y-17044707D01*
X7742827Y-17044707D02*
X7704732Y-17044707D01*
X7704732Y-17044707D02*
X7685684Y-17054231D01*
X7685684Y-17054231D02*
X7676161Y-17063755D01*
X7676161Y-17063755D02*
X7666637Y-17082802D01*
X7666637Y-17082802D02*
X7666637Y-17120898D01*
X7666637Y-17120898D02*
X7676161Y-17139945D01*
X7676161Y-17139945D02*
X7685684Y-17149469D01*
X7685684Y-17149469D02*
X7704732Y-17158993D01*
X7704732Y-17158993D02*
X7742827Y-17158993D01*
X7742827Y-17158993D02*
X7761875Y-17149469D01*
X7761875Y-17149469D02*
X7771399Y-17139945D01*
X7771399Y-17139945D02*
X7780923Y-17120898D01*
X7780923Y-17120898D02*
X7780923Y-17082802D01*
X7780923Y-17082802D02*
X7771399Y-17063755D01*
X7771399Y-17063755D02*
X7761875Y-17054231D01*
X7761875Y-17054231D02*
X7742827Y-17044707D01*
X8019018Y-17158993D02*
X8019018Y-16958993D01*
X8104732Y-17158993D02*
X8104732Y-17054231D01*
X8104732Y-17054231D02*
X8095208Y-17035183D01*
X8095208Y-17035183D02*
X8076161Y-17025660D01*
X8076161Y-17025660D02*
X8047589Y-17025660D01*
X8047589Y-17025660D02*
X8028542Y-17035183D01*
X8028542Y-17035183D02*
X8019018Y-17044707D01*
X8228542Y-17158993D02*
X8209494Y-17149469D01*
X8209494Y-17149469D02*
X8199970Y-17139945D01*
X8199970Y-17139945D02*
X8190446Y-17120898D01*
X8190446Y-17120898D02*
X8190446Y-17063755D01*
X8190446Y-17063755D02*
X8199970Y-17044707D01*
X8199970Y-17044707D02*
X8209494Y-17035183D01*
X8209494Y-17035183D02*
X8228542Y-17025660D01*
X8228542Y-17025660D02*
X8257113Y-17025660D01*
X8257113Y-17025660D02*
X8276161Y-17035183D01*
X8276161Y-17035183D02*
X8285685Y-17044707D01*
X8285685Y-17044707D02*
X8295208Y-17063755D01*
X8295208Y-17063755D02*
X8295208Y-17120898D01*
X8295208Y-17120898D02*
X8285685Y-17139945D01*
X8285685Y-17139945D02*
X8276161Y-17149469D01*
X8276161Y-17149469D02*
X8257113Y-17158993D01*
X8257113Y-17158993D02*
X8228542Y-17158993D01*
X8409494Y-17158993D02*
X8390447Y-17149469D01*
X8390447Y-17149469D02*
X8380923Y-17130421D01*
X8380923Y-17130421D02*
X8380923Y-16958993D01*
X8561875Y-17149469D02*
X8542828Y-17158993D01*
X8542828Y-17158993D02*
X8504732Y-17158993D01*
X8504732Y-17158993D02*
X8485685Y-17149469D01*
X8485685Y-17149469D02*
X8476161Y-17130421D01*
X8476161Y-17130421D02*
X8476161Y-17054231D01*
X8476161Y-17054231D02*
X8485685Y-17035183D01*
X8485685Y-17035183D02*
X8504732Y-17025660D01*
X8504732Y-17025660D02*
X8542828Y-17025660D01*
X8542828Y-17025660D02*
X8561875Y-17035183D01*
X8561875Y-17035183D02*
X8571399Y-17054231D01*
X8571399Y-17054231D02*
X8571399Y-17073279D01*
X8571399Y-17073279D02*
X8476161Y-17092326D01*
X8647589Y-17149469D02*
X8666637Y-17158993D01*
X8666637Y-17158993D02*
X8704732Y-17158993D01*
X8704732Y-17158993D02*
X8723780Y-17149469D01*
X8723780Y-17149469D02*
X8733304Y-17130421D01*
X8733304Y-17130421D02*
X8733304Y-17120898D01*
X8733304Y-17120898D02*
X8723780Y-17101850D01*
X8723780Y-17101850D02*
X8704732Y-17092326D01*
X8704732Y-17092326D02*
X8676161Y-17092326D01*
X8676161Y-17092326D02*
X8657113Y-17082802D01*
X8657113Y-17082802D02*
X8647589Y-17063755D01*
X8647589Y-17063755D02*
X8647589Y-17054231D01*
X8647589Y-17054231D02*
X8657113Y-17035183D01*
X8657113Y-17035183D02*
X8676161Y-17025660D01*
X8676161Y-17025660D02*
X8704732Y-17025660D01*
X8704732Y-17025660D02*
X8723780Y-17035183D01*
X8799970Y-17235183D02*
X8809494Y-17225660D01*
X8809494Y-17225660D02*
X8828542Y-17197088D01*
X8828542Y-17197088D02*
X8838066Y-17178041D01*
X8838066Y-17178041D02*
X8847589Y-17149469D01*
X8847589Y-17149469D02*
X8857113Y-17101850D01*
X8857113Y-17101850D02*
X8857113Y-17063755D01*
X8857113Y-17063755D02*
X8847589Y-17016136D01*
X8847589Y-17016136D02*
X8838066Y-16987564D01*
X8838066Y-16987564D02*
X8828542Y-16968517D01*
X8828542Y-16968517D02*
X8809494Y-16939945D01*
X8809494Y-16939945D02*
X8799970Y-16930421D01*
X9161875Y-17235183D02*
X9152351Y-17225660D01*
X9152351Y-17225660D02*
X9133304Y-17197088D01*
X9133304Y-17197088D02*
X9123780Y-17178041D01*
X9123780Y-17178041D02*
X9114256Y-17149469D01*
X9114256Y-17149469D02*
X9104732Y-17101850D01*
X9104732Y-17101850D02*
X9104732Y-17063755D01*
X9104732Y-17063755D02*
X9114256Y-17016136D01*
X9114256Y-17016136D02*
X9123780Y-16987564D01*
X9123780Y-16987564D02*
X9133304Y-16968517D01*
X9133304Y-16968517D02*
X9152351Y-16939945D01*
X9152351Y-16939945D02*
X9161875Y-16930421D01*
X9238066Y-17025660D02*
X9238066Y-17158993D01*
X9238066Y-17044707D02*
X9247589Y-17035183D01*
X9247589Y-17035183D02*
X9266637Y-17025660D01*
X9266637Y-17025660D02*
X9295209Y-17025660D01*
X9295209Y-17025660D02*
X9314256Y-17035183D01*
X9314256Y-17035183D02*
X9323780Y-17054231D01*
X9323780Y-17054231D02*
X9323780Y-17158993D01*
X9447589Y-17158993D02*
X9428542Y-17149469D01*
X9428542Y-17149469D02*
X9419018Y-17139945D01*
X9419018Y-17139945D02*
X9409494Y-17120898D01*
X9409494Y-17120898D02*
X9409494Y-17063755D01*
X9409494Y-17063755D02*
X9419018Y-17044707D01*
X9419018Y-17044707D02*
X9428542Y-17035183D01*
X9428542Y-17035183D02*
X9447589Y-17025660D01*
X9447589Y-17025660D02*
X9476161Y-17025660D01*
X9476161Y-17025660D02*
X9495209Y-17035183D01*
X9495209Y-17035183D02*
X9504732Y-17044707D01*
X9504732Y-17044707D02*
X9514256Y-17063755D01*
X9514256Y-17063755D02*
X9514256Y-17120898D01*
X9514256Y-17120898D02*
X9504732Y-17139945D01*
X9504732Y-17139945D02*
X9495209Y-17149469D01*
X9495209Y-17149469D02*
X9476161Y-17158993D01*
X9476161Y-17158993D02*
X9447589Y-17158993D01*
X9571399Y-17025660D02*
X9647589Y-17025660D01*
X9599970Y-16958993D02*
X9599970Y-17130421D01*
X9599970Y-17130421D02*
X9609494Y-17149469D01*
X9609494Y-17149469D02*
X9628542Y-17158993D01*
X9628542Y-17158993D02*
X9647589Y-17158993D01*
X9866637Y-17025660D02*
X9866637Y-17225660D01*
X9866637Y-17035183D02*
X9885685Y-17025660D01*
X9885685Y-17025660D02*
X9923780Y-17025660D01*
X9923780Y-17025660D02*
X9942828Y-17035183D01*
X9942828Y-17035183D02*
X9952351Y-17044707D01*
X9952351Y-17044707D02*
X9961875Y-17063755D01*
X9961875Y-17063755D02*
X9961875Y-17120898D01*
X9961875Y-17120898D02*
X9952351Y-17139945D01*
X9952351Y-17139945D02*
X9942828Y-17149469D01*
X9942828Y-17149469D02*
X9923780Y-17158993D01*
X9923780Y-17158993D02*
X9885685Y-17158993D01*
X9885685Y-17158993D02*
X9866637Y-17149469D01*
X10076161Y-17158993D02*
X10057113Y-17149469D01*
X10057113Y-17149469D02*
X10047590Y-17130421D01*
X10047590Y-17130421D02*
X10047590Y-16958993D01*
X10238066Y-17158993D02*
X10238066Y-17054231D01*
X10238066Y-17054231D02*
X10228542Y-17035183D01*
X10228542Y-17035183D02*
X10209494Y-17025660D01*
X10209494Y-17025660D02*
X10171399Y-17025660D01*
X10171399Y-17025660D02*
X10152351Y-17035183D01*
X10238066Y-17149469D02*
X10219018Y-17158993D01*
X10219018Y-17158993D02*
X10171399Y-17158993D01*
X10171399Y-17158993D02*
X10152351Y-17149469D01*
X10152351Y-17149469D02*
X10142828Y-17130421D01*
X10142828Y-17130421D02*
X10142828Y-17111374D01*
X10142828Y-17111374D02*
X10152351Y-17092326D01*
X10152351Y-17092326D02*
X10171399Y-17082802D01*
X10171399Y-17082802D02*
X10219018Y-17082802D01*
X10219018Y-17082802D02*
X10238066Y-17073279D01*
X10304732Y-17025660D02*
X10380923Y-17025660D01*
X10333304Y-16958993D02*
X10333304Y-17130421D01*
X10333304Y-17130421D02*
X10342828Y-17149469D01*
X10342828Y-17149469D02*
X10361875Y-17158993D01*
X10361875Y-17158993D02*
X10380923Y-17158993D01*
X10523780Y-17149469D02*
X10504732Y-17158993D01*
X10504732Y-17158993D02*
X10466637Y-17158993D01*
X10466637Y-17158993D02*
X10447590Y-17149469D01*
X10447590Y-17149469D02*
X10438066Y-17130421D01*
X10438066Y-17130421D02*
X10438066Y-17054231D01*
X10438066Y-17054231D02*
X10447590Y-17035183D01*
X10447590Y-17035183D02*
X10466637Y-17025660D01*
X10466637Y-17025660D02*
X10504732Y-17025660D01*
X10504732Y-17025660D02*
X10523780Y-17035183D01*
X10523780Y-17035183D02*
X10533304Y-17054231D01*
X10533304Y-17054231D02*
X10533304Y-17073279D01*
X10533304Y-17073279D02*
X10438066Y-17092326D01*
X10704732Y-17158993D02*
X10704732Y-16958993D01*
X10704732Y-17149469D02*
X10685685Y-17158993D01*
X10685685Y-17158993D02*
X10647590Y-17158993D01*
X10647590Y-17158993D02*
X10628542Y-17149469D01*
X10628542Y-17149469D02*
X10619018Y-17139945D01*
X10619018Y-17139945D02*
X10609494Y-17120898D01*
X10609494Y-17120898D02*
X10609494Y-17063755D01*
X10609494Y-17063755D02*
X10619018Y-17044707D01*
X10619018Y-17044707D02*
X10628542Y-17035183D01*
X10628542Y-17035183D02*
X10647590Y-17025660D01*
X10647590Y-17025660D02*
X10685685Y-17025660D01*
X10685685Y-17025660D02*
X10704732Y-17035183D01*
X10780923Y-17235183D02*
X10790447Y-17225660D01*
X10790447Y-17225660D02*
X10809494Y-17197088D01*
X10809494Y-17197088D02*
X10819018Y-17178041D01*
X10819018Y-17178041D02*
X10828542Y-17149469D01*
X10828542Y-17149469D02*
X10838066Y-17101850D01*
X10838066Y-17101850D02*
X10838066Y-17063755D01*
X10838066Y-17063755D02*
X10828542Y-17016136D01*
X10828542Y-17016136D02*
X10819018Y-16987564D01*
X10819018Y-16987564D02*
X10809494Y-16968517D01*
X10809494Y-16968517D02*
X10790447Y-16939945D01*
X10790447Y-16939945D02*
X10780923Y-16930421D01*
X3614666Y-17458221D02*
X3614666Y-17316798D01*
X3473244Y-17316798D01*
X3473244Y-17458221D01*
X3614666Y-17458221D01*
X3885684Y-17278993D02*
X4009494Y-17278993D01*
X4009494Y-17278993D02*
X3942827Y-17355183D01*
X3942827Y-17355183D02*
X3971398Y-17355183D01*
X3971398Y-17355183D02*
X3990446Y-17364707D01*
X3990446Y-17364707D02*
X3999970Y-17374231D01*
X3999970Y-17374231D02*
X4009494Y-17393279D01*
X4009494Y-17393279D02*
X4009494Y-17440898D01*
X4009494Y-17440898D02*
X3999970Y-17459945D01*
X3999970Y-17459945D02*
X3990446Y-17469469D01*
X3990446Y-17469469D02*
X3971398Y-17478993D01*
X3971398Y-17478993D02*
X3914256Y-17478993D01*
X3914256Y-17478993D02*
X3895208Y-17469469D01*
X3895208Y-17469469D02*
X3885684Y-17459945D01*
X4095208Y-17459945D02*
X4104732Y-17469469D01*
X4104732Y-17469469D02*
X4095208Y-17478993D01*
X4095208Y-17478993D02*
X4085684Y-17469469D01*
X4085684Y-17469469D02*
X4095208Y-17459945D01*
X4095208Y-17459945D02*
X4095208Y-17478993D01*
X4199970Y-17478993D02*
X4238065Y-17478993D01*
X4238065Y-17478993D02*
X4257113Y-17469469D01*
X4257113Y-17469469D02*
X4266637Y-17459945D01*
X4266637Y-17459945D02*
X4285684Y-17431374D01*
X4285684Y-17431374D02*
X4295208Y-17393279D01*
X4295208Y-17393279D02*
X4295208Y-17317088D01*
X4295208Y-17317088D02*
X4285684Y-17298041D01*
X4285684Y-17298041D02*
X4276160Y-17288517D01*
X4276160Y-17288517D02*
X4257113Y-17278993D01*
X4257113Y-17278993D02*
X4219018Y-17278993D01*
X4219018Y-17278993D02*
X4199970Y-17288517D01*
X4199970Y-17288517D02*
X4190446Y-17298041D01*
X4190446Y-17298041D02*
X4180922Y-17317088D01*
X4180922Y-17317088D02*
X4180922Y-17364707D01*
X4180922Y-17364707D02*
X4190446Y-17383755D01*
X4190446Y-17383755D02*
X4199970Y-17393279D01*
X4199970Y-17393279D02*
X4219018Y-17402802D01*
X4219018Y-17402802D02*
X4257113Y-17402802D01*
X4257113Y-17402802D02*
X4276160Y-17393279D01*
X4276160Y-17393279D02*
X4285684Y-17383755D01*
X4285684Y-17383755D02*
X4295208Y-17364707D01*
X4409494Y-17364707D02*
X4390446Y-17355183D01*
X4390446Y-17355183D02*
X4380922Y-17345660D01*
X4380922Y-17345660D02*
X4371399Y-17326612D01*
X4371399Y-17326612D02*
X4371399Y-17317088D01*
X4371399Y-17317088D02*
X4380922Y-17298041D01*
X4380922Y-17298041D02*
X4390446Y-17288517D01*
X4390446Y-17288517D02*
X4409494Y-17278993D01*
X4409494Y-17278993D02*
X4447589Y-17278993D01*
X4447589Y-17278993D02*
X4466637Y-17288517D01*
X4466637Y-17288517D02*
X4476160Y-17298041D01*
X4476160Y-17298041D02*
X4485684Y-17317088D01*
X4485684Y-17317088D02*
X4485684Y-17326612D01*
X4485684Y-17326612D02*
X4476160Y-17345660D01*
X4476160Y-17345660D02*
X4466637Y-17355183D01*
X4466637Y-17355183D02*
X4447589Y-17364707D01*
X4447589Y-17364707D02*
X4409494Y-17364707D01*
X4409494Y-17364707D02*
X4390446Y-17374231D01*
X4390446Y-17374231D02*
X4380922Y-17383755D01*
X4380922Y-17383755D02*
X4371399Y-17402802D01*
X4371399Y-17402802D02*
X4371399Y-17440898D01*
X4371399Y-17440898D02*
X4380922Y-17459945D01*
X4380922Y-17459945D02*
X4390446Y-17469469D01*
X4390446Y-17469469D02*
X4409494Y-17478993D01*
X4409494Y-17478993D02*
X4447589Y-17478993D01*
X4447589Y-17478993D02*
X4466637Y-17469469D01*
X4466637Y-17469469D02*
X4476160Y-17459945D01*
X4476160Y-17459945D02*
X4485684Y-17440898D01*
X4485684Y-17440898D02*
X4485684Y-17402802D01*
X4485684Y-17402802D02*
X4476160Y-17383755D01*
X4476160Y-17383755D02*
X4466637Y-17374231D01*
X4466637Y-17374231D02*
X4447589Y-17364707D01*
X4599970Y-17364707D02*
X4580922Y-17355183D01*
X4580922Y-17355183D02*
X4571399Y-17345660D01*
X4571399Y-17345660D02*
X4561875Y-17326612D01*
X4561875Y-17326612D02*
X4561875Y-17317088D01*
X4561875Y-17317088D02*
X4571399Y-17298041D01*
X4571399Y-17298041D02*
X4580922Y-17288517D01*
X4580922Y-17288517D02*
X4599970Y-17278993D01*
X4599970Y-17278993D02*
X4638065Y-17278993D01*
X4638065Y-17278993D02*
X4657113Y-17288517D01*
X4657113Y-17288517D02*
X4666637Y-17298041D01*
X4666637Y-17298041D02*
X4676160Y-17317088D01*
X4676160Y-17317088D02*
X4676160Y-17326612D01*
X4676160Y-17326612D02*
X4666637Y-17345660D01*
X4666637Y-17345660D02*
X4657113Y-17355183D01*
X4657113Y-17355183D02*
X4638065Y-17364707D01*
X4638065Y-17364707D02*
X4599970Y-17364707D01*
X4599970Y-17364707D02*
X4580922Y-17374231D01*
X4580922Y-17374231D02*
X4571399Y-17383755D01*
X4571399Y-17383755D02*
X4561875Y-17402802D01*
X4561875Y-17402802D02*
X4561875Y-17440898D01*
X4561875Y-17440898D02*
X4571399Y-17459945D01*
X4571399Y-17459945D02*
X4580922Y-17469469D01*
X4580922Y-17469469D02*
X4599970Y-17478993D01*
X4599970Y-17478993D02*
X4638065Y-17478993D01*
X4638065Y-17478993D02*
X4657113Y-17469469D01*
X4657113Y-17469469D02*
X4666637Y-17459945D01*
X4666637Y-17459945D02*
X4676160Y-17440898D01*
X4676160Y-17440898D02*
X4676160Y-17402802D01*
X4676160Y-17402802D02*
X4666637Y-17383755D01*
X4666637Y-17383755D02*
X4657113Y-17374231D01*
X4657113Y-17374231D02*
X4638065Y-17364707D01*
X4761875Y-17478993D02*
X4761875Y-17345660D01*
X4761875Y-17364707D02*
X4771399Y-17355183D01*
X4771399Y-17355183D02*
X4790446Y-17345660D01*
X4790446Y-17345660D02*
X4819018Y-17345660D01*
X4819018Y-17345660D02*
X4838065Y-17355183D01*
X4838065Y-17355183D02*
X4847589Y-17374231D01*
X4847589Y-17374231D02*
X4847589Y-17478993D01*
X4847589Y-17374231D02*
X4857113Y-17355183D01*
X4857113Y-17355183D02*
X4876160Y-17345660D01*
X4876160Y-17345660D02*
X4904732Y-17345660D01*
X4904732Y-17345660D02*
X4923780Y-17355183D01*
X4923780Y-17355183D02*
X4933303Y-17374231D01*
X4933303Y-17374231D02*
X4933303Y-17478993D01*
X5028541Y-17478993D02*
X5028541Y-17345660D01*
X5028541Y-17364707D02*
X5038065Y-17355183D01*
X5038065Y-17355183D02*
X5057113Y-17345660D01*
X5057113Y-17345660D02*
X5085684Y-17345660D01*
X5085684Y-17345660D02*
X5104732Y-17355183D01*
X5104732Y-17355183D02*
X5114256Y-17374231D01*
X5114256Y-17374231D02*
X5114256Y-17478993D01*
X5114256Y-17374231D02*
X5123780Y-17355183D01*
X5123780Y-17355183D02*
X5142827Y-17345660D01*
X5142827Y-17345660D02*
X5171399Y-17345660D01*
X5171399Y-17345660D02*
X5190446Y-17355183D01*
X5190446Y-17355183D02*
X5199970Y-17374231D01*
X5199970Y-17374231D02*
X5199970Y-17478993D01*
X5590446Y-17269469D02*
X5419018Y-17526612D01*
X5847589Y-17278993D02*
X5866637Y-17278993D01*
X5866637Y-17278993D02*
X5885684Y-17288517D01*
X5885684Y-17288517D02*
X5895208Y-17298041D01*
X5895208Y-17298041D02*
X5904732Y-17317088D01*
X5904732Y-17317088D02*
X5914256Y-17355183D01*
X5914256Y-17355183D02*
X5914256Y-17402802D01*
X5914256Y-17402802D02*
X5904732Y-17440898D01*
X5904732Y-17440898D02*
X5895208Y-17459945D01*
X5895208Y-17459945D02*
X5885684Y-17469469D01*
X5885684Y-17469469D02*
X5866637Y-17478993D01*
X5866637Y-17478993D02*
X5847589Y-17478993D01*
X5847589Y-17478993D02*
X5828541Y-17469469D01*
X5828541Y-17469469D02*
X5819018Y-17459945D01*
X5819018Y-17459945D02*
X5809494Y-17440898D01*
X5809494Y-17440898D02*
X5799970Y-17402802D01*
X5799970Y-17402802D02*
X5799970Y-17355183D01*
X5799970Y-17355183D02*
X5809494Y-17317088D01*
X5809494Y-17317088D02*
X5819018Y-17298041D01*
X5819018Y-17298041D02*
X5828541Y-17288517D01*
X5828541Y-17288517D02*
X5847589Y-17278993D01*
X5999970Y-17459945D02*
X6009494Y-17469469D01*
X6009494Y-17469469D02*
X5999970Y-17478993D01*
X5999970Y-17478993D02*
X5990446Y-17469469D01*
X5990446Y-17469469D02*
X5999970Y-17459945D01*
X5999970Y-17459945D02*
X5999970Y-17478993D01*
X6199970Y-17478993D02*
X6085684Y-17478993D01*
X6142827Y-17478993D02*
X6142827Y-17278993D01*
X6142827Y-17278993D02*
X6123780Y-17307564D01*
X6123780Y-17307564D02*
X6104732Y-17326612D01*
X6104732Y-17326612D02*
X6085684Y-17336136D01*
X6380922Y-17278993D02*
X6285684Y-17278993D01*
X6285684Y-17278993D02*
X6276161Y-17374231D01*
X6276161Y-17374231D02*
X6285684Y-17364707D01*
X6285684Y-17364707D02*
X6304732Y-17355183D01*
X6304732Y-17355183D02*
X6352351Y-17355183D01*
X6352351Y-17355183D02*
X6371399Y-17364707D01*
X6371399Y-17364707D02*
X6380922Y-17374231D01*
X6380922Y-17374231D02*
X6390446Y-17393279D01*
X6390446Y-17393279D02*
X6390446Y-17440898D01*
X6390446Y-17440898D02*
X6380922Y-17459945D01*
X6380922Y-17459945D02*
X6371399Y-17469469D01*
X6371399Y-17469469D02*
X6352351Y-17478993D01*
X6352351Y-17478993D02*
X6304732Y-17478993D01*
X6304732Y-17478993D02*
X6285684Y-17469469D01*
X6285684Y-17469469D02*
X6276161Y-17459945D01*
X6457113Y-17278993D02*
X6590446Y-17278993D01*
X6590446Y-17278993D02*
X6504732Y-17478993D01*
X6704732Y-17278993D02*
X6723780Y-17278993D01*
X6723780Y-17278993D02*
X6742827Y-17288517D01*
X6742827Y-17288517D02*
X6752351Y-17298041D01*
X6752351Y-17298041D02*
X6761875Y-17317088D01*
X6761875Y-17317088D02*
X6771399Y-17355183D01*
X6771399Y-17355183D02*
X6771399Y-17402802D01*
X6771399Y-17402802D02*
X6761875Y-17440898D01*
X6761875Y-17440898D02*
X6752351Y-17459945D01*
X6752351Y-17459945D02*
X6742827Y-17469469D01*
X6742827Y-17469469D02*
X6723780Y-17478993D01*
X6723780Y-17478993D02*
X6704732Y-17478993D01*
X6704732Y-17478993D02*
X6685684Y-17469469D01*
X6685684Y-17469469D02*
X6676161Y-17459945D01*
X6676161Y-17459945D02*
X6666637Y-17440898D01*
X6666637Y-17440898D02*
X6657113Y-17402802D01*
X6657113Y-17402802D02*
X6657113Y-17355183D01*
X6657113Y-17355183D02*
X6666637Y-17317088D01*
X6666637Y-17317088D02*
X6676161Y-17298041D01*
X6676161Y-17298041D02*
X6685684Y-17288517D01*
X6685684Y-17288517D02*
X6704732Y-17278993D01*
X6847589Y-17278993D02*
X6847589Y-17317088D01*
X6923780Y-17278993D02*
X6923780Y-17317088D01*
X7219018Y-17555183D02*
X7209494Y-17545660D01*
X7209494Y-17545660D02*
X7190446Y-17517088D01*
X7190446Y-17517088D02*
X7180923Y-17498041D01*
X7180923Y-17498041D02*
X7171399Y-17469469D01*
X7171399Y-17469469D02*
X7161875Y-17421850D01*
X7161875Y-17421850D02*
X7161875Y-17383755D01*
X7161875Y-17383755D02*
X7171399Y-17336136D01*
X7171399Y-17336136D02*
X7180923Y-17307564D01*
X7180923Y-17307564D02*
X7190446Y-17288517D01*
X7190446Y-17288517D02*
X7209494Y-17259945D01*
X7209494Y-17259945D02*
X7219018Y-17250421D01*
X7285684Y-17298041D02*
X7295208Y-17288517D01*
X7295208Y-17288517D02*
X7314256Y-17278993D01*
X7314256Y-17278993D02*
X7361875Y-17278993D01*
X7361875Y-17278993D02*
X7380923Y-17288517D01*
X7380923Y-17288517D02*
X7390446Y-17298041D01*
X7390446Y-17298041D02*
X7399970Y-17317088D01*
X7399970Y-17317088D02*
X7399970Y-17336136D01*
X7399970Y-17336136D02*
X7390446Y-17364707D01*
X7390446Y-17364707D02*
X7276161Y-17478993D01*
X7276161Y-17478993D02*
X7399970Y-17478993D01*
X7466637Y-17278993D02*
X7599970Y-17278993D01*
X7599970Y-17278993D02*
X7514256Y-17478993D01*
X7828542Y-17478993D02*
X7828542Y-17278993D01*
X7914256Y-17478993D02*
X7914256Y-17374231D01*
X7914256Y-17374231D02*
X7904732Y-17355183D01*
X7904732Y-17355183D02*
X7885685Y-17345660D01*
X7885685Y-17345660D02*
X7857113Y-17345660D01*
X7857113Y-17345660D02*
X7838065Y-17355183D01*
X7838065Y-17355183D02*
X7828542Y-17364707D01*
X8038065Y-17478993D02*
X8019018Y-17469469D01*
X8019018Y-17469469D02*
X8009494Y-17459945D01*
X8009494Y-17459945D02*
X7999970Y-17440898D01*
X7999970Y-17440898D02*
X7999970Y-17383755D01*
X7999970Y-17383755D02*
X8009494Y-17364707D01*
X8009494Y-17364707D02*
X8019018Y-17355183D01*
X8019018Y-17355183D02*
X8038065Y-17345660D01*
X8038065Y-17345660D02*
X8066637Y-17345660D01*
X8066637Y-17345660D02*
X8085685Y-17355183D01*
X8085685Y-17355183D02*
X8095208Y-17364707D01*
X8095208Y-17364707D02*
X8104732Y-17383755D01*
X8104732Y-17383755D02*
X8104732Y-17440898D01*
X8104732Y-17440898D02*
X8095208Y-17459945D01*
X8095208Y-17459945D02*
X8085685Y-17469469D01*
X8085685Y-17469469D02*
X8066637Y-17478993D01*
X8066637Y-17478993D02*
X8038065Y-17478993D01*
X8219018Y-17478993D02*
X8199970Y-17469469D01*
X8199970Y-17469469D02*
X8190446Y-17450421D01*
X8190446Y-17450421D02*
X8190446Y-17278993D01*
X8371399Y-17469469D02*
X8352351Y-17478993D01*
X8352351Y-17478993D02*
X8314256Y-17478993D01*
X8314256Y-17478993D02*
X8295208Y-17469469D01*
X8295208Y-17469469D02*
X8285685Y-17450421D01*
X8285685Y-17450421D02*
X8285685Y-17374231D01*
X8285685Y-17374231D02*
X8295208Y-17355183D01*
X8295208Y-17355183D02*
X8314256Y-17345660D01*
X8314256Y-17345660D02*
X8352351Y-17345660D01*
X8352351Y-17345660D02*
X8371399Y-17355183D01*
X8371399Y-17355183D02*
X8380923Y-17374231D01*
X8380923Y-17374231D02*
X8380923Y-17393279D01*
X8380923Y-17393279D02*
X8285685Y-17412326D01*
X8457113Y-17469469D02*
X8476161Y-17478993D01*
X8476161Y-17478993D02*
X8514256Y-17478993D01*
X8514256Y-17478993D02*
X8533304Y-17469469D01*
X8533304Y-17469469D02*
X8542828Y-17450421D01*
X8542828Y-17450421D02*
X8542828Y-17440898D01*
X8542828Y-17440898D02*
X8533304Y-17421850D01*
X8533304Y-17421850D02*
X8514256Y-17412326D01*
X8514256Y-17412326D02*
X8485685Y-17412326D01*
X8485685Y-17412326D02*
X8466637Y-17402802D01*
X8466637Y-17402802D02*
X8457113Y-17383755D01*
X8457113Y-17383755D02*
X8457113Y-17374231D01*
X8457113Y-17374231D02*
X8466637Y-17355183D01*
X8466637Y-17355183D02*
X8485685Y-17345660D01*
X8485685Y-17345660D02*
X8514256Y-17345660D01*
X8514256Y-17345660D02*
X8533304Y-17355183D01*
X8609494Y-17555183D02*
X8619018Y-17545660D01*
X8619018Y-17545660D02*
X8638066Y-17517088D01*
X8638066Y-17517088D02*
X8647589Y-17498041D01*
X8647589Y-17498041D02*
X8657113Y-17469469D01*
X8657113Y-17469469D02*
X8666637Y-17421850D01*
X8666637Y-17421850D02*
X8666637Y-17383755D01*
X8666637Y-17383755D02*
X8657113Y-17336136D01*
X8657113Y-17336136D02*
X8647589Y-17307564D01*
X8647589Y-17307564D02*
X8638066Y-17288517D01*
X8638066Y-17288517D02*
X8619018Y-17259945D01*
X8619018Y-17259945D02*
X8609494Y-17250421D01*
X8971399Y-17555183D02*
X8961875Y-17545660D01*
X8961875Y-17545660D02*
X8942828Y-17517088D01*
X8942828Y-17517088D02*
X8933304Y-17498041D01*
X8933304Y-17498041D02*
X8923780Y-17469469D01*
X8923780Y-17469469D02*
X8914256Y-17421850D01*
X8914256Y-17421850D02*
X8914256Y-17383755D01*
X8914256Y-17383755D02*
X8923780Y-17336136D01*
X8923780Y-17336136D02*
X8933304Y-17307564D01*
X8933304Y-17307564D02*
X8942828Y-17288517D01*
X8942828Y-17288517D02*
X8961875Y-17259945D01*
X8961875Y-17259945D02*
X8971399Y-17250421D01*
X9047589Y-17345660D02*
X9047589Y-17478993D01*
X9047589Y-17364707D02*
X9057113Y-17355183D01*
X9057113Y-17355183D02*
X9076161Y-17345660D01*
X9076161Y-17345660D02*
X9104732Y-17345660D01*
X9104732Y-17345660D02*
X9123780Y-17355183D01*
X9123780Y-17355183D02*
X9133304Y-17374231D01*
X9133304Y-17374231D02*
X9133304Y-17478993D01*
X9257113Y-17478993D02*
X9238066Y-17469469D01*
X9238066Y-17469469D02*
X9228542Y-17459945D01*
X9228542Y-17459945D02*
X9219018Y-17440898D01*
X9219018Y-17440898D02*
X9219018Y-17383755D01*
X9219018Y-17383755D02*
X9228542Y-17364707D01*
X9228542Y-17364707D02*
X9238066Y-17355183D01*
X9238066Y-17355183D02*
X9257113Y-17345660D01*
X9257113Y-17345660D02*
X9285685Y-17345660D01*
X9285685Y-17345660D02*
X9304732Y-17355183D01*
X9304732Y-17355183D02*
X9314256Y-17364707D01*
X9314256Y-17364707D02*
X9323780Y-17383755D01*
X9323780Y-17383755D02*
X9323780Y-17440898D01*
X9323780Y-17440898D02*
X9314256Y-17459945D01*
X9314256Y-17459945D02*
X9304732Y-17469469D01*
X9304732Y-17469469D02*
X9285685Y-17478993D01*
X9285685Y-17478993D02*
X9257113Y-17478993D01*
X9380923Y-17345660D02*
X9457113Y-17345660D01*
X9409494Y-17278993D02*
X9409494Y-17450421D01*
X9409494Y-17450421D02*
X9419018Y-17469469D01*
X9419018Y-17469469D02*
X9438066Y-17478993D01*
X9438066Y-17478993D02*
X9457113Y-17478993D01*
X9676161Y-17345660D02*
X9676161Y-17545660D01*
X9676161Y-17355183D02*
X9695209Y-17345660D01*
X9695209Y-17345660D02*
X9733304Y-17345660D01*
X9733304Y-17345660D02*
X9752351Y-17355183D01*
X9752351Y-17355183D02*
X9761875Y-17364707D01*
X9761875Y-17364707D02*
X9771399Y-17383755D01*
X9771399Y-17383755D02*
X9771399Y-17440898D01*
X9771399Y-17440898D02*
X9761875Y-17459945D01*
X9761875Y-17459945D02*
X9752351Y-17469469D01*
X9752351Y-17469469D02*
X9733304Y-17478993D01*
X9733304Y-17478993D02*
X9695209Y-17478993D01*
X9695209Y-17478993D02*
X9676161Y-17469469D01*
X9885685Y-17478993D02*
X9866637Y-17469469D01*
X9866637Y-17469469D02*
X9857113Y-17450421D01*
X9857113Y-17450421D02*
X9857113Y-17278993D01*
X10047590Y-17478993D02*
X10047590Y-17374231D01*
X10047590Y-17374231D02*
X10038066Y-17355183D01*
X10038066Y-17355183D02*
X10019018Y-17345660D01*
X10019018Y-17345660D02*
X9980923Y-17345660D01*
X9980923Y-17345660D02*
X9961875Y-17355183D01*
X10047590Y-17469469D02*
X10028542Y-17478993D01*
X10028542Y-17478993D02*
X9980923Y-17478993D01*
X9980923Y-17478993D02*
X9961875Y-17469469D01*
X9961875Y-17469469D02*
X9952351Y-17450421D01*
X9952351Y-17450421D02*
X9952351Y-17431374D01*
X9952351Y-17431374D02*
X9961875Y-17412326D01*
X9961875Y-17412326D02*
X9980923Y-17402802D01*
X9980923Y-17402802D02*
X10028542Y-17402802D01*
X10028542Y-17402802D02*
X10047590Y-17393279D01*
X10114256Y-17345660D02*
X10190447Y-17345660D01*
X10142828Y-17278993D02*
X10142828Y-17450421D01*
X10142828Y-17450421D02*
X10152351Y-17469469D01*
X10152351Y-17469469D02*
X10171399Y-17478993D01*
X10171399Y-17478993D02*
X10190447Y-17478993D01*
X10333304Y-17469469D02*
X10314256Y-17478993D01*
X10314256Y-17478993D02*
X10276161Y-17478993D01*
X10276161Y-17478993D02*
X10257113Y-17469469D01*
X10257113Y-17469469D02*
X10247590Y-17450421D01*
X10247590Y-17450421D02*
X10247590Y-17374231D01*
X10247590Y-17374231D02*
X10257113Y-17355183D01*
X10257113Y-17355183D02*
X10276161Y-17345660D01*
X10276161Y-17345660D02*
X10314256Y-17345660D01*
X10314256Y-17345660D02*
X10333304Y-17355183D01*
X10333304Y-17355183D02*
X10342828Y-17374231D01*
X10342828Y-17374231D02*
X10342828Y-17393279D01*
X10342828Y-17393279D02*
X10247590Y-17412326D01*
X10514256Y-17478993D02*
X10514256Y-17278993D01*
X10514256Y-17469469D02*
X10495209Y-17478993D01*
X10495209Y-17478993D02*
X10457113Y-17478993D01*
X10457113Y-17478993D02*
X10438066Y-17469469D01*
X10438066Y-17469469D02*
X10428542Y-17459945D01*
X10428542Y-17459945D02*
X10419018Y-17440898D01*
X10419018Y-17440898D02*
X10419018Y-17383755D01*
X10419018Y-17383755D02*
X10428542Y-17364707D01*
X10428542Y-17364707D02*
X10438066Y-17355183D01*
X10438066Y-17355183D02*
X10457113Y-17345660D01*
X10457113Y-17345660D02*
X10495209Y-17345660D01*
X10495209Y-17345660D02*
X10514256Y-17355183D01*
X10590447Y-17555183D02*
X10599971Y-17545660D01*
X10599971Y-17545660D02*
X10619018Y-17517088D01*
X10619018Y-17517088D02*
X10628542Y-17498041D01*
X10628542Y-17498041D02*
X10638066Y-17469469D01*
X10638066Y-17469469D02*
X10647590Y-17421850D01*
X10647590Y-17421850D02*
X10647590Y-17383755D01*
X10647590Y-17383755D02*
X10638066Y-17336136D01*
X10638066Y-17336136D02*
X10628542Y-17307564D01*
X10628542Y-17307564D02*
X10619018Y-17288517D01*
X10619018Y-17288517D02*
X10599971Y-17259945D01*
X10599971Y-17259945D02*
X10590447Y-17250421D01*
M02*
