%TF.GenerationSoftware,KiCad,Pcbnew,8.0.8*%
%TF.CreationDate,2025-02-11T03:27:08+10:00*%
%TF.ProjectId,wetsocks54k,77657473-6f63-46b7-9335-346b2e6b6963,2*%
%TF.SameCoordinates,Original*%
%TF.FileFunction,Drillmap*%
%TF.FilePolarity,Positive*%
%FSLAX45Y45*%
G04 Gerber Fmt 4.5, Leading zero omitted, Abs format (unit mm)*
G04 Created by KiCad (PCBNEW 8.0.8) date 2025-02-11 03:27:08*
%MOMM*%
%LPD*%
G01*
G04 APERTURE LIST*
%ADD10C,0.038100*%
%ADD11C,0.200000*%
%ADD12C,0.100000*%
%ADD13C,0.149860*%
%ADD14C,0.150000*%
%ADD15C,0.160000*%
G04 APERTURE END LIST*
D10*
X12445860Y-12636500D02*
X11245860Y-12636500D01*
X12662927Y-14836500D02*
X12645860Y-12836500D01*
X3645860Y-13436500D02*
X3645860Y-6136500D01*
X13045860Y-4936500D02*
G75*
G02*
X13245860Y-5136500I0J-200000D01*
G01*
X14945860Y-5136500D02*
G75*
G02*
X15145860Y-5336500I0J-200000D01*
G01*
X9445860Y-12236500D02*
G75*
G02*
X9545860Y-12136500I100000J0D01*
G01*
X17545860Y-5736500D02*
X17545860Y-11236500D01*
X3845860Y-13636500D02*
G75*
G02*
X3645860Y-13436500I0J200000D01*
G01*
X19041952Y-14134593D02*
G75*
G02*
X19148919Y-14430132I-96092J-201907D01*
G01*
X11045860Y-12436500D02*
X11045860Y-12236500D01*
X10945860Y-12136500D02*
G75*
G02*
X11045860Y-12236500I0J-100000D01*
G01*
X17545860Y-11236500D02*
X17561547Y-12758851D01*
X9445860Y-12236500D02*
X9445860Y-12436500D01*
X12759813Y-14918250D02*
X12944286Y-14919428D01*
X9345860Y-4736500D02*
X9345860Y-4536500D01*
X12759813Y-14918250D02*
G75*
G02*
X12662927Y-14836500I-13953J81751D01*
G01*
X7545860Y-12836500D02*
X7545860Y-13336500D01*
X3845860Y-5936500D02*
X7245860Y-5936500D01*
X9245860Y-12636500D02*
X7745860Y-12636500D01*
X13245860Y-5136500D02*
X14945860Y-5136500D01*
X7445860Y-5736500D02*
G75*
G02*
X7245860Y-5936500I-200000J0D01*
G01*
X11345860Y-4536500D02*
X11345860Y-4736500D01*
X11145860Y-4336500D02*
G75*
G02*
X11345860Y-4536500I0J-200000D01*
G01*
X18116017Y-13682810D02*
G75*
G02*
X17561546Y-12758851I529843J946310D01*
G01*
X11545860Y-4936500D02*
X13045860Y-4936500D01*
X18548991Y-15678928D02*
X19148919Y-14430132D01*
X9545860Y-4336500D02*
X11145860Y-4336500D01*
X7545860Y-13336500D02*
G75*
G02*
X7245860Y-13636500I-300000J0D01*
G01*
X7445860Y-5136500D02*
G75*
G02*
X7645860Y-4936500I200000J0D01*
G01*
X3645860Y-6136500D02*
G75*
G02*
X3845860Y-5936500I200000J0D01*
G01*
X7445860Y-5736500D02*
X7445860Y-5136500D01*
X11545860Y-4936500D02*
G75*
G02*
X11345860Y-4736500I0J200000D01*
G01*
X9445860Y-12436500D02*
G75*
G02*
X9245860Y-12636500I-200000J0D01*
G01*
X15345860Y-5536500D02*
X17145860Y-5536500D01*
X11245860Y-12636500D02*
G75*
G02*
X11045860Y-12436500I0J200000D01*
G01*
X10945860Y-12136500D02*
X9545860Y-12136500D01*
X19041952Y-14134593D02*
X18116017Y-13682810D01*
X9345860Y-4736500D02*
G75*
G02*
X9145860Y-4936500I-200000J0D01*
G01*
X12944286Y-14919428D02*
G75*
G02*
X18078926Y-15826857I907619J-9845046D01*
G01*
X7645860Y-4936500D02*
X9145860Y-4936500D01*
X15345860Y-5536500D02*
G75*
G02*
X15145860Y-5336500I0J200000D01*
G01*
X7545860Y-12836500D02*
G75*
G02*
X7745860Y-12636500I200000J0D01*
G01*
X9345860Y-4536500D02*
G75*
G02*
X9545860Y-4336500I200000J0D01*
G01*
X17145860Y-5536500D02*
X17345860Y-5536500D01*
X12445860Y-12636500D02*
G75*
G02*
X12645860Y-12836500I0J-200000D01*
G01*
X7145860Y-13636500D02*
X3845860Y-13636500D01*
X17345860Y-5536500D02*
G75*
G02*
X17545860Y-5736500I0J-200000D01*
G01*
X7145860Y-13636500D02*
X7245860Y-13636500D01*
X18548991Y-15678928D02*
G75*
G02*
X18078926Y-15826857I-303131J142428D01*
G01*
D11*
D12*
X11207860Y-10231500D02*
X11247860Y-10271500D01*
X11247860Y-10231500D02*
X11207860Y-10271500D01*
X11421860Y-10702500D02*
X11461860Y-10742500D01*
X11461860Y-10702500D02*
X11421860Y-10742500D01*
X12218860Y-12259500D02*
X12258860Y-12299500D01*
X12258860Y-12259500D02*
X12218860Y-12299500D01*
X13272860Y-8818500D02*
X13312860Y-8858500D01*
X13312860Y-8818500D02*
X13272860Y-8858500D01*
X13275860Y-5940500D02*
X13315860Y-5980500D01*
X13315860Y-5940500D02*
X13275860Y-5980500D01*
X14660860Y-12705800D02*
X14700860Y-12745800D01*
X14700860Y-12705800D02*
X14660860Y-12745800D01*
X14858860Y-10857500D02*
X14898860Y-10897500D01*
X14898860Y-10857500D02*
X14858860Y-10897500D01*
X14931860Y-14742500D02*
X14971860Y-14782500D01*
X14971860Y-14742500D02*
X14931860Y-14782500D01*
X15064860Y-12643500D02*
X15104860Y-12683500D01*
X15104860Y-12643500D02*
X15064860Y-12683500D01*
X15367463Y-11549897D02*
X15407463Y-11589897D01*
X15407463Y-11549897D02*
X15367463Y-11589897D01*
X15367860Y-9740500D02*
X15407860Y-9780500D01*
X15407860Y-9740500D02*
X15367860Y-9780500D01*
X15431060Y-8187500D02*
X15471060Y-8227500D01*
X15471060Y-8187500D02*
X15431060Y-8227500D01*
X15465860Y-9116500D02*
X15505860Y-9156500D01*
X15505860Y-9116500D02*
X15465860Y-9156500D01*
X15512860Y-11357500D02*
X15552860Y-11397500D01*
X15552860Y-11357500D02*
X15512860Y-11397500D01*
X15558860Y-6071500D02*
X15598860Y-6111500D01*
X15598860Y-6071500D02*
X15558860Y-6111500D01*
X15569860Y-11570500D02*
X15609860Y-11610500D01*
X15609860Y-11570500D02*
X15569860Y-11610500D01*
X15623860Y-11188500D02*
X15663860Y-11228500D01*
X15663860Y-11188500D02*
X15623860Y-11228500D01*
X15718860Y-11277500D02*
X15758860Y-11317500D01*
X15758860Y-11277500D02*
X15718860Y-11317500D01*
X15741860Y-9116500D02*
X15781860Y-9156500D01*
X15781860Y-9116500D02*
X15741860Y-9156500D01*
X15780860Y-12091500D02*
X15820860Y-12131500D01*
X15820860Y-12091500D02*
X15780860Y-12131500D01*
X15844860Y-10962500D02*
X15884860Y-11002500D01*
X15884860Y-10962500D02*
X15844860Y-11002500D01*
X16007860Y-10880500D02*
X16047860Y-10920500D01*
X16047860Y-10880500D02*
X16007860Y-10920500D01*
X16066860Y-10760500D02*
X16106860Y-10800500D01*
X16106860Y-10760500D02*
X16066860Y-10800500D01*
X16077860Y-6719500D02*
X16117860Y-6759500D01*
X16117860Y-6719500D02*
X16077860Y-6759500D01*
X16157860Y-8116500D02*
X16197860Y-8156500D01*
X16197860Y-8116500D02*
X16157860Y-8156500D01*
X16279860Y-7721500D02*
X16319860Y-7761500D01*
X16319860Y-7721500D02*
X16279860Y-7761500D01*
X16286860Y-10347500D02*
X16326860Y-10387500D01*
X16326860Y-10347500D02*
X16286860Y-10387500D01*
X16334860Y-11974500D02*
X16374860Y-12014500D01*
X16374860Y-11974500D02*
X16334860Y-12014500D01*
X16335860Y-8798500D02*
X16375860Y-8838500D01*
X16375860Y-8798500D02*
X16335860Y-8838500D01*
X16403860Y-10346500D02*
X16443860Y-10386500D01*
X16443860Y-10346500D02*
X16403860Y-10386500D01*
X16427860Y-9632500D02*
X16467860Y-9672500D01*
X16467860Y-9632500D02*
X16427860Y-9672500D01*
X16438463Y-11554897D02*
X16478463Y-11594897D01*
X16478463Y-11554897D02*
X16438463Y-11594897D01*
X16507860Y-10061500D02*
X16547860Y-10101500D01*
X16547860Y-10061500D02*
X16507860Y-10101500D01*
X16568860Y-11998500D02*
X16608860Y-12038500D01*
X16608860Y-11998500D02*
X16568860Y-12038500D01*
X16602860Y-9853500D02*
X16642860Y-9893500D01*
X16642860Y-9853500D02*
X16602860Y-9893500D01*
X16632977Y-12987500D02*
X16672977Y-13027500D01*
X16672977Y-12987500D02*
X16632977Y-13027500D01*
X16684860Y-11542500D02*
X16724860Y-11582500D01*
X16724860Y-11542500D02*
X16684860Y-11582500D01*
X16779860Y-13190500D02*
X16819860Y-13230500D01*
X16819860Y-13190500D02*
X16779860Y-13230500D01*
X16872860Y-12664500D02*
X16912860Y-12704500D01*
X16912860Y-12664500D02*
X16872860Y-12704500D01*
X16971860Y-11535500D02*
X17011860Y-11575500D01*
X17011860Y-11535500D02*
X16971860Y-11575500D01*
X17044860Y-8468500D02*
X17084860Y-8508500D01*
X17084860Y-8468500D02*
X17044860Y-8508500D01*
X17100060Y-8128500D02*
X17140060Y-8168500D01*
X17140060Y-8128500D02*
X17100060Y-8168500D01*
X17187860Y-12670500D02*
X17227860Y-12710500D01*
X17227860Y-12670500D02*
X17187860Y-12710500D01*
X17269860Y-8667500D02*
X17309860Y-8707500D01*
X17309860Y-8667500D02*
X17269860Y-8707500D01*
X17274860Y-11539500D02*
X17314860Y-11579500D01*
X17314860Y-11539500D02*
X17274860Y-11579500D01*
X17284860Y-7453500D02*
X17324860Y-7493500D01*
X17324860Y-7453500D02*
X17284860Y-7493500D01*
X17300860Y-12007500D02*
X17340860Y-12047500D01*
X17340860Y-12007500D02*
X17300860Y-12047500D01*
X17381860Y-9055500D02*
X17421860Y-9095500D01*
X17421860Y-9055500D02*
X17381860Y-9095500D01*
X17384860Y-8731500D02*
X17424860Y-8771500D01*
X17424860Y-8731500D02*
X17384860Y-8771500D01*
X15456900Y-5866880D02*
G75*
G02*
X15380700Y-5866880I-38100J0D01*
G01*
X15380700Y-5866880D02*
G75*
G02*
X15456900Y-5866880I38100J0D01*
G01*
X15456900Y-6120880D02*
G75*
G02*
X15380700Y-6120880I-38100J0D01*
G01*
X15380700Y-6120880D02*
G75*
G02*
X15456900Y-6120880I38100J0D01*
G01*
X15456900Y-6374880D02*
G75*
G02*
X15380700Y-6374880I-38100J0D01*
G01*
X15380700Y-6374880D02*
G75*
G02*
X15456900Y-6374880I38100J0D01*
G01*
X15456900Y-6628880D02*
G75*
G02*
X15380700Y-6628880I-38100J0D01*
G01*
X15380700Y-6628880D02*
G75*
G02*
X15456900Y-6628880I38100J0D01*
G01*
X15456900Y-6882880D02*
G75*
G02*
X15380700Y-6882880I-38100J0D01*
G01*
X15380700Y-6882880D02*
G75*
G02*
X15456900Y-6882880I38100J0D01*
G01*
X15456900Y-7136880D02*
G75*
G02*
X15380700Y-7136880I-38100J0D01*
G01*
X15380700Y-7136880D02*
G75*
G02*
X15456900Y-7136880I38100J0D01*
G01*
X15456900Y-7390880D02*
G75*
G02*
X15380700Y-7390880I-38100J0D01*
G01*
X15380700Y-7390880D02*
G75*
G02*
X15456900Y-7390880I38100J0D01*
G01*
X15456900Y-7644880D02*
G75*
G02*
X15380700Y-7644880I-38100J0D01*
G01*
X15380700Y-7644880D02*
G75*
G02*
X15456900Y-7644880I38100J0D01*
G01*
X15456900Y-7898880D02*
G75*
G02*
X15380700Y-7898880I-38100J0D01*
G01*
X15380700Y-7898880D02*
G75*
G02*
X15456900Y-7898880I38100J0D01*
G01*
X15710900Y-7898880D02*
G75*
G02*
X15634700Y-7898880I-38100J0D01*
G01*
X15634700Y-7898880D02*
G75*
G02*
X15710900Y-7898880I38100J0D01*
G01*
X15964900Y-7898880D02*
G75*
G02*
X15888700Y-7898880I-38100J0D01*
G01*
X15888700Y-7898880D02*
G75*
G02*
X15964900Y-7898880I38100J0D01*
G01*
X16218900Y-7898880D02*
G75*
G02*
X16142700Y-7898880I-38100J0D01*
G01*
X16142700Y-7898880D02*
G75*
G02*
X16218900Y-7898880I38100J0D01*
G01*
X16472900Y-7898880D02*
G75*
G02*
X16396700Y-7898880I-38100J0D01*
G01*
X16396700Y-7898880D02*
G75*
G02*
X16472900Y-7898880I38100J0D01*
G01*
X16726900Y-7898880D02*
G75*
G02*
X16650700Y-7898880I-38100J0D01*
G01*
X16650700Y-7898880D02*
G75*
G02*
X16726900Y-7898880I38100J0D01*
G01*
X16980900Y-5866880D02*
G75*
G02*
X16904700Y-5866880I-38100J0D01*
G01*
X16904700Y-5866880D02*
G75*
G02*
X16980900Y-5866880I38100J0D01*
G01*
X16980900Y-6120880D02*
G75*
G02*
X16904700Y-6120880I-38100J0D01*
G01*
X16904700Y-6120880D02*
G75*
G02*
X16980900Y-6120880I38100J0D01*
G01*
X16980900Y-6374880D02*
G75*
G02*
X16904700Y-6374880I-38100J0D01*
G01*
X16904700Y-6374880D02*
G75*
G02*
X16980900Y-6374880I38100J0D01*
G01*
X16980900Y-6628880D02*
G75*
G02*
X16904700Y-6628880I-38100J0D01*
G01*
X16904700Y-6628880D02*
G75*
G02*
X16980900Y-6628880I38100J0D01*
G01*
X16980900Y-6882880D02*
G75*
G02*
X16904700Y-6882880I-38100J0D01*
G01*
X16904700Y-6882880D02*
G75*
G02*
X16980900Y-6882880I38100J0D01*
G01*
X16980900Y-7136880D02*
G75*
G02*
X16904700Y-7136880I-38100J0D01*
G01*
X16904700Y-7136880D02*
G75*
G02*
X16980900Y-7136880I38100J0D01*
G01*
X16980900Y-7390880D02*
G75*
G02*
X16904700Y-7390880I-38100J0D01*
G01*
X16904700Y-7390880D02*
G75*
G02*
X16980900Y-7390880I38100J0D01*
G01*
X16980900Y-7644880D02*
G75*
G02*
X16904700Y-7644880I-38100J0D01*
G01*
X16904700Y-7644880D02*
G75*
G02*
X16980900Y-7644880I38100J0D01*
G01*
X16980900Y-7898880D02*
G75*
G02*
X16904700Y-7898880I-38100J0D01*
G01*
X16904700Y-7898880D02*
G75*
G02*
X16980900Y-7898880I38100J0D01*
G01*
X15793860Y-9349000D02*
X15793860Y-9439000D01*
X15748860Y-9394000D02*
X15838860Y-9394000D01*
X15793860Y-9349000D02*
X15793860Y-9439000D01*
X15748860Y-9394000D02*
X15838860Y-9394000D01*
X15793860Y-9603000D02*
X15793860Y-9693000D01*
X15748860Y-9648000D02*
X15838860Y-9648000D01*
X15793860Y-9603000D02*
X15793860Y-9693000D01*
X15748860Y-9648000D02*
X15838860Y-9648000D01*
X15793860Y-9857000D02*
X15793860Y-9947000D01*
X15748860Y-9902000D02*
X15838860Y-9902000D01*
X15793860Y-9857000D02*
X15793860Y-9947000D01*
X15748860Y-9902000D02*
X15838860Y-9902000D01*
X15793860Y-10111000D02*
X15793860Y-10201000D01*
X15748860Y-10156000D02*
X15838860Y-10156000D01*
X15793860Y-10111000D02*
X15793860Y-10201000D01*
X15748860Y-10156000D02*
X15838860Y-10156000D01*
X16047860Y-9222000D02*
X16047860Y-9312000D01*
X16002860Y-9267000D02*
X16092860Y-9267000D01*
X16047860Y-9476000D02*
X16047860Y-9566000D01*
X16002860Y-9521000D02*
X16092860Y-9521000D01*
X16047860Y-9476000D02*
X16047860Y-9566000D01*
X16002860Y-9521000D02*
X16092860Y-9521000D01*
X16047860Y-9730000D02*
X16047860Y-9820000D01*
X16002860Y-9775000D02*
X16092860Y-9775000D01*
X16047860Y-9730000D02*
X16047860Y-9820000D01*
X16002860Y-9775000D02*
X16092860Y-9775000D01*
X16047860Y-9984000D02*
X16047860Y-10074000D01*
X16002860Y-10029000D02*
X16092860Y-10029000D01*
X16047860Y-9984000D02*
X16047860Y-10074000D01*
X16002860Y-10029000D02*
X16092860Y-10029000D01*
X16047860Y-10238000D02*
X16047860Y-10328000D01*
X16002860Y-10283000D02*
X16092860Y-10283000D01*
X4236216Y-7863856D02*
X4236216Y-7793144D01*
X4165504Y-7793144D01*
X4165504Y-7863856D01*
X4236216Y-7863856D01*
X4236216Y-9788856D02*
X4236216Y-9718144D01*
X4165504Y-9718144D01*
X4165504Y-9788856D01*
X4236216Y-9788856D01*
X4236216Y-11688856D02*
X4236216Y-11618144D01*
X4165504Y-11618144D01*
X4165504Y-11688856D01*
X4236216Y-11688856D01*
X5016216Y-7863856D02*
X5016216Y-7793144D01*
X4945504Y-7793144D01*
X4945504Y-7863856D01*
X5016216Y-7863856D01*
X5016216Y-9788856D02*
X5016216Y-9718144D01*
X4945504Y-9718144D01*
X4945504Y-9788856D01*
X5016216Y-9788856D01*
X5016216Y-11688856D02*
X5016216Y-11618144D01*
X4945504Y-11618144D01*
X4945504Y-11688856D01*
X5016216Y-11688856D01*
X6051216Y-9771856D02*
X6051216Y-9701144D01*
X5980504Y-9701144D01*
X5980504Y-9771856D01*
X6051216Y-9771856D01*
X6151216Y-7871856D02*
X6151216Y-7801144D01*
X6080504Y-7801144D01*
X6080504Y-7871856D01*
X6151216Y-7871856D01*
X6198682Y-11688856D02*
X6198682Y-11618144D01*
X6127971Y-11618144D01*
X6127971Y-11688856D01*
X6198682Y-11688856D01*
X6831216Y-9771856D02*
X6831216Y-9701144D01*
X6760504Y-9701144D01*
X6760504Y-9771856D01*
X6831216Y-9771856D01*
X6931216Y-7871856D02*
X6931216Y-7801144D01*
X6860504Y-7801144D01*
X6860504Y-7871856D01*
X6931216Y-7871856D01*
X6978682Y-11688856D02*
X6978682Y-11618144D01*
X6907971Y-11618144D01*
X6907971Y-11688856D01*
X6978682Y-11688856D01*
X7481216Y-7481856D02*
X7481216Y-7411144D01*
X7410504Y-7411144D01*
X7410504Y-7481856D01*
X7481216Y-7481856D01*
X7481216Y-8261856D02*
X7481216Y-8191144D01*
X7410504Y-8191144D01*
X7410504Y-8261856D01*
X7481216Y-8261856D01*
X7481216Y-9373856D02*
X7481216Y-9303144D01*
X7410504Y-9303144D01*
X7410504Y-9373856D01*
X7481216Y-9373856D01*
X7481216Y-10153856D02*
X7481216Y-10083144D01*
X7410504Y-10083144D01*
X7410504Y-10153856D01*
X7481216Y-10153856D01*
X8061216Y-10688856D02*
X8061216Y-10618144D01*
X7990504Y-10618144D01*
X7990504Y-10688856D01*
X8061216Y-10688856D01*
X8086216Y-6888856D02*
X8086216Y-6818144D01*
X8015504Y-6818144D01*
X8015504Y-6888856D01*
X8086216Y-6888856D01*
X8091216Y-8771856D02*
X8091216Y-8701144D01*
X8020504Y-8701144D01*
X8020504Y-8771856D01*
X8091216Y-8771856D01*
X8841216Y-10688856D02*
X8841216Y-10618144D01*
X8770504Y-10618144D01*
X8770504Y-10688856D01*
X8841216Y-10688856D01*
X8866216Y-6888856D02*
X8866216Y-6818144D01*
X8795504Y-6818144D01*
X8795504Y-6888856D01*
X8866216Y-6888856D01*
X8871216Y-8771856D02*
X8871216Y-8701144D01*
X8800504Y-8701144D01*
X8800504Y-8771856D01*
X8871216Y-8771856D01*
X9381216Y-6481856D02*
X9381216Y-6411144D01*
X9310504Y-6411144D01*
X9310504Y-6481856D01*
X9381216Y-6481856D01*
X9381216Y-7261856D02*
X9381216Y-7191144D01*
X9310504Y-7191144D01*
X9310504Y-7261856D01*
X9381216Y-7261856D01*
X9381216Y-8398856D02*
X9381216Y-8328144D01*
X9310504Y-8328144D01*
X9310504Y-8398856D01*
X9381216Y-8398856D01*
X9381216Y-9178856D02*
X9381216Y-9108144D01*
X9310504Y-9108144D01*
X9310504Y-9178856D01*
X9381216Y-9178856D01*
X9991216Y-8213856D02*
X9991216Y-8143144D01*
X9920504Y-8143144D01*
X9920504Y-8213856D01*
X9991216Y-8213856D01*
X10011216Y-6313856D02*
X10011216Y-6243144D01*
X9940504Y-6243144D01*
X9940504Y-6313856D01*
X10011216Y-6313856D01*
X10091216Y-10071856D02*
X10091216Y-10001144D01*
X10020504Y-10001144D01*
X10020504Y-10071856D01*
X10091216Y-10071856D01*
X10771216Y-8213856D02*
X10771216Y-8143144D01*
X10700504Y-8143144D01*
X10700504Y-8213856D01*
X10771216Y-8213856D01*
X10791216Y-6313856D02*
X10791216Y-6243144D01*
X10720504Y-6243144D01*
X10720504Y-6313856D01*
X10791216Y-6313856D01*
X10871216Y-10071856D02*
X10871216Y-10001144D01*
X10800504Y-10001144D01*
X10800504Y-10071856D01*
X10871216Y-10071856D01*
X11861216Y-6863856D02*
X11861216Y-6793144D01*
X11790504Y-6793144D01*
X11790504Y-6863856D01*
X11861216Y-6863856D01*
X11891216Y-10671856D02*
X11891216Y-10601144D01*
X11820504Y-10601144D01*
X11820504Y-10671856D01*
X11891216Y-10671856D01*
X12211216Y-8788856D02*
X12211216Y-8718144D01*
X12140504Y-8718144D01*
X12140504Y-8788856D01*
X12211216Y-8788856D01*
X12641216Y-6863856D02*
X12641216Y-6793144D01*
X12570504Y-6793144D01*
X12570504Y-6863856D01*
X12641216Y-6863856D01*
X12671216Y-10671856D02*
X12671216Y-10601144D01*
X12600504Y-10601144D01*
X12600504Y-10671856D01*
X12671216Y-10671856D01*
X12991216Y-8788856D02*
X12991216Y-8718144D01*
X12920504Y-8718144D01*
X12920504Y-8788856D01*
X12991216Y-8788856D01*
X13181216Y-6481856D02*
X13181216Y-6411144D01*
X13110504Y-6411144D01*
X13110504Y-6481856D01*
X13181216Y-6481856D01*
X13181216Y-7261856D02*
X13181216Y-7191144D01*
X13110504Y-7191144D01*
X13110504Y-7261856D01*
X13181216Y-7261856D01*
X13181216Y-10298856D02*
X13181216Y-10228144D01*
X13110504Y-10228144D01*
X13110504Y-10298856D01*
X13181216Y-10298856D01*
X13181216Y-11078856D02*
X13181216Y-11008144D01*
X13110504Y-11008144D01*
X13110504Y-11078856D01*
X13181216Y-11078856D01*
X13386216Y-12938856D02*
X13386216Y-12868144D01*
X13315504Y-12868144D01*
X13315504Y-12938856D01*
X13386216Y-12938856D01*
X13661216Y-10938856D02*
X13661216Y-10868144D01*
X13590504Y-10868144D01*
X13590504Y-10938856D01*
X13661216Y-10938856D01*
X13791216Y-7088856D02*
X13791216Y-7018144D01*
X13720504Y-7018144D01*
X13720504Y-7088856D01*
X13791216Y-7088856D01*
X13986216Y-9038856D02*
X13986216Y-8968144D01*
X13915504Y-8968144D01*
X13915504Y-9038856D01*
X13986216Y-9038856D01*
X14166216Y-12938856D02*
X14166216Y-12868144D01*
X14095504Y-12868144D01*
X14095504Y-12938856D01*
X14166216Y-12938856D01*
X14441216Y-10938856D02*
X14441216Y-10868144D01*
X14370504Y-10868144D01*
X14370504Y-10938856D01*
X14441216Y-10938856D01*
X14571216Y-7088856D02*
X14571216Y-7018144D01*
X14500504Y-7018144D01*
X14500504Y-7088856D01*
X14571216Y-7088856D01*
X14766216Y-9038856D02*
X14766216Y-8968144D01*
X14695504Y-8968144D01*
X14695504Y-9038856D01*
X14766216Y-9038856D01*
X14776216Y-13413856D02*
X14776216Y-13343144D01*
X14705504Y-13343144D01*
X14705504Y-13413856D01*
X14776216Y-13413856D01*
X14776216Y-14193856D02*
X14776216Y-14123144D01*
X14705504Y-14123144D01*
X14705504Y-14193856D01*
X14776216Y-14193856D01*
X15081216Y-6781856D02*
X15081216Y-6711144D01*
X15010504Y-6711144D01*
X15010504Y-6781856D01*
X15081216Y-6781856D01*
X15081216Y-7561856D02*
X15081216Y-7491144D01*
X15010504Y-7491144D01*
X15010504Y-7561856D01*
X15081216Y-7561856D01*
X15151216Y-8681856D02*
X15151216Y-8611144D01*
X15080504Y-8611144D01*
X15080504Y-8681856D01*
X15151216Y-8681856D01*
X15151216Y-9461856D02*
X15151216Y-9391144D01*
X15080504Y-9391144D01*
X15080504Y-9461856D01*
X15151216Y-9461856D01*
X15294216Y-11882856D02*
X15294216Y-11812144D01*
X15223504Y-11812144D01*
X15223504Y-11882856D01*
X15294216Y-11882856D01*
X15294216Y-12662856D02*
X15294216Y-12592144D01*
X15223504Y-12592144D01*
X15223504Y-12662856D01*
X15294216Y-12662856D01*
X15967616Y-6128296D02*
X15967616Y-6057584D01*
X15896904Y-6057584D01*
X15896904Y-6128296D01*
X15967616Y-6128296D01*
X15967616Y-7578296D02*
X15967616Y-7507584D01*
X15896904Y-7507584D01*
X15896904Y-7578296D01*
X15967616Y-7578296D01*
X16217616Y-6128296D02*
X16217616Y-6057584D01*
X16146904Y-6057584D01*
X16146904Y-6128296D01*
X16217616Y-6128296D01*
X16467616Y-6128296D02*
X16467616Y-6057584D01*
X16396904Y-6057584D01*
X16396904Y-6128296D01*
X16467616Y-6128296D01*
X16467616Y-7578296D02*
X16467616Y-7507584D01*
X16396904Y-7507584D01*
X16396904Y-7578296D01*
X16467616Y-7578296D01*
X16753533Y-14468982D02*
X16753533Y-14398270D01*
X16682822Y-14398270D01*
X16682822Y-14468982D01*
X16753533Y-14468982D01*
X17058303Y-13750988D02*
X17058303Y-13680277D01*
X16987592Y-13680277D01*
X16987592Y-13750988D01*
X17058303Y-13750988D01*
D13*
X4214860Y-6707430D02*
X4289790Y-6632500D01*
X4214860Y-6557570D01*
X4139930Y-6632500D01*
X4214860Y-6707430D01*
X4214860Y-7215430D02*
X4289790Y-7140500D01*
X4214860Y-7065570D01*
X4139930Y-7140500D01*
X4214860Y-7215430D01*
X4214860Y-8612430D02*
X4289790Y-8537500D01*
X4214860Y-8462570D01*
X4139930Y-8537500D01*
X4214860Y-8612430D01*
X4214860Y-9120430D02*
X4289790Y-9045500D01*
X4214860Y-8970570D01*
X4139930Y-9045500D01*
X4214860Y-9120430D01*
X4214860Y-10517430D02*
X4289790Y-10442500D01*
X4214860Y-10367570D01*
X4139930Y-10442500D01*
X4214860Y-10517430D01*
X4214860Y-11025430D02*
X4289790Y-10950500D01*
X4214860Y-10875570D01*
X4139930Y-10950500D01*
X4214860Y-11025430D01*
X4214860Y-12422430D02*
X4289790Y-12347500D01*
X4214860Y-12272570D01*
X4139930Y-12347500D01*
X4214860Y-12422430D01*
X4214860Y-12930430D02*
X4289790Y-12855500D01*
X4214860Y-12780570D01*
X4139930Y-12855500D01*
X4214860Y-12930430D01*
X4849860Y-6453430D02*
X4924790Y-6378500D01*
X4849860Y-6303570D01*
X4774930Y-6378500D01*
X4849860Y-6453430D01*
X4849860Y-7469430D02*
X4924790Y-7394500D01*
X4849860Y-7319570D01*
X4774930Y-7394500D01*
X4849860Y-7469430D01*
X4849860Y-8358430D02*
X4924790Y-8283500D01*
X4849860Y-8208570D01*
X4774930Y-8283500D01*
X4849860Y-8358430D01*
X4849860Y-9374430D02*
X4924790Y-9299500D01*
X4849860Y-9224570D01*
X4774930Y-9299500D01*
X4849860Y-9374430D01*
X4849860Y-10263430D02*
X4924790Y-10188500D01*
X4849860Y-10113570D01*
X4774930Y-10188500D01*
X4849860Y-10263430D01*
X4849860Y-11279430D02*
X4924790Y-11204500D01*
X4849860Y-11129570D01*
X4774930Y-11204500D01*
X4849860Y-11279430D01*
X4849860Y-12168430D02*
X4924790Y-12093500D01*
X4849860Y-12018570D01*
X4774930Y-12093500D01*
X4849860Y-12168430D01*
X4849860Y-13184430D02*
X4924790Y-13109500D01*
X4849860Y-13034570D01*
X4774930Y-13109500D01*
X4849860Y-13184430D01*
X6119860Y-8612430D02*
X6194790Y-8537500D01*
X6119860Y-8462570D01*
X6044930Y-8537500D01*
X6119860Y-8612430D01*
X6119860Y-9120430D02*
X6194790Y-9045500D01*
X6119860Y-8970570D01*
X6044930Y-9045500D01*
X6119860Y-9120430D01*
X6119860Y-10517430D02*
X6194790Y-10442500D01*
X6119860Y-10367570D01*
X6044930Y-10442500D01*
X6119860Y-10517430D01*
X6119860Y-11025430D02*
X6194790Y-10950500D01*
X6119860Y-10875570D01*
X6044930Y-10950500D01*
X6119860Y-11025430D01*
X6119860Y-12422430D02*
X6194790Y-12347500D01*
X6119860Y-12272570D01*
X6044930Y-12347500D01*
X6119860Y-12422430D01*
X6119860Y-12930430D02*
X6194790Y-12855500D01*
X6119860Y-12780570D01*
X6044930Y-12855500D01*
X6119860Y-12930430D01*
X6119860Y-6707430D02*
X6194790Y-6632500D01*
X6119860Y-6557570D01*
X6044930Y-6632500D01*
X6119860Y-6707430D01*
X6119860Y-7215430D02*
X6194790Y-7140500D01*
X6119860Y-7065570D01*
X6044930Y-7140500D01*
X6119860Y-7215430D01*
X6754860Y-8358430D02*
X6829790Y-8283500D01*
X6754860Y-8208570D01*
X6679930Y-8283500D01*
X6754860Y-8358430D01*
X6754860Y-9374430D02*
X6829790Y-9299500D01*
X6754860Y-9224570D01*
X6679930Y-9299500D01*
X6754860Y-9374430D01*
X6754860Y-10263430D02*
X6829790Y-10188500D01*
X6754860Y-10113570D01*
X6679930Y-10188500D01*
X6754860Y-10263430D01*
X6754860Y-11279430D02*
X6829790Y-11204500D01*
X6754860Y-11129570D01*
X6679930Y-11204500D01*
X6754860Y-11279430D01*
X6754860Y-12168430D02*
X6829790Y-12093500D01*
X6754860Y-12018570D01*
X6679930Y-12093500D01*
X6754860Y-12168430D01*
X6754860Y-13184430D02*
X6829790Y-13109500D01*
X6754860Y-13034570D01*
X6679930Y-13109500D01*
X6754860Y-13184430D01*
X6754860Y-6453430D02*
X6829790Y-6378500D01*
X6754860Y-6303570D01*
X6679930Y-6378500D01*
X6754860Y-6453430D01*
X6754860Y-7469430D02*
X6829790Y-7394500D01*
X6754860Y-7319570D01*
X6679930Y-7394500D01*
X6754860Y-7469430D01*
X8024860Y-5707430D02*
X8099790Y-5632500D01*
X8024860Y-5557570D01*
X7949930Y-5632500D01*
X8024860Y-5707430D01*
X8024860Y-6215430D02*
X8099790Y-6140500D01*
X8024860Y-6065570D01*
X7949930Y-6140500D01*
X8024860Y-6215430D01*
X8024860Y-7612430D02*
X8099790Y-7537500D01*
X8024860Y-7462570D01*
X7949930Y-7537500D01*
X8024860Y-7612430D01*
X8024860Y-8120430D02*
X8099790Y-8045500D01*
X8024860Y-7970570D01*
X7949930Y-8045500D01*
X8024860Y-8120430D01*
X8024860Y-9517430D02*
X8099790Y-9442500D01*
X8024860Y-9367570D01*
X7949930Y-9442500D01*
X8024860Y-9517430D01*
X8024860Y-10025430D02*
X8099790Y-9950500D01*
X8024860Y-9875570D01*
X7949930Y-9950500D01*
X8024860Y-10025430D01*
X8024860Y-11422430D02*
X8099790Y-11347500D01*
X8024860Y-11272570D01*
X7949930Y-11347500D01*
X8024860Y-11422430D01*
X8024860Y-11930430D02*
X8099790Y-11855500D01*
X8024860Y-11780570D01*
X7949930Y-11855500D01*
X8024860Y-11930430D01*
X8659860Y-5453430D02*
X8734790Y-5378500D01*
X8659860Y-5303570D01*
X8584930Y-5378500D01*
X8659860Y-5453430D01*
X8659860Y-6469430D02*
X8734790Y-6394500D01*
X8659860Y-6319570D01*
X8584930Y-6394500D01*
X8659860Y-6469430D01*
X8659860Y-7358430D02*
X8734790Y-7283500D01*
X8659860Y-7208570D01*
X8584930Y-7283500D01*
X8659860Y-7358430D01*
X8659860Y-8374430D02*
X8734790Y-8299500D01*
X8659860Y-8224570D01*
X8584930Y-8299500D01*
X8659860Y-8374430D01*
X8659860Y-9263430D02*
X8734790Y-9188500D01*
X8659860Y-9113570D01*
X8584930Y-9188500D01*
X8659860Y-9263430D01*
X8659860Y-10279430D02*
X8734790Y-10204500D01*
X8659860Y-10129570D01*
X8584930Y-10204500D01*
X8659860Y-10279430D01*
X8659860Y-11168430D02*
X8734790Y-11093500D01*
X8659860Y-11018570D01*
X8584930Y-11093500D01*
X8659860Y-11168430D01*
X8659860Y-12184430D02*
X8734790Y-12109500D01*
X8659860Y-12034570D01*
X8584930Y-12109500D01*
X8659860Y-12184430D01*
X9929860Y-5157430D02*
X10004790Y-5082500D01*
X9929860Y-5007570D01*
X9854930Y-5082500D01*
X9929860Y-5157430D01*
X9929860Y-5665430D02*
X10004790Y-5590500D01*
X9929860Y-5515570D01*
X9854930Y-5590500D01*
X9929860Y-5665430D01*
X9929860Y-7062430D02*
X10004790Y-6987500D01*
X9929860Y-6912570D01*
X9854930Y-6987500D01*
X9929860Y-7062430D01*
X9929860Y-7570430D02*
X10004790Y-7495500D01*
X9929860Y-7420570D01*
X9854930Y-7495500D01*
X9929860Y-7570430D01*
X9929860Y-8967430D02*
X10004790Y-8892500D01*
X9929860Y-8817570D01*
X9854930Y-8892500D01*
X9929860Y-8967430D01*
X9929860Y-9475430D02*
X10004790Y-9400500D01*
X9929860Y-9325570D01*
X9854930Y-9400500D01*
X9929860Y-9475430D01*
X9929860Y-10872430D02*
X10004790Y-10797500D01*
X9929860Y-10722570D01*
X9854930Y-10797500D01*
X9929860Y-10872430D01*
X9929860Y-11380430D02*
X10004790Y-11305500D01*
X9929860Y-11230570D01*
X9854930Y-11305500D01*
X9929860Y-11380430D01*
X10564860Y-4903430D02*
X10639790Y-4828500D01*
X10564860Y-4753570D01*
X10489930Y-4828500D01*
X10564860Y-4903430D01*
X10564860Y-5919430D02*
X10639790Y-5844500D01*
X10564860Y-5769570D01*
X10489930Y-5844500D01*
X10564860Y-5919430D01*
X10564860Y-6808430D02*
X10639790Y-6733500D01*
X10564860Y-6658570D01*
X10489930Y-6733500D01*
X10564860Y-6808430D01*
X10564860Y-7824430D02*
X10639790Y-7749500D01*
X10564860Y-7674570D01*
X10489930Y-7749500D01*
X10564860Y-7824430D01*
X10564860Y-8713430D02*
X10639790Y-8638500D01*
X10564860Y-8563570D01*
X10489930Y-8638500D01*
X10564860Y-8713430D01*
X10564860Y-9729430D02*
X10639790Y-9654500D01*
X10564860Y-9579570D01*
X10489930Y-9654500D01*
X10564860Y-9729430D01*
X10564860Y-10618430D02*
X10639790Y-10543500D01*
X10564860Y-10468570D01*
X10489930Y-10543500D01*
X10564860Y-10618430D01*
X10564860Y-11634430D02*
X10639790Y-11559500D01*
X10564860Y-11484570D01*
X10489930Y-11559500D01*
X10564860Y-11634430D01*
X11834860Y-5707430D02*
X11909790Y-5632500D01*
X11834860Y-5557570D01*
X11759930Y-5632500D01*
X11834860Y-5707430D01*
X11834860Y-6215430D02*
X11909790Y-6140500D01*
X11834860Y-6065570D01*
X11759930Y-6140500D01*
X11834860Y-6215430D01*
X11834860Y-7612430D02*
X11909790Y-7537500D01*
X11834860Y-7462570D01*
X11759930Y-7537500D01*
X11834860Y-7612430D01*
X11834860Y-8120430D02*
X11909790Y-8045500D01*
X11834860Y-7970570D01*
X11759930Y-8045500D01*
X11834860Y-8120430D01*
X11834860Y-9517430D02*
X11909790Y-9442500D01*
X11834860Y-9367570D01*
X11759930Y-9442500D01*
X11834860Y-9517430D01*
X11834860Y-10025430D02*
X11909790Y-9950500D01*
X11834860Y-9875570D01*
X11759930Y-9950500D01*
X11834860Y-10025430D01*
X11834860Y-11422430D02*
X11909790Y-11347500D01*
X11834860Y-11272570D01*
X11759930Y-11347500D01*
X11834860Y-11422430D01*
X11834860Y-11930430D02*
X11909790Y-11855500D01*
X11834860Y-11780570D01*
X11759930Y-11855500D01*
X11834860Y-11930430D01*
X12469860Y-5453430D02*
X12544790Y-5378500D01*
X12469860Y-5303570D01*
X12394930Y-5378500D01*
X12469860Y-5453430D01*
X12469860Y-6469430D02*
X12544790Y-6394500D01*
X12469860Y-6319570D01*
X12394930Y-6394500D01*
X12469860Y-6469430D01*
X12469860Y-7358430D02*
X12544790Y-7283500D01*
X12469860Y-7208570D01*
X12394930Y-7283500D01*
X12469860Y-7358430D01*
X12469860Y-8374430D02*
X12544790Y-8299500D01*
X12469860Y-8224570D01*
X12394930Y-8299500D01*
X12469860Y-8374430D01*
X12469860Y-9263430D02*
X12544790Y-9188500D01*
X12469860Y-9113570D01*
X12394930Y-9188500D01*
X12469860Y-9263430D01*
X12469860Y-10279430D02*
X12544790Y-10204500D01*
X12469860Y-10129570D01*
X12394930Y-10204500D01*
X12469860Y-10279430D01*
X12469860Y-11168430D02*
X12544790Y-11093500D01*
X12469860Y-11018570D01*
X12394930Y-11093500D01*
X12469860Y-11168430D01*
X12469860Y-12184430D02*
X12544790Y-12109500D01*
X12469860Y-12034570D01*
X12394930Y-12109500D01*
X12469860Y-12184430D01*
X13272500Y-13807430D02*
X13347430Y-13732500D01*
X13272500Y-13657570D01*
X13197570Y-13732500D01*
X13272500Y-13807430D01*
X13272500Y-14315430D02*
X13347430Y-14240500D01*
X13272500Y-14165570D01*
X13197570Y-14240500D01*
X13272500Y-14315430D01*
X13739860Y-5949430D02*
X13814790Y-5874500D01*
X13739860Y-5799570D01*
X13664930Y-5874500D01*
X13739860Y-5949430D01*
X13739860Y-6457430D02*
X13814790Y-6382500D01*
X13739860Y-6307570D01*
X13664930Y-6382500D01*
X13739860Y-6457430D01*
X13739860Y-7854430D02*
X13814790Y-7779500D01*
X13739860Y-7704570D01*
X13664930Y-7779500D01*
X13739860Y-7854430D01*
X13739860Y-8362430D02*
X13814790Y-8287500D01*
X13739860Y-8212570D01*
X13664930Y-8287500D01*
X13739860Y-8362430D01*
X13739860Y-9759430D02*
X13814790Y-9684500D01*
X13739860Y-9609570D01*
X13664930Y-9684500D01*
X13739860Y-9759430D01*
X13739860Y-10267430D02*
X13814790Y-10192500D01*
X13739860Y-10117570D01*
X13664930Y-10192500D01*
X13739860Y-10267430D01*
X13739860Y-11664430D02*
X13814790Y-11589500D01*
X13739860Y-11514570D01*
X13664930Y-11589500D01*
X13739860Y-11664430D01*
X13739860Y-12172430D02*
X13814790Y-12097500D01*
X13739860Y-12022570D01*
X13664930Y-12097500D01*
X13739860Y-12172430D01*
X13907500Y-13553430D02*
X13982430Y-13478500D01*
X13907500Y-13403570D01*
X13832570Y-13478500D01*
X13907500Y-13553430D01*
X13907500Y-14569430D02*
X13982430Y-14494500D01*
X13907500Y-14419570D01*
X13832570Y-14494500D01*
X13907500Y-14569430D01*
X14374860Y-5695430D02*
X14449790Y-5620500D01*
X14374860Y-5545570D01*
X14299930Y-5620500D01*
X14374860Y-5695430D01*
X14374860Y-6711430D02*
X14449790Y-6636500D01*
X14374860Y-6561570D01*
X14299930Y-6636500D01*
X14374860Y-6711430D01*
X14374860Y-7600430D02*
X14449790Y-7525500D01*
X14374860Y-7450570D01*
X14299930Y-7525500D01*
X14374860Y-7600430D01*
X14374860Y-8616430D02*
X14449790Y-8541500D01*
X14374860Y-8466570D01*
X14299930Y-8541500D01*
X14374860Y-8616430D01*
X14374860Y-9505430D02*
X14449790Y-9430500D01*
X14374860Y-9355570D01*
X14299930Y-9430500D01*
X14374860Y-9505430D01*
X14374860Y-10521430D02*
X14449790Y-10446500D01*
X14374860Y-10371570D01*
X14299930Y-10446500D01*
X14374860Y-10521430D01*
X14374860Y-11410430D02*
X14449790Y-11335500D01*
X14374860Y-11260570D01*
X14299930Y-11335500D01*
X14374860Y-11410430D01*
X14374860Y-12426430D02*
X14449790Y-12351500D01*
X14374860Y-12276570D01*
X14299930Y-12351500D01*
X14374860Y-12426430D01*
X15329586Y-14372411D02*
X15404516Y-14297481D01*
X15329586Y-14222551D01*
X15254656Y-14297481D01*
X15329586Y-14372411D01*
X15417799Y-13872129D02*
X15492729Y-13797199D01*
X15417799Y-13722269D01*
X15342869Y-13797199D01*
X15417799Y-13872129D01*
X15910832Y-14732819D02*
X15985762Y-14657889D01*
X15910832Y-14582959D01*
X15835902Y-14657889D01*
X15910832Y-14732819D01*
X16087258Y-13732254D02*
X16162188Y-13657324D01*
X16087258Y-13582394D01*
X16012328Y-13657324D01*
X16087258Y-13732254D01*
X17331042Y-14844940D02*
X17405972Y-14770010D01*
X17331042Y-14695080D01*
X17256112Y-14770010D01*
X17331042Y-14844940D01*
X17529533Y-14377324D02*
X17604463Y-14302394D01*
X17529533Y-14227464D01*
X17454603Y-14302394D01*
X17529533Y-14377324D01*
X17816317Y-15326863D02*
X17891247Y-15251933D01*
X17816317Y-15177003D01*
X17741387Y-15251933D01*
X17816317Y-15326863D01*
X18213300Y-14391630D02*
X18288230Y-14316700D01*
X18213300Y-14241770D01*
X18138370Y-14316700D01*
X18213300Y-14391630D01*
D14*
X15547260Y-6767940D02*
X15697260Y-6917940D01*
X15697260Y-6767940D02*
X15547260Y-6917940D01*
X15697260Y-6842940D02*
G75*
G02*
X15547260Y-6842940I-75000J0D01*
G01*
X15547260Y-6842940D02*
G75*
G02*
X15697260Y-6842940I75000J0D01*
G01*
D12*
X15547260Y-6777940D02*
X15547260Y-6907940D01*
X15697260Y-6907940D02*
G75*
G02*
X15547260Y-6907940I-75000J0D01*
G01*
X15697260Y-6907940D02*
X15697260Y-6777940D01*
X15697260Y-6777940D02*
G75*
G03*
X15547260Y-6777940I-75000J0D01*
G01*
D14*
X16667260Y-6767940D02*
X16817260Y-6917940D01*
X16817260Y-6767940D02*
X16667260Y-6917940D01*
X16817260Y-6842940D02*
G75*
G02*
X16667260Y-6842940I-75000J0D01*
G01*
X16667260Y-6842940D02*
G75*
G02*
X16817260Y-6842940I75000J0D01*
G01*
D12*
X16667260Y-6777940D02*
X16667260Y-6907940D01*
X16817260Y-6907940D02*
G75*
G02*
X16667260Y-6907940I-75000J0D01*
G01*
X16817260Y-6907940D02*
X16817260Y-6777940D01*
X16817260Y-6777940D02*
G75*
G03*
X16667260Y-6777940I-75000J0D01*
G01*
D15*
X16907860Y-8854500D02*
X17067860Y-9014500D01*
X17067860Y-8854500D02*
X16907860Y-9014500D01*
X16987860Y-8854500D02*
X16987860Y-9014500D01*
X16907860Y-8934500D02*
X17067860Y-8934500D01*
X16907860Y-8981500D02*
X17067860Y-9141500D01*
X17067860Y-8981500D02*
X16907860Y-9141500D01*
X16987860Y-8981500D02*
X16987860Y-9141500D01*
X16907860Y-9061500D02*
X17067860Y-9061500D01*
X16907860Y-10408500D02*
X17067860Y-10568500D01*
X17067860Y-10408500D02*
X16907860Y-10568500D01*
X16987860Y-10408500D02*
X16987860Y-10568500D01*
X16907860Y-10488500D02*
X17067860Y-10488500D01*
X16907860Y-10535500D02*
X17067860Y-10695500D01*
X17067860Y-10535500D02*
X16907860Y-10695500D01*
X16987860Y-10535500D02*
X16987860Y-10695500D01*
X16907860Y-10615500D02*
X17067860Y-10615500D01*
D11*
X3904732Y-16184813D02*
X3904732Y-15984813D01*
X3904732Y-15984813D02*
X3952351Y-15984813D01*
X3952351Y-15984813D02*
X3980922Y-15994337D01*
X3980922Y-15994337D02*
X3999970Y-16013384D01*
X3999970Y-16013384D02*
X4009494Y-16032432D01*
X4009494Y-16032432D02*
X4019017Y-16070527D01*
X4019017Y-16070527D02*
X4019017Y-16099099D01*
X4019017Y-16099099D02*
X4009494Y-16137194D01*
X4009494Y-16137194D02*
X3999970Y-16156241D01*
X3999970Y-16156241D02*
X3980922Y-16175289D01*
X3980922Y-16175289D02*
X3952351Y-16184813D01*
X3952351Y-16184813D02*
X3904732Y-16184813D01*
X4104732Y-16184813D02*
X4104732Y-16051479D01*
X4104732Y-16089575D02*
X4114256Y-16070527D01*
X4114256Y-16070527D02*
X4123779Y-16061003D01*
X4123779Y-16061003D02*
X4142827Y-16051479D01*
X4142827Y-16051479D02*
X4161875Y-16051479D01*
X4228541Y-16184813D02*
X4228541Y-16051479D01*
X4228541Y-15984813D02*
X4219018Y-15994337D01*
X4219018Y-15994337D02*
X4228541Y-16003860D01*
X4228541Y-16003860D02*
X4238065Y-15994337D01*
X4238065Y-15994337D02*
X4228541Y-15984813D01*
X4228541Y-15984813D02*
X4228541Y-16003860D01*
X4352351Y-16184813D02*
X4333303Y-16175289D01*
X4333303Y-16175289D02*
X4323779Y-16156241D01*
X4323779Y-16156241D02*
X4323779Y-15984813D01*
X4457113Y-16184813D02*
X4438065Y-16175289D01*
X4438065Y-16175289D02*
X4428541Y-16156241D01*
X4428541Y-16156241D02*
X4428541Y-15984813D01*
X4685684Y-16184813D02*
X4685684Y-15984813D01*
X4685684Y-15984813D02*
X4752351Y-16127670D01*
X4752351Y-16127670D02*
X4819018Y-15984813D01*
X4819018Y-15984813D02*
X4819018Y-16184813D01*
X4999970Y-16184813D02*
X4999970Y-16080051D01*
X4999970Y-16080051D02*
X4990446Y-16061003D01*
X4990446Y-16061003D02*
X4971399Y-16051479D01*
X4971399Y-16051479D02*
X4933303Y-16051479D01*
X4933303Y-16051479D02*
X4914256Y-16061003D01*
X4999970Y-16175289D02*
X4980922Y-16184813D01*
X4980922Y-16184813D02*
X4933303Y-16184813D01*
X4933303Y-16184813D02*
X4914256Y-16175289D01*
X4914256Y-16175289D02*
X4904732Y-16156241D01*
X4904732Y-16156241D02*
X4904732Y-16137194D01*
X4904732Y-16137194D02*
X4914256Y-16118146D01*
X4914256Y-16118146D02*
X4933303Y-16108622D01*
X4933303Y-16108622D02*
X4980922Y-16108622D01*
X4980922Y-16108622D02*
X4999970Y-16099099D01*
X5095208Y-16051479D02*
X5095208Y-16251479D01*
X5095208Y-16061003D02*
X5114256Y-16051479D01*
X5114256Y-16051479D02*
X5152351Y-16051479D01*
X5152351Y-16051479D02*
X5171399Y-16061003D01*
X5171399Y-16061003D02*
X5180922Y-16070527D01*
X5180922Y-16070527D02*
X5190446Y-16089575D01*
X5190446Y-16089575D02*
X5190446Y-16146718D01*
X5190446Y-16146718D02*
X5180922Y-16165765D01*
X5180922Y-16165765D02*
X5171399Y-16175289D01*
X5171399Y-16175289D02*
X5152351Y-16184813D01*
X5152351Y-16184813D02*
X5114256Y-16184813D01*
X5114256Y-16184813D02*
X5095208Y-16175289D01*
X5276160Y-16165765D02*
X5285684Y-16175289D01*
X5285684Y-16175289D02*
X5276160Y-16184813D01*
X5276160Y-16184813D02*
X5266637Y-16175289D01*
X5266637Y-16175289D02*
X5276160Y-16165765D01*
X5276160Y-16165765D02*
X5276160Y-16184813D01*
X5276160Y-16061003D02*
X5285684Y-16070527D01*
X5285684Y-16070527D02*
X5276160Y-16080051D01*
X5276160Y-16080051D02*
X5266637Y-16070527D01*
X5266637Y-16070527D02*
X5276160Y-16061003D01*
X5276160Y-16061003D02*
X5276160Y-16080051D01*
D12*
X3603955Y-16493329D02*
X3643955Y-16533329D01*
X3643955Y-16493329D02*
X3603955Y-16533329D01*
D11*
X3942827Y-16404813D02*
X3961875Y-16404813D01*
X3961875Y-16404813D02*
X3980922Y-16414337D01*
X3980922Y-16414337D02*
X3990446Y-16423860D01*
X3990446Y-16423860D02*
X3999970Y-16442908D01*
X3999970Y-16442908D02*
X4009494Y-16481003D01*
X4009494Y-16481003D02*
X4009494Y-16528622D01*
X4009494Y-16528622D02*
X3999970Y-16566718D01*
X3999970Y-16566718D02*
X3990446Y-16585765D01*
X3990446Y-16585765D02*
X3980922Y-16595289D01*
X3980922Y-16595289D02*
X3961875Y-16604813D01*
X3961875Y-16604813D02*
X3942827Y-16604813D01*
X3942827Y-16604813D02*
X3923779Y-16595289D01*
X3923779Y-16595289D02*
X3914256Y-16585765D01*
X3914256Y-16585765D02*
X3904732Y-16566718D01*
X3904732Y-16566718D02*
X3895208Y-16528622D01*
X3895208Y-16528622D02*
X3895208Y-16481003D01*
X3895208Y-16481003D02*
X3904732Y-16442908D01*
X3904732Y-16442908D02*
X3914256Y-16423860D01*
X3914256Y-16423860D02*
X3923779Y-16414337D01*
X3923779Y-16414337D02*
X3942827Y-16404813D01*
X4095208Y-16585765D02*
X4104732Y-16595289D01*
X4104732Y-16595289D02*
X4095208Y-16604813D01*
X4095208Y-16604813D02*
X4085684Y-16595289D01*
X4085684Y-16595289D02*
X4095208Y-16585765D01*
X4095208Y-16585765D02*
X4095208Y-16604813D01*
X4276160Y-16471479D02*
X4276160Y-16604813D01*
X4228541Y-16395289D02*
X4180922Y-16538146D01*
X4180922Y-16538146D02*
X4304732Y-16538146D01*
X4419018Y-16404813D02*
X4438065Y-16404813D01*
X4438065Y-16404813D02*
X4457113Y-16414337D01*
X4457113Y-16414337D02*
X4466637Y-16423860D01*
X4466637Y-16423860D02*
X4476160Y-16442908D01*
X4476160Y-16442908D02*
X4485684Y-16481003D01*
X4485684Y-16481003D02*
X4485684Y-16528622D01*
X4485684Y-16528622D02*
X4476160Y-16566718D01*
X4476160Y-16566718D02*
X4466637Y-16585765D01*
X4466637Y-16585765D02*
X4457113Y-16595289D01*
X4457113Y-16595289D02*
X4438065Y-16604813D01*
X4438065Y-16604813D02*
X4419018Y-16604813D01*
X4419018Y-16604813D02*
X4399970Y-16595289D01*
X4399970Y-16595289D02*
X4390446Y-16585765D01*
X4390446Y-16585765D02*
X4380922Y-16566718D01*
X4380922Y-16566718D02*
X4371399Y-16528622D01*
X4371399Y-16528622D02*
X4371399Y-16481003D01*
X4371399Y-16481003D02*
X4380922Y-16442908D01*
X4380922Y-16442908D02*
X4390446Y-16423860D01*
X4390446Y-16423860D02*
X4399970Y-16414337D01*
X4399970Y-16414337D02*
X4419018Y-16404813D01*
X4609494Y-16404813D02*
X4628541Y-16404813D01*
X4628541Y-16404813D02*
X4647589Y-16414337D01*
X4647589Y-16414337D02*
X4657113Y-16423860D01*
X4657113Y-16423860D02*
X4666637Y-16442908D01*
X4666637Y-16442908D02*
X4676160Y-16481003D01*
X4676160Y-16481003D02*
X4676160Y-16528622D01*
X4676160Y-16528622D02*
X4666637Y-16566718D01*
X4666637Y-16566718D02*
X4657113Y-16585765D01*
X4657113Y-16585765D02*
X4647589Y-16595289D01*
X4647589Y-16595289D02*
X4628541Y-16604813D01*
X4628541Y-16604813D02*
X4609494Y-16604813D01*
X4609494Y-16604813D02*
X4590446Y-16595289D01*
X4590446Y-16595289D02*
X4580922Y-16585765D01*
X4580922Y-16585765D02*
X4571399Y-16566718D01*
X4571399Y-16566718D02*
X4561875Y-16528622D01*
X4561875Y-16528622D02*
X4561875Y-16481003D01*
X4561875Y-16481003D02*
X4571399Y-16442908D01*
X4571399Y-16442908D02*
X4580922Y-16423860D01*
X4580922Y-16423860D02*
X4590446Y-16414337D01*
X4590446Y-16414337D02*
X4609494Y-16404813D01*
X4761875Y-16604813D02*
X4761875Y-16471479D01*
X4761875Y-16490527D02*
X4771399Y-16481003D01*
X4771399Y-16481003D02*
X4790446Y-16471479D01*
X4790446Y-16471479D02*
X4819018Y-16471479D01*
X4819018Y-16471479D02*
X4838065Y-16481003D01*
X4838065Y-16481003D02*
X4847589Y-16500051D01*
X4847589Y-16500051D02*
X4847589Y-16604813D01*
X4847589Y-16500051D02*
X4857113Y-16481003D01*
X4857113Y-16481003D02*
X4876160Y-16471479D01*
X4876160Y-16471479D02*
X4904732Y-16471479D01*
X4904732Y-16471479D02*
X4923780Y-16481003D01*
X4923780Y-16481003D02*
X4933303Y-16500051D01*
X4933303Y-16500051D02*
X4933303Y-16604813D01*
X5028541Y-16604813D02*
X5028541Y-16471479D01*
X5028541Y-16490527D02*
X5038065Y-16481003D01*
X5038065Y-16481003D02*
X5057113Y-16471479D01*
X5057113Y-16471479D02*
X5085684Y-16471479D01*
X5085684Y-16471479D02*
X5104732Y-16481003D01*
X5104732Y-16481003D02*
X5114256Y-16500051D01*
X5114256Y-16500051D02*
X5114256Y-16604813D01*
X5114256Y-16500051D02*
X5123780Y-16481003D01*
X5123780Y-16481003D02*
X5142827Y-16471479D01*
X5142827Y-16471479D02*
X5171399Y-16471479D01*
X5171399Y-16471479D02*
X5190446Y-16481003D01*
X5190446Y-16481003D02*
X5199970Y-16500051D01*
X5199970Y-16500051D02*
X5199970Y-16604813D01*
X5590446Y-16395289D02*
X5419018Y-16652432D01*
X5847589Y-16404813D02*
X5866637Y-16404813D01*
X5866637Y-16404813D02*
X5885684Y-16414337D01*
X5885684Y-16414337D02*
X5895208Y-16423860D01*
X5895208Y-16423860D02*
X5904732Y-16442908D01*
X5904732Y-16442908D02*
X5914256Y-16481003D01*
X5914256Y-16481003D02*
X5914256Y-16528622D01*
X5914256Y-16528622D02*
X5904732Y-16566718D01*
X5904732Y-16566718D02*
X5895208Y-16585765D01*
X5895208Y-16585765D02*
X5885684Y-16595289D01*
X5885684Y-16595289D02*
X5866637Y-16604813D01*
X5866637Y-16604813D02*
X5847589Y-16604813D01*
X5847589Y-16604813D02*
X5828541Y-16595289D01*
X5828541Y-16595289D02*
X5819018Y-16585765D01*
X5819018Y-16585765D02*
X5809494Y-16566718D01*
X5809494Y-16566718D02*
X5799970Y-16528622D01*
X5799970Y-16528622D02*
X5799970Y-16481003D01*
X5799970Y-16481003D02*
X5809494Y-16442908D01*
X5809494Y-16442908D02*
X5819018Y-16423860D01*
X5819018Y-16423860D02*
X5828541Y-16414337D01*
X5828541Y-16414337D02*
X5847589Y-16404813D01*
X5999970Y-16585765D02*
X6009494Y-16595289D01*
X6009494Y-16595289D02*
X5999970Y-16604813D01*
X5999970Y-16604813D02*
X5990446Y-16595289D01*
X5990446Y-16595289D02*
X5999970Y-16585765D01*
X5999970Y-16585765D02*
X5999970Y-16604813D01*
X6133303Y-16404813D02*
X6152351Y-16404813D01*
X6152351Y-16404813D02*
X6171399Y-16414337D01*
X6171399Y-16414337D02*
X6180922Y-16423860D01*
X6180922Y-16423860D02*
X6190446Y-16442908D01*
X6190446Y-16442908D02*
X6199970Y-16481003D01*
X6199970Y-16481003D02*
X6199970Y-16528622D01*
X6199970Y-16528622D02*
X6190446Y-16566718D01*
X6190446Y-16566718D02*
X6180922Y-16585765D01*
X6180922Y-16585765D02*
X6171399Y-16595289D01*
X6171399Y-16595289D02*
X6152351Y-16604813D01*
X6152351Y-16604813D02*
X6133303Y-16604813D01*
X6133303Y-16604813D02*
X6114256Y-16595289D01*
X6114256Y-16595289D02*
X6104732Y-16585765D01*
X6104732Y-16585765D02*
X6095208Y-16566718D01*
X6095208Y-16566718D02*
X6085684Y-16528622D01*
X6085684Y-16528622D02*
X6085684Y-16481003D01*
X6085684Y-16481003D02*
X6095208Y-16442908D01*
X6095208Y-16442908D02*
X6104732Y-16423860D01*
X6104732Y-16423860D02*
X6114256Y-16414337D01*
X6114256Y-16414337D02*
X6133303Y-16404813D01*
X6390446Y-16604813D02*
X6276161Y-16604813D01*
X6333303Y-16604813D02*
X6333303Y-16404813D01*
X6333303Y-16404813D02*
X6314256Y-16433384D01*
X6314256Y-16433384D02*
X6295208Y-16452432D01*
X6295208Y-16452432D02*
X6276161Y-16461956D01*
X6571399Y-16404813D02*
X6476161Y-16404813D01*
X6476161Y-16404813D02*
X6466637Y-16500051D01*
X6466637Y-16500051D02*
X6476161Y-16490527D01*
X6476161Y-16490527D02*
X6495208Y-16481003D01*
X6495208Y-16481003D02*
X6542827Y-16481003D01*
X6542827Y-16481003D02*
X6561875Y-16490527D01*
X6561875Y-16490527D02*
X6571399Y-16500051D01*
X6571399Y-16500051D02*
X6580922Y-16519099D01*
X6580922Y-16519099D02*
X6580922Y-16566718D01*
X6580922Y-16566718D02*
X6571399Y-16585765D01*
X6571399Y-16585765D02*
X6561875Y-16595289D01*
X6561875Y-16595289D02*
X6542827Y-16604813D01*
X6542827Y-16604813D02*
X6495208Y-16604813D01*
X6495208Y-16604813D02*
X6476161Y-16595289D01*
X6476161Y-16595289D02*
X6466637Y-16585765D01*
X6647589Y-16404813D02*
X6780922Y-16404813D01*
X6780922Y-16404813D02*
X6695208Y-16604813D01*
X6847589Y-16404813D02*
X6847589Y-16442908D01*
X6923780Y-16404813D02*
X6923780Y-16442908D01*
X7219018Y-16681003D02*
X7209494Y-16671479D01*
X7209494Y-16671479D02*
X7190446Y-16642908D01*
X7190446Y-16642908D02*
X7180923Y-16623860D01*
X7180923Y-16623860D02*
X7171399Y-16595289D01*
X7171399Y-16595289D02*
X7161875Y-16547670D01*
X7161875Y-16547670D02*
X7161875Y-16509575D01*
X7161875Y-16509575D02*
X7171399Y-16461956D01*
X7171399Y-16461956D02*
X7180923Y-16433384D01*
X7180923Y-16433384D02*
X7190446Y-16414337D01*
X7190446Y-16414337D02*
X7209494Y-16385765D01*
X7209494Y-16385765D02*
X7219018Y-16376241D01*
X7380923Y-16471479D02*
X7380923Y-16604813D01*
X7333303Y-16395289D02*
X7285684Y-16538146D01*
X7285684Y-16538146D02*
X7409494Y-16538146D01*
X7495208Y-16604813D02*
X7533303Y-16604813D01*
X7533303Y-16604813D02*
X7552351Y-16595289D01*
X7552351Y-16595289D02*
X7561875Y-16585765D01*
X7561875Y-16585765D02*
X7580923Y-16557194D01*
X7580923Y-16557194D02*
X7590446Y-16519099D01*
X7590446Y-16519099D02*
X7590446Y-16442908D01*
X7590446Y-16442908D02*
X7580923Y-16423860D01*
X7580923Y-16423860D02*
X7571399Y-16414337D01*
X7571399Y-16414337D02*
X7552351Y-16404813D01*
X7552351Y-16404813D02*
X7514256Y-16404813D01*
X7514256Y-16404813D02*
X7495208Y-16414337D01*
X7495208Y-16414337D02*
X7485684Y-16423860D01*
X7485684Y-16423860D02*
X7476161Y-16442908D01*
X7476161Y-16442908D02*
X7476161Y-16490527D01*
X7476161Y-16490527D02*
X7485684Y-16509575D01*
X7485684Y-16509575D02*
X7495208Y-16519099D01*
X7495208Y-16519099D02*
X7514256Y-16528622D01*
X7514256Y-16528622D02*
X7552351Y-16528622D01*
X7552351Y-16528622D02*
X7571399Y-16519099D01*
X7571399Y-16519099D02*
X7580923Y-16509575D01*
X7580923Y-16509575D02*
X7590446Y-16490527D01*
X7828542Y-16604813D02*
X7828542Y-16404813D01*
X7914256Y-16604813D02*
X7914256Y-16500051D01*
X7914256Y-16500051D02*
X7904732Y-16481003D01*
X7904732Y-16481003D02*
X7885685Y-16471479D01*
X7885685Y-16471479D02*
X7857113Y-16471479D01*
X7857113Y-16471479D02*
X7838065Y-16481003D01*
X7838065Y-16481003D02*
X7828542Y-16490527D01*
X8038065Y-16604813D02*
X8019018Y-16595289D01*
X8019018Y-16595289D02*
X8009494Y-16585765D01*
X8009494Y-16585765D02*
X7999970Y-16566718D01*
X7999970Y-16566718D02*
X7999970Y-16509575D01*
X7999970Y-16509575D02*
X8009494Y-16490527D01*
X8009494Y-16490527D02*
X8019018Y-16481003D01*
X8019018Y-16481003D02*
X8038065Y-16471479D01*
X8038065Y-16471479D02*
X8066637Y-16471479D01*
X8066637Y-16471479D02*
X8085685Y-16481003D01*
X8085685Y-16481003D02*
X8095208Y-16490527D01*
X8095208Y-16490527D02*
X8104732Y-16509575D01*
X8104732Y-16509575D02*
X8104732Y-16566718D01*
X8104732Y-16566718D02*
X8095208Y-16585765D01*
X8095208Y-16585765D02*
X8085685Y-16595289D01*
X8085685Y-16595289D02*
X8066637Y-16604813D01*
X8066637Y-16604813D02*
X8038065Y-16604813D01*
X8219018Y-16604813D02*
X8199970Y-16595289D01*
X8199970Y-16595289D02*
X8190446Y-16576241D01*
X8190446Y-16576241D02*
X8190446Y-16404813D01*
X8371399Y-16595289D02*
X8352351Y-16604813D01*
X8352351Y-16604813D02*
X8314256Y-16604813D01*
X8314256Y-16604813D02*
X8295208Y-16595289D01*
X8295208Y-16595289D02*
X8285685Y-16576241D01*
X8285685Y-16576241D02*
X8285685Y-16500051D01*
X8285685Y-16500051D02*
X8295208Y-16481003D01*
X8295208Y-16481003D02*
X8314256Y-16471479D01*
X8314256Y-16471479D02*
X8352351Y-16471479D01*
X8352351Y-16471479D02*
X8371399Y-16481003D01*
X8371399Y-16481003D02*
X8380923Y-16500051D01*
X8380923Y-16500051D02*
X8380923Y-16519099D01*
X8380923Y-16519099D02*
X8285685Y-16538146D01*
X8457113Y-16595289D02*
X8476161Y-16604813D01*
X8476161Y-16604813D02*
X8514256Y-16604813D01*
X8514256Y-16604813D02*
X8533304Y-16595289D01*
X8533304Y-16595289D02*
X8542828Y-16576241D01*
X8542828Y-16576241D02*
X8542828Y-16566718D01*
X8542828Y-16566718D02*
X8533304Y-16547670D01*
X8533304Y-16547670D02*
X8514256Y-16538146D01*
X8514256Y-16538146D02*
X8485685Y-16538146D01*
X8485685Y-16538146D02*
X8466637Y-16528622D01*
X8466637Y-16528622D02*
X8457113Y-16509575D01*
X8457113Y-16509575D02*
X8457113Y-16500051D01*
X8457113Y-16500051D02*
X8466637Y-16481003D01*
X8466637Y-16481003D02*
X8485685Y-16471479D01*
X8485685Y-16471479D02*
X8514256Y-16471479D01*
X8514256Y-16471479D02*
X8533304Y-16481003D01*
X8609494Y-16681003D02*
X8619018Y-16671479D01*
X8619018Y-16671479D02*
X8638066Y-16642908D01*
X8638066Y-16642908D02*
X8647589Y-16623860D01*
X8647589Y-16623860D02*
X8657113Y-16595289D01*
X8657113Y-16595289D02*
X8666637Y-16547670D01*
X8666637Y-16547670D02*
X8666637Y-16509575D01*
X8666637Y-16509575D02*
X8657113Y-16461956D01*
X8657113Y-16461956D02*
X8647589Y-16433384D01*
X8647589Y-16433384D02*
X8638066Y-16414337D01*
X8638066Y-16414337D02*
X8619018Y-16385765D01*
X8619018Y-16385765D02*
X8609494Y-16376241D01*
D12*
X3643955Y-16777329D02*
G75*
G02*
X3567755Y-16777329I-38100J0D01*
G01*
X3567755Y-16777329D02*
G75*
G02*
X3643955Y-16777329I38100J0D01*
G01*
D11*
X3942827Y-16668813D02*
X3961875Y-16668813D01*
X3961875Y-16668813D02*
X3980922Y-16678337D01*
X3980922Y-16678337D02*
X3990446Y-16687860D01*
X3990446Y-16687860D02*
X3999970Y-16706908D01*
X3999970Y-16706908D02*
X4009494Y-16745003D01*
X4009494Y-16745003D02*
X4009494Y-16792622D01*
X4009494Y-16792622D02*
X3999970Y-16830718D01*
X3999970Y-16830718D02*
X3990446Y-16849765D01*
X3990446Y-16849765D02*
X3980922Y-16859289D01*
X3980922Y-16859289D02*
X3961875Y-16868813D01*
X3961875Y-16868813D02*
X3942827Y-16868813D01*
X3942827Y-16868813D02*
X3923779Y-16859289D01*
X3923779Y-16859289D02*
X3914256Y-16849765D01*
X3914256Y-16849765D02*
X3904732Y-16830718D01*
X3904732Y-16830718D02*
X3895208Y-16792622D01*
X3895208Y-16792622D02*
X3895208Y-16745003D01*
X3895208Y-16745003D02*
X3904732Y-16706908D01*
X3904732Y-16706908D02*
X3914256Y-16687860D01*
X3914256Y-16687860D02*
X3923779Y-16678337D01*
X3923779Y-16678337D02*
X3942827Y-16668813D01*
X4095208Y-16849765D02*
X4104732Y-16859289D01*
X4104732Y-16859289D02*
X4095208Y-16868813D01*
X4095208Y-16868813D02*
X4085684Y-16859289D01*
X4085684Y-16859289D02*
X4095208Y-16849765D01*
X4095208Y-16849765D02*
X4095208Y-16868813D01*
X4171398Y-16668813D02*
X4304732Y-16668813D01*
X4304732Y-16668813D02*
X4219018Y-16868813D01*
X4466637Y-16668813D02*
X4428541Y-16668813D01*
X4428541Y-16668813D02*
X4409494Y-16678337D01*
X4409494Y-16678337D02*
X4399970Y-16687860D01*
X4399970Y-16687860D02*
X4380922Y-16716432D01*
X4380922Y-16716432D02*
X4371399Y-16754527D01*
X4371399Y-16754527D02*
X4371399Y-16830718D01*
X4371399Y-16830718D02*
X4380922Y-16849765D01*
X4380922Y-16849765D02*
X4390446Y-16859289D01*
X4390446Y-16859289D02*
X4409494Y-16868813D01*
X4409494Y-16868813D02*
X4447589Y-16868813D01*
X4447589Y-16868813D02*
X4466637Y-16859289D01*
X4466637Y-16859289D02*
X4476160Y-16849765D01*
X4476160Y-16849765D02*
X4485684Y-16830718D01*
X4485684Y-16830718D02*
X4485684Y-16783099D01*
X4485684Y-16783099D02*
X4476160Y-16764051D01*
X4476160Y-16764051D02*
X4466637Y-16754527D01*
X4466637Y-16754527D02*
X4447589Y-16745003D01*
X4447589Y-16745003D02*
X4409494Y-16745003D01*
X4409494Y-16745003D02*
X4390446Y-16754527D01*
X4390446Y-16754527D02*
X4380922Y-16764051D01*
X4380922Y-16764051D02*
X4371399Y-16783099D01*
X4561875Y-16687860D02*
X4571399Y-16678337D01*
X4571399Y-16678337D02*
X4590446Y-16668813D01*
X4590446Y-16668813D02*
X4638065Y-16668813D01*
X4638065Y-16668813D02*
X4657113Y-16678337D01*
X4657113Y-16678337D02*
X4666637Y-16687860D01*
X4666637Y-16687860D02*
X4676160Y-16706908D01*
X4676160Y-16706908D02*
X4676160Y-16725956D01*
X4676160Y-16725956D02*
X4666637Y-16754527D01*
X4666637Y-16754527D02*
X4552351Y-16868813D01*
X4552351Y-16868813D02*
X4676160Y-16868813D01*
X4761875Y-16868813D02*
X4761875Y-16735479D01*
X4761875Y-16754527D02*
X4771399Y-16745003D01*
X4771399Y-16745003D02*
X4790446Y-16735479D01*
X4790446Y-16735479D02*
X4819018Y-16735479D01*
X4819018Y-16735479D02*
X4838065Y-16745003D01*
X4838065Y-16745003D02*
X4847589Y-16764051D01*
X4847589Y-16764051D02*
X4847589Y-16868813D01*
X4847589Y-16764051D02*
X4857113Y-16745003D01*
X4857113Y-16745003D02*
X4876160Y-16735479D01*
X4876160Y-16735479D02*
X4904732Y-16735479D01*
X4904732Y-16735479D02*
X4923780Y-16745003D01*
X4923780Y-16745003D02*
X4933303Y-16764051D01*
X4933303Y-16764051D02*
X4933303Y-16868813D01*
X5028541Y-16868813D02*
X5028541Y-16735479D01*
X5028541Y-16754527D02*
X5038065Y-16745003D01*
X5038065Y-16745003D02*
X5057113Y-16735479D01*
X5057113Y-16735479D02*
X5085684Y-16735479D01*
X5085684Y-16735479D02*
X5104732Y-16745003D01*
X5104732Y-16745003D02*
X5114256Y-16764051D01*
X5114256Y-16764051D02*
X5114256Y-16868813D01*
X5114256Y-16764051D02*
X5123780Y-16745003D01*
X5123780Y-16745003D02*
X5142827Y-16735479D01*
X5142827Y-16735479D02*
X5171399Y-16735479D01*
X5171399Y-16735479D02*
X5190446Y-16745003D01*
X5190446Y-16745003D02*
X5199970Y-16764051D01*
X5199970Y-16764051D02*
X5199970Y-16868813D01*
X5590446Y-16659289D02*
X5419018Y-16916432D01*
X5847589Y-16668813D02*
X5866637Y-16668813D01*
X5866637Y-16668813D02*
X5885684Y-16678337D01*
X5885684Y-16678337D02*
X5895208Y-16687860D01*
X5895208Y-16687860D02*
X5904732Y-16706908D01*
X5904732Y-16706908D02*
X5914256Y-16745003D01*
X5914256Y-16745003D02*
X5914256Y-16792622D01*
X5914256Y-16792622D02*
X5904732Y-16830718D01*
X5904732Y-16830718D02*
X5895208Y-16849765D01*
X5895208Y-16849765D02*
X5885684Y-16859289D01*
X5885684Y-16859289D02*
X5866637Y-16868813D01*
X5866637Y-16868813D02*
X5847589Y-16868813D01*
X5847589Y-16868813D02*
X5828541Y-16859289D01*
X5828541Y-16859289D02*
X5819018Y-16849765D01*
X5819018Y-16849765D02*
X5809494Y-16830718D01*
X5809494Y-16830718D02*
X5799970Y-16792622D01*
X5799970Y-16792622D02*
X5799970Y-16745003D01*
X5799970Y-16745003D02*
X5809494Y-16706908D01*
X5809494Y-16706908D02*
X5819018Y-16687860D01*
X5819018Y-16687860D02*
X5828541Y-16678337D01*
X5828541Y-16678337D02*
X5847589Y-16668813D01*
X5999970Y-16849765D02*
X6009494Y-16859289D01*
X6009494Y-16859289D02*
X5999970Y-16868813D01*
X5999970Y-16868813D02*
X5990446Y-16859289D01*
X5990446Y-16859289D02*
X5999970Y-16849765D01*
X5999970Y-16849765D02*
X5999970Y-16868813D01*
X6133303Y-16668813D02*
X6152351Y-16668813D01*
X6152351Y-16668813D02*
X6171399Y-16678337D01*
X6171399Y-16678337D02*
X6180922Y-16687860D01*
X6180922Y-16687860D02*
X6190446Y-16706908D01*
X6190446Y-16706908D02*
X6199970Y-16745003D01*
X6199970Y-16745003D02*
X6199970Y-16792622D01*
X6199970Y-16792622D02*
X6190446Y-16830718D01*
X6190446Y-16830718D02*
X6180922Y-16849765D01*
X6180922Y-16849765D02*
X6171399Y-16859289D01*
X6171399Y-16859289D02*
X6152351Y-16868813D01*
X6152351Y-16868813D02*
X6133303Y-16868813D01*
X6133303Y-16868813D02*
X6114256Y-16859289D01*
X6114256Y-16859289D02*
X6104732Y-16849765D01*
X6104732Y-16849765D02*
X6095208Y-16830718D01*
X6095208Y-16830718D02*
X6085684Y-16792622D01*
X6085684Y-16792622D02*
X6085684Y-16745003D01*
X6085684Y-16745003D02*
X6095208Y-16706908D01*
X6095208Y-16706908D02*
X6104732Y-16687860D01*
X6104732Y-16687860D02*
X6114256Y-16678337D01*
X6114256Y-16678337D02*
X6133303Y-16668813D01*
X6266637Y-16668813D02*
X6390446Y-16668813D01*
X6390446Y-16668813D02*
X6323780Y-16745003D01*
X6323780Y-16745003D02*
X6352351Y-16745003D01*
X6352351Y-16745003D02*
X6371399Y-16754527D01*
X6371399Y-16754527D02*
X6380922Y-16764051D01*
X6380922Y-16764051D02*
X6390446Y-16783099D01*
X6390446Y-16783099D02*
X6390446Y-16830718D01*
X6390446Y-16830718D02*
X6380922Y-16849765D01*
X6380922Y-16849765D02*
X6371399Y-16859289D01*
X6371399Y-16859289D02*
X6352351Y-16868813D01*
X6352351Y-16868813D02*
X6295208Y-16868813D01*
X6295208Y-16868813D02*
X6276161Y-16859289D01*
X6276161Y-16859289D02*
X6266637Y-16849765D01*
X6514256Y-16668813D02*
X6533303Y-16668813D01*
X6533303Y-16668813D02*
X6552351Y-16678337D01*
X6552351Y-16678337D02*
X6561875Y-16687860D01*
X6561875Y-16687860D02*
X6571399Y-16706908D01*
X6571399Y-16706908D02*
X6580922Y-16745003D01*
X6580922Y-16745003D02*
X6580922Y-16792622D01*
X6580922Y-16792622D02*
X6571399Y-16830718D01*
X6571399Y-16830718D02*
X6561875Y-16849765D01*
X6561875Y-16849765D02*
X6552351Y-16859289D01*
X6552351Y-16859289D02*
X6533303Y-16868813D01*
X6533303Y-16868813D02*
X6514256Y-16868813D01*
X6514256Y-16868813D02*
X6495208Y-16859289D01*
X6495208Y-16859289D02*
X6485684Y-16849765D01*
X6485684Y-16849765D02*
X6476161Y-16830718D01*
X6476161Y-16830718D02*
X6466637Y-16792622D01*
X6466637Y-16792622D02*
X6466637Y-16745003D01*
X6466637Y-16745003D02*
X6476161Y-16706908D01*
X6476161Y-16706908D02*
X6485684Y-16687860D01*
X6485684Y-16687860D02*
X6495208Y-16678337D01*
X6495208Y-16678337D02*
X6514256Y-16668813D01*
X6704732Y-16668813D02*
X6723780Y-16668813D01*
X6723780Y-16668813D02*
X6742827Y-16678337D01*
X6742827Y-16678337D02*
X6752351Y-16687860D01*
X6752351Y-16687860D02*
X6761875Y-16706908D01*
X6761875Y-16706908D02*
X6771399Y-16745003D01*
X6771399Y-16745003D02*
X6771399Y-16792622D01*
X6771399Y-16792622D02*
X6761875Y-16830718D01*
X6761875Y-16830718D02*
X6752351Y-16849765D01*
X6752351Y-16849765D02*
X6742827Y-16859289D01*
X6742827Y-16859289D02*
X6723780Y-16868813D01*
X6723780Y-16868813D02*
X6704732Y-16868813D01*
X6704732Y-16868813D02*
X6685684Y-16859289D01*
X6685684Y-16859289D02*
X6676161Y-16849765D01*
X6676161Y-16849765D02*
X6666637Y-16830718D01*
X6666637Y-16830718D02*
X6657113Y-16792622D01*
X6657113Y-16792622D02*
X6657113Y-16745003D01*
X6657113Y-16745003D02*
X6666637Y-16706908D01*
X6666637Y-16706908D02*
X6676161Y-16687860D01*
X6676161Y-16687860D02*
X6685684Y-16678337D01*
X6685684Y-16678337D02*
X6704732Y-16668813D01*
X6847589Y-16668813D02*
X6847589Y-16706908D01*
X6923780Y-16668813D02*
X6923780Y-16706908D01*
X7219018Y-16945003D02*
X7209494Y-16935480D01*
X7209494Y-16935480D02*
X7190446Y-16906908D01*
X7190446Y-16906908D02*
X7180923Y-16887861D01*
X7180923Y-16887861D02*
X7171399Y-16859289D01*
X7171399Y-16859289D02*
X7161875Y-16811670D01*
X7161875Y-16811670D02*
X7161875Y-16773575D01*
X7161875Y-16773575D02*
X7171399Y-16725956D01*
X7171399Y-16725956D02*
X7180923Y-16697384D01*
X7180923Y-16697384D02*
X7190446Y-16678337D01*
X7190446Y-16678337D02*
X7209494Y-16649765D01*
X7209494Y-16649765D02*
X7219018Y-16640241D01*
X7285684Y-16687860D02*
X7295208Y-16678337D01*
X7295208Y-16678337D02*
X7314256Y-16668813D01*
X7314256Y-16668813D02*
X7361875Y-16668813D01*
X7361875Y-16668813D02*
X7380923Y-16678337D01*
X7380923Y-16678337D02*
X7390446Y-16687860D01*
X7390446Y-16687860D02*
X7399970Y-16706908D01*
X7399970Y-16706908D02*
X7399970Y-16725956D01*
X7399970Y-16725956D02*
X7390446Y-16754527D01*
X7390446Y-16754527D02*
X7276161Y-16868813D01*
X7276161Y-16868813D02*
X7399970Y-16868813D01*
X7466637Y-16668813D02*
X7590446Y-16668813D01*
X7590446Y-16668813D02*
X7523780Y-16745003D01*
X7523780Y-16745003D02*
X7552351Y-16745003D01*
X7552351Y-16745003D02*
X7571399Y-16754527D01*
X7571399Y-16754527D02*
X7580923Y-16764051D01*
X7580923Y-16764051D02*
X7590446Y-16783099D01*
X7590446Y-16783099D02*
X7590446Y-16830718D01*
X7590446Y-16830718D02*
X7580923Y-16849765D01*
X7580923Y-16849765D02*
X7571399Y-16859289D01*
X7571399Y-16859289D02*
X7552351Y-16868813D01*
X7552351Y-16868813D02*
X7495208Y-16868813D01*
X7495208Y-16868813D02*
X7476161Y-16859289D01*
X7476161Y-16859289D02*
X7466637Y-16849765D01*
X7828542Y-16868813D02*
X7828542Y-16668813D01*
X7914256Y-16868813D02*
X7914256Y-16764051D01*
X7914256Y-16764051D02*
X7904732Y-16745003D01*
X7904732Y-16745003D02*
X7885685Y-16735479D01*
X7885685Y-16735479D02*
X7857113Y-16735479D01*
X7857113Y-16735479D02*
X7838065Y-16745003D01*
X7838065Y-16745003D02*
X7828542Y-16754527D01*
X8038065Y-16868813D02*
X8019018Y-16859289D01*
X8019018Y-16859289D02*
X8009494Y-16849765D01*
X8009494Y-16849765D02*
X7999970Y-16830718D01*
X7999970Y-16830718D02*
X7999970Y-16773575D01*
X7999970Y-16773575D02*
X8009494Y-16754527D01*
X8009494Y-16754527D02*
X8019018Y-16745003D01*
X8019018Y-16745003D02*
X8038065Y-16735479D01*
X8038065Y-16735479D02*
X8066637Y-16735479D01*
X8066637Y-16735479D02*
X8085685Y-16745003D01*
X8085685Y-16745003D02*
X8095208Y-16754527D01*
X8095208Y-16754527D02*
X8104732Y-16773575D01*
X8104732Y-16773575D02*
X8104732Y-16830718D01*
X8104732Y-16830718D02*
X8095208Y-16849765D01*
X8095208Y-16849765D02*
X8085685Y-16859289D01*
X8085685Y-16859289D02*
X8066637Y-16868813D01*
X8066637Y-16868813D02*
X8038065Y-16868813D01*
X8219018Y-16868813D02*
X8199970Y-16859289D01*
X8199970Y-16859289D02*
X8190446Y-16840241D01*
X8190446Y-16840241D02*
X8190446Y-16668813D01*
X8371399Y-16859289D02*
X8352351Y-16868813D01*
X8352351Y-16868813D02*
X8314256Y-16868813D01*
X8314256Y-16868813D02*
X8295208Y-16859289D01*
X8295208Y-16859289D02*
X8285685Y-16840241D01*
X8285685Y-16840241D02*
X8285685Y-16764051D01*
X8285685Y-16764051D02*
X8295208Y-16745003D01*
X8295208Y-16745003D02*
X8314256Y-16735479D01*
X8314256Y-16735479D02*
X8352351Y-16735479D01*
X8352351Y-16735479D02*
X8371399Y-16745003D01*
X8371399Y-16745003D02*
X8380923Y-16764051D01*
X8380923Y-16764051D02*
X8380923Y-16783099D01*
X8380923Y-16783099D02*
X8285685Y-16802146D01*
X8457113Y-16859289D02*
X8476161Y-16868813D01*
X8476161Y-16868813D02*
X8514256Y-16868813D01*
X8514256Y-16868813D02*
X8533304Y-16859289D01*
X8533304Y-16859289D02*
X8542828Y-16840241D01*
X8542828Y-16840241D02*
X8542828Y-16830718D01*
X8542828Y-16830718D02*
X8533304Y-16811670D01*
X8533304Y-16811670D02*
X8514256Y-16802146D01*
X8514256Y-16802146D02*
X8485685Y-16802146D01*
X8485685Y-16802146D02*
X8466637Y-16792622D01*
X8466637Y-16792622D02*
X8457113Y-16773575D01*
X8457113Y-16773575D02*
X8457113Y-16764051D01*
X8457113Y-16764051D02*
X8466637Y-16745003D01*
X8466637Y-16745003D02*
X8485685Y-16735479D01*
X8485685Y-16735479D02*
X8514256Y-16735479D01*
X8514256Y-16735479D02*
X8533304Y-16745003D01*
X8609494Y-16945003D02*
X8619018Y-16935480D01*
X8619018Y-16935480D02*
X8638066Y-16906908D01*
X8638066Y-16906908D02*
X8647589Y-16887861D01*
X8647589Y-16887861D02*
X8657113Y-16859289D01*
X8657113Y-16859289D02*
X8666637Y-16811670D01*
X8666637Y-16811670D02*
X8666637Y-16773575D01*
X8666637Y-16773575D02*
X8657113Y-16725956D01*
X8657113Y-16725956D02*
X8647589Y-16697384D01*
X8647589Y-16697384D02*
X8638066Y-16678337D01*
X8638066Y-16678337D02*
X8619018Y-16649765D01*
X8619018Y-16649765D02*
X8609494Y-16640241D01*
D12*
X3598955Y-16996329D02*
X3598955Y-17086329D01*
X3553955Y-17041329D02*
X3643955Y-17041329D01*
D11*
X3942827Y-16932813D02*
X3961875Y-16932813D01*
X3961875Y-16932813D02*
X3980922Y-16942337D01*
X3980922Y-16942337D02*
X3990446Y-16951861D01*
X3990446Y-16951861D02*
X3999970Y-16970908D01*
X3999970Y-16970908D02*
X4009494Y-17009003D01*
X4009494Y-17009003D02*
X4009494Y-17056622D01*
X4009494Y-17056622D02*
X3999970Y-17094718D01*
X3999970Y-17094718D02*
X3990446Y-17113765D01*
X3990446Y-17113765D02*
X3980922Y-17123289D01*
X3980922Y-17123289D02*
X3961875Y-17132813D01*
X3961875Y-17132813D02*
X3942827Y-17132813D01*
X3942827Y-17132813D02*
X3923779Y-17123289D01*
X3923779Y-17123289D02*
X3914256Y-17113765D01*
X3914256Y-17113765D02*
X3904732Y-17094718D01*
X3904732Y-17094718D02*
X3895208Y-17056622D01*
X3895208Y-17056622D02*
X3895208Y-17009003D01*
X3895208Y-17009003D02*
X3904732Y-16970908D01*
X3904732Y-16970908D02*
X3914256Y-16951861D01*
X3914256Y-16951861D02*
X3923779Y-16942337D01*
X3923779Y-16942337D02*
X3942827Y-16932813D01*
X4095208Y-17113765D02*
X4104732Y-17123289D01*
X4104732Y-17123289D02*
X4095208Y-17132813D01*
X4095208Y-17132813D02*
X4085684Y-17123289D01*
X4085684Y-17123289D02*
X4095208Y-17113765D01*
X4095208Y-17113765D02*
X4095208Y-17132813D01*
X4199970Y-17132813D02*
X4238065Y-17132813D01*
X4238065Y-17132813D02*
X4257113Y-17123289D01*
X4257113Y-17123289D02*
X4266637Y-17113765D01*
X4266637Y-17113765D02*
X4285684Y-17085194D01*
X4285684Y-17085194D02*
X4295208Y-17047099D01*
X4295208Y-17047099D02*
X4295208Y-16970908D01*
X4295208Y-16970908D02*
X4285684Y-16951861D01*
X4285684Y-16951861D02*
X4276160Y-16942337D01*
X4276160Y-16942337D02*
X4257113Y-16932813D01*
X4257113Y-16932813D02*
X4219018Y-16932813D01*
X4219018Y-16932813D02*
X4199970Y-16942337D01*
X4199970Y-16942337D02*
X4190446Y-16951861D01*
X4190446Y-16951861D02*
X4180922Y-16970908D01*
X4180922Y-16970908D02*
X4180922Y-17018527D01*
X4180922Y-17018527D02*
X4190446Y-17037575D01*
X4190446Y-17037575D02*
X4199970Y-17047099D01*
X4199970Y-17047099D02*
X4219018Y-17056622D01*
X4219018Y-17056622D02*
X4257113Y-17056622D01*
X4257113Y-17056622D02*
X4276160Y-17047099D01*
X4276160Y-17047099D02*
X4285684Y-17037575D01*
X4285684Y-17037575D02*
X4295208Y-17018527D01*
X4419018Y-16932813D02*
X4438065Y-16932813D01*
X4438065Y-16932813D02*
X4457113Y-16942337D01*
X4457113Y-16942337D02*
X4466637Y-16951861D01*
X4466637Y-16951861D02*
X4476160Y-16970908D01*
X4476160Y-16970908D02*
X4485684Y-17009003D01*
X4485684Y-17009003D02*
X4485684Y-17056622D01*
X4485684Y-17056622D02*
X4476160Y-17094718D01*
X4476160Y-17094718D02*
X4466637Y-17113765D01*
X4466637Y-17113765D02*
X4457113Y-17123289D01*
X4457113Y-17123289D02*
X4438065Y-17132813D01*
X4438065Y-17132813D02*
X4419018Y-17132813D01*
X4419018Y-17132813D02*
X4399970Y-17123289D01*
X4399970Y-17123289D02*
X4390446Y-17113765D01*
X4390446Y-17113765D02*
X4380922Y-17094718D01*
X4380922Y-17094718D02*
X4371399Y-17056622D01*
X4371399Y-17056622D02*
X4371399Y-17009003D01*
X4371399Y-17009003D02*
X4380922Y-16970908D01*
X4380922Y-16970908D02*
X4390446Y-16951861D01*
X4390446Y-16951861D02*
X4399970Y-16942337D01*
X4399970Y-16942337D02*
X4419018Y-16932813D01*
X4609494Y-16932813D02*
X4628541Y-16932813D01*
X4628541Y-16932813D02*
X4647589Y-16942337D01*
X4647589Y-16942337D02*
X4657113Y-16951861D01*
X4657113Y-16951861D02*
X4666637Y-16970908D01*
X4666637Y-16970908D02*
X4676160Y-17009003D01*
X4676160Y-17009003D02*
X4676160Y-17056622D01*
X4676160Y-17056622D02*
X4666637Y-17094718D01*
X4666637Y-17094718D02*
X4657113Y-17113765D01*
X4657113Y-17113765D02*
X4647589Y-17123289D01*
X4647589Y-17123289D02*
X4628541Y-17132813D01*
X4628541Y-17132813D02*
X4609494Y-17132813D01*
X4609494Y-17132813D02*
X4590446Y-17123289D01*
X4590446Y-17123289D02*
X4580922Y-17113765D01*
X4580922Y-17113765D02*
X4571399Y-17094718D01*
X4571399Y-17094718D02*
X4561875Y-17056622D01*
X4561875Y-17056622D02*
X4561875Y-17009003D01*
X4561875Y-17009003D02*
X4571399Y-16970908D01*
X4571399Y-16970908D02*
X4580922Y-16951861D01*
X4580922Y-16951861D02*
X4590446Y-16942337D01*
X4590446Y-16942337D02*
X4609494Y-16932813D01*
X4761875Y-17132813D02*
X4761875Y-16999480D01*
X4761875Y-17018527D02*
X4771399Y-17009003D01*
X4771399Y-17009003D02*
X4790446Y-16999480D01*
X4790446Y-16999480D02*
X4819018Y-16999480D01*
X4819018Y-16999480D02*
X4838065Y-17009003D01*
X4838065Y-17009003D02*
X4847589Y-17028051D01*
X4847589Y-17028051D02*
X4847589Y-17132813D01*
X4847589Y-17028051D02*
X4857113Y-17009003D01*
X4857113Y-17009003D02*
X4876160Y-16999480D01*
X4876160Y-16999480D02*
X4904732Y-16999480D01*
X4904732Y-16999480D02*
X4923780Y-17009003D01*
X4923780Y-17009003D02*
X4933303Y-17028051D01*
X4933303Y-17028051D02*
X4933303Y-17132813D01*
X5028541Y-17132813D02*
X5028541Y-16999480D01*
X5028541Y-17018527D02*
X5038065Y-17009003D01*
X5038065Y-17009003D02*
X5057113Y-16999480D01*
X5057113Y-16999480D02*
X5085684Y-16999480D01*
X5085684Y-16999480D02*
X5104732Y-17009003D01*
X5104732Y-17009003D02*
X5114256Y-17028051D01*
X5114256Y-17028051D02*
X5114256Y-17132813D01*
X5114256Y-17028051D02*
X5123780Y-17009003D01*
X5123780Y-17009003D02*
X5142827Y-16999480D01*
X5142827Y-16999480D02*
X5171399Y-16999480D01*
X5171399Y-16999480D02*
X5190446Y-17009003D01*
X5190446Y-17009003D02*
X5199970Y-17028051D01*
X5199970Y-17028051D02*
X5199970Y-17132813D01*
X5590446Y-16923289D02*
X5419018Y-17180432D01*
X5847589Y-16932813D02*
X5866637Y-16932813D01*
X5866637Y-16932813D02*
X5885684Y-16942337D01*
X5885684Y-16942337D02*
X5895208Y-16951861D01*
X5895208Y-16951861D02*
X5904732Y-16970908D01*
X5904732Y-16970908D02*
X5914256Y-17009003D01*
X5914256Y-17009003D02*
X5914256Y-17056622D01*
X5914256Y-17056622D02*
X5904732Y-17094718D01*
X5904732Y-17094718D02*
X5895208Y-17113765D01*
X5895208Y-17113765D02*
X5885684Y-17123289D01*
X5885684Y-17123289D02*
X5866637Y-17132813D01*
X5866637Y-17132813D02*
X5847589Y-17132813D01*
X5847589Y-17132813D02*
X5828541Y-17123289D01*
X5828541Y-17123289D02*
X5819018Y-17113765D01*
X5819018Y-17113765D02*
X5809494Y-17094718D01*
X5809494Y-17094718D02*
X5799970Y-17056622D01*
X5799970Y-17056622D02*
X5799970Y-17009003D01*
X5799970Y-17009003D02*
X5809494Y-16970908D01*
X5809494Y-16970908D02*
X5819018Y-16951861D01*
X5819018Y-16951861D02*
X5828541Y-16942337D01*
X5828541Y-16942337D02*
X5847589Y-16932813D01*
X5999970Y-17113765D02*
X6009494Y-17123289D01*
X6009494Y-17123289D02*
X5999970Y-17132813D01*
X5999970Y-17132813D02*
X5990446Y-17123289D01*
X5990446Y-17123289D02*
X5999970Y-17113765D01*
X5999970Y-17113765D02*
X5999970Y-17132813D01*
X6133303Y-16932813D02*
X6152351Y-16932813D01*
X6152351Y-16932813D02*
X6171399Y-16942337D01*
X6171399Y-16942337D02*
X6180922Y-16951861D01*
X6180922Y-16951861D02*
X6190446Y-16970908D01*
X6190446Y-16970908D02*
X6199970Y-17009003D01*
X6199970Y-17009003D02*
X6199970Y-17056622D01*
X6199970Y-17056622D02*
X6190446Y-17094718D01*
X6190446Y-17094718D02*
X6180922Y-17113765D01*
X6180922Y-17113765D02*
X6171399Y-17123289D01*
X6171399Y-17123289D02*
X6152351Y-17132813D01*
X6152351Y-17132813D02*
X6133303Y-17132813D01*
X6133303Y-17132813D02*
X6114256Y-17123289D01*
X6114256Y-17123289D02*
X6104732Y-17113765D01*
X6104732Y-17113765D02*
X6095208Y-17094718D01*
X6095208Y-17094718D02*
X6085684Y-17056622D01*
X6085684Y-17056622D02*
X6085684Y-17009003D01*
X6085684Y-17009003D02*
X6095208Y-16970908D01*
X6095208Y-16970908D02*
X6104732Y-16951861D01*
X6104732Y-16951861D02*
X6114256Y-16942337D01*
X6114256Y-16942337D02*
X6133303Y-16932813D01*
X6266637Y-16932813D02*
X6390446Y-16932813D01*
X6390446Y-16932813D02*
X6323780Y-17009003D01*
X6323780Y-17009003D02*
X6352351Y-17009003D01*
X6352351Y-17009003D02*
X6371399Y-17018527D01*
X6371399Y-17018527D02*
X6380922Y-17028051D01*
X6380922Y-17028051D02*
X6390446Y-17047099D01*
X6390446Y-17047099D02*
X6390446Y-17094718D01*
X6390446Y-17094718D02*
X6380922Y-17113765D01*
X6380922Y-17113765D02*
X6371399Y-17123289D01*
X6371399Y-17123289D02*
X6352351Y-17132813D01*
X6352351Y-17132813D02*
X6295208Y-17132813D01*
X6295208Y-17132813D02*
X6276161Y-17123289D01*
X6276161Y-17123289D02*
X6266637Y-17113765D01*
X6571399Y-16932813D02*
X6476161Y-16932813D01*
X6476161Y-16932813D02*
X6466637Y-17028051D01*
X6466637Y-17028051D02*
X6476161Y-17018527D01*
X6476161Y-17018527D02*
X6495208Y-17009003D01*
X6495208Y-17009003D02*
X6542827Y-17009003D01*
X6542827Y-17009003D02*
X6561875Y-17018527D01*
X6561875Y-17018527D02*
X6571399Y-17028051D01*
X6571399Y-17028051D02*
X6580922Y-17047099D01*
X6580922Y-17047099D02*
X6580922Y-17094718D01*
X6580922Y-17094718D02*
X6571399Y-17113765D01*
X6571399Y-17113765D02*
X6561875Y-17123289D01*
X6561875Y-17123289D02*
X6542827Y-17132813D01*
X6542827Y-17132813D02*
X6495208Y-17132813D01*
X6495208Y-17132813D02*
X6476161Y-17123289D01*
X6476161Y-17123289D02*
X6466637Y-17113765D01*
X6752351Y-16999480D02*
X6752351Y-17132813D01*
X6704732Y-16923289D02*
X6657113Y-17066146D01*
X6657113Y-17066146D02*
X6780922Y-17066146D01*
X6847589Y-16932813D02*
X6847589Y-16970908D01*
X6923780Y-16932813D02*
X6923780Y-16970908D01*
X7219018Y-17209003D02*
X7209494Y-17199480D01*
X7209494Y-17199480D02*
X7190446Y-17170908D01*
X7190446Y-17170908D02*
X7180923Y-17151861D01*
X7180923Y-17151861D02*
X7171399Y-17123289D01*
X7171399Y-17123289D02*
X7161875Y-17075670D01*
X7161875Y-17075670D02*
X7161875Y-17037575D01*
X7161875Y-17037575D02*
X7171399Y-16989956D01*
X7171399Y-16989956D02*
X7180923Y-16961384D01*
X7180923Y-16961384D02*
X7190446Y-16942337D01*
X7190446Y-16942337D02*
X7209494Y-16913765D01*
X7209494Y-16913765D02*
X7219018Y-16904241D01*
X7399970Y-17132813D02*
X7285684Y-17132813D01*
X7342827Y-17132813D02*
X7342827Y-16932813D01*
X7342827Y-16932813D02*
X7323780Y-16961384D01*
X7323780Y-16961384D02*
X7304732Y-16980432D01*
X7304732Y-16980432D02*
X7285684Y-16989956D01*
X7571399Y-16932813D02*
X7533303Y-16932813D01*
X7533303Y-16932813D02*
X7514256Y-16942337D01*
X7514256Y-16942337D02*
X7504732Y-16951861D01*
X7504732Y-16951861D02*
X7485684Y-16980432D01*
X7485684Y-16980432D02*
X7476161Y-17018527D01*
X7476161Y-17018527D02*
X7476161Y-17094718D01*
X7476161Y-17094718D02*
X7485684Y-17113765D01*
X7485684Y-17113765D02*
X7495208Y-17123289D01*
X7495208Y-17123289D02*
X7514256Y-17132813D01*
X7514256Y-17132813D02*
X7552351Y-17132813D01*
X7552351Y-17132813D02*
X7571399Y-17123289D01*
X7571399Y-17123289D02*
X7580923Y-17113765D01*
X7580923Y-17113765D02*
X7590446Y-17094718D01*
X7590446Y-17094718D02*
X7590446Y-17047099D01*
X7590446Y-17047099D02*
X7580923Y-17028051D01*
X7580923Y-17028051D02*
X7571399Y-17018527D01*
X7571399Y-17018527D02*
X7552351Y-17009003D01*
X7552351Y-17009003D02*
X7514256Y-17009003D01*
X7514256Y-17009003D02*
X7495208Y-17018527D01*
X7495208Y-17018527D02*
X7485684Y-17028051D01*
X7485684Y-17028051D02*
X7476161Y-17047099D01*
X7828542Y-17132813D02*
X7828542Y-16932813D01*
X7914256Y-17132813D02*
X7914256Y-17028051D01*
X7914256Y-17028051D02*
X7904732Y-17009003D01*
X7904732Y-17009003D02*
X7885685Y-16999480D01*
X7885685Y-16999480D02*
X7857113Y-16999480D01*
X7857113Y-16999480D02*
X7838065Y-17009003D01*
X7838065Y-17009003D02*
X7828542Y-17018527D01*
X8038065Y-17132813D02*
X8019018Y-17123289D01*
X8019018Y-17123289D02*
X8009494Y-17113765D01*
X8009494Y-17113765D02*
X7999970Y-17094718D01*
X7999970Y-17094718D02*
X7999970Y-17037575D01*
X7999970Y-17037575D02*
X8009494Y-17018527D01*
X8009494Y-17018527D02*
X8019018Y-17009003D01*
X8019018Y-17009003D02*
X8038065Y-16999480D01*
X8038065Y-16999480D02*
X8066637Y-16999480D01*
X8066637Y-16999480D02*
X8085685Y-17009003D01*
X8085685Y-17009003D02*
X8095208Y-17018527D01*
X8095208Y-17018527D02*
X8104732Y-17037575D01*
X8104732Y-17037575D02*
X8104732Y-17094718D01*
X8104732Y-17094718D02*
X8095208Y-17113765D01*
X8095208Y-17113765D02*
X8085685Y-17123289D01*
X8085685Y-17123289D02*
X8066637Y-17132813D01*
X8066637Y-17132813D02*
X8038065Y-17132813D01*
X8219018Y-17132813D02*
X8199970Y-17123289D01*
X8199970Y-17123289D02*
X8190446Y-17104241D01*
X8190446Y-17104241D02*
X8190446Y-16932813D01*
X8371399Y-17123289D02*
X8352351Y-17132813D01*
X8352351Y-17132813D02*
X8314256Y-17132813D01*
X8314256Y-17132813D02*
X8295208Y-17123289D01*
X8295208Y-17123289D02*
X8285685Y-17104241D01*
X8285685Y-17104241D02*
X8285685Y-17028051D01*
X8285685Y-17028051D02*
X8295208Y-17009003D01*
X8295208Y-17009003D02*
X8314256Y-16999480D01*
X8314256Y-16999480D02*
X8352351Y-16999480D01*
X8352351Y-16999480D02*
X8371399Y-17009003D01*
X8371399Y-17009003D02*
X8380923Y-17028051D01*
X8380923Y-17028051D02*
X8380923Y-17047099D01*
X8380923Y-17047099D02*
X8285685Y-17066146D01*
X8457113Y-17123289D02*
X8476161Y-17132813D01*
X8476161Y-17132813D02*
X8514256Y-17132813D01*
X8514256Y-17132813D02*
X8533304Y-17123289D01*
X8533304Y-17123289D02*
X8542828Y-17104241D01*
X8542828Y-17104241D02*
X8542828Y-17094718D01*
X8542828Y-17094718D02*
X8533304Y-17075670D01*
X8533304Y-17075670D02*
X8514256Y-17066146D01*
X8514256Y-17066146D02*
X8485685Y-17066146D01*
X8485685Y-17066146D02*
X8466637Y-17056622D01*
X8466637Y-17056622D02*
X8457113Y-17037575D01*
X8457113Y-17037575D02*
X8457113Y-17028051D01*
X8457113Y-17028051D02*
X8466637Y-17009003D01*
X8466637Y-17009003D02*
X8485685Y-16999480D01*
X8485685Y-16999480D02*
X8514256Y-16999480D01*
X8514256Y-16999480D02*
X8533304Y-17009003D01*
X8609494Y-17209003D02*
X8619018Y-17199480D01*
X8619018Y-17199480D02*
X8638066Y-17170908D01*
X8638066Y-17170908D02*
X8647589Y-17151861D01*
X8647589Y-17151861D02*
X8657113Y-17123289D01*
X8657113Y-17123289D02*
X8666637Y-17075670D01*
X8666637Y-17075670D02*
X8666637Y-17037575D01*
X8666637Y-17037575D02*
X8657113Y-16989956D01*
X8657113Y-16989956D02*
X8647589Y-16961384D01*
X8647589Y-16961384D02*
X8638066Y-16942337D01*
X8638066Y-16942337D02*
X8619018Y-16913765D01*
X8619018Y-16913765D02*
X8609494Y-16904241D01*
D12*
X3629311Y-17340685D02*
X3629311Y-17269973D01*
X3558599Y-17269973D01*
X3558599Y-17340685D01*
X3629311Y-17340685D01*
D11*
X4009494Y-17396813D02*
X3895208Y-17396813D01*
X3952351Y-17396813D02*
X3952351Y-17196813D01*
X3952351Y-17196813D02*
X3933303Y-17225384D01*
X3933303Y-17225384D02*
X3914256Y-17244432D01*
X3914256Y-17244432D02*
X3895208Y-17253956D01*
X4095208Y-17377765D02*
X4104732Y-17387289D01*
X4104732Y-17387289D02*
X4095208Y-17396813D01*
X4095208Y-17396813D02*
X4085684Y-17387289D01*
X4085684Y-17387289D02*
X4095208Y-17377765D01*
X4095208Y-17377765D02*
X4095208Y-17396813D01*
X4228541Y-17196813D02*
X4247589Y-17196813D01*
X4247589Y-17196813D02*
X4266637Y-17206337D01*
X4266637Y-17206337D02*
X4276160Y-17215861D01*
X4276160Y-17215861D02*
X4285684Y-17234908D01*
X4285684Y-17234908D02*
X4295208Y-17273003D01*
X4295208Y-17273003D02*
X4295208Y-17320622D01*
X4295208Y-17320622D02*
X4285684Y-17358718D01*
X4285684Y-17358718D02*
X4276160Y-17377765D01*
X4276160Y-17377765D02*
X4266637Y-17387289D01*
X4266637Y-17387289D02*
X4247589Y-17396813D01*
X4247589Y-17396813D02*
X4228541Y-17396813D01*
X4228541Y-17396813D02*
X4209494Y-17387289D01*
X4209494Y-17387289D02*
X4199970Y-17377765D01*
X4199970Y-17377765D02*
X4190446Y-17358718D01*
X4190446Y-17358718D02*
X4180922Y-17320622D01*
X4180922Y-17320622D02*
X4180922Y-17273003D01*
X4180922Y-17273003D02*
X4190446Y-17234908D01*
X4190446Y-17234908D02*
X4199970Y-17215861D01*
X4199970Y-17215861D02*
X4209494Y-17206337D01*
X4209494Y-17206337D02*
X4228541Y-17196813D01*
X4419018Y-17196813D02*
X4438065Y-17196813D01*
X4438065Y-17196813D02*
X4457113Y-17206337D01*
X4457113Y-17206337D02*
X4466637Y-17215861D01*
X4466637Y-17215861D02*
X4476160Y-17234908D01*
X4476160Y-17234908D02*
X4485684Y-17273003D01*
X4485684Y-17273003D02*
X4485684Y-17320622D01*
X4485684Y-17320622D02*
X4476160Y-17358718D01*
X4476160Y-17358718D02*
X4466637Y-17377765D01*
X4466637Y-17377765D02*
X4457113Y-17387289D01*
X4457113Y-17387289D02*
X4438065Y-17396813D01*
X4438065Y-17396813D02*
X4419018Y-17396813D01*
X4419018Y-17396813D02*
X4399970Y-17387289D01*
X4399970Y-17387289D02*
X4390446Y-17377765D01*
X4390446Y-17377765D02*
X4380922Y-17358718D01*
X4380922Y-17358718D02*
X4371399Y-17320622D01*
X4371399Y-17320622D02*
X4371399Y-17273003D01*
X4371399Y-17273003D02*
X4380922Y-17234908D01*
X4380922Y-17234908D02*
X4390446Y-17215861D01*
X4390446Y-17215861D02*
X4399970Y-17206337D01*
X4399970Y-17206337D02*
X4419018Y-17196813D01*
X4609494Y-17196813D02*
X4628541Y-17196813D01*
X4628541Y-17196813D02*
X4647589Y-17206337D01*
X4647589Y-17206337D02*
X4657113Y-17215861D01*
X4657113Y-17215861D02*
X4666637Y-17234908D01*
X4666637Y-17234908D02*
X4676160Y-17273003D01*
X4676160Y-17273003D02*
X4676160Y-17320622D01*
X4676160Y-17320622D02*
X4666637Y-17358718D01*
X4666637Y-17358718D02*
X4657113Y-17377765D01*
X4657113Y-17377765D02*
X4647589Y-17387289D01*
X4647589Y-17387289D02*
X4628541Y-17396813D01*
X4628541Y-17396813D02*
X4609494Y-17396813D01*
X4609494Y-17396813D02*
X4590446Y-17387289D01*
X4590446Y-17387289D02*
X4580922Y-17377765D01*
X4580922Y-17377765D02*
X4571399Y-17358718D01*
X4571399Y-17358718D02*
X4561875Y-17320622D01*
X4561875Y-17320622D02*
X4561875Y-17273003D01*
X4561875Y-17273003D02*
X4571399Y-17234908D01*
X4571399Y-17234908D02*
X4580922Y-17215861D01*
X4580922Y-17215861D02*
X4590446Y-17206337D01*
X4590446Y-17206337D02*
X4609494Y-17196813D01*
X4761875Y-17396813D02*
X4761875Y-17263480D01*
X4761875Y-17282527D02*
X4771399Y-17273003D01*
X4771399Y-17273003D02*
X4790446Y-17263480D01*
X4790446Y-17263480D02*
X4819018Y-17263480D01*
X4819018Y-17263480D02*
X4838065Y-17273003D01*
X4838065Y-17273003D02*
X4847589Y-17292051D01*
X4847589Y-17292051D02*
X4847589Y-17396813D01*
X4847589Y-17292051D02*
X4857113Y-17273003D01*
X4857113Y-17273003D02*
X4876160Y-17263480D01*
X4876160Y-17263480D02*
X4904732Y-17263480D01*
X4904732Y-17263480D02*
X4923780Y-17273003D01*
X4923780Y-17273003D02*
X4933303Y-17292051D01*
X4933303Y-17292051D02*
X4933303Y-17396813D01*
X5028541Y-17396813D02*
X5028541Y-17263480D01*
X5028541Y-17282527D02*
X5038065Y-17273003D01*
X5038065Y-17273003D02*
X5057113Y-17263480D01*
X5057113Y-17263480D02*
X5085684Y-17263480D01*
X5085684Y-17263480D02*
X5104732Y-17273003D01*
X5104732Y-17273003D02*
X5114256Y-17292051D01*
X5114256Y-17292051D02*
X5114256Y-17396813D01*
X5114256Y-17292051D02*
X5123780Y-17273003D01*
X5123780Y-17273003D02*
X5142827Y-17263480D01*
X5142827Y-17263480D02*
X5171399Y-17263480D01*
X5171399Y-17263480D02*
X5190446Y-17273003D01*
X5190446Y-17273003D02*
X5199970Y-17292051D01*
X5199970Y-17292051D02*
X5199970Y-17396813D01*
X5590446Y-17187289D02*
X5419018Y-17444432D01*
X5847589Y-17196813D02*
X5866637Y-17196813D01*
X5866637Y-17196813D02*
X5885684Y-17206337D01*
X5885684Y-17206337D02*
X5895208Y-17215861D01*
X5895208Y-17215861D02*
X5904732Y-17234908D01*
X5904732Y-17234908D02*
X5914256Y-17273003D01*
X5914256Y-17273003D02*
X5914256Y-17320622D01*
X5914256Y-17320622D02*
X5904732Y-17358718D01*
X5904732Y-17358718D02*
X5895208Y-17377765D01*
X5895208Y-17377765D02*
X5885684Y-17387289D01*
X5885684Y-17387289D02*
X5866637Y-17396813D01*
X5866637Y-17396813D02*
X5847589Y-17396813D01*
X5847589Y-17396813D02*
X5828541Y-17387289D01*
X5828541Y-17387289D02*
X5819018Y-17377765D01*
X5819018Y-17377765D02*
X5809494Y-17358718D01*
X5809494Y-17358718D02*
X5799970Y-17320622D01*
X5799970Y-17320622D02*
X5799970Y-17273003D01*
X5799970Y-17273003D02*
X5809494Y-17234908D01*
X5809494Y-17234908D02*
X5819018Y-17215861D01*
X5819018Y-17215861D02*
X5828541Y-17206337D01*
X5828541Y-17206337D02*
X5847589Y-17196813D01*
X5999970Y-17377765D02*
X6009494Y-17387289D01*
X6009494Y-17387289D02*
X5999970Y-17396813D01*
X5999970Y-17396813D02*
X5990446Y-17387289D01*
X5990446Y-17387289D02*
X5999970Y-17377765D01*
X5999970Y-17377765D02*
X5999970Y-17396813D01*
X6133303Y-17196813D02*
X6152351Y-17196813D01*
X6152351Y-17196813D02*
X6171399Y-17206337D01*
X6171399Y-17206337D02*
X6180922Y-17215861D01*
X6180922Y-17215861D02*
X6190446Y-17234908D01*
X6190446Y-17234908D02*
X6199970Y-17273003D01*
X6199970Y-17273003D02*
X6199970Y-17320622D01*
X6199970Y-17320622D02*
X6190446Y-17358718D01*
X6190446Y-17358718D02*
X6180922Y-17377765D01*
X6180922Y-17377765D02*
X6171399Y-17387289D01*
X6171399Y-17387289D02*
X6152351Y-17396813D01*
X6152351Y-17396813D02*
X6133303Y-17396813D01*
X6133303Y-17396813D02*
X6114256Y-17387289D01*
X6114256Y-17387289D02*
X6104732Y-17377765D01*
X6104732Y-17377765D02*
X6095208Y-17358718D01*
X6095208Y-17358718D02*
X6085684Y-17320622D01*
X6085684Y-17320622D02*
X6085684Y-17273003D01*
X6085684Y-17273003D02*
X6095208Y-17234908D01*
X6095208Y-17234908D02*
X6104732Y-17215861D01*
X6104732Y-17215861D02*
X6114256Y-17206337D01*
X6114256Y-17206337D02*
X6133303Y-17196813D01*
X6266637Y-17196813D02*
X6390446Y-17196813D01*
X6390446Y-17196813D02*
X6323780Y-17273003D01*
X6323780Y-17273003D02*
X6352351Y-17273003D01*
X6352351Y-17273003D02*
X6371399Y-17282527D01*
X6371399Y-17282527D02*
X6380922Y-17292051D01*
X6380922Y-17292051D02*
X6390446Y-17311099D01*
X6390446Y-17311099D02*
X6390446Y-17358718D01*
X6390446Y-17358718D02*
X6380922Y-17377765D01*
X6380922Y-17377765D02*
X6371399Y-17387289D01*
X6371399Y-17387289D02*
X6352351Y-17396813D01*
X6352351Y-17396813D02*
X6295208Y-17396813D01*
X6295208Y-17396813D02*
X6276161Y-17387289D01*
X6276161Y-17387289D02*
X6266637Y-17377765D01*
X6485684Y-17396813D02*
X6523780Y-17396813D01*
X6523780Y-17396813D02*
X6542827Y-17387289D01*
X6542827Y-17387289D02*
X6552351Y-17377765D01*
X6552351Y-17377765D02*
X6571399Y-17349194D01*
X6571399Y-17349194D02*
X6580922Y-17311099D01*
X6580922Y-17311099D02*
X6580922Y-17234908D01*
X6580922Y-17234908D02*
X6571399Y-17215861D01*
X6571399Y-17215861D02*
X6561875Y-17206337D01*
X6561875Y-17206337D02*
X6542827Y-17196813D01*
X6542827Y-17196813D02*
X6504732Y-17196813D01*
X6504732Y-17196813D02*
X6485684Y-17206337D01*
X6485684Y-17206337D02*
X6476161Y-17215861D01*
X6476161Y-17215861D02*
X6466637Y-17234908D01*
X6466637Y-17234908D02*
X6466637Y-17282527D01*
X6466637Y-17282527D02*
X6476161Y-17301575D01*
X6476161Y-17301575D02*
X6485684Y-17311099D01*
X6485684Y-17311099D02*
X6504732Y-17320622D01*
X6504732Y-17320622D02*
X6542827Y-17320622D01*
X6542827Y-17320622D02*
X6561875Y-17311099D01*
X6561875Y-17311099D02*
X6571399Y-17301575D01*
X6571399Y-17301575D02*
X6580922Y-17282527D01*
X6752351Y-17263480D02*
X6752351Y-17396813D01*
X6704732Y-17187289D02*
X6657113Y-17330146D01*
X6657113Y-17330146D02*
X6780922Y-17330146D01*
X6847589Y-17196813D02*
X6847589Y-17234908D01*
X6923780Y-17196813D02*
X6923780Y-17234908D01*
X7219018Y-17473003D02*
X7209494Y-17463480D01*
X7209494Y-17463480D02*
X7190446Y-17434908D01*
X7190446Y-17434908D02*
X7180923Y-17415861D01*
X7180923Y-17415861D02*
X7171399Y-17387289D01*
X7171399Y-17387289D02*
X7161875Y-17339670D01*
X7161875Y-17339670D02*
X7161875Y-17301575D01*
X7161875Y-17301575D02*
X7171399Y-17253956D01*
X7171399Y-17253956D02*
X7180923Y-17225384D01*
X7180923Y-17225384D02*
X7190446Y-17206337D01*
X7190446Y-17206337D02*
X7209494Y-17177765D01*
X7209494Y-17177765D02*
X7219018Y-17168241D01*
X7380923Y-17196813D02*
X7342827Y-17196813D01*
X7342827Y-17196813D02*
X7323780Y-17206337D01*
X7323780Y-17206337D02*
X7314256Y-17215861D01*
X7314256Y-17215861D02*
X7295208Y-17244432D01*
X7295208Y-17244432D02*
X7285684Y-17282527D01*
X7285684Y-17282527D02*
X7285684Y-17358718D01*
X7285684Y-17358718D02*
X7295208Y-17377765D01*
X7295208Y-17377765D02*
X7304732Y-17387289D01*
X7304732Y-17387289D02*
X7323780Y-17396813D01*
X7323780Y-17396813D02*
X7361875Y-17396813D01*
X7361875Y-17396813D02*
X7380923Y-17387289D01*
X7380923Y-17387289D02*
X7390446Y-17377765D01*
X7390446Y-17377765D02*
X7399970Y-17358718D01*
X7399970Y-17358718D02*
X7399970Y-17311099D01*
X7399970Y-17311099D02*
X7390446Y-17292051D01*
X7390446Y-17292051D02*
X7380923Y-17282527D01*
X7380923Y-17282527D02*
X7361875Y-17273003D01*
X7361875Y-17273003D02*
X7323780Y-17273003D01*
X7323780Y-17273003D02*
X7304732Y-17282527D01*
X7304732Y-17282527D02*
X7295208Y-17292051D01*
X7295208Y-17292051D02*
X7285684Y-17311099D01*
X7580923Y-17196813D02*
X7485684Y-17196813D01*
X7485684Y-17196813D02*
X7476161Y-17292051D01*
X7476161Y-17292051D02*
X7485684Y-17282527D01*
X7485684Y-17282527D02*
X7504732Y-17273003D01*
X7504732Y-17273003D02*
X7552351Y-17273003D01*
X7552351Y-17273003D02*
X7571399Y-17282527D01*
X7571399Y-17282527D02*
X7580923Y-17292051D01*
X7580923Y-17292051D02*
X7590446Y-17311099D01*
X7590446Y-17311099D02*
X7590446Y-17358718D01*
X7590446Y-17358718D02*
X7580923Y-17377765D01*
X7580923Y-17377765D02*
X7571399Y-17387289D01*
X7571399Y-17387289D02*
X7552351Y-17396813D01*
X7552351Y-17396813D02*
X7504732Y-17396813D01*
X7504732Y-17396813D02*
X7485684Y-17387289D01*
X7485684Y-17387289D02*
X7476161Y-17377765D01*
X7828542Y-17396813D02*
X7828542Y-17196813D01*
X7914256Y-17396813D02*
X7914256Y-17292051D01*
X7914256Y-17292051D02*
X7904732Y-17273003D01*
X7904732Y-17273003D02*
X7885685Y-17263480D01*
X7885685Y-17263480D02*
X7857113Y-17263480D01*
X7857113Y-17263480D02*
X7838065Y-17273003D01*
X7838065Y-17273003D02*
X7828542Y-17282527D01*
X8038065Y-17396813D02*
X8019018Y-17387289D01*
X8019018Y-17387289D02*
X8009494Y-17377765D01*
X8009494Y-17377765D02*
X7999970Y-17358718D01*
X7999970Y-17358718D02*
X7999970Y-17301575D01*
X7999970Y-17301575D02*
X8009494Y-17282527D01*
X8009494Y-17282527D02*
X8019018Y-17273003D01*
X8019018Y-17273003D02*
X8038065Y-17263480D01*
X8038065Y-17263480D02*
X8066637Y-17263480D01*
X8066637Y-17263480D02*
X8085685Y-17273003D01*
X8085685Y-17273003D02*
X8095208Y-17282527D01*
X8095208Y-17282527D02*
X8104732Y-17301575D01*
X8104732Y-17301575D02*
X8104732Y-17358718D01*
X8104732Y-17358718D02*
X8095208Y-17377765D01*
X8095208Y-17377765D02*
X8085685Y-17387289D01*
X8085685Y-17387289D02*
X8066637Y-17396813D01*
X8066637Y-17396813D02*
X8038065Y-17396813D01*
X8219018Y-17396813D02*
X8199970Y-17387289D01*
X8199970Y-17387289D02*
X8190446Y-17368241D01*
X8190446Y-17368241D02*
X8190446Y-17196813D01*
X8371399Y-17387289D02*
X8352351Y-17396813D01*
X8352351Y-17396813D02*
X8314256Y-17396813D01*
X8314256Y-17396813D02*
X8295208Y-17387289D01*
X8295208Y-17387289D02*
X8285685Y-17368241D01*
X8285685Y-17368241D02*
X8285685Y-17292051D01*
X8285685Y-17292051D02*
X8295208Y-17273003D01*
X8295208Y-17273003D02*
X8314256Y-17263480D01*
X8314256Y-17263480D02*
X8352351Y-17263480D01*
X8352351Y-17263480D02*
X8371399Y-17273003D01*
X8371399Y-17273003D02*
X8380923Y-17292051D01*
X8380923Y-17292051D02*
X8380923Y-17311099D01*
X8380923Y-17311099D02*
X8285685Y-17330146D01*
X8457113Y-17387289D02*
X8476161Y-17396813D01*
X8476161Y-17396813D02*
X8514256Y-17396813D01*
X8514256Y-17396813D02*
X8533304Y-17387289D01*
X8533304Y-17387289D02*
X8542828Y-17368241D01*
X8542828Y-17368241D02*
X8542828Y-17358718D01*
X8542828Y-17358718D02*
X8533304Y-17339670D01*
X8533304Y-17339670D02*
X8514256Y-17330146D01*
X8514256Y-17330146D02*
X8485685Y-17330146D01*
X8485685Y-17330146D02*
X8466637Y-17320622D01*
X8466637Y-17320622D02*
X8457113Y-17301575D01*
X8457113Y-17301575D02*
X8457113Y-17292051D01*
X8457113Y-17292051D02*
X8466637Y-17273003D01*
X8466637Y-17273003D02*
X8485685Y-17263480D01*
X8485685Y-17263480D02*
X8514256Y-17263480D01*
X8514256Y-17263480D02*
X8533304Y-17273003D01*
X8609494Y-17473003D02*
X8619018Y-17463480D01*
X8619018Y-17463480D02*
X8638066Y-17434908D01*
X8638066Y-17434908D02*
X8647589Y-17415861D01*
X8647589Y-17415861D02*
X8657113Y-17387289D01*
X8657113Y-17387289D02*
X8666637Y-17339670D01*
X8666637Y-17339670D02*
X8666637Y-17301575D01*
X8666637Y-17301575D02*
X8657113Y-17253956D01*
X8657113Y-17253956D02*
X8647589Y-17225384D01*
X8647589Y-17225384D02*
X8638066Y-17206337D01*
X8638066Y-17206337D02*
X8619018Y-17177765D01*
X8619018Y-17177765D02*
X8609494Y-17168241D01*
D13*
X3569025Y-17644259D02*
X3643955Y-17569329D01*
X3569025Y-17494399D01*
X3494095Y-17569329D01*
X3569025Y-17644259D01*
D11*
X4009494Y-17660813D02*
X3895208Y-17660813D01*
X3952351Y-17660813D02*
X3952351Y-17460813D01*
X3952351Y-17460813D02*
X3933303Y-17489384D01*
X3933303Y-17489384D02*
X3914256Y-17508432D01*
X3914256Y-17508432D02*
X3895208Y-17517956D01*
X4095208Y-17641765D02*
X4104732Y-17651289D01*
X4104732Y-17651289D02*
X4095208Y-17660813D01*
X4095208Y-17660813D02*
X4085684Y-17651289D01*
X4085684Y-17651289D02*
X4095208Y-17641765D01*
X4095208Y-17641765D02*
X4095208Y-17660813D01*
X4276160Y-17527480D02*
X4276160Y-17660813D01*
X4228541Y-17451289D02*
X4180922Y-17594146D01*
X4180922Y-17594146D02*
X4304732Y-17594146D01*
X4390446Y-17660813D02*
X4428541Y-17660813D01*
X4428541Y-17660813D02*
X4447589Y-17651289D01*
X4447589Y-17651289D02*
X4457113Y-17641765D01*
X4457113Y-17641765D02*
X4476160Y-17613194D01*
X4476160Y-17613194D02*
X4485684Y-17575099D01*
X4485684Y-17575099D02*
X4485684Y-17498908D01*
X4485684Y-17498908D02*
X4476160Y-17479861D01*
X4476160Y-17479861D02*
X4466637Y-17470337D01*
X4466637Y-17470337D02*
X4447589Y-17460813D01*
X4447589Y-17460813D02*
X4409494Y-17460813D01*
X4409494Y-17460813D02*
X4390446Y-17470337D01*
X4390446Y-17470337D02*
X4380922Y-17479861D01*
X4380922Y-17479861D02*
X4371399Y-17498908D01*
X4371399Y-17498908D02*
X4371399Y-17546527D01*
X4371399Y-17546527D02*
X4380922Y-17565575D01*
X4380922Y-17565575D02*
X4390446Y-17575099D01*
X4390446Y-17575099D02*
X4409494Y-17584622D01*
X4409494Y-17584622D02*
X4447589Y-17584622D01*
X4447589Y-17584622D02*
X4466637Y-17575099D01*
X4466637Y-17575099D02*
X4476160Y-17565575D01*
X4476160Y-17565575D02*
X4485684Y-17546527D01*
X4580922Y-17660813D02*
X4619018Y-17660813D01*
X4619018Y-17660813D02*
X4638065Y-17651289D01*
X4638065Y-17651289D02*
X4647589Y-17641765D01*
X4647589Y-17641765D02*
X4666637Y-17613194D01*
X4666637Y-17613194D02*
X4676160Y-17575099D01*
X4676160Y-17575099D02*
X4676160Y-17498908D01*
X4676160Y-17498908D02*
X4666637Y-17479861D01*
X4666637Y-17479861D02*
X4657113Y-17470337D01*
X4657113Y-17470337D02*
X4638065Y-17460813D01*
X4638065Y-17460813D02*
X4599970Y-17460813D01*
X4599970Y-17460813D02*
X4580922Y-17470337D01*
X4580922Y-17470337D02*
X4571399Y-17479861D01*
X4571399Y-17479861D02*
X4561875Y-17498908D01*
X4561875Y-17498908D02*
X4561875Y-17546527D01*
X4561875Y-17546527D02*
X4571399Y-17565575D01*
X4571399Y-17565575D02*
X4580922Y-17575099D01*
X4580922Y-17575099D02*
X4599970Y-17584622D01*
X4599970Y-17584622D02*
X4638065Y-17584622D01*
X4638065Y-17584622D02*
X4657113Y-17575099D01*
X4657113Y-17575099D02*
X4666637Y-17565575D01*
X4666637Y-17565575D02*
X4676160Y-17546527D01*
X4761875Y-17660813D02*
X4761875Y-17527480D01*
X4761875Y-17546527D02*
X4771399Y-17537003D01*
X4771399Y-17537003D02*
X4790446Y-17527480D01*
X4790446Y-17527480D02*
X4819018Y-17527480D01*
X4819018Y-17527480D02*
X4838065Y-17537003D01*
X4838065Y-17537003D02*
X4847589Y-17556051D01*
X4847589Y-17556051D02*
X4847589Y-17660813D01*
X4847589Y-17556051D02*
X4857113Y-17537003D01*
X4857113Y-17537003D02*
X4876160Y-17527480D01*
X4876160Y-17527480D02*
X4904732Y-17527480D01*
X4904732Y-17527480D02*
X4923780Y-17537003D01*
X4923780Y-17537003D02*
X4933303Y-17556051D01*
X4933303Y-17556051D02*
X4933303Y-17660813D01*
X5028541Y-17660813D02*
X5028541Y-17527480D01*
X5028541Y-17546527D02*
X5038065Y-17537003D01*
X5038065Y-17537003D02*
X5057113Y-17527480D01*
X5057113Y-17527480D02*
X5085684Y-17527480D01*
X5085684Y-17527480D02*
X5104732Y-17537003D01*
X5104732Y-17537003D02*
X5114256Y-17556051D01*
X5114256Y-17556051D02*
X5114256Y-17660813D01*
X5114256Y-17556051D02*
X5123780Y-17537003D01*
X5123780Y-17537003D02*
X5142827Y-17527480D01*
X5142827Y-17527480D02*
X5171399Y-17527480D01*
X5171399Y-17527480D02*
X5190446Y-17537003D01*
X5190446Y-17537003D02*
X5199970Y-17556051D01*
X5199970Y-17556051D02*
X5199970Y-17660813D01*
X5590446Y-17451289D02*
X5419018Y-17708432D01*
X5847589Y-17460813D02*
X5866637Y-17460813D01*
X5866637Y-17460813D02*
X5885684Y-17470337D01*
X5885684Y-17470337D02*
X5895208Y-17479861D01*
X5895208Y-17479861D02*
X5904732Y-17498908D01*
X5904732Y-17498908D02*
X5914256Y-17537003D01*
X5914256Y-17537003D02*
X5914256Y-17584622D01*
X5914256Y-17584622D02*
X5904732Y-17622718D01*
X5904732Y-17622718D02*
X5895208Y-17641765D01*
X5895208Y-17641765D02*
X5885684Y-17651289D01*
X5885684Y-17651289D02*
X5866637Y-17660813D01*
X5866637Y-17660813D02*
X5847589Y-17660813D01*
X5847589Y-17660813D02*
X5828541Y-17651289D01*
X5828541Y-17651289D02*
X5819018Y-17641765D01*
X5819018Y-17641765D02*
X5809494Y-17622718D01*
X5809494Y-17622718D02*
X5799970Y-17584622D01*
X5799970Y-17584622D02*
X5799970Y-17537003D01*
X5799970Y-17537003D02*
X5809494Y-17498908D01*
X5809494Y-17498908D02*
X5819018Y-17479861D01*
X5819018Y-17479861D02*
X5828541Y-17470337D01*
X5828541Y-17470337D02*
X5847589Y-17460813D01*
X5999970Y-17641765D02*
X6009494Y-17651289D01*
X6009494Y-17651289D02*
X5999970Y-17660813D01*
X5999970Y-17660813D02*
X5990446Y-17651289D01*
X5990446Y-17651289D02*
X5999970Y-17641765D01*
X5999970Y-17641765D02*
X5999970Y-17660813D01*
X6133303Y-17460813D02*
X6152351Y-17460813D01*
X6152351Y-17460813D02*
X6171399Y-17470337D01*
X6171399Y-17470337D02*
X6180922Y-17479861D01*
X6180922Y-17479861D02*
X6190446Y-17498908D01*
X6190446Y-17498908D02*
X6199970Y-17537003D01*
X6199970Y-17537003D02*
X6199970Y-17584622D01*
X6199970Y-17584622D02*
X6190446Y-17622718D01*
X6190446Y-17622718D02*
X6180922Y-17641765D01*
X6180922Y-17641765D02*
X6171399Y-17651289D01*
X6171399Y-17651289D02*
X6152351Y-17660813D01*
X6152351Y-17660813D02*
X6133303Y-17660813D01*
X6133303Y-17660813D02*
X6114256Y-17651289D01*
X6114256Y-17651289D02*
X6104732Y-17641765D01*
X6104732Y-17641765D02*
X6095208Y-17622718D01*
X6095208Y-17622718D02*
X6085684Y-17584622D01*
X6085684Y-17584622D02*
X6085684Y-17537003D01*
X6085684Y-17537003D02*
X6095208Y-17498908D01*
X6095208Y-17498908D02*
X6104732Y-17479861D01*
X6104732Y-17479861D02*
X6114256Y-17470337D01*
X6114256Y-17470337D02*
X6133303Y-17460813D01*
X6380922Y-17460813D02*
X6285684Y-17460813D01*
X6285684Y-17460813D02*
X6276161Y-17556051D01*
X6276161Y-17556051D02*
X6285684Y-17546527D01*
X6285684Y-17546527D02*
X6304732Y-17537003D01*
X6304732Y-17537003D02*
X6352351Y-17537003D01*
X6352351Y-17537003D02*
X6371399Y-17546527D01*
X6371399Y-17546527D02*
X6380922Y-17556051D01*
X6380922Y-17556051D02*
X6390446Y-17575099D01*
X6390446Y-17575099D02*
X6390446Y-17622718D01*
X6390446Y-17622718D02*
X6380922Y-17641765D01*
X6380922Y-17641765D02*
X6371399Y-17651289D01*
X6371399Y-17651289D02*
X6352351Y-17660813D01*
X6352351Y-17660813D02*
X6304732Y-17660813D01*
X6304732Y-17660813D02*
X6285684Y-17651289D01*
X6285684Y-17651289D02*
X6276161Y-17641765D01*
X6485684Y-17660813D02*
X6523780Y-17660813D01*
X6523780Y-17660813D02*
X6542827Y-17651289D01*
X6542827Y-17651289D02*
X6552351Y-17641765D01*
X6552351Y-17641765D02*
X6571399Y-17613194D01*
X6571399Y-17613194D02*
X6580922Y-17575099D01*
X6580922Y-17575099D02*
X6580922Y-17498908D01*
X6580922Y-17498908D02*
X6571399Y-17479861D01*
X6571399Y-17479861D02*
X6561875Y-17470337D01*
X6561875Y-17470337D02*
X6542827Y-17460813D01*
X6542827Y-17460813D02*
X6504732Y-17460813D01*
X6504732Y-17460813D02*
X6485684Y-17470337D01*
X6485684Y-17470337D02*
X6476161Y-17479861D01*
X6476161Y-17479861D02*
X6466637Y-17498908D01*
X6466637Y-17498908D02*
X6466637Y-17546527D01*
X6466637Y-17546527D02*
X6476161Y-17565575D01*
X6476161Y-17565575D02*
X6485684Y-17575099D01*
X6485684Y-17575099D02*
X6504732Y-17584622D01*
X6504732Y-17584622D02*
X6542827Y-17584622D01*
X6542827Y-17584622D02*
X6561875Y-17575099D01*
X6561875Y-17575099D02*
X6571399Y-17565575D01*
X6571399Y-17565575D02*
X6580922Y-17546527D01*
X6704732Y-17460813D02*
X6723780Y-17460813D01*
X6723780Y-17460813D02*
X6742827Y-17470337D01*
X6742827Y-17470337D02*
X6752351Y-17479861D01*
X6752351Y-17479861D02*
X6761875Y-17498908D01*
X6761875Y-17498908D02*
X6771399Y-17537003D01*
X6771399Y-17537003D02*
X6771399Y-17584622D01*
X6771399Y-17584622D02*
X6761875Y-17622718D01*
X6761875Y-17622718D02*
X6752351Y-17641765D01*
X6752351Y-17641765D02*
X6742827Y-17651289D01*
X6742827Y-17651289D02*
X6723780Y-17660813D01*
X6723780Y-17660813D02*
X6704732Y-17660813D01*
X6704732Y-17660813D02*
X6685684Y-17651289D01*
X6685684Y-17651289D02*
X6676161Y-17641765D01*
X6676161Y-17641765D02*
X6666637Y-17622718D01*
X6666637Y-17622718D02*
X6657113Y-17584622D01*
X6657113Y-17584622D02*
X6657113Y-17537003D01*
X6657113Y-17537003D02*
X6666637Y-17498908D01*
X6666637Y-17498908D02*
X6676161Y-17479861D01*
X6676161Y-17479861D02*
X6685684Y-17470337D01*
X6685684Y-17470337D02*
X6704732Y-17460813D01*
X6847589Y-17460813D02*
X6847589Y-17498908D01*
X6923780Y-17460813D02*
X6923780Y-17498908D01*
X7219018Y-17737003D02*
X7209494Y-17727480D01*
X7209494Y-17727480D02*
X7190446Y-17698908D01*
X7190446Y-17698908D02*
X7180923Y-17679861D01*
X7180923Y-17679861D02*
X7171399Y-17651289D01*
X7171399Y-17651289D02*
X7161875Y-17603670D01*
X7161875Y-17603670D02*
X7161875Y-17565575D01*
X7161875Y-17565575D02*
X7171399Y-17517956D01*
X7171399Y-17517956D02*
X7180923Y-17489384D01*
X7180923Y-17489384D02*
X7190446Y-17470337D01*
X7190446Y-17470337D02*
X7209494Y-17441765D01*
X7209494Y-17441765D02*
X7219018Y-17432241D01*
X7399970Y-17660813D02*
X7285684Y-17660813D01*
X7342827Y-17660813D02*
X7342827Y-17460813D01*
X7342827Y-17460813D02*
X7323780Y-17489384D01*
X7323780Y-17489384D02*
X7304732Y-17508432D01*
X7304732Y-17508432D02*
X7285684Y-17517956D01*
X7523780Y-17460813D02*
X7542827Y-17460813D01*
X7542827Y-17460813D02*
X7561875Y-17470337D01*
X7561875Y-17470337D02*
X7571399Y-17479861D01*
X7571399Y-17479861D02*
X7580923Y-17498908D01*
X7580923Y-17498908D02*
X7590446Y-17537003D01*
X7590446Y-17537003D02*
X7590446Y-17584622D01*
X7590446Y-17584622D02*
X7580923Y-17622718D01*
X7580923Y-17622718D02*
X7571399Y-17641765D01*
X7571399Y-17641765D02*
X7561875Y-17651289D01*
X7561875Y-17651289D02*
X7542827Y-17660813D01*
X7542827Y-17660813D02*
X7523780Y-17660813D01*
X7523780Y-17660813D02*
X7504732Y-17651289D01*
X7504732Y-17651289D02*
X7495208Y-17641765D01*
X7495208Y-17641765D02*
X7485684Y-17622718D01*
X7485684Y-17622718D02*
X7476161Y-17584622D01*
X7476161Y-17584622D02*
X7476161Y-17537003D01*
X7476161Y-17537003D02*
X7485684Y-17498908D01*
X7485684Y-17498908D02*
X7495208Y-17479861D01*
X7495208Y-17479861D02*
X7504732Y-17470337D01*
X7504732Y-17470337D02*
X7523780Y-17460813D01*
X7704732Y-17546527D02*
X7685684Y-17537003D01*
X7685684Y-17537003D02*
X7676161Y-17527480D01*
X7676161Y-17527480D02*
X7666637Y-17508432D01*
X7666637Y-17508432D02*
X7666637Y-17498908D01*
X7666637Y-17498908D02*
X7676161Y-17479861D01*
X7676161Y-17479861D02*
X7685684Y-17470337D01*
X7685684Y-17470337D02*
X7704732Y-17460813D01*
X7704732Y-17460813D02*
X7742827Y-17460813D01*
X7742827Y-17460813D02*
X7761875Y-17470337D01*
X7761875Y-17470337D02*
X7771399Y-17479861D01*
X7771399Y-17479861D02*
X7780923Y-17498908D01*
X7780923Y-17498908D02*
X7780923Y-17508432D01*
X7780923Y-17508432D02*
X7771399Y-17527480D01*
X7771399Y-17527480D02*
X7761875Y-17537003D01*
X7761875Y-17537003D02*
X7742827Y-17546527D01*
X7742827Y-17546527D02*
X7704732Y-17546527D01*
X7704732Y-17546527D02*
X7685684Y-17556051D01*
X7685684Y-17556051D02*
X7676161Y-17565575D01*
X7676161Y-17565575D02*
X7666637Y-17584622D01*
X7666637Y-17584622D02*
X7666637Y-17622718D01*
X7666637Y-17622718D02*
X7676161Y-17641765D01*
X7676161Y-17641765D02*
X7685684Y-17651289D01*
X7685684Y-17651289D02*
X7704732Y-17660813D01*
X7704732Y-17660813D02*
X7742827Y-17660813D01*
X7742827Y-17660813D02*
X7761875Y-17651289D01*
X7761875Y-17651289D02*
X7771399Y-17641765D01*
X7771399Y-17641765D02*
X7780923Y-17622718D01*
X7780923Y-17622718D02*
X7780923Y-17584622D01*
X7780923Y-17584622D02*
X7771399Y-17565575D01*
X7771399Y-17565575D02*
X7761875Y-17556051D01*
X7761875Y-17556051D02*
X7742827Y-17546527D01*
X8019018Y-17660813D02*
X8019018Y-17460813D01*
X8104732Y-17660813D02*
X8104732Y-17556051D01*
X8104732Y-17556051D02*
X8095208Y-17537003D01*
X8095208Y-17537003D02*
X8076161Y-17527480D01*
X8076161Y-17527480D02*
X8047589Y-17527480D01*
X8047589Y-17527480D02*
X8028542Y-17537003D01*
X8028542Y-17537003D02*
X8019018Y-17546527D01*
X8228542Y-17660813D02*
X8209494Y-17651289D01*
X8209494Y-17651289D02*
X8199970Y-17641765D01*
X8199970Y-17641765D02*
X8190446Y-17622718D01*
X8190446Y-17622718D02*
X8190446Y-17565575D01*
X8190446Y-17565575D02*
X8199970Y-17546527D01*
X8199970Y-17546527D02*
X8209494Y-17537003D01*
X8209494Y-17537003D02*
X8228542Y-17527480D01*
X8228542Y-17527480D02*
X8257113Y-17527480D01*
X8257113Y-17527480D02*
X8276161Y-17537003D01*
X8276161Y-17537003D02*
X8285685Y-17546527D01*
X8285685Y-17546527D02*
X8295208Y-17565575D01*
X8295208Y-17565575D02*
X8295208Y-17622718D01*
X8295208Y-17622718D02*
X8285685Y-17641765D01*
X8285685Y-17641765D02*
X8276161Y-17651289D01*
X8276161Y-17651289D02*
X8257113Y-17660813D01*
X8257113Y-17660813D02*
X8228542Y-17660813D01*
X8409494Y-17660813D02*
X8390447Y-17651289D01*
X8390447Y-17651289D02*
X8380923Y-17632241D01*
X8380923Y-17632241D02*
X8380923Y-17460813D01*
X8561875Y-17651289D02*
X8542828Y-17660813D01*
X8542828Y-17660813D02*
X8504732Y-17660813D01*
X8504732Y-17660813D02*
X8485685Y-17651289D01*
X8485685Y-17651289D02*
X8476161Y-17632241D01*
X8476161Y-17632241D02*
X8476161Y-17556051D01*
X8476161Y-17556051D02*
X8485685Y-17537003D01*
X8485685Y-17537003D02*
X8504732Y-17527480D01*
X8504732Y-17527480D02*
X8542828Y-17527480D01*
X8542828Y-17527480D02*
X8561875Y-17537003D01*
X8561875Y-17537003D02*
X8571399Y-17556051D01*
X8571399Y-17556051D02*
X8571399Y-17575099D01*
X8571399Y-17575099D02*
X8476161Y-17594146D01*
X8647589Y-17651289D02*
X8666637Y-17660813D01*
X8666637Y-17660813D02*
X8704732Y-17660813D01*
X8704732Y-17660813D02*
X8723780Y-17651289D01*
X8723780Y-17651289D02*
X8733304Y-17632241D01*
X8733304Y-17632241D02*
X8733304Y-17622718D01*
X8733304Y-17622718D02*
X8723780Y-17603670D01*
X8723780Y-17603670D02*
X8704732Y-17594146D01*
X8704732Y-17594146D02*
X8676161Y-17594146D01*
X8676161Y-17594146D02*
X8657113Y-17584622D01*
X8657113Y-17584622D02*
X8647589Y-17565575D01*
X8647589Y-17565575D02*
X8647589Y-17556051D01*
X8647589Y-17556051D02*
X8657113Y-17537003D01*
X8657113Y-17537003D02*
X8676161Y-17527480D01*
X8676161Y-17527480D02*
X8704732Y-17527480D01*
X8704732Y-17527480D02*
X8723780Y-17537003D01*
X8799970Y-17737003D02*
X8809494Y-17727480D01*
X8809494Y-17727480D02*
X8828542Y-17698908D01*
X8828542Y-17698908D02*
X8838066Y-17679861D01*
X8838066Y-17679861D02*
X8847589Y-17651289D01*
X8847589Y-17651289D02*
X8857113Y-17603670D01*
X8857113Y-17603670D02*
X8857113Y-17565575D01*
X8857113Y-17565575D02*
X8847589Y-17517956D01*
X8847589Y-17517956D02*
X8838066Y-17489384D01*
X8838066Y-17489384D02*
X8828542Y-17470337D01*
X8828542Y-17470337D02*
X8809494Y-17441765D01*
X8809494Y-17441765D02*
X8799970Y-17432241D01*
D14*
X3493955Y-17764189D02*
X3643955Y-17914189D01*
X3643955Y-17764189D02*
X3493955Y-17914189D01*
X3643955Y-17839189D02*
G75*
G02*
X3493955Y-17839189I-75000J0D01*
G01*
X3493955Y-17839189D02*
G75*
G02*
X3643955Y-17839189I75000J0D01*
G01*
D11*
X4009494Y-17930673D02*
X3895208Y-17930673D01*
X3952351Y-17930673D02*
X3952351Y-17730673D01*
X3952351Y-17730673D02*
X3933303Y-17759244D01*
X3933303Y-17759244D02*
X3914256Y-17778292D01*
X3914256Y-17778292D02*
X3895208Y-17787816D01*
X4095208Y-17911625D02*
X4104732Y-17921149D01*
X4104732Y-17921149D02*
X4095208Y-17930673D01*
X4095208Y-17930673D02*
X4085684Y-17921149D01*
X4085684Y-17921149D02*
X4095208Y-17911625D01*
X4095208Y-17911625D02*
X4095208Y-17930673D01*
X4285684Y-17730673D02*
X4190446Y-17730673D01*
X4190446Y-17730673D02*
X4180922Y-17825911D01*
X4180922Y-17825911D02*
X4190446Y-17816387D01*
X4190446Y-17816387D02*
X4209494Y-17806863D01*
X4209494Y-17806863D02*
X4257113Y-17806863D01*
X4257113Y-17806863D02*
X4276160Y-17816387D01*
X4276160Y-17816387D02*
X4285684Y-17825911D01*
X4285684Y-17825911D02*
X4295208Y-17844959D01*
X4295208Y-17844959D02*
X4295208Y-17892578D01*
X4295208Y-17892578D02*
X4285684Y-17911625D01*
X4285684Y-17911625D02*
X4276160Y-17921149D01*
X4276160Y-17921149D02*
X4257113Y-17930673D01*
X4257113Y-17930673D02*
X4209494Y-17930673D01*
X4209494Y-17930673D02*
X4190446Y-17921149D01*
X4190446Y-17921149D02*
X4180922Y-17911625D01*
X4419018Y-17730673D02*
X4438065Y-17730673D01*
X4438065Y-17730673D02*
X4457113Y-17740197D01*
X4457113Y-17740197D02*
X4466637Y-17749721D01*
X4466637Y-17749721D02*
X4476160Y-17768768D01*
X4476160Y-17768768D02*
X4485684Y-17806863D01*
X4485684Y-17806863D02*
X4485684Y-17854482D01*
X4485684Y-17854482D02*
X4476160Y-17892578D01*
X4476160Y-17892578D02*
X4466637Y-17911625D01*
X4466637Y-17911625D02*
X4457113Y-17921149D01*
X4457113Y-17921149D02*
X4438065Y-17930673D01*
X4438065Y-17930673D02*
X4419018Y-17930673D01*
X4419018Y-17930673D02*
X4399970Y-17921149D01*
X4399970Y-17921149D02*
X4390446Y-17911625D01*
X4390446Y-17911625D02*
X4380922Y-17892578D01*
X4380922Y-17892578D02*
X4371399Y-17854482D01*
X4371399Y-17854482D02*
X4371399Y-17806863D01*
X4371399Y-17806863D02*
X4380922Y-17768768D01*
X4380922Y-17768768D02*
X4390446Y-17749721D01*
X4390446Y-17749721D02*
X4399970Y-17740197D01*
X4399970Y-17740197D02*
X4419018Y-17730673D01*
X4609494Y-17730673D02*
X4628541Y-17730673D01*
X4628541Y-17730673D02*
X4647589Y-17740197D01*
X4647589Y-17740197D02*
X4657113Y-17749721D01*
X4657113Y-17749721D02*
X4666637Y-17768768D01*
X4666637Y-17768768D02*
X4676160Y-17806863D01*
X4676160Y-17806863D02*
X4676160Y-17854482D01*
X4676160Y-17854482D02*
X4666637Y-17892578D01*
X4666637Y-17892578D02*
X4657113Y-17911625D01*
X4657113Y-17911625D02*
X4647589Y-17921149D01*
X4647589Y-17921149D02*
X4628541Y-17930673D01*
X4628541Y-17930673D02*
X4609494Y-17930673D01*
X4609494Y-17930673D02*
X4590446Y-17921149D01*
X4590446Y-17921149D02*
X4580922Y-17911625D01*
X4580922Y-17911625D02*
X4571399Y-17892578D01*
X4571399Y-17892578D02*
X4561875Y-17854482D01*
X4561875Y-17854482D02*
X4561875Y-17806863D01*
X4561875Y-17806863D02*
X4571399Y-17768768D01*
X4571399Y-17768768D02*
X4580922Y-17749721D01*
X4580922Y-17749721D02*
X4590446Y-17740197D01*
X4590446Y-17740197D02*
X4609494Y-17730673D01*
X4761875Y-17930673D02*
X4761875Y-17797340D01*
X4761875Y-17816387D02*
X4771399Y-17806863D01*
X4771399Y-17806863D02*
X4790446Y-17797340D01*
X4790446Y-17797340D02*
X4819018Y-17797340D01*
X4819018Y-17797340D02*
X4838065Y-17806863D01*
X4838065Y-17806863D02*
X4847589Y-17825911D01*
X4847589Y-17825911D02*
X4847589Y-17930673D01*
X4847589Y-17825911D02*
X4857113Y-17806863D01*
X4857113Y-17806863D02*
X4876160Y-17797340D01*
X4876160Y-17797340D02*
X4904732Y-17797340D01*
X4904732Y-17797340D02*
X4923780Y-17806863D01*
X4923780Y-17806863D02*
X4933303Y-17825911D01*
X4933303Y-17825911D02*
X4933303Y-17930673D01*
X5028541Y-17930673D02*
X5028541Y-17797340D01*
X5028541Y-17816387D02*
X5038065Y-17806863D01*
X5038065Y-17806863D02*
X5057113Y-17797340D01*
X5057113Y-17797340D02*
X5085684Y-17797340D01*
X5085684Y-17797340D02*
X5104732Y-17806863D01*
X5104732Y-17806863D02*
X5114256Y-17825911D01*
X5114256Y-17825911D02*
X5114256Y-17930673D01*
X5114256Y-17825911D02*
X5123780Y-17806863D01*
X5123780Y-17806863D02*
X5142827Y-17797340D01*
X5142827Y-17797340D02*
X5171399Y-17797340D01*
X5171399Y-17797340D02*
X5190446Y-17806863D01*
X5190446Y-17806863D02*
X5199970Y-17825911D01*
X5199970Y-17825911D02*
X5199970Y-17930673D01*
X5590446Y-17721149D02*
X5419018Y-17978292D01*
X5847589Y-17730673D02*
X5866637Y-17730673D01*
X5866637Y-17730673D02*
X5885684Y-17740197D01*
X5885684Y-17740197D02*
X5895208Y-17749721D01*
X5895208Y-17749721D02*
X5904732Y-17768768D01*
X5904732Y-17768768D02*
X5914256Y-17806863D01*
X5914256Y-17806863D02*
X5914256Y-17854482D01*
X5914256Y-17854482D02*
X5904732Y-17892578D01*
X5904732Y-17892578D02*
X5895208Y-17911625D01*
X5895208Y-17911625D02*
X5885684Y-17921149D01*
X5885684Y-17921149D02*
X5866637Y-17930673D01*
X5866637Y-17930673D02*
X5847589Y-17930673D01*
X5847589Y-17930673D02*
X5828541Y-17921149D01*
X5828541Y-17921149D02*
X5819018Y-17911625D01*
X5819018Y-17911625D02*
X5809494Y-17892578D01*
X5809494Y-17892578D02*
X5799970Y-17854482D01*
X5799970Y-17854482D02*
X5799970Y-17806863D01*
X5799970Y-17806863D02*
X5809494Y-17768768D01*
X5809494Y-17768768D02*
X5819018Y-17749721D01*
X5819018Y-17749721D02*
X5828541Y-17740197D01*
X5828541Y-17740197D02*
X5847589Y-17730673D01*
X5999970Y-17911625D02*
X6009494Y-17921149D01*
X6009494Y-17921149D02*
X5999970Y-17930673D01*
X5999970Y-17930673D02*
X5990446Y-17921149D01*
X5990446Y-17921149D02*
X5999970Y-17911625D01*
X5999970Y-17911625D02*
X5999970Y-17930673D01*
X6133303Y-17730673D02*
X6152351Y-17730673D01*
X6152351Y-17730673D02*
X6171399Y-17740197D01*
X6171399Y-17740197D02*
X6180922Y-17749721D01*
X6180922Y-17749721D02*
X6190446Y-17768768D01*
X6190446Y-17768768D02*
X6199970Y-17806863D01*
X6199970Y-17806863D02*
X6199970Y-17854482D01*
X6199970Y-17854482D02*
X6190446Y-17892578D01*
X6190446Y-17892578D02*
X6180922Y-17911625D01*
X6180922Y-17911625D02*
X6171399Y-17921149D01*
X6171399Y-17921149D02*
X6152351Y-17930673D01*
X6152351Y-17930673D02*
X6133303Y-17930673D01*
X6133303Y-17930673D02*
X6114256Y-17921149D01*
X6114256Y-17921149D02*
X6104732Y-17911625D01*
X6104732Y-17911625D02*
X6095208Y-17892578D01*
X6095208Y-17892578D02*
X6085684Y-17854482D01*
X6085684Y-17854482D02*
X6085684Y-17806863D01*
X6085684Y-17806863D02*
X6095208Y-17768768D01*
X6095208Y-17768768D02*
X6104732Y-17749721D01*
X6104732Y-17749721D02*
X6114256Y-17740197D01*
X6114256Y-17740197D02*
X6133303Y-17730673D01*
X6380922Y-17730673D02*
X6285684Y-17730673D01*
X6285684Y-17730673D02*
X6276161Y-17825911D01*
X6276161Y-17825911D02*
X6285684Y-17816387D01*
X6285684Y-17816387D02*
X6304732Y-17806863D01*
X6304732Y-17806863D02*
X6352351Y-17806863D01*
X6352351Y-17806863D02*
X6371399Y-17816387D01*
X6371399Y-17816387D02*
X6380922Y-17825911D01*
X6380922Y-17825911D02*
X6390446Y-17844959D01*
X6390446Y-17844959D02*
X6390446Y-17892578D01*
X6390446Y-17892578D02*
X6380922Y-17911625D01*
X6380922Y-17911625D02*
X6371399Y-17921149D01*
X6371399Y-17921149D02*
X6352351Y-17930673D01*
X6352351Y-17930673D02*
X6304732Y-17930673D01*
X6304732Y-17930673D02*
X6285684Y-17921149D01*
X6285684Y-17921149D02*
X6276161Y-17911625D01*
X6485684Y-17930673D02*
X6523780Y-17930673D01*
X6523780Y-17930673D02*
X6542827Y-17921149D01*
X6542827Y-17921149D02*
X6552351Y-17911625D01*
X6552351Y-17911625D02*
X6571399Y-17883054D01*
X6571399Y-17883054D02*
X6580922Y-17844959D01*
X6580922Y-17844959D02*
X6580922Y-17768768D01*
X6580922Y-17768768D02*
X6571399Y-17749721D01*
X6571399Y-17749721D02*
X6561875Y-17740197D01*
X6561875Y-17740197D02*
X6542827Y-17730673D01*
X6542827Y-17730673D02*
X6504732Y-17730673D01*
X6504732Y-17730673D02*
X6485684Y-17740197D01*
X6485684Y-17740197D02*
X6476161Y-17749721D01*
X6476161Y-17749721D02*
X6466637Y-17768768D01*
X6466637Y-17768768D02*
X6466637Y-17816387D01*
X6466637Y-17816387D02*
X6476161Y-17835435D01*
X6476161Y-17835435D02*
X6485684Y-17844959D01*
X6485684Y-17844959D02*
X6504732Y-17854482D01*
X6504732Y-17854482D02*
X6542827Y-17854482D01*
X6542827Y-17854482D02*
X6561875Y-17844959D01*
X6561875Y-17844959D02*
X6571399Y-17835435D01*
X6571399Y-17835435D02*
X6580922Y-17816387D01*
X6771399Y-17930673D02*
X6657113Y-17930673D01*
X6714256Y-17930673D02*
X6714256Y-17730673D01*
X6714256Y-17730673D02*
X6695208Y-17759244D01*
X6695208Y-17759244D02*
X6676161Y-17778292D01*
X6676161Y-17778292D02*
X6657113Y-17787816D01*
X6847589Y-17730673D02*
X6847589Y-17768768D01*
X6923780Y-17730673D02*
X6923780Y-17768768D01*
X7219018Y-18006863D02*
X7209494Y-17997340D01*
X7209494Y-17997340D02*
X7190446Y-17968768D01*
X7190446Y-17968768D02*
X7180923Y-17949721D01*
X7180923Y-17949721D02*
X7171399Y-17921149D01*
X7171399Y-17921149D02*
X7161875Y-17873530D01*
X7161875Y-17873530D02*
X7161875Y-17835435D01*
X7161875Y-17835435D02*
X7171399Y-17787816D01*
X7171399Y-17787816D02*
X7180923Y-17759244D01*
X7180923Y-17759244D02*
X7190446Y-17740197D01*
X7190446Y-17740197D02*
X7209494Y-17711625D01*
X7209494Y-17711625D02*
X7219018Y-17702101D01*
X7333303Y-17730673D02*
X7352351Y-17730673D01*
X7352351Y-17730673D02*
X7371399Y-17740197D01*
X7371399Y-17740197D02*
X7380923Y-17749721D01*
X7380923Y-17749721D02*
X7390446Y-17768768D01*
X7390446Y-17768768D02*
X7399970Y-17806863D01*
X7399970Y-17806863D02*
X7399970Y-17854482D01*
X7399970Y-17854482D02*
X7390446Y-17892578D01*
X7390446Y-17892578D02*
X7380923Y-17911625D01*
X7380923Y-17911625D02*
X7371399Y-17921149D01*
X7371399Y-17921149D02*
X7352351Y-17930673D01*
X7352351Y-17930673D02*
X7333303Y-17930673D01*
X7333303Y-17930673D02*
X7314256Y-17921149D01*
X7314256Y-17921149D02*
X7304732Y-17911625D01*
X7304732Y-17911625D02*
X7295208Y-17892578D01*
X7295208Y-17892578D02*
X7285684Y-17854482D01*
X7285684Y-17854482D02*
X7285684Y-17806863D01*
X7285684Y-17806863D02*
X7295208Y-17768768D01*
X7295208Y-17768768D02*
X7304732Y-17749721D01*
X7304732Y-17749721D02*
X7314256Y-17740197D01*
X7314256Y-17740197D02*
X7333303Y-17730673D01*
X7638065Y-17930673D02*
X7638065Y-17730673D01*
X7723780Y-17930673D02*
X7723780Y-17825911D01*
X7723780Y-17825911D02*
X7714256Y-17806863D01*
X7714256Y-17806863D02*
X7695208Y-17797340D01*
X7695208Y-17797340D02*
X7666637Y-17797340D01*
X7666637Y-17797340D02*
X7647589Y-17806863D01*
X7647589Y-17806863D02*
X7638065Y-17816387D01*
X7847589Y-17930673D02*
X7828542Y-17921149D01*
X7828542Y-17921149D02*
X7819018Y-17911625D01*
X7819018Y-17911625D02*
X7809494Y-17892578D01*
X7809494Y-17892578D02*
X7809494Y-17835435D01*
X7809494Y-17835435D02*
X7819018Y-17816387D01*
X7819018Y-17816387D02*
X7828542Y-17806863D01*
X7828542Y-17806863D02*
X7847589Y-17797340D01*
X7847589Y-17797340D02*
X7876161Y-17797340D01*
X7876161Y-17797340D02*
X7895208Y-17806863D01*
X7895208Y-17806863D02*
X7904732Y-17816387D01*
X7904732Y-17816387D02*
X7914256Y-17835435D01*
X7914256Y-17835435D02*
X7914256Y-17892578D01*
X7914256Y-17892578D02*
X7904732Y-17911625D01*
X7904732Y-17911625D02*
X7895208Y-17921149D01*
X7895208Y-17921149D02*
X7876161Y-17930673D01*
X7876161Y-17930673D02*
X7847589Y-17930673D01*
X8028542Y-17930673D02*
X8009494Y-17921149D01*
X8009494Y-17921149D02*
X7999970Y-17902101D01*
X7999970Y-17902101D02*
X7999970Y-17730673D01*
X8180923Y-17921149D02*
X8161875Y-17930673D01*
X8161875Y-17930673D02*
X8123780Y-17930673D01*
X8123780Y-17930673D02*
X8104732Y-17921149D01*
X8104732Y-17921149D02*
X8095208Y-17902101D01*
X8095208Y-17902101D02*
X8095208Y-17825911D01*
X8095208Y-17825911D02*
X8104732Y-17806863D01*
X8104732Y-17806863D02*
X8123780Y-17797340D01*
X8123780Y-17797340D02*
X8161875Y-17797340D01*
X8161875Y-17797340D02*
X8180923Y-17806863D01*
X8180923Y-17806863D02*
X8190446Y-17825911D01*
X8190446Y-17825911D02*
X8190446Y-17844959D01*
X8190446Y-17844959D02*
X8095208Y-17864006D01*
X8266637Y-17921149D02*
X8285685Y-17930673D01*
X8285685Y-17930673D02*
X8323780Y-17930673D01*
X8323780Y-17930673D02*
X8342827Y-17921149D01*
X8342827Y-17921149D02*
X8352351Y-17902101D01*
X8352351Y-17902101D02*
X8352351Y-17892578D01*
X8352351Y-17892578D02*
X8342827Y-17873530D01*
X8342827Y-17873530D02*
X8323780Y-17864006D01*
X8323780Y-17864006D02*
X8295208Y-17864006D01*
X8295208Y-17864006D02*
X8276161Y-17854482D01*
X8276161Y-17854482D02*
X8266637Y-17835435D01*
X8266637Y-17835435D02*
X8266637Y-17825911D01*
X8266637Y-17825911D02*
X8276161Y-17806863D01*
X8276161Y-17806863D02*
X8295208Y-17797340D01*
X8295208Y-17797340D02*
X8323780Y-17797340D01*
X8323780Y-17797340D02*
X8342827Y-17806863D01*
X8590447Y-17854482D02*
X8742828Y-17854482D01*
X8666637Y-17930673D02*
X8666637Y-17778292D01*
X8980923Y-17749721D02*
X8990447Y-17740197D01*
X8990447Y-17740197D02*
X9009494Y-17730673D01*
X9009494Y-17730673D02*
X9057113Y-17730673D01*
X9057113Y-17730673D02*
X9076161Y-17740197D01*
X9076161Y-17740197D02*
X9085685Y-17749721D01*
X9085685Y-17749721D02*
X9095209Y-17768768D01*
X9095209Y-17768768D02*
X9095209Y-17787816D01*
X9095209Y-17787816D02*
X9085685Y-17816387D01*
X9085685Y-17816387D02*
X8971399Y-17930673D01*
X8971399Y-17930673D02*
X9095209Y-17930673D01*
X9323780Y-17921149D02*
X9342828Y-17930673D01*
X9342828Y-17930673D02*
X9380923Y-17930673D01*
X9380923Y-17930673D02*
X9399971Y-17921149D01*
X9399971Y-17921149D02*
X9409494Y-17902101D01*
X9409494Y-17902101D02*
X9409494Y-17892578D01*
X9409494Y-17892578D02*
X9399971Y-17873530D01*
X9399971Y-17873530D02*
X9380923Y-17864006D01*
X9380923Y-17864006D02*
X9352351Y-17864006D01*
X9352351Y-17864006D02*
X9333304Y-17854482D01*
X9333304Y-17854482D02*
X9323780Y-17835435D01*
X9323780Y-17835435D02*
X9323780Y-17825911D01*
X9323780Y-17825911D02*
X9333304Y-17806863D01*
X9333304Y-17806863D02*
X9352351Y-17797340D01*
X9352351Y-17797340D02*
X9380923Y-17797340D01*
X9380923Y-17797340D02*
X9399971Y-17806863D01*
X9523780Y-17930673D02*
X9504732Y-17921149D01*
X9504732Y-17921149D02*
X9495209Y-17902101D01*
X9495209Y-17902101D02*
X9495209Y-17730673D01*
X9628542Y-17930673D02*
X9609494Y-17921149D01*
X9609494Y-17921149D02*
X9599971Y-17911625D01*
X9599971Y-17911625D02*
X9590447Y-17892578D01*
X9590447Y-17892578D02*
X9590447Y-17835435D01*
X9590447Y-17835435D02*
X9599971Y-17816387D01*
X9599971Y-17816387D02*
X9609494Y-17806863D01*
X9609494Y-17806863D02*
X9628542Y-17797340D01*
X9628542Y-17797340D02*
X9657113Y-17797340D01*
X9657113Y-17797340D02*
X9676161Y-17806863D01*
X9676161Y-17806863D02*
X9685685Y-17816387D01*
X9685685Y-17816387D02*
X9695209Y-17835435D01*
X9695209Y-17835435D02*
X9695209Y-17892578D01*
X9695209Y-17892578D02*
X9685685Y-17911625D01*
X9685685Y-17911625D02*
X9676161Y-17921149D01*
X9676161Y-17921149D02*
X9657113Y-17930673D01*
X9657113Y-17930673D02*
X9628542Y-17930673D01*
X9752352Y-17797340D02*
X9828542Y-17797340D01*
X9780923Y-17730673D02*
X9780923Y-17902101D01*
X9780923Y-17902101D02*
X9790447Y-17921149D01*
X9790447Y-17921149D02*
X9809494Y-17930673D01*
X9809494Y-17930673D02*
X9828542Y-17930673D01*
X9885685Y-17921149D02*
X9904732Y-17930673D01*
X9904732Y-17930673D02*
X9942828Y-17930673D01*
X9942828Y-17930673D02*
X9961875Y-17921149D01*
X9961875Y-17921149D02*
X9971399Y-17902101D01*
X9971399Y-17902101D02*
X9971399Y-17892578D01*
X9971399Y-17892578D02*
X9961875Y-17873530D01*
X9961875Y-17873530D02*
X9942828Y-17864006D01*
X9942828Y-17864006D02*
X9914256Y-17864006D01*
X9914256Y-17864006D02*
X9895209Y-17854482D01*
X9895209Y-17854482D02*
X9885685Y-17835435D01*
X9885685Y-17835435D02*
X9885685Y-17825911D01*
X9885685Y-17825911D02*
X9895209Y-17806863D01*
X9895209Y-17806863D02*
X9914256Y-17797340D01*
X9914256Y-17797340D02*
X9942828Y-17797340D01*
X9942828Y-17797340D02*
X9961875Y-17806863D01*
X10038066Y-18006863D02*
X10047590Y-17997340D01*
X10047590Y-17997340D02*
X10066637Y-17968768D01*
X10066637Y-17968768D02*
X10076161Y-17949721D01*
X10076161Y-17949721D02*
X10085685Y-17921149D01*
X10085685Y-17921149D02*
X10095209Y-17873530D01*
X10095209Y-17873530D02*
X10095209Y-17835435D01*
X10095209Y-17835435D02*
X10085685Y-17787816D01*
X10085685Y-17787816D02*
X10076161Y-17759244D01*
X10076161Y-17759244D02*
X10066637Y-17740197D01*
X10066637Y-17740197D02*
X10047590Y-17711625D01*
X10047590Y-17711625D02*
X10038066Y-17702101D01*
D15*
X3483955Y-18029189D02*
X3643955Y-18189189D01*
X3643955Y-18029189D02*
X3483955Y-18189189D01*
X3563955Y-18029189D02*
X3563955Y-18189189D01*
X3483955Y-18109189D02*
X3643955Y-18109189D01*
D11*
X4009494Y-18200673D02*
X3895208Y-18200673D01*
X3952351Y-18200673D02*
X3952351Y-18000673D01*
X3952351Y-18000673D02*
X3933303Y-18029244D01*
X3933303Y-18029244D02*
X3914256Y-18048292D01*
X3914256Y-18048292D02*
X3895208Y-18057816D01*
X4095208Y-18181625D02*
X4104732Y-18191149D01*
X4104732Y-18191149D02*
X4095208Y-18200673D01*
X4095208Y-18200673D02*
X4085684Y-18191149D01*
X4085684Y-18191149D02*
X4095208Y-18181625D01*
X4095208Y-18181625D02*
X4095208Y-18200673D01*
X4276160Y-18000673D02*
X4238065Y-18000673D01*
X4238065Y-18000673D02*
X4219018Y-18010197D01*
X4219018Y-18010197D02*
X4209494Y-18019721D01*
X4209494Y-18019721D02*
X4190446Y-18048292D01*
X4190446Y-18048292D02*
X4180922Y-18086387D01*
X4180922Y-18086387D02*
X4180922Y-18162578D01*
X4180922Y-18162578D02*
X4190446Y-18181625D01*
X4190446Y-18181625D02*
X4199970Y-18191149D01*
X4199970Y-18191149D02*
X4219018Y-18200673D01*
X4219018Y-18200673D02*
X4257113Y-18200673D01*
X4257113Y-18200673D02*
X4276160Y-18191149D01*
X4276160Y-18191149D02*
X4285684Y-18181625D01*
X4285684Y-18181625D02*
X4295208Y-18162578D01*
X4295208Y-18162578D02*
X4295208Y-18114959D01*
X4295208Y-18114959D02*
X4285684Y-18095911D01*
X4285684Y-18095911D02*
X4276160Y-18086387D01*
X4276160Y-18086387D02*
X4257113Y-18076863D01*
X4257113Y-18076863D02*
X4219018Y-18076863D01*
X4219018Y-18076863D02*
X4199970Y-18086387D01*
X4199970Y-18086387D02*
X4190446Y-18095911D01*
X4190446Y-18095911D02*
X4180922Y-18114959D01*
X4419018Y-18000673D02*
X4438065Y-18000673D01*
X4438065Y-18000673D02*
X4457113Y-18010197D01*
X4457113Y-18010197D02*
X4466637Y-18019721D01*
X4466637Y-18019721D02*
X4476160Y-18038768D01*
X4476160Y-18038768D02*
X4485684Y-18076863D01*
X4485684Y-18076863D02*
X4485684Y-18124482D01*
X4485684Y-18124482D02*
X4476160Y-18162578D01*
X4476160Y-18162578D02*
X4466637Y-18181625D01*
X4466637Y-18181625D02*
X4457113Y-18191149D01*
X4457113Y-18191149D02*
X4438065Y-18200673D01*
X4438065Y-18200673D02*
X4419018Y-18200673D01*
X4419018Y-18200673D02*
X4399970Y-18191149D01*
X4399970Y-18191149D02*
X4390446Y-18181625D01*
X4390446Y-18181625D02*
X4380922Y-18162578D01*
X4380922Y-18162578D02*
X4371399Y-18124482D01*
X4371399Y-18124482D02*
X4371399Y-18076863D01*
X4371399Y-18076863D02*
X4380922Y-18038768D01*
X4380922Y-18038768D02*
X4390446Y-18019721D01*
X4390446Y-18019721D02*
X4399970Y-18010197D01*
X4399970Y-18010197D02*
X4419018Y-18000673D01*
X4609494Y-18000673D02*
X4628541Y-18000673D01*
X4628541Y-18000673D02*
X4647589Y-18010197D01*
X4647589Y-18010197D02*
X4657113Y-18019721D01*
X4657113Y-18019721D02*
X4666637Y-18038768D01*
X4666637Y-18038768D02*
X4676160Y-18076863D01*
X4676160Y-18076863D02*
X4676160Y-18124482D01*
X4676160Y-18124482D02*
X4666637Y-18162578D01*
X4666637Y-18162578D02*
X4657113Y-18181625D01*
X4657113Y-18181625D02*
X4647589Y-18191149D01*
X4647589Y-18191149D02*
X4628541Y-18200673D01*
X4628541Y-18200673D02*
X4609494Y-18200673D01*
X4609494Y-18200673D02*
X4590446Y-18191149D01*
X4590446Y-18191149D02*
X4580922Y-18181625D01*
X4580922Y-18181625D02*
X4571399Y-18162578D01*
X4571399Y-18162578D02*
X4561875Y-18124482D01*
X4561875Y-18124482D02*
X4561875Y-18076863D01*
X4561875Y-18076863D02*
X4571399Y-18038768D01*
X4571399Y-18038768D02*
X4580922Y-18019721D01*
X4580922Y-18019721D02*
X4590446Y-18010197D01*
X4590446Y-18010197D02*
X4609494Y-18000673D01*
X4761875Y-18200673D02*
X4761875Y-18067340D01*
X4761875Y-18086387D02*
X4771399Y-18076863D01*
X4771399Y-18076863D02*
X4790446Y-18067340D01*
X4790446Y-18067340D02*
X4819018Y-18067340D01*
X4819018Y-18067340D02*
X4838065Y-18076863D01*
X4838065Y-18076863D02*
X4847589Y-18095911D01*
X4847589Y-18095911D02*
X4847589Y-18200673D01*
X4847589Y-18095911D02*
X4857113Y-18076863D01*
X4857113Y-18076863D02*
X4876160Y-18067340D01*
X4876160Y-18067340D02*
X4904732Y-18067340D01*
X4904732Y-18067340D02*
X4923780Y-18076863D01*
X4923780Y-18076863D02*
X4933303Y-18095911D01*
X4933303Y-18095911D02*
X4933303Y-18200673D01*
X5028541Y-18200673D02*
X5028541Y-18067340D01*
X5028541Y-18086387D02*
X5038065Y-18076863D01*
X5038065Y-18076863D02*
X5057113Y-18067340D01*
X5057113Y-18067340D02*
X5085684Y-18067340D01*
X5085684Y-18067340D02*
X5104732Y-18076863D01*
X5104732Y-18076863D02*
X5114256Y-18095911D01*
X5114256Y-18095911D02*
X5114256Y-18200673D01*
X5114256Y-18095911D02*
X5123780Y-18076863D01*
X5123780Y-18076863D02*
X5142827Y-18067340D01*
X5142827Y-18067340D02*
X5171399Y-18067340D01*
X5171399Y-18067340D02*
X5190446Y-18076863D01*
X5190446Y-18076863D02*
X5199970Y-18095911D01*
X5199970Y-18095911D02*
X5199970Y-18200673D01*
X5590446Y-17991149D02*
X5419018Y-18248292D01*
X5847589Y-18000673D02*
X5866637Y-18000673D01*
X5866637Y-18000673D02*
X5885684Y-18010197D01*
X5885684Y-18010197D02*
X5895208Y-18019721D01*
X5895208Y-18019721D02*
X5904732Y-18038768D01*
X5904732Y-18038768D02*
X5914256Y-18076863D01*
X5914256Y-18076863D02*
X5914256Y-18124482D01*
X5914256Y-18124482D02*
X5904732Y-18162578D01*
X5904732Y-18162578D02*
X5895208Y-18181625D01*
X5895208Y-18181625D02*
X5885684Y-18191149D01*
X5885684Y-18191149D02*
X5866637Y-18200673D01*
X5866637Y-18200673D02*
X5847589Y-18200673D01*
X5847589Y-18200673D02*
X5828541Y-18191149D01*
X5828541Y-18191149D02*
X5819018Y-18181625D01*
X5819018Y-18181625D02*
X5809494Y-18162578D01*
X5809494Y-18162578D02*
X5799970Y-18124482D01*
X5799970Y-18124482D02*
X5799970Y-18076863D01*
X5799970Y-18076863D02*
X5809494Y-18038768D01*
X5809494Y-18038768D02*
X5819018Y-18019721D01*
X5819018Y-18019721D02*
X5828541Y-18010197D01*
X5828541Y-18010197D02*
X5847589Y-18000673D01*
X5999970Y-18181625D02*
X6009494Y-18191149D01*
X6009494Y-18191149D02*
X5999970Y-18200673D01*
X5999970Y-18200673D02*
X5990446Y-18191149D01*
X5990446Y-18191149D02*
X5999970Y-18181625D01*
X5999970Y-18181625D02*
X5999970Y-18200673D01*
X6133303Y-18000673D02*
X6152351Y-18000673D01*
X6152351Y-18000673D02*
X6171399Y-18010197D01*
X6171399Y-18010197D02*
X6180922Y-18019721D01*
X6180922Y-18019721D02*
X6190446Y-18038768D01*
X6190446Y-18038768D02*
X6199970Y-18076863D01*
X6199970Y-18076863D02*
X6199970Y-18124482D01*
X6199970Y-18124482D02*
X6190446Y-18162578D01*
X6190446Y-18162578D02*
X6180922Y-18181625D01*
X6180922Y-18181625D02*
X6171399Y-18191149D01*
X6171399Y-18191149D02*
X6152351Y-18200673D01*
X6152351Y-18200673D02*
X6133303Y-18200673D01*
X6133303Y-18200673D02*
X6114256Y-18191149D01*
X6114256Y-18191149D02*
X6104732Y-18181625D01*
X6104732Y-18181625D02*
X6095208Y-18162578D01*
X6095208Y-18162578D02*
X6085684Y-18124482D01*
X6085684Y-18124482D02*
X6085684Y-18076863D01*
X6085684Y-18076863D02*
X6095208Y-18038768D01*
X6095208Y-18038768D02*
X6104732Y-18019721D01*
X6104732Y-18019721D02*
X6114256Y-18010197D01*
X6114256Y-18010197D02*
X6133303Y-18000673D01*
X6371399Y-18000673D02*
X6333303Y-18000673D01*
X6333303Y-18000673D02*
X6314256Y-18010197D01*
X6314256Y-18010197D02*
X6304732Y-18019721D01*
X6304732Y-18019721D02*
X6285684Y-18048292D01*
X6285684Y-18048292D02*
X6276161Y-18086387D01*
X6276161Y-18086387D02*
X6276161Y-18162578D01*
X6276161Y-18162578D02*
X6285684Y-18181625D01*
X6285684Y-18181625D02*
X6295208Y-18191149D01*
X6295208Y-18191149D02*
X6314256Y-18200673D01*
X6314256Y-18200673D02*
X6352351Y-18200673D01*
X6352351Y-18200673D02*
X6371399Y-18191149D01*
X6371399Y-18191149D02*
X6380922Y-18181625D01*
X6380922Y-18181625D02*
X6390446Y-18162578D01*
X6390446Y-18162578D02*
X6390446Y-18114959D01*
X6390446Y-18114959D02*
X6380922Y-18095911D01*
X6380922Y-18095911D02*
X6371399Y-18086387D01*
X6371399Y-18086387D02*
X6352351Y-18076863D01*
X6352351Y-18076863D02*
X6314256Y-18076863D01*
X6314256Y-18076863D02*
X6295208Y-18086387D01*
X6295208Y-18086387D02*
X6285684Y-18095911D01*
X6285684Y-18095911D02*
X6276161Y-18114959D01*
X6457113Y-18000673D02*
X6580922Y-18000673D01*
X6580922Y-18000673D02*
X6514256Y-18076863D01*
X6514256Y-18076863D02*
X6542827Y-18076863D01*
X6542827Y-18076863D02*
X6561875Y-18086387D01*
X6561875Y-18086387D02*
X6571399Y-18095911D01*
X6571399Y-18095911D02*
X6580922Y-18114959D01*
X6580922Y-18114959D02*
X6580922Y-18162578D01*
X6580922Y-18162578D02*
X6571399Y-18181625D01*
X6571399Y-18181625D02*
X6561875Y-18191149D01*
X6561875Y-18191149D02*
X6542827Y-18200673D01*
X6542827Y-18200673D02*
X6485684Y-18200673D01*
X6485684Y-18200673D02*
X6466637Y-18191149D01*
X6466637Y-18191149D02*
X6457113Y-18181625D01*
X6704732Y-18000673D02*
X6723780Y-18000673D01*
X6723780Y-18000673D02*
X6742827Y-18010197D01*
X6742827Y-18010197D02*
X6752351Y-18019721D01*
X6752351Y-18019721D02*
X6761875Y-18038768D01*
X6761875Y-18038768D02*
X6771399Y-18076863D01*
X6771399Y-18076863D02*
X6771399Y-18124482D01*
X6771399Y-18124482D02*
X6761875Y-18162578D01*
X6761875Y-18162578D02*
X6752351Y-18181625D01*
X6752351Y-18181625D02*
X6742827Y-18191149D01*
X6742827Y-18191149D02*
X6723780Y-18200673D01*
X6723780Y-18200673D02*
X6704732Y-18200673D01*
X6704732Y-18200673D02*
X6685684Y-18191149D01*
X6685684Y-18191149D02*
X6676161Y-18181625D01*
X6676161Y-18181625D02*
X6666637Y-18162578D01*
X6666637Y-18162578D02*
X6657113Y-18124482D01*
X6657113Y-18124482D02*
X6657113Y-18076863D01*
X6657113Y-18076863D02*
X6666637Y-18038768D01*
X6666637Y-18038768D02*
X6676161Y-18019721D01*
X6676161Y-18019721D02*
X6685684Y-18010197D01*
X6685684Y-18010197D02*
X6704732Y-18000673D01*
X6847589Y-18000673D02*
X6847589Y-18038768D01*
X6923780Y-18000673D02*
X6923780Y-18038768D01*
X7219018Y-18276863D02*
X7209494Y-18267340D01*
X7209494Y-18267340D02*
X7190446Y-18238768D01*
X7190446Y-18238768D02*
X7180923Y-18219721D01*
X7180923Y-18219721D02*
X7171399Y-18191149D01*
X7171399Y-18191149D02*
X7161875Y-18143530D01*
X7161875Y-18143530D02*
X7161875Y-18105435D01*
X7161875Y-18105435D02*
X7171399Y-18057816D01*
X7171399Y-18057816D02*
X7180923Y-18029244D01*
X7180923Y-18029244D02*
X7190446Y-18010197D01*
X7190446Y-18010197D02*
X7209494Y-17981625D01*
X7209494Y-17981625D02*
X7219018Y-17972101D01*
X7380923Y-18067340D02*
X7380923Y-18200673D01*
X7333303Y-17991149D02*
X7285684Y-18134006D01*
X7285684Y-18134006D02*
X7409494Y-18134006D01*
X7638065Y-18200673D02*
X7638065Y-18000673D01*
X7723780Y-18200673D02*
X7723780Y-18095911D01*
X7723780Y-18095911D02*
X7714256Y-18076863D01*
X7714256Y-18076863D02*
X7695208Y-18067340D01*
X7695208Y-18067340D02*
X7666637Y-18067340D01*
X7666637Y-18067340D02*
X7647589Y-18076863D01*
X7647589Y-18076863D02*
X7638065Y-18086387D01*
X7847589Y-18200673D02*
X7828542Y-18191149D01*
X7828542Y-18191149D02*
X7819018Y-18181625D01*
X7819018Y-18181625D02*
X7809494Y-18162578D01*
X7809494Y-18162578D02*
X7809494Y-18105435D01*
X7809494Y-18105435D02*
X7819018Y-18086387D01*
X7819018Y-18086387D02*
X7828542Y-18076863D01*
X7828542Y-18076863D02*
X7847589Y-18067340D01*
X7847589Y-18067340D02*
X7876161Y-18067340D01*
X7876161Y-18067340D02*
X7895208Y-18076863D01*
X7895208Y-18076863D02*
X7904732Y-18086387D01*
X7904732Y-18086387D02*
X7914256Y-18105435D01*
X7914256Y-18105435D02*
X7914256Y-18162578D01*
X7914256Y-18162578D02*
X7904732Y-18181625D01*
X7904732Y-18181625D02*
X7895208Y-18191149D01*
X7895208Y-18191149D02*
X7876161Y-18200673D01*
X7876161Y-18200673D02*
X7847589Y-18200673D01*
X8028542Y-18200673D02*
X8009494Y-18191149D01*
X8009494Y-18191149D02*
X7999970Y-18172101D01*
X7999970Y-18172101D02*
X7999970Y-18000673D01*
X8180923Y-18191149D02*
X8161875Y-18200673D01*
X8161875Y-18200673D02*
X8123780Y-18200673D01*
X8123780Y-18200673D02*
X8104732Y-18191149D01*
X8104732Y-18191149D02*
X8095208Y-18172101D01*
X8095208Y-18172101D02*
X8095208Y-18095911D01*
X8095208Y-18095911D02*
X8104732Y-18076863D01*
X8104732Y-18076863D02*
X8123780Y-18067340D01*
X8123780Y-18067340D02*
X8161875Y-18067340D01*
X8161875Y-18067340D02*
X8180923Y-18076863D01*
X8180923Y-18076863D02*
X8190446Y-18095911D01*
X8190446Y-18095911D02*
X8190446Y-18114959D01*
X8190446Y-18114959D02*
X8095208Y-18134006D01*
X8266637Y-18191149D02*
X8285685Y-18200673D01*
X8285685Y-18200673D02*
X8323780Y-18200673D01*
X8323780Y-18200673D02*
X8342827Y-18191149D01*
X8342827Y-18191149D02*
X8352351Y-18172101D01*
X8352351Y-18172101D02*
X8352351Y-18162578D01*
X8352351Y-18162578D02*
X8342827Y-18143530D01*
X8342827Y-18143530D02*
X8323780Y-18134006D01*
X8323780Y-18134006D02*
X8295208Y-18134006D01*
X8295208Y-18134006D02*
X8276161Y-18124482D01*
X8276161Y-18124482D02*
X8266637Y-18105435D01*
X8266637Y-18105435D02*
X8266637Y-18095911D01*
X8266637Y-18095911D02*
X8276161Y-18076863D01*
X8276161Y-18076863D02*
X8295208Y-18067340D01*
X8295208Y-18067340D02*
X8323780Y-18067340D01*
X8323780Y-18067340D02*
X8342827Y-18076863D01*
X8419018Y-18276863D02*
X8428542Y-18267340D01*
X8428542Y-18267340D02*
X8447589Y-18238768D01*
X8447589Y-18238768D02*
X8457113Y-18219721D01*
X8457113Y-18219721D02*
X8466637Y-18191149D01*
X8466637Y-18191149D02*
X8476161Y-18143530D01*
X8476161Y-18143530D02*
X8476161Y-18105435D01*
X8476161Y-18105435D02*
X8466637Y-18057816D01*
X8466637Y-18057816D02*
X8457113Y-18029244D01*
X8457113Y-18029244D02*
X8447589Y-18010197D01*
X8447589Y-18010197D02*
X8428542Y-17981625D01*
X8428542Y-17981625D02*
X8419018Y-17972101D01*
M02*
