G04 #@! TF.GenerationSoftware,KiCad,Pcbnew,8.0.8*
G04 #@! TF.CreationDate,2025-02-11T03:27:34+10:00*
G04 #@! TF.ProjectId,wetsocks54k,77657473-6f63-46b7-9335-346b2e6b6963,2*
G04 #@! TF.SameCoordinates,Original*
G04 #@! TF.FileFunction,Profile,NP*
%FSLAX46Y46*%
G04 Gerber Fmt 4.6, Leading zero omitted, Abs format (unit mm)*
G04 Created by KiCad (PCBNEW 8.0.8) date 2025-02-11 03:27:34*
%MOMM*%
%LPD*%
G01*
G04 APERTURE LIST*
G04 #@! TA.AperFunction,Profile*
%ADD10C,0.038100*%
G04 #@! TD*
G04 APERTURE END LIST*
D10*
X124458600Y-126365000D02*
X112458600Y-126365000D01*
X126629274Y-148365000D02*
X126458600Y-128365000D01*
X36458600Y-134365000D02*
X36458600Y-61365000D01*
X130458600Y-49365000D02*
G75*
G02*
X132458600Y-51365000I0J-2000000D01*
G01*
X149458600Y-51365000D02*
G75*
G02*
X151458600Y-53365000I0J-2000000D01*
G01*
X94458600Y-122365000D02*
G75*
G02*
X95458600Y-121365000I1000000J0D01*
G01*
X175458600Y-57365000D02*
X175458600Y-112365000D01*
X38458600Y-136365000D02*
G75*
G02*
X36458600Y-134365000I0J2000000D01*
G01*
X190419521Y-141345934D02*
G75*
G02*
X191489191Y-144301320I-960921J-2019066D01*
G01*
X110458600Y-124365000D02*
X110458600Y-122365000D01*
X109458600Y-121365000D02*
G75*
G02*
X110458600Y-122365000I0J-1000000D01*
G01*
X175458600Y-112365000D02*
X175615465Y-127588509D01*
X94458600Y-122365000D02*
X94458600Y-124365000D01*
X127598127Y-149182505D02*
X129442862Y-149194284D01*
X93458600Y-47365000D02*
X93458600Y-45365000D01*
X127598127Y-149182505D02*
G75*
G02*
X126629274Y-148365000I-139527J817505D01*
G01*
X75458600Y-128365000D02*
X75458600Y-133365000D01*
X38458600Y-59365000D02*
X72458600Y-59365000D01*
X92458600Y-126365000D02*
X77458600Y-126365000D01*
X132458600Y-51365000D02*
X149458600Y-51365000D01*
X74458600Y-57365000D02*
G75*
G02*
X72458600Y-59365000I-2000000J0D01*
G01*
X113458600Y-45365000D02*
X113458600Y-47365000D01*
X111458600Y-43365000D02*
G75*
G02*
X113458600Y-45365000I0J-2000000D01*
G01*
X181160172Y-136828097D02*
G75*
G02*
X175615464Y-127588509I5298428J9463097D01*
G01*
X115458600Y-49365000D02*
X130458600Y-49365000D01*
X185489909Y-156789283D02*
X191489191Y-144301320D01*
X95458600Y-43365000D02*
X111458600Y-43365000D01*
X75458600Y-133365000D02*
G75*
G02*
X72458600Y-136365000I-3000000J0D01*
G01*
X74458600Y-51365000D02*
G75*
G02*
X76458600Y-49365000I2000000J0D01*
G01*
X36458600Y-61365000D02*
G75*
G02*
X38458600Y-59365000I2000000J0D01*
G01*
X74458600Y-57365000D02*
X74458600Y-51365000D01*
X115458600Y-49365000D02*
G75*
G02*
X113458600Y-47365000I0J2000000D01*
G01*
X94458600Y-124365000D02*
G75*
G02*
X92458600Y-126365000I-2000000J0D01*
G01*
X153458600Y-55365000D02*
X171458600Y-55365000D01*
X112458600Y-126365000D02*
G75*
G02*
X110458600Y-124365000I0J2000000D01*
G01*
X109458600Y-121365000D02*
X95458600Y-121365000D01*
X190419521Y-141345934D02*
X181160172Y-136828097D01*
X93458600Y-47365000D02*
G75*
G02*
X91458600Y-49365000I-2000000J0D01*
G01*
X129442862Y-149194284D02*
G75*
G02*
X180789260Y-158268575I9076188J-98450456D01*
G01*
X76458600Y-49365000D02*
X91458600Y-49365000D01*
X153458600Y-55365000D02*
G75*
G02*
X151458600Y-53365000I0J2000000D01*
G01*
X75458600Y-128365000D02*
G75*
G02*
X77458600Y-126365000I2000000J0D01*
G01*
X93458600Y-45365000D02*
G75*
G02*
X95458600Y-43365000I2000000J0D01*
G01*
X171458600Y-55365000D02*
X173458600Y-55365000D01*
X124458600Y-126365000D02*
G75*
G02*
X126458600Y-128365000I0J-2000000D01*
G01*
X71458600Y-136365000D02*
X38458600Y-136365000D01*
X173458600Y-55365000D02*
G75*
G02*
X175458600Y-57365000I0J-2000000D01*
G01*
X71458600Y-136365000D02*
X72458600Y-136365000D01*
X185489909Y-156789283D02*
G75*
G02*
X180789262Y-158268571I-3031309J1424283D01*
G01*
M02*
