M48
; DRILL file {KiCad 8.0.8} date 2025-02-11T03:27:05+1000
; FORMAT={-:-/ absolute / metric / decimal}
; #@! TF.CreationDate,2025-02-11T03:27:05+10:00
; #@! TF.GenerationSoftware,Kicad,Pcbnew,8.0.8
; #@! TF.FileFunction,Plated,1,2,PTH
FMAT,2
METRIC
; #@! TA.AperFunction,Plated,PTH,ViaDrill
T1C0.400
; #@! TA.AperFunction,Plated,PTH,ComponentDrill
T2C0.762
; #@! TA.AperFunction,Plated,PTH,ComponentDrill
T3C0.900
; #@! TA.AperFunction,Plated,PTH,ComponentDrill
T4C1.000
; #@! TA.AperFunction,Plated,PTH,ComponentDrill
T5C1.499
; #@! TA.AperFunction,Plated,PTH,ComponentDrill
T6C1.500
; #@! TA.AperFunction,Plated,PTH,ComponentDrill
T7C1.600
%
G90
G05
T1
X112.279Y-102.515
X114.419Y-107.225
X122.389Y-122.795
X132.929Y-88.385
X132.959Y-59.605
X146.809Y-127.258
X148.789Y-108.775
X149.519Y-147.625
X150.849Y-126.635
X153.875Y-115.699
X153.879Y-97.605
X154.511Y-82.075
X154.859Y-91.365
X155.329Y-113.775
X155.789Y-60.915
X155.899Y-115.905
X156.439Y-112.085
X157.389Y-112.975
X157.619Y-91.365
X158.009Y-121.115
X158.649Y-109.825
X160.279Y-109.005
X160.869Y-107.805
X160.979Y-67.395
X161.779Y-81.365
X162.999Y-77.415
X163.069Y-103.675
X163.549Y-119.945
X163.559Y-88.185
X164.239Y-103.665
X164.479Y-96.525
X164.585Y-115.749
X165.279Y-100.815
X165.889Y-120.185
X166.229Y-98.735
X166.53Y-130.075
X167.049Y-115.625
X167.999Y-132.105
X168.929Y-126.845
X169.919Y-115.555
X170.649Y-84.885
X171.201Y-81.485
X172.079Y-126.905
X172.899Y-86.875
X172.949Y-115.595
X173.049Y-74.735
X173.209Y-120.275
X174.019Y-90.755
X174.049Y-87.515
T2
X154.188Y-58.669
X154.188Y-61.209
X154.188Y-63.749
X154.188Y-66.289
X154.188Y-68.829
X154.188Y-71.369
X154.188Y-73.909
X154.188Y-76.449
X154.188Y-78.989
X156.728Y-78.989
X159.268Y-78.989
X161.808Y-78.989
X164.348Y-78.989
X166.888Y-78.989
X169.428Y-58.669
X169.428Y-61.209
X169.428Y-63.749
X169.428Y-66.289
X169.428Y-68.829
X169.428Y-71.369
X169.428Y-73.909
X169.428Y-76.449
X169.428Y-78.989
T3
X157.939Y-93.94
X157.939Y-93.94
X157.939Y-96.48
X157.939Y-96.48
X157.939Y-99.02
X157.939Y-99.02
X157.939Y-101.56
X157.939Y-101.56
X160.479Y-92.67
X160.479Y-95.21
X160.479Y-95.21
X160.479Y-97.75
X160.479Y-97.75
X160.479Y-100.29
X160.479Y-100.29
X160.479Y-102.83
T4
X42.009Y-78.285
X42.009Y-97.535
X42.009Y-116.535
X49.809Y-78.285
X49.809Y-97.535
X49.809Y-116.535
X60.159Y-97.365
X61.159Y-78.365
X61.633Y-116.535
X67.959Y-97.365
X68.959Y-78.365
X69.433Y-116.535
X74.459Y-74.465
X74.459Y-82.265
X74.459Y-93.385
X74.459Y-101.185
X80.259Y-106.535
X80.509Y-68.535
X80.559Y-87.365
X88.059Y-106.535
X88.309Y-68.535
X88.359Y-87.365
X93.459Y-64.465
X93.459Y-72.265
X93.459Y-83.635
X93.459Y-91.435
X99.559Y-81.785
X99.759Y-62.785
X100.559Y-100.365
X107.359Y-81.785
X107.559Y-62.785
X108.359Y-100.365
X118.259Y-68.285
X118.559Y-106.365
X121.759Y-87.535
X126.059Y-68.285
X126.359Y-106.365
X129.559Y-87.535
X131.459Y-64.465
X131.459Y-72.265
X131.459Y-102.635
X131.459Y-110.435
X133.509Y-129.035
X136.259Y-109.035
X137.559Y-70.535
X139.509Y-90.035
X141.309Y-129.035
X144.059Y-109.035
X145.359Y-70.535
X147.309Y-90.035
X147.409Y-133.785
X147.409Y-141.585
X150.459Y-67.465
X150.459Y-75.265
X151.159Y-86.465
X151.159Y-94.265
X152.589Y-118.475
X152.589Y-126.275
X159.323Y-60.929
X159.323Y-75.429
X161.823Y-60.929
X164.323Y-60.929
X164.323Y-75.429
X167.182Y-144.336
X170.229Y-137.156
T5
X42.149Y-66.325
X42.149Y-71.405
X42.149Y-85.375
X42.149Y-90.455
X42.149Y-104.425
X42.149Y-109.505
X42.149Y-123.475
X42.149Y-128.555
X48.499Y-63.785
X48.499Y-73.945
X48.499Y-82.835
X48.499Y-92.995
X48.499Y-101.885
X48.499Y-112.045
X48.499Y-120.935
X48.499Y-131.095
X61.199Y-85.375
X61.199Y-90.455
X61.199Y-104.425
X61.199Y-109.505
X61.199Y-123.475
X61.199Y-128.555
X61.199Y-66.325
X61.199Y-71.405
X67.549Y-82.835
X67.549Y-92.995
X67.549Y-101.885
X67.549Y-112.045
X67.549Y-120.935
X67.549Y-131.095
X67.549Y-63.785
X67.549Y-73.945
X80.249Y-56.325
X80.249Y-61.405
X80.249Y-75.375
X80.249Y-80.455
X80.249Y-94.425
X80.249Y-99.505
X80.249Y-113.475
X80.249Y-118.555
X86.599Y-53.785
X86.599Y-63.945
X86.599Y-72.835
X86.599Y-82.995
X86.599Y-91.885
X86.599Y-102.045
X86.599Y-110.935
X86.599Y-121.095
X99.299Y-50.825
X99.299Y-55.905
X99.299Y-69.875
X99.299Y-74.955
X99.299Y-88.925
X99.299Y-94.005
X99.299Y-107.975
X99.299Y-113.055
X105.649Y-48.285
X105.649Y-58.445
X105.649Y-67.335
X105.649Y-77.495
X105.649Y-86.385
X105.649Y-96.545
X105.649Y-105.435
X105.649Y-115.595
X118.349Y-56.325
X118.349Y-61.405
X118.349Y-75.375
X118.349Y-80.455
X118.349Y-94.425
X118.349Y-99.505
X118.349Y-113.475
X118.349Y-118.555
X124.699Y-53.785
X124.699Y-63.945
X124.699Y-72.835
X124.699Y-82.995
X124.699Y-91.885
X124.699Y-102.045
X124.699Y-110.935
X124.699Y-121.095
X132.725Y-137.325
X132.725Y-142.405
X137.399Y-58.745
X137.399Y-63.825
X137.399Y-77.795
X137.399Y-82.875
X137.399Y-96.845
X137.399Y-101.925
X137.399Y-115.895
X137.399Y-120.975
X139.075Y-134.785
X139.075Y-144.945
X143.749Y-56.205
X143.749Y-66.365
X143.749Y-75.255
X143.749Y-85.415
X143.749Y-94.305
X143.749Y-104.465
X143.749Y-113.355
X143.749Y-123.515
X153.296Y-142.975
X154.178Y-137.972
X159.108Y-146.579
X160.873Y-136.573
X173.31Y-147.7
X175.295Y-143.024
X178.163Y-152.519
X182.133Y-143.167
T7
X169.879Y-89.345
X169.879Y-90.615
X169.879Y-104.885
X169.879Y-106.155
T6
X156.223Y-67.779G85X156.223Y-69.079
G05
X167.423Y-67.779G85X167.423Y-69.079
G05
M30
