%TF.GenerationSoftware,KiCad,Pcbnew,8.0.8*%
%TF.CreationDate,2025-02-11T03:27:08+10:00*%
%TF.ProjectId,wetsocks54k,77657473-6f63-46b7-9335-346b2e6b6963,2*%
%TF.SameCoordinates,Original*%
%TF.FileFunction,Drillmap*%
%TF.FilePolarity,Positive*%
%FSLAX45Y45*%
G04 Gerber Fmt 4.5, Leading zero omitted, Abs format (unit mm)*
G04 Created by KiCad (PCBNEW 8.0.8) date 2025-02-11 03:27:08*
%MOMM*%
%LPD*%
G01*
G04 APERTURE LIST*
%ADD10C,0.038100*%
%ADD11C,0.200000*%
%ADD12C,0.170180*%
%ADD13C,0.300000*%
%ADD14C,0.325000*%
%ADD15C,0.398780*%
G04 APERTURE END LIST*
D10*
X12445860Y-12636500D02*
X11245860Y-12636500D01*
X12662927Y-14836500D02*
X12645860Y-12836500D01*
X3645860Y-13436500D02*
X3645860Y-6136500D01*
X13045860Y-4936500D02*
G75*
G02*
X13245860Y-5136500I0J-200000D01*
G01*
X14945860Y-5136500D02*
G75*
G02*
X15145860Y-5336500I0J-200000D01*
G01*
X9445860Y-12236500D02*
G75*
G02*
X9545860Y-12136500I100000J0D01*
G01*
X17545860Y-5736500D02*
X17545860Y-11236500D01*
X3845860Y-13636500D02*
G75*
G02*
X3645860Y-13436500I0J200000D01*
G01*
X19041952Y-14134593D02*
G75*
G02*
X19148919Y-14430132I-96092J-201907D01*
G01*
X11045860Y-12436500D02*
X11045860Y-12236500D01*
X10945860Y-12136500D02*
G75*
G02*
X11045860Y-12236500I0J-100000D01*
G01*
X17545860Y-11236500D02*
X17561547Y-12758851D01*
X9445860Y-12236500D02*
X9445860Y-12436500D01*
X12759813Y-14918250D02*
X12944286Y-14919428D01*
X9345860Y-4736500D02*
X9345860Y-4536500D01*
X12759813Y-14918250D02*
G75*
G02*
X12662927Y-14836500I-13953J81751D01*
G01*
X7545860Y-12836500D02*
X7545860Y-13336500D01*
X3845860Y-5936500D02*
X7245860Y-5936500D01*
X9245860Y-12636500D02*
X7745860Y-12636500D01*
X13245860Y-5136500D02*
X14945860Y-5136500D01*
X7445860Y-5736500D02*
G75*
G02*
X7245860Y-5936500I-200000J0D01*
G01*
X11345860Y-4536500D02*
X11345860Y-4736500D01*
X11145860Y-4336500D02*
G75*
G02*
X11345860Y-4536500I0J-200000D01*
G01*
X18116017Y-13682810D02*
G75*
G02*
X17561546Y-12758851I529843J946310D01*
G01*
X11545860Y-4936500D02*
X13045860Y-4936500D01*
X18548991Y-15678928D02*
X19148919Y-14430132D01*
X9545860Y-4336500D02*
X11145860Y-4336500D01*
X7545860Y-13336500D02*
G75*
G02*
X7245860Y-13636500I-300000J0D01*
G01*
X7445860Y-5136500D02*
G75*
G02*
X7645860Y-4936500I200000J0D01*
G01*
X3645860Y-6136500D02*
G75*
G02*
X3845860Y-5936500I200000J0D01*
G01*
X7445860Y-5736500D02*
X7445860Y-5136500D01*
X11545860Y-4936500D02*
G75*
G02*
X11345860Y-4736500I0J200000D01*
G01*
X9445860Y-12436500D02*
G75*
G02*
X9245860Y-12636500I-200000J0D01*
G01*
X15345860Y-5536500D02*
X17145860Y-5536500D01*
X11245860Y-12636500D02*
G75*
G02*
X11045860Y-12436500I0J200000D01*
G01*
X10945860Y-12136500D02*
X9545860Y-12136500D01*
X19041952Y-14134593D02*
X18116017Y-13682810D01*
X9345860Y-4736500D02*
G75*
G02*
X9145860Y-4936500I-200000J0D01*
G01*
X12944286Y-14919428D02*
G75*
G02*
X18078926Y-15826857I907619J-9845046D01*
G01*
X7645860Y-4936500D02*
X9145860Y-4936500D01*
X15345860Y-5536500D02*
G75*
G02*
X15145860Y-5336500I0J200000D01*
G01*
X7545860Y-12836500D02*
G75*
G02*
X7745860Y-12636500I200000J0D01*
G01*
X9345860Y-4536500D02*
G75*
G02*
X9545860Y-4336500I200000J0D01*
G01*
X17145860Y-5536500D02*
X17345860Y-5536500D01*
X12445860Y-12636500D02*
G75*
G02*
X12645860Y-12836500I0J-200000D01*
G01*
X7145860Y-13636500D02*
X3845860Y-13636500D01*
X17345860Y-5536500D02*
G75*
G02*
X17545860Y-5736500I0J-200000D01*
G01*
X7145860Y-13636500D02*
X7245860Y-13636500D01*
X18548991Y-15678928D02*
G75*
G02*
X18078926Y-15826857I-303131J142428D01*
G01*
D11*
D12*
X4002770Y-6801410D02*
X4172950Y-6971590D01*
X4172950Y-6801410D02*
X4002770Y-6971590D01*
X4002770Y-8706410D02*
X4172950Y-8876590D01*
X4172950Y-8706410D02*
X4002770Y-8876590D01*
X4002770Y-10611410D02*
X4172950Y-10781590D01*
X4172950Y-10611410D02*
X4002770Y-10781590D01*
X4002770Y-12516410D02*
X4172950Y-12686590D01*
X4172950Y-12516410D02*
X4002770Y-12686590D01*
X5018770Y-6801410D02*
X5188950Y-6971590D01*
X5188950Y-6801410D02*
X5018770Y-6971590D01*
X5018770Y-8706410D02*
X5188950Y-8876590D01*
X5188950Y-8706410D02*
X5018770Y-8876590D01*
X5018770Y-10611410D02*
X5188950Y-10781590D01*
X5188950Y-10611410D02*
X5018770Y-10781590D01*
X5018770Y-12516410D02*
X5188950Y-12686590D01*
X5188950Y-12516410D02*
X5018770Y-12686590D01*
X5907770Y-8706410D02*
X6077950Y-8876590D01*
X6077950Y-8706410D02*
X5907770Y-8876590D01*
X5907770Y-10611410D02*
X6077950Y-10781590D01*
X6077950Y-10611410D02*
X5907770Y-10781590D01*
X5907770Y-12516410D02*
X6077950Y-12686590D01*
X6077950Y-12516410D02*
X5907770Y-12686590D01*
X5907770Y-6801410D02*
X6077950Y-6971590D01*
X6077950Y-6801410D02*
X5907770Y-6971590D01*
X6923770Y-8706410D02*
X7093950Y-8876590D01*
X7093950Y-8706410D02*
X6923770Y-8876590D01*
X6923770Y-10611410D02*
X7093950Y-10781590D01*
X7093950Y-10611410D02*
X6923770Y-10781590D01*
X6923770Y-12516410D02*
X7093950Y-12686590D01*
X7093950Y-12516410D02*
X6923770Y-12686590D01*
X6923770Y-6801410D02*
X7093950Y-6971590D01*
X7093950Y-6801410D02*
X6923770Y-6971590D01*
X7812770Y-5801410D02*
X7982950Y-5971590D01*
X7982950Y-5801410D02*
X7812770Y-5971590D01*
X7812770Y-7706410D02*
X7982950Y-7876590D01*
X7982950Y-7706410D02*
X7812770Y-7876590D01*
X7812770Y-9611410D02*
X7982950Y-9781590D01*
X7982950Y-9611410D02*
X7812770Y-9781590D01*
X7812770Y-11516410D02*
X7982950Y-11686590D01*
X7982950Y-11516410D02*
X7812770Y-11686590D01*
X8828770Y-5801410D02*
X8998950Y-5971590D01*
X8998950Y-5801410D02*
X8828770Y-5971590D01*
X8828770Y-7706410D02*
X8998950Y-7876590D01*
X8998950Y-7706410D02*
X8828770Y-7876590D01*
X8828770Y-9611410D02*
X8998950Y-9781590D01*
X8998950Y-9611410D02*
X8828770Y-9781590D01*
X8828770Y-11516410D02*
X8998950Y-11686590D01*
X8998950Y-11516410D02*
X8828770Y-11686590D01*
X9717770Y-5251410D02*
X9887950Y-5421590D01*
X9887950Y-5251410D02*
X9717770Y-5421590D01*
X9717770Y-7156410D02*
X9887950Y-7326590D01*
X9887950Y-7156410D02*
X9717770Y-7326590D01*
X9717770Y-9061410D02*
X9887950Y-9231590D01*
X9887950Y-9061410D02*
X9717770Y-9231590D01*
X9717770Y-10966410D02*
X9887950Y-11136590D01*
X9887950Y-10966410D02*
X9717770Y-11136590D01*
X10733770Y-5251410D02*
X10903950Y-5421590D01*
X10903950Y-5251410D02*
X10733770Y-5421590D01*
X10733770Y-7156410D02*
X10903950Y-7326590D01*
X10903950Y-7156410D02*
X10733770Y-7326590D01*
X10733770Y-9061410D02*
X10903950Y-9231590D01*
X10903950Y-9061410D02*
X10733770Y-9231590D01*
X10733770Y-10966410D02*
X10903950Y-11136590D01*
X10903950Y-10966410D02*
X10733770Y-11136590D01*
X11622770Y-5801410D02*
X11792950Y-5971590D01*
X11792950Y-5801410D02*
X11622770Y-5971590D01*
X11622770Y-7706410D02*
X11792950Y-7876590D01*
X11792950Y-7706410D02*
X11622770Y-7876590D01*
X11622770Y-9611410D02*
X11792950Y-9781590D01*
X11792950Y-9611410D02*
X11622770Y-9781590D01*
X11622770Y-11516410D02*
X11792950Y-11686590D01*
X11792950Y-11516410D02*
X11622770Y-11686590D01*
X12638770Y-5801410D02*
X12808950Y-5971590D01*
X12808950Y-5801410D02*
X12638770Y-5971590D01*
X12638770Y-7706410D02*
X12808950Y-7876590D01*
X12808950Y-7706410D02*
X12638770Y-7876590D01*
X12638770Y-9611410D02*
X12808950Y-9781590D01*
X12808950Y-9611410D02*
X12638770Y-9781590D01*
X12638770Y-11516410D02*
X12808950Y-11686590D01*
X12808950Y-11516410D02*
X12638770Y-11686590D01*
X13060410Y-13901410D02*
X13230590Y-14071590D01*
X13230590Y-13901410D02*
X13060410Y-14071590D01*
X13527770Y-6043410D02*
X13697950Y-6213590D01*
X13697950Y-6043410D02*
X13527770Y-6213590D01*
X13527770Y-7948410D02*
X13697950Y-8118590D01*
X13697950Y-7948410D02*
X13527770Y-8118590D01*
X13527770Y-9853410D02*
X13697950Y-10023590D01*
X13697950Y-9853410D02*
X13527770Y-10023590D01*
X13527770Y-11758410D02*
X13697950Y-11928590D01*
X13697950Y-11758410D02*
X13527770Y-11928590D01*
X14076410Y-13901410D02*
X14246590Y-14071590D01*
X14246590Y-13901410D02*
X14076410Y-14071590D01*
X14543770Y-6043410D02*
X14713950Y-6213590D01*
X14713950Y-6043410D02*
X14543770Y-6213590D01*
X14543770Y-7948410D02*
X14713950Y-8118590D01*
X14713950Y-7948410D02*
X14543770Y-8118590D01*
X14543770Y-9853410D02*
X14713950Y-10023590D01*
X14713950Y-9853410D02*
X14543770Y-10023590D01*
X14543770Y-11758410D02*
X14713950Y-11928590D01*
X14713950Y-11758410D02*
X14543770Y-11928590D01*
X15163532Y-13940197D02*
X15333712Y-14110377D01*
X15333712Y-13940197D02*
X15163532Y-14110377D01*
X16164096Y-14116623D02*
X16334276Y-14286803D01*
X16334276Y-14116623D02*
X16164096Y-14286803D01*
X17228294Y-14401489D02*
X17398474Y-14571669D01*
X17398474Y-14401489D02*
X17228294Y-14571669D01*
X18163527Y-14798472D02*
X18333707Y-14968652D01*
X18333707Y-14798472D02*
X18163527Y-14968652D01*
D13*
X4491860Y-6378500D02*
G75*
G02*
X4191860Y-6378500I-150000J0D01*
G01*
X4191860Y-6378500D02*
G75*
G02*
X4491860Y-6378500I150000J0D01*
G01*
X4491860Y-7394500D02*
G75*
G02*
X4191860Y-7394500I-150000J0D01*
G01*
X4191860Y-7394500D02*
G75*
G02*
X4491860Y-7394500I150000J0D01*
G01*
X4491860Y-8283500D02*
G75*
G02*
X4191860Y-8283500I-150000J0D01*
G01*
X4191860Y-8283500D02*
G75*
G02*
X4491860Y-8283500I150000J0D01*
G01*
X4491860Y-9299500D02*
G75*
G02*
X4191860Y-9299500I-150000J0D01*
G01*
X4191860Y-9299500D02*
G75*
G02*
X4491860Y-9299500I150000J0D01*
G01*
X4491860Y-10188500D02*
G75*
G02*
X4191860Y-10188500I-150000J0D01*
G01*
X4191860Y-10188500D02*
G75*
G02*
X4491860Y-10188500I150000J0D01*
G01*
X4491860Y-11204500D02*
G75*
G02*
X4191860Y-11204500I-150000J0D01*
G01*
X4191860Y-11204500D02*
G75*
G02*
X4491860Y-11204500I150000J0D01*
G01*
X4491860Y-12093500D02*
G75*
G02*
X4191860Y-12093500I-150000J0D01*
G01*
X4191860Y-12093500D02*
G75*
G02*
X4491860Y-12093500I150000J0D01*
G01*
X4491860Y-13109500D02*
G75*
G02*
X4191860Y-13109500I-150000J0D01*
G01*
X4191860Y-13109500D02*
G75*
G02*
X4491860Y-13109500I150000J0D01*
G01*
X5126860Y-6632500D02*
G75*
G02*
X4826860Y-6632500I-150000J0D01*
G01*
X4826860Y-6632500D02*
G75*
G02*
X5126860Y-6632500I150000J0D01*
G01*
X5126860Y-7140500D02*
G75*
G02*
X4826860Y-7140500I-150000J0D01*
G01*
X4826860Y-7140500D02*
G75*
G02*
X5126860Y-7140500I150000J0D01*
G01*
X5126860Y-8537500D02*
G75*
G02*
X4826860Y-8537500I-150000J0D01*
G01*
X4826860Y-8537500D02*
G75*
G02*
X5126860Y-8537500I150000J0D01*
G01*
X5126860Y-9045500D02*
G75*
G02*
X4826860Y-9045500I-150000J0D01*
G01*
X4826860Y-9045500D02*
G75*
G02*
X5126860Y-9045500I150000J0D01*
G01*
X5126860Y-10442500D02*
G75*
G02*
X4826860Y-10442500I-150000J0D01*
G01*
X4826860Y-10442500D02*
G75*
G02*
X5126860Y-10442500I150000J0D01*
G01*
X5126860Y-10950500D02*
G75*
G02*
X4826860Y-10950500I-150000J0D01*
G01*
X4826860Y-10950500D02*
G75*
G02*
X5126860Y-10950500I150000J0D01*
G01*
X5126860Y-12347500D02*
G75*
G02*
X4826860Y-12347500I-150000J0D01*
G01*
X4826860Y-12347500D02*
G75*
G02*
X5126860Y-12347500I150000J0D01*
G01*
X5126860Y-12855500D02*
G75*
G02*
X4826860Y-12855500I-150000J0D01*
G01*
X4826860Y-12855500D02*
G75*
G02*
X5126860Y-12855500I150000J0D01*
G01*
X6396860Y-8283500D02*
G75*
G02*
X6096860Y-8283500I-150000J0D01*
G01*
X6096860Y-8283500D02*
G75*
G02*
X6396860Y-8283500I150000J0D01*
G01*
X6396860Y-9299500D02*
G75*
G02*
X6096860Y-9299500I-150000J0D01*
G01*
X6096860Y-9299500D02*
G75*
G02*
X6396860Y-9299500I150000J0D01*
G01*
X6396860Y-10188500D02*
G75*
G02*
X6096860Y-10188500I-150000J0D01*
G01*
X6096860Y-10188500D02*
G75*
G02*
X6396860Y-10188500I150000J0D01*
G01*
X6396860Y-11204500D02*
G75*
G02*
X6096860Y-11204500I-150000J0D01*
G01*
X6096860Y-11204500D02*
G75*
G02*
X6396860Y-11204500I150000J0D01*
G01*
X6396860Y-12093500D02*
G75*
G02*
X6096860Y-12093500I-150000J0D01*
G01*
X6096860Y-12093500D02*
G75*
G02*
X6396860Y-12093500I150000J0D01*
G01*
X6396860Y-13109500D02*
G75*
G02*
X6096860Y-13109500I-150000J0D01*
G01*
X6096860Y-13109500D02*
G75*
G02*
X6396860Y-13109500I150000J0D01*
G01*
X6396860Y-6378500D02*
G75*
G02*
X6096860Y-6378500I-150000J0D01*
G01*
X6096860Y-6378500D02*
G75*
G02*
X6396860Y-6378500I150000J0D01*
G01*
X6396860Y-7394500D02*
G75*
G02*
X6096860Y-7394500I-150000J0D01*
G01*
X6096860Y-7394500D02*
G75*
G02*
X6396860Y-7394500I150000J0D01*
G01*
X7031860Y-8537500D02*
G75*
G02*
X6731860Y-8537500I-150000J0D01*
G01*
X6731860Y-8537500D02*
G75*
G02*
X7031860Y-8537500I150000J0D01*
G01*
X7031860Y-9045500D02*
G75*
G02*
X6731860Y-9045500I-150000J0D01*
G01*
X6731860Y-9045500D02*
G75*
G02*
X7031860Y-9045500I150000J0D01*
G01*
X7031860Y-10442500D02*
G75*
G02*
X6731860Y-10442500I-150000J0D01*
G01*
X6731860Y-10442500D02*
G75*
G02*
X7031860Y-10442500I150000J0D01*
G01*
X7031860Y-10950500D02*
G75*
G02*
X6731860Y-10950500I-150000J0D01*
G01*
X6731860Y-10950500D02*
G75*
G02*
X7031860Y-10950500I150000J0D01*
G01*
X7031860Y-12347500D02*
G75*
G02*
X6731860Y-12347500I-150000J0D01*
G01*
X6731860Y-12347500D02*
G75*
G02*
X7031860Y-12347500I150000J0D01*
G01*
X7031860Y-12855500D02*
G75*
G02*
X6731860Y-12855500I-150000J0D01*
G01*
X6731860Y-12855500D02*
G75*
G02*
X7031860Y-12855500I150000J0D01*
G01*
X7031860Y-6632500D02*
G75*
G02*
X6731860Y-6632500I-150000J0D01*
G01*
X6731860Y-6632500D02*
G75*
G02*
X7031860Y-6632500I150000J0D01*
G01*
X7031860Y-7140500D02*
G75*
G02*
X6731860Y-7140500I-150000J0D01*
G01*
X6731860Y-7140500D02*
G75*
G02*
X7031860Y-7140500I150000J0D01*
G01*
X8301860Y-5378500D02*
G75*
G02*
X8001860Y-5378500I-150000J0D01*
G01*
X8001860Y-5378500D02*
G75*
G02*
X8301860Y-5378500I150000J0D01*
G01*
X8301860Y-6394500D02*
G75*
G02*
X8001860Y-6394500I-150000J0D01*
G01*
X8001860Y-6394500D02*
G75*
G02*
X8301860Y-6394500I150000J0D01*
G01*
X8301860Y-7283500D02*
G75*
G02*
X8001860Y-7283500I-150000J0D01*
G01*
X8001860Y-7283500D02*
G75*
G02*
X8301860Y-7283500I150000J0D01*
G01*
X8301860Y-8299500D02*
G75*
G02*
X8001860Y-8299500I-150000J0D01*
G01*
X8001860Y-8299500D02*
G75*
G02*
X8301860Y-8299500I150000J0D01*
G01*
X8301860Y-9188500D02*
G75*
G02*
X8001860Y-9188500I-150000J0D01*
G01*
X8001860Y-9188500D02*
G75*
G02*
X8301860Y-9188500I150000J0D01*
G01*
X8301860Y-10204500D02*
G75*
G02*
X8001860Y-10204500I-150000J0D01*
G01*
X8001860Y-10204500D02*
G75*
G02*
X8301860Y-10204500I150000J0D01*
G01*
X8301860Y-11093500D02*
G75*
G02*
X8001860Y-11093500I-150000J0D01*
G01*
X8001860Y-11093500D02*
G75*
G02*
X8301860Y-11093500I150000J0D01*
G01*
X8301860Y-12109500D02*
G75*
G02*
X8001860Y-12109500I-150000J0D01*
G01*
X8001860Y-12109500D02*
G75*
G02*
X8301860Y-12109500I150000J0D01*
G01*
X8936860Y-5632500D02*
G75*
G02*
X8636860Y-5632500I-150000J0D01*
G01*
X8636860Y-5632500D02*
G75*
G02*
X8936860Y-5632500I150000J0D01*
G01*
X8936860Y-6140500D02*
G75*
G02*
X8636860Y-6140500I-150000J0D01*
G01*
X8636860Y-6140500D02*
G75*
G02*
X8936860Y-6140500I150000J0D01*
G01*
X8936860Y-7537500D02*
G75*
G02*
X8636860Y-7537500I-150000J0D01*
G01*
X8636860Y-7537500D02*
G75*
G02*
X8936860Y-7537500I150000J0D01*
G01*
X8936860Y-8045500D02*
G75*
G02*
X8636860Y-8045500I-150000J0D01*
G01*
X8636860Y-8045500D02*
G75*
G02*
X8936860Y-8045500I150000J0D01*
G01*
X8936860Y-9442500D02*
G75*
G02*
X8636860Y-9442500I-150000J0D01*
G01*
X8636860Y-9442500D02*
G75*
G02*
X8936860Y-9442500I150000J0D01*
G01*
X8936860Y-9950500D02*
G75*
G02*
X8636860Y-9950500I-150000J0D01*
G01*
X8636860Y-9950500D02*
G75*
G02*
X8936860Y-9950500I150000J0D01*
G01*
X8936860Y-11347500D02*
G75*
G02*
X8636860Y-11347500I-150000J0D01*
G01*
X8636860Y-11347500D02*
G75*
G02*
X8936860Y-11347500I150000J0D01*
G01*
X8936860Y-11855500D02*
G75*
G02*
X8636860Y-11855500I-150000J0D01*
G01*
X8636860Y-11855500D02*
G75*
G02*
X8936860Y-11855500I150000J0D01*
G01*
X10206860Y-4828500D02*
G75*
G02*
X9906860Y-4828500I-150000J0D01*
G01*
X9906860Y-4828500D02*
G75*
G02*
X10206860Y-4828500I150000J0D01*
G01*
X10206860Y-5844500D02*
G75*
G02*
X9906860Y-5844500I-150000J0D01*
G01*
X9906860Y-5844500D02*
G75*
G02*
X10206860Y-5844500I150000J0D01*
G01*
X10206860Y-6733500D02*
G75*
G02*
X9906860Y-6733500I-150000J0D01*
G01*
X9906860Y-6733500D02*
G75*
G02*
X10206860Y-6733500I150000J0D01*
G01*
X10206860Y-7749500D02*
G75*
G02*
X9906860Y-7749500I-150000J0D01*
G01*
X9906860Y-7749500D02*
G75*
G02*
X10206860Y-7749500I150000J0D01*
G01*
X10206860Y-8638500D02*
G75*
G02*
X9906860Y-8638500I-150000J0D01*
G01*
X9906860Y-8638500D02*
G75*
G02*
X10206860Y-8638500I150000J0D01*
G01*
X10206860Y-9654500D02*
G75*
G02*
X9906860Y-9654500I-150000J0D01*
G01*
X9906860Y-9654500D02*
G75*
G02*
X10206860Y-9654500I150000J0D01*
G01*
X10206860Y-10543500D02*
G75*
G02*
X9906860Y-10543500I-150000J0D01*
G01*
X9906860Y-10543500D02*
G75*
G02*
X10206860Y-10543500I150000J0D01*
G01*
X10206860Y-11559500D02*
G75*
G02*
X9906860Y-11559500I-150000J0D01*
G01*
X9906860Y-11559500D02*
G75*
G02*
X10206860Y-11559500I150000J0D01*
G01*
X10841860Y-5082500D02*
G75*
G02*
X10541860Y-5082500I-150000J0D01*
G01*
X10541860Y-5082500D02*
G75*
G02*
X10841860Y-5082500I150000J0D01*
G01*
X10841860Y-5590500D02*
G75*
G02*
X10541860Y-5590500I-150000J0D01*
G01*
X10541860Y-5590500D02*
G75*
G02*
X10841860Y-5590500I150000J0D01*
G01*
X10841860Y-6987500D02*
G75*
G02*
X10541860Y-6987500I-150000J0D01*
G01*
X10541860Y-6987500D02*
G75*
G02*
X10841860Y-6987500I150000J0D01*
G01*
X10841860Y-7495500D02*
G75*
G02*
X10541860Y-7495500I-150000J0D01*
G01*
X10541860Y-7495500D02*
G75*
G02*
X10841860Y-7495500I150000J0D01*
G01*
X10841860Y-8892500D02*
G75*
G02*
X10541860Y-8892500I-150000J0D01*
G01*
X10541860Y-8892500D02*
G75*
G02*
X10841860Y-8892500I150000J0D01*
G01*
X10841860Y-9400500D02*
G75*
G02*
X10541860Y-9400500I-150000J0D01*
G01*
X10541860Y-9400500D02*
G75*
G02*
X10841860Y-9400500I150000J0D01*
G01*
X10841860Y-10797500D02*
G75*
G02*
X10541860Y-10797500I-150000J0D01*
G01*
X10541860Y-10797500D02*
G75*
G02*
X10841860Y-10797500I150000J0D01*
G01*
X10841860Y-11305500D02*
G75*
G02*
X10541860Y-11305500I-150000J0D01*
G01*
X10541860Y-11305500D02*
G75*
G02*
X10841860Y-11305500I150000J0D01*
G01*
X12111860Y-5378500D02*
G75*
G02*
X11811860Y-5378500I-150000J0D01*
G01*
X11811860Y-5378500D02*
G75*
G02*
X12111860Y-5378500I150000J0D01*
G01*
X12111860Y-6394500D02*
G75*
G02*
X11811860Y-6394500I-150000J0D01*
G01*
X11811860Y-6394500D02*
G75*
G02*
X12111860Y-6394500I150000J0D01*
G01*
X12111860Y-7283500D02*
G75*
G02*
X11811860Y-7283500I-150000J0D01*
G01*
X11811860Y-7283500D02*
G75*
G02*
X12111860Y-7283500I150000J0D01*
G01*
X12111860Y-8299500D02*
G75*
G02*
X11811860Y-8299500I-150000J0D01*
G01*
X11811860Y-8299500D02*
G75*
G02*
X12111860Y-8299500I150000J0D01*
G01*
X12111860Y-9188500D02*
G75*
G02*
X11811860Y-9188500I-150000J0D01*
G01*
X11811860Y-9188500D02*
G75*
G02*
X12111860Y-9188500I150000J0D01*
G01*
X12111860Y-10204500D02*
G75*
G02*
X11811860Y-10204500I-150000J0D01*
G01*
X11811860Y-10204500D02*
G75*
G02*
X12111860Y-10204500I150000J0D01*
G01*
X12111860Y-11093500D02*
G75*
G02*
X11811860Y-11093500I-150000J0D01*
G01*
X11811860Y-11093500D02*
G75*
G02*
X12111860Y-11093500I150000J0D01*
G01*
X12111860Y-12109500D02*
G75*
G02*
X11811860Y-12109500I-150000J0D01*
G01*
X11811860Y-12109500D02*
G75*
G02*
X12111860Y-12109500I150000J0D01*
G01*
X12746860Y-5632500D02*
G75*
G02*
X12446860Y-5632500I-150000J0D01*
G01*
X12446860Y-5632500D02*
G75*
G02*
X12746860Y-5632500I150000J0D01*
G01*
X12746860Y-6140500D02*
G75*
G02*
X12446860Y-6140500I-150000J0D01*
G01*
X12446860Y-6140500D02*
G75*
G02*
X12746860Y-6140500I150000J0D01*
G01*
X12746860Y-7537500D02*
G75*
G02*
X12446860Y-7537500I-150000J0D01*
G01*
X12446860Y-7537500D02*
G75*
G02*
X12746860Y-7537500I150000J0D01*
G01*
X12746860Y-8045500D02*
G75*
G02*
X12446860Y-8045500I-150000J0D01*
G01*
X12446860Y-8045500D02*
G75*
G02*
X12746860Y-8045500I150000J0D01*
G01*
X12746860Y-9442500D02*
G75*
G02*
X12446860Y-9442500I-150000J0D01*
G01*
X12446860Y-9442500D02*
G75*
G02*
X12746860Y-9442500I150000J0D01*
G01*
X12746860Y-9950500D02*
G75*
G02*
X12446860Y-9950500I-150000J0D01*
G01*
X12446860Y-9950500D02*
G75*
G02*
X12746860Y-9950500I150000J0D01*
G01*
X12746860Y-11347500D02*
G75*
G02*
X12446860Y-11347500I-150000J0D01*
G01*
X12446860Y-11347500D02*
G75*
G02*
X12746860Y-11347500I150000J0D01*
G01*
X12746860Y-11855500D02*
G75*
G02*
X12446860Y-11855500I-150000J0D01*
G01*
X12446860Y-11855500D02*
G75*
G02*
X12746860Y-11855500I150000J0D01*
G01*
X13549500Y-13478500D02*
G75*
G02*
X13249500Y-13478500I-150000J0D01*
G01*
X13249500Y-13478500D02*
G75*
G02*
X13549500Y-13478500I150000J0D01*
G01*
X13549500Y-14494500D02*
G75*
G02*
X13249500Y-14494500I-150000J0D01*
G01*
X13249500Y-14494500D02*
G75*
G02*
X13549500Y-14494500I150000J0D01*
G01*
X14016860Y-5620500D02*
G75*
G02*
X13716860Y-5620500I-150000J0D01*
G01*
X13716860Y-5620500D02*
G75*
G02*
X14016860Y-5620500I150000J0D01*
G01*
X14016860Y-6636500D02*
G75*
G02*
X13716860Y-6636500I-150000J0D01*
G01*
X13716860Y-6636500D02*
G75*
G02*
X14016860Y-6636500I150000J0D01*
G01*
X14016860Y-7525500D02*
G75*
G02*
X13716860Y-7525500I-150000J0D01*
G01*
X13716860Y-7525500D02*
G75*
G02*
X14016860Y-7525500I150000J0D01*
G01*
X14016860Y-8541500D02*
G75*
G02*
X13716860Y-8541500I-150000J0D01*
G01*
X13716860Y-8541500D02*
G75*
G02*
X14016860Y-8541500I150000J0D01*
G01*
X14016860Y-9430500D02*
G75*
G02*
X13716860Y-9430500I-150000J0D01*
G01*
X13716860Y-9430500D02*
G75*
G02*
X14016860Y-9430500I150000J0D01*
G01*
X14016860Y-10446500D02*
G75*
G02*
X13716860Y-10446500I-150000J0D01*
G01*
X13716860Y-10446500D02*
G75*
G02*
X14016860Y-10446500I150000J0D01*
G01*
X14016860Y-11335500D02*
G75*
G02*
X13716860Y-11335500I-150000J0D01*
G01*
X13716860Y-11335500D02*
G75*
G02*
X14016860Y-11335500I150000J0D01*
G01*
X14016860Y-12351500D02*
G75*
G02*
X13716860Y-12351500I-150000J0D01*
G01*
X13716860Y-12351500D02*
G75*
G02*
X14016860Y-12351500I150000J0D01*
G01*
X14184500Y-13732500D02*
G75*
G02*
X13884500Y-13732500I-150000J0D01*
G01*
X13884500Y-13732500D02*
G75*
G02*
X14184500Y-13732500I150000J0D01*
G01*
X14184500Y-14240500D02*
G75*
G02*
X13884500Y-14240500I-150000J0D01*
G01*
X13884500Y-14240500D02*
G75*
G02*
X14184500Y-14240500I150000J0D01*
G01*
X14651860Y-5874500D02*
G75*
G02*
X14351860Y-5874500I-150000J0D01*
G01*
X14351860Y-5874500D02*
G75*
G02*
X14651860Y-5874500I150000J0D01*
G01*
X14651860Y-6382500D02*
G75*
G02*
X14351860Y-6382500I-150000J0D01*
G01*
X14351860Y-6382500D02*
G75*
G02*
X14651860Y-6382500I150000J0D01*
G01*
X14651860Y-7779500D02*
G75*
G02*
X14351860Y-7779500I-150000J0D01*
G01*
X14351860Y-7779500D02*
G75*
G02*
X14651860Y-7779500I150000J0D01*
G01*
X14651860Y-8287500D02*
G75*
G02*
X14351860Y-8287500I-150000J0D01*
G01*
X14351860Y-8287500D02*
G75*
G02*
X14651860Y-8287500I150000J0D01*
G01*
X14651860Y-9684500D02*
G75*
G02*
X14351860Y-9684500I-150000J0D01*
G01*
X14351860Y-9684500D02*
G75*
G02*
X14651860Y-9684500I150000J0D01*
G01*
X14651860Y-10192500D02*
G75*
G02*
X14351860Y-10192500I-150000J0D01*
G01*
X14351860Y-10192500D02*
G75*
G02*
X14651860Y-10192500I150000J0D01*
G01*
X14651860Y-11589500D02*
G75*
G02*
X14351860Y-11589500I-150000J0D01*
G01*
X14351860Y-11589500D02*
G75*
G02*
X14651860Y-11589500I150000J0D01*
G01*
X14651860Y-12097500D02*
G75*
G02*
X14351860Y-12097500I-150000J0D01*
G01*
X14351860Y-12097500D02*
G75*
G02*
X14651860Y-12097500I150000J0D01*
G01*
X15560550Y-14569676D02*
G75*
G02*
X15260550Y-14569676I-150000J0D01*
G01*
X15260550Y-14569676D02*
G75*
G02*
X15560550Y-14569676I150000J0D01*
G01*
X15736976Y-13569111D02*
G75*
G02*
X15436976Y-13569111I-150000J0D01*
G01*
X15436976Y-13569111D02*
G75*
G02*
X15736976Y-13569111I150000J0D01*
G01*
X16230009Y-14429801D02*
G75*
G02*
X15930009Y-14429801I-150000J0D01*
G01*
X15930009Y-14429801D02*
G75*
G02*
X16230009Y-14429801I150000J0D01*
G01*
X16318222Y-13929519D02*
G75*
G02*
X16018222Y-13929519I-150000J0D01*
G01*
X16018222Y-13929519D02*
G75*
G02*
X16318222Y-13929519I150000J0D01*
G01*
X17498700Y-15053442D02*
G75*
G02*
X17198700Y-15053442I-150000J0D01*
G01*
X17198700Y-15053442D02*
G75*
G02*
X17498700Y-15053442I150000J0D01*
G01*
X17895683Y-14118209D02*
G75*
G02*
X17595683Y-14118209I-150000J0D01*
G01*
X17595683Y-14118209D02*
G75*
G02*
X17895683Y-14118209I150000J0D01*
G01*
X18182467Y-15067748D02*
G75*
G02*
X17882467Y-15067748I-150000J0D01*
G01*
X17882467Y-15067748D02*
G75*
G02*
X18182467Y-15067748I150000J0D01*
G01*
X18380958Y-14600131D02*
G75*
G02*
X18080958Y-14600131I-150000J0D01*
G01*
X18080958Y-14600131D02*
G75*
G02*
X18380958Y-14600131I150000J0D01*
G01*
D14*
X16682860Y-8977500D02*
X16682860Y-9302500D01*
X16520360Y-9140000D02*
X16845360Y-9140000D01*
X16682860Y-9104500D02*
X16682860Y-9429500D01*
X16520360Y-9267000D02*
X16845360Y-9267000D01*
X16682860Y-10120500D02*
X16682860Y-10445500D01*
X16520360Y-10283000D02*
X16845360Y-10283000D01*
X16682860Y-10247500D02*
X16682860Y-10572500D01*
X16520360Y-10410000D02*
X16845360Y-10410000D01*
D15*
X4736851Y-7027491D02*
X4736851Y-6745509D01*
X4454869Y-6745509D01*
X4454869Y-7027491D01*
X4736851Y-7027491D01*
X4736851Y-8932491D02*
X4736851Y-8650509D01*
X4454869Y-8650509D01*
X4454869Y-8932491D01*
X4736851Y-8932491D01*
X4736851Y-10837491D02*
X4736851Y-10555509D01*
X4454869Y-10555509D01*
X4454869Y-10837491D01*
X4736851Y-10837491D01*
X4736851Y-12742491D02*
X4736851Y-12460509D01*
X4454869Y-12460509D01*
X4454869Y-12742491D01*
X4736851Y-12742491D01*
X6641851Y-8932491D02*
X6641851Y-8650509D01*
X6359869Y-8650509D01*
X6359869Y-8932491D01*
X6641851Y-8932491D01*
X6641851Y-10837491D02*
X6641851Y-10555509D01*
X6359869Y-10555509D01*
X6359869Y-10837491D01*
X6641851Y-10837491D01*
X6641851Y-12742491D02*
X6641851Y-12460509D01*
X6359869Y-12460509D01*
X6359869Y-12742491D01*
X6641851Y-12742491D01*
X6641851Y-7027491D02*
X6641851Y-6745509D01*
X6359869Y-6745509D01*
X6359869Y-7027491D01*
X6641851Y-7027491D01*
X8546851Y-6027491D02*
X8546851Y-5745509D01*
X8264869Y-5745509D01*
X8264869Y-6027491D01*
X8546851Y-6027491D01*
X8546851Y-7932491D02*
X8546851Y-7650509D01*
X8264869Y-7650509D01*
X8264869Y-7932491D01*
X8546851Y-7932491D01*
X8546851Y-9837491D02*
X8546851Y-9555509D01*
X8264869Y-9555509D01*
X8264869Y-9837491D01*
X8546851Y-9837491D01*
X8546851Y-11742491D02*
X8546851Y-11460509D01*
X8264869Y-11460509D01*
X8264869Y-11742491D01*
X8546851Y-11742491D01*
X10451851Y-5477491D02*
X10451851Y-5195509D01*
X10169869Y-5195509D01*
X10169869Y-5477491D01*
X10451851Y-5477491D01*
X10451851Y-7382491D02*
X10451851Y-7100509D01*
X10169869Y-7100509D01*
X10169869Y-7382491D01*
X10451851Y-7382491D01*
X10451851Y-9287491D02*
X10451851Y-9005509D01*
X10169869Y-9005509D01*
X10169869Y-9287491D01*
X10451851Y-9287491D01*
X10451851Y-11192491D02*
X10451851Y-10910509D01*
X10169869Y-10910509D01*
X10169869Y-11192491D01*
X10451851Y-11192491D01*
X12356851Y-6027491D02*
X12356851Y-5745509D01*
X12074869Y-5745509D01*
X12074869Y-6027491D01*
X12356851Y-6027491D01*
X12356851Y-7932491D02*
X12356851Y-7650509D01*
X12074869Y-7650509D01*
X12074869Y-7932491D01*
X12356851Y-7932491D01*
X12356851Y-9837491D02*
X12356851Y-9555509D01*
X12074869Y-9555509D01*
X12074869Y-9837491D01*
X12356851Y-9837491D01*
X12356851Y-11742491D02*
X12356851Y-11460509D01*
X12074869Y-11460509D01*
X12074869Y-11742491D01*
X12356851Y-11742491D01*
X13794491Y-14127491D02*
X13794491Y-13845509D01*
X13512509Y-13845509D01*
X13512509Y-14127491D01*
X13794491Y-14127491D01*
X14261851Y-6269491D02*
X14261851Y-5987509D01*
X13979869Y-5987509D01*
X13979869Y-6269491D01*
X14261851Y-6269491D01*
X14261851Y-8174491D02*
X14261851Y-7892509D01*
X13979869Y-7892509D01*
X13979869Y-8174491D01*
X14261851Y-8174491D01*
X14261851Y-10079491D02*
X14261851Y-9797509D01*
X13979869Y-9797509D01*
X13979869Y-10079491D01*
X14261851Y-10079491D01*
X14261851Y-11984491D02*
X14261851Y-11702509D01*
X13979869Y-11702509D01*
X13979869Y-11984491D01*
X14261851Y-11984491D01*
X15889895Y-14254491D02*
X15889895Y-13972509D01*
X15607913Y-13972509D01*
X15607913Y-14254491D01*
X15889895Y-14254491D01*
X17921991Y-14826062D02*
X17921991Y-14544079D01*
X17640009Y-14544079D01*
X17640009Y-14826062D01*
X17921991Y-14826062D01*
D11*
X3904732Y-16184813D02*
X3904732Y-15984813D01*
X3904732Y-15984813D02*
X3952351Y-15984813D01*
X3952351Y-15984813D02*
X3980922Y-15994337D01*
X3980922Y-15994337D02*
X3999970Y-16013384D01*
X3999970Y-16013384D02*
X4009494Y-16032432D01*
X4009494Y-16032432D02*
X4019017Y-16070527D01*
X4019017Y-16070527D02*
X4019017Y-16099099D01*
X4019017Y-16099099D02*
X4009494Y-16137194D01*
X4009494Y-16137194D02*
X3999970Y-16156241D01*
X3999970Y-16156241D02*
X3980922Y-16175289D01*
X3980922Y-16175289D02*
X3952351Y-16184813D01*
X3952351Y-16184813D02*
X3904732Y-16184813D01*
X4104732Y-16184813D02*
X4104732Y-16051479D01*
X4104732Y-16089575D02*
X4114256Y-16070527D01*
X4114256Y-16070527D02*
X4123779Y-16061003D01*
X4123779Y-16061003D02*
X4142827Y-16051479D01*
X4142827Y-16051479D02*
X4161875Y-16051479D01*
X4228541Y-16184813D02*
X4228541Y-16051479D01*
X4228541Y-15984813D02*
X4219018Y-15994337D01*
X4219018Y-15994337D02*
X4228541Y-16003860D01*
X4228541Y-16003860D02*
X4238065Y-15994337D01*
X4238065Y-15994337D02*
X4228541Y-15984813D01*
X4228541Y-15984813D02*
X4228541Y-16003860D01*
X4352351Y-16184813D02*
X4333303Y-16175289D01*
X4333303Y-16175289D02*
X4323779Y-16156241D01*
X4323779Y-16156241D02*
X4323779Y-15984813D01*
X4457113Y-16184813D02*
X4438065Y-16175289D01*
X4438065Y-16175289D02*
X4428541Y-16156241D01*
X4428541Y-16156241D02*
X4428541Y-15984813D01*
X4685684Y-16184813D02*
X4685684Y-15984813D01*
X4685684Y-15984813D02*
X4752351Y-16127670D01*
X4752351Y-16127670D02*
X4819018Y-15984813D01*
X4819018Y-15984813D02*
X4819018Y-16184813D01*
X4999970Y-16184813D02*
X4999970Y-16080051D01*
X4999970Y-16080051D02*
X4990446Y-16061003D01*
X4990446Y-16061003D02*
X4971399Y-16051479D01*
X4971399Y-16051479D02*
X4933303Y-16051479D01*
X4933303Y-16051479D02*
X4914256Y-16061003D01*
X4999970Y-16175289D02*
X4980922Y-16184813D01*
X4980922Y-16184813D02*
X4933303Y-16184813D01*
X4933303Y-16184813D02*
X4914256Y-16175289D01*
X4914256Y-16175289D02*
X4904732Y-16156241D01*
X4904732Y-16156241D02*
X4904732Y-16137194D01*
X4904732Y-16137194D02*
X4914256Y-16118146D01*
X4914256Y-16118146D02*
X4933303Y-16108622D01*
X4933303Y-16108622D02*
X4980922Y-16108622D01*
X4980922Y-16108622D02*
X4999970Y-16099099D01*
X5095208Y-16051479D02*
X5095208Y-16251479D01*
X5095208Y-16061003D02*
X5114256Y-16051479D01*
X5114256Y-16051479D02*
X5152351Y-16051479D01*
X5152351Y-16051479D02*
X5171399Y-16061003D01*
X5171399Y-16061003D02*
X5180922Y-16070527D01*
X5180922Y-16070527D02*
X5190446Y-16089575D01*
X5190446Y-16089575D02*
X5190446Y-16146718D01*
X5190446Y-16146718D02*
X5180922Y-16165765D01*
X5180922Y-16165765D02*
X5171399Y-16175289D01*
X5171399Y-16175289D02*
X5152351Y-16184813D01*
X5152351Y-16184813D02*
X5114256Y-16184813D01*
X5114256Y-16184813D02*
X5095208Y-16175289D01*
X5276160Y-16165765D02*
X5285684Y-16175289D01*
X5285684Y-16175289D02*
X5276160Y-16184813D01*
X5276160Y-16184813D02*
X5266637Y-16175289D01*
X5266637Y-16175289D02*
X5276160Y-16165765D01*
X5276160Y-16165765D02*
X5276160Y-16184813D01*
X5276160Y-16061003D02*
X5285684Y-16070527D01*
X5285684Y-16070527D02*
X5276160Y-16080051D01*
X5276160Y-16080051D02*
X5266637Y-16070527D01*
X5266637Y-16070527D02*
X5276160Y-16061003D01*
X5276160Y-16061003D02*
X5276160Y-16080051D01*
D12*
X3473775Y-16428239D02*
X3643955Y-16598419D01*
X3643955Y-16428239D02*
X3473775Y-16598419D01*
D11*
X4009494Y-16604813D02*
X3895208Y-16604813D01*
X3952351Y-16604813D02*
X3952351Y-16404813D01*
X3952351Y-16404813D02*
X3933303Y-16433384D01*
X3933303Y-16433384D02*
X3914256Y-16452432D01*
X3914256Y-16452432D02*
X3895208Y-16461956D01*
X4095208Y-16585765D02*
X4104732Y-16595289D01*
X4104732Y-16595289D02*
X4095208Y-16604813D01*
X4095208Y-16604813D02*
X4085684Y-16595289D01*
X4085684Y-16595289D02*
X4095208Y-16585765D01*
X4095208Y-16585765D02*
X4095208Y-16604813D01*
X4171398Y-16404813D02*
X4304732Y-16404813D01*
X4304732Y-16404813D02*
X4219018Y-16604813D01*
X4419018Y-16404813D02*
X4438065Y-16404813D01*
X4438065Y-16404813D02*
X4457113Y-16414337D01*
X4457113Y-16414337D02*
X4466637Y-16423860D01*
X4466637Y-16423860D02*
X4476160Y-16442908D01*
X4476160Y-16442908D02*
X4485684Y-16481003D01*
X4485684Y-16481003D02*
X4485684Y-16528622D01*
X4485684Y-16528622D02*
X4476160Y-16566718D01*
X4476160Y-16566718D02*
X4466637Y-16585765D01*
X4466637Y-16585765D02*
X4457113Y-16595289D01*
X4457113Y-16595289D02*
X4438065Y-16604813D01*
X4438065Y-16604813D02*
X4419018Y-16604813D01*
X4419018Y-16604813D02*
X4399970Y-16595289D01*
X4399970Y-16595289D02*
X4390446Y-16585765D01*
X4390446Y-16585765D02*
X4380922Y-16566718D01*
X4380922Y-16566718D02*
X4371399Y-16528622D01*
X4371399Y-16528622D02*
X4371399Y-16481003D01*
X4371399Y-16481003D02*
X4380922Y-16442908D01*
X4380922Y-16442908D02*
X4390446Y-16423860D01*
X4390446Y-16423860D02*
X4399970Y-16414337D01*
X4399970Y-16414337D02*
X4419018Y-16404813D01*
X4561875Y-16423860D02*
X4571399Y-16414337D01*
X4571399Y-16414337D02*
X4590446Y-16404813D01*
X4590446Y-16404813D02*
X4638065Y-16404813D01*
X4638065Y-16404813D02*
X4657113Y-16414337D01*
X4657113Y-16414337D02*
X4666637Y-16423860D01*
X4666637Y-16423860D02*
X4676160Y-16442908D01*
X4676160Y-16442908D02*
X4676160Y-16461956D01*
X4676160Y-16461956D02*
X4666637Y-16490527D01*
X4666637Y-16490527D02*
X4552351Y-16604813D01*
X4552351Y-16604813D02*
X4676160Y-16604813D01*
X4761875Y-16604813D02*
X4761875Y-16471479D01*
X4761875Y-16490527D02*
X4771399Y-16481003D01*
X4771399Y-16481003D02*
X4790446Y-16471479D01*
X4790446Y-16471479D02*
X4819018Y-16471479D01*
X4819018Y-16471479D02*
X4838065Y-16481003D01*
X4838065Y-16481003D02*
X4847589Y-16500051D01*
X4847589Y-16500051D02*
X4847589Y-16604813D01*
X4847589Y-16500051D02*
X4857113Y-16481003D01*
X4857113Y-16481003D02*
X4876160Y-16471479D01*
X4876160Y-16471479D02*
X4904732Y-16471479D01*
X4904732Y-16471479D02*
X4923780Y-16481003D01*
X4923780Y-16481003D02*
X4933303Y-16500051D01*
X4933303Y-16500051D02*
X4933303Y-16604813D01*
X5028541Y-16604813D02*
X5028541Y-16471479D01*
X5028541Y-16490527D02*
X5038065Y-16481003D01*
X5038065Y-16481003D02*
X5057113Y-16471479D01*
X5057113Y-16471479D02*
X5085684Y-16471479D01*
X5085684Y-16471479D02*
X5104732Y-16481003D01*
X5104732Y-16481003D02*
X5114256Y-16500051D01*
X5114256Y-16500051D02*
X5114256Y-16604813D01*
X5114256Y-16500051D02*
X5123780Y-16481003D01*
X5123780Y-16481003D02*
X5142827Y-16471479D01*
X5142827Y-16471479D02*
X5171399Y-16471479D01*
X5171399Y-16471479D02*
X5190446Y-16481003D01*
X5190446Y-16481003D02*
X5199970Y-16500051D01*
X5199970Y-16500051D02*
X5199970Y-16604813D01*
X5590446Y-16395289D02*
X5419018Y-16652432D01*
X5847589Y-16404813D02*
X5866637Y-16404813D01*
X5866637Y-16404813D02*
X5885684Y-16414337D01*
X5885684Y-16414337D02*
X5895208Y-16423860D01*
X5895208Y-16423860D02*
X5904732Y-16442908D01*
X5904732Y-16442908D02*
X5914256Y-16481003D01*
X5914256Y-16481003D02*
X5914256Y-16528622D01*
X5914256Y-16528622D02*
X5904732Y-16566718D01*
X5904732Y-16566718D02*
X5895208Y-16585765D01*
X5895208Y-16585765D02*
X5885684Y-16595289D01*
X5885684Y-16595289D02*
X5866637Y-16604813D01*
X5866637Y-16604813D02*
X5847589Y-16604813D01*
X5847589Y-16604813D02*
X5828541Y-16595289D01*
X5828541Y-16595289D02*
X5819018Y-16585765D01*
X5819018Y-16585765D02*
X5809494Y-16566718D01*
X5809494Y-16566718D02*
X5799970Y-16528622D01*
X5799970Y-16528622D02*
X5799970Y-16481003D01*
X5799970Y-16481003D02*
X5809494Y-16442908D01*
X5809494Y-16442908D02*
X5819018Y-16423860D01*
X5819018Y-16423860D02*
X5828541Y-16414337D01*
X5828541Y-16414337D02*
X5847589Y-16404813D01*
X5999970Y-16585765D02*
X6009494Y-16595289D01*
X6009494Y-16595289D02*
X5999970Y-16604813D01*
X5999970Y-16604813D02*
X5990446Y-16595289D01*
X5990446Y-16595289D02*
X5999970Y-16585765D01*
X5999970Y-16585765D02*
X5999970Y-16604813D01*
X6133303Y-16404813D02*
X6152351Y-16404813D01*
X6152351Y-16404813D02*
X6171399Y-16414337D01*
X6171399Y-16414337D02*
X6180922Y-16423860D01*
X6180922Y-16423860D02*
X6190446Y-16442908D01*
X6190446Y-16442908D02*
X6199970Y-16481003D01*
X6199970Y-16481003D02*
X6199970Y-16528622D01*
X6199970Y-16528622D02*
X6190446Y-16566718D01*
X6190446Y-16566718D02*
X6180922Y-16585765D01*
X6180922Y-16585765D02*
X6171399Y-16595289D01*
X6171399Y-16595289D02*
X6152351Y-16604813D01*
X6152351Y-16604813D02*
X6133303Y-16604813D01*
X6133303Y-16604813D02*
X6114256Y-16595289D01*
X6114256Y-16595289D02*
X6104732Y-16585765D01*
X6104732Y-16585765D02*
X6095208Y-16566718D01*
X6095208Y-16566718D02*
X6085684Y-16528622D01*
X6085684Y-16528622D02*
X6085684Y-16481003D01*
X6085684Y-16481003D02*
X6095208Y-16442908D01*
X6095208Y-16442908D02*
X6104732Y-16423860D01*
X6104732Y-16423860D02*
X6114256Y-16414337D01*
X6114256Y-16414337D02*
X6133303Y-16404813D01*
X6371399Y-16404813D02*
X6333303Y-16404813D01*
X6333303Y-16404813D02*
X6314256Y-16414337D01*
X6314256Y-16414337D02*
X6304732Y-16423860D01*
X6304732Y-16423860D02*
X6285684Y-16452432D01*
X6285684Y-16452432D02*
X6276161Y-16490527D01*
X6276161Y-16490527D02*
X6276161Y-16566718D01*
X6276161Y-16566718D02*
X6285684Y-16585765D01*
X6285684Y-16585765D02*
X6295208Y-16595289D01*
X6295208Y-16595289D02*
X6314256Y-16604813D01*
X6314256Y-16604813D02*
X6352351Y-16604813D01*
X6352351Y-16604813D02*
X6371399Y-16595289D01*
X6371399Y-16595289D02*
X6380922Y-16585765D01*
X6380922Y-16585765D02*
X6390446Y-16566718D01*
X6390446Y-16566718D02*
X6390446Y-16519099D01*
X6390446Y-16519099D02*
X6380922Y-16500051D01*
X6380922Y-16500051D02*
X6371399Y-16490527D01*
X6371399Y-16490527D02*
X6352351Y-16481003D01*
X6352351Y-16481003D02*
X6314256Y-16481003D01*
X6314256Y-16481003D02*
X6295208Y-16490527D01*
X6295208Y-16490527D02*
X6285684Y-16500051D01*
X6285684Y-16500051D02*
X6276161Y-16519099D01*
X6457113Y-16404813D02*
X6590446Y-16404813D01*
X6590446Y-16404813D02*
X6504732Y-16604813D01*
X6704732Y-16404813D02*
X6723780Y-16404813D01*
X6723780Y-16404813D02*
X6742827Y-16414337D01*
X6742827Y-16414337D02*
X6752351Y-16423860D01*
X6752351Y-16423860D02*
X6761875Y-16442908D01*
X6761875Y-16442908D02*
X6771399Y-16481003D01*
X6771399Y-16481003D02*
X6771399Y-16528622D01*
X6771399Y-16528622D02*
X6761875Y-16566718D01*
X6761875Y-16566718D02*
X6752351Y-16585765D01*
X6752351Y-16585765D02*
X6742827Y-16595289D01*
X6742827Y-16595289D02*
X6723780Y-16604813D01*
X6723780Y-16604813D02*
X6704732Y-16604813D01*
X6704732Y-16604813D02*
X6685684Y-16595289D01*
X6685684Y-16595289D02*
X6676161Y-16585765D01*
X6676161Y-16585765D02*
X6666637Y-16566718D01*
X6666637Y-16566718D02*
X6657113Y-16528622D01*
X6657113Y-16528622D02*
X6657113Y-16481003D01*
X6657113Y-16481003D02*
X6666637Y-16442908D01*
X6666637Y-16442908D02*
X6676161Y-16423860D01*
X6676161Y-16423860D02*
X6685684Y-16414337D01*
X6685684Y-16414337D02*
X6704732Y-16404813D01*
X6847589Y-16404813D02*
X6847589Y-16442908D01*
X6923780Y-16404813D02*
X6923780Y-16442908D01*
X7219018Y-16681003D02*
X7209494Y-16671479D01*
X7209494Y-16671479D02*
X7190446Y-16642908D01*
X7190446Y-16642908D02*
X7180923Y-16623860D01*
X7180923Y-16623860D02*
X7171399Y-16595289D01*
X7171399Y-16595289D02*
X7161875Y-16547670D01*
X7161875Y-16547670D02*
X7161875Y-16509575D01*
X7161875Y-16509575D02*
X7171399Y-16461956D01*
X7171399Y-16461956D02*
X7180923Y-16433384D01*
X7180923Y-16433384D02*
X7190446Y-16414337D01*
X7190446Y-16414337D02*
X7209494Y-16385765D01*
X7209494Y-16385765D02*
X7219018Y-16376241D01*
X7390446Y-16404813D02*
X7295208Y-16404813D01*
X7295208Y-16404813D02*
X7285684Y-16500051D01*
X7285684Y-16500051D02*
X7295208Y-16490527D01*
X7295208Y-16490527D02*
X7314256Y-16481003D01*
X7314256Y-16481003D02*
X7361875Y-16481003D01*
X7361875Y-16481003D02*
X7380923Y-16490527D01*
X7380923Y-16490527D02*
X7390446Y-16500051D01*
X7390446Y-16500051D02*
X7399970Y-16519099D01*
X7399970Y-16519099D02*
X7399970Y-16566718D01*
X7399970Y-16566718D02*
X7390446Y-16585765D01*
X7390446Y-16585765D02*
X7380923Y-16595289D01*
X7380923Y-16595289D02*
X7361875Y-16604813D01*
X7361875Y-16604813D02*
X7314256Y-16604813D01*
X7314256Y-16604813D02*
X7295208Y-16595289D01*
X7295208Y-16595289D02*
X7285684Y-16585765D01*
X7571399Y-16471479D02*
X7571399Y-16604813D01*
X7523780Y-16395289D02*
X7476161Y-16538146D01*
X7476161Y-16538146D02*
X7599970Y-16538146D01*
X7828542Y-16604813D02*
X7828542Y-16404813D01*
X7914256Y-16604813D02*
X7914256Y-16500051D01*
X7914256Y-16500051D02*
X7904732Y-16481003D01*
X7904732Y-16481003D02*
X7885685Y-16471479D01*
X7885685Y-16471479D02*
X7857113Y-16471479D01*
X7857113Y-16471479D02*
X7838065Y-16481003D01*
X7838065Y-16481003D02*
X7828542Y-16490527D01*
X8038065Y-16604813D02*
X8019018Y-16595289D01*
X8019018Y-16595289D02*
X8009494Y-16585765D01*
X8009494Y-16585765D02*
X7999970Y-16566718D01*
X7999970Y-16566718D02*
X7999970Y-16509575D01*
X7999970Y-16509575D02*
X8009494Y-16490527D01*
X8009494Y-16490527D02*
X8019018Y-16481003D01*
X8019018Y-16481003D02*
X8038065Y-16471479D01*
X8038065Y-16471479D02*
X8066637Y-16471479D01*
X8066637Y-16471479D02*
X8085685Y-16481003D01*
X8085685Y-16481003D02*
X8095208Y-16490527D01*
X8095208Y-16490527D02*
X8104732Y-16509575D01*
X8104732Y-16509575D02*
X8104732Y-16566718D01*
X8104732Y-16566718D02*
X8095208Y-16585765D01*
X8095208Y-16585765D02*
X8085685Y-16595289D01*
X8085685Y-16595289D02*
X8066637Y-16604813D01*
X8066637Y-16604813D02*
X8038065Y-16604813D01*
X8219018Y-16604813D02*
X8199970Y-16595289D01*
X8199970Y-16595289D02*
X8190446Y-16576241D01*
X8190446Y-16576241D02*
X8190446Y-16404813D01*
X8371399Y-16595289D02*
X8352351Y-16604813D01*
X8352351Y-16604813D02*
X8314256Y-16604813D01*
X8314256Y-16604813D02*
X8295208Y-16595289D01*
X8295208Y-16595289D02*
X8285685Y-16576241D01*
X8285685Y-16576241D02*
X8285685Y-16500051D01*
X8285685Y-16500051D02*
X8295208Y-16481003D01*
X8295208Y-16481003D02*
X8314256Y-16471479D01*
X8314256Y-16471479D02*
X8352351Y-16471479D01*
X8352351Y-16471479D02*
X8371399Y-16481003D01*
X8371399Y-16481003D02*
X8380923Y-16500051D01*
X8380923Y-16500051D02*
X8380923Y-16519099D01*
X8380923Y-16519099D02*
X8285685Y-16538146D01*
X8457113Y-16595289D02*
X8476161Y-16604813D01*
X8476161Y-16604813D02*
X8514256Y-16604813D01*
X8514256Y-16604813D02*
X8533304Y-16595289D01*
X8533304Y-16595289D02*
X8542828Y-16576241D01*
X8542828Y-16576241D02*
X8542828Y-16566718D01*
X8542828Y-16566718D02*
X8533304Y-16547670D01*
X8533304Y-16547670D02*
X8514256Y-16538146D01*
X8514256Y-16538146D02*
X8485685Y-16538146D01*
X8485685Y-16538146D02*
X8466637Y-16528622D01*
X8466637Y-16528622D02*
X8457113Y-16509575D01*
X8457113Y-16509575D02*
X8457113Y-16500051D01*
X8457113Y-16500051D02*
X8466637Y-16481003D01*
X8466637Y-16481003D02*
X8485685Y-16471479D01*
X8485685Y-16471479D02*
X8514256Y-16471479D01*
X8514256Y-16471479D02*
X8533304Y-16481003D01*
X8609494Y-16681003D02*
X8619018Y-16671479D01*
X8619018Y-16671479D02*
X8638066Y-16642908D01*
X8638066Y-16642908D02*
X8647589Y-16623860D01*
X8647589Y-16623860D02*
X8657113Y-16595289D01*
X8657113Y-16595289D02*
X8666637Y-16547670D01*
X8666637Y-16547670D02*
X8666637Y-16509575D01*
X8666637Y-16509575D02*
X8657113Y-16461956D01*
X8657113Y-16461956D02*
X8647589Y-16433384D01*
X8647589Y-16433384D02*
X8638066Y-16414337D01*
X8638066Y-16414337D02*
X8619018Y-16385765D01*
X8619018Y-16385765D02*
X8609494Y-16376241D01*
X8971399Y-16681003D02*
X8961875Y-16671479D01*
X8961875Y-16671479D02*
X8942828Y-16642908D01*
X8942828Y-16642908D02*
X8933304Y-16623860D01*
X8933304Y-16623860D02*
X8923780Y-16595289D01*
X8923780Y-16595289D02*
X8914256Y-16547670D01*
X8914256Y-16547670D02*
X8914256Y-16509575D01*
X8914256Y-16509575D02*
X8923780Y-16461956D01*
X8923780Y-16461956D02*
X8933304Y-16433384D01*
X8933304Y-16433384D02*
X8942828Y-16414337D01*
X8942828Y-16414337D02*
X8961875Y-16385765D01*
X8961875Y-16385765D02*
X8971399Y-16376241D01*
X9047589Y-16471479D02*
X9047589Y-16604813D01*
X9047589Y-16490527D02*
X9057113Y-16481003D01*
X9057113Y-16481003D02*
X9076161Y-16471479D01*
X9076161Y-16471479D02*
X9104732Y-16471479D01*
X9104732Y-16471479D02*
X9123780Y-16481003D01*
X9123780Y-16481003D02*
X9133304Y-16500051D01*
X9133304Y-16500051D02*
X9133304Y-16604813D01*
X9257113Y-16604813D02*
X9238066Y-16595289D01*
X9238066Y-16595289D02*
X9228542Y-16585765D01*
X9228542Y-16585765D02*
X9219018Y-16566718D01*
X9219018Y-16566718D02*
X9219018Y-16509575D01*
X9219018Y-16509575D02*
X9228542Y-16490527D01*
X9228542Y-16490527D02*
X9238066Y-16481003D01*
X9238066Y-16481003D02*
X9257113Y-16471479D01*
X9257113Y-16471479D02*
X9285685Y-16471479D01*
X9285685Y-16471479D02*
X9304732Y-16481003D01*
X9304732Y-16481003D02*
X9314256Y-16490527D01*
X9314256Y-16490527D02*
X9323780Y-16509575D01*
X9323780Y-16509575D02*
X9323780Y-16566718D01*
X9323780Y-16566718D02*
X9314256Y-16585765D01*
X9314256Y-16585765D02*
X9304732Y-16595289D01*
X9304732Y-16595289D02*
X9285685Y-16604813D01*
X9285685Y-16604813D02*
X9257113Y-16604813D01*
X9380923Y-16471479D02*
X9457113Y-16471479D01*
X9409494Y-16404813D02*
X9409494Y-16576241D01*
X9409494Y-16576241D02*
X9419018Y-16595289D01*
X9419018Y-16595289D02*
X9438066Y-16604813D01*
X9438066Y-16604813D02*
X9457113Y-16604813D01*
X9676161Y-16471479D02*
X9676161Y-16671479D01*
X9676161Y-16481003D02*
X9695209Y-16471479D01*
X9695209Y-16471479D02*
X9733304Y-16471479D01*
X9733304Y-16471479D02*
X9752351Y-16481003D01*
X9752351Y-16481003D02*
X9761875Y-16490527D01*
X9761875Y-16490527D02*
X9771399Y-16509575D01*
X9771399Y-16509575D02*
X9771399Y-16566718D01*
X9771399Y-16566718D02*
X9761875Y-16585765D01*
X9761875Y-16585765D02*
X9752351Y-16595289D01*
X9752351Y-16595289D02*
X9733304Y-16604813D01*
X9733304Y-16604813D02*
X9695209Y-16604813D01*
X9695209Y-16604813D02*
X9676161Y-16595289D01*
X9885685Y-16604813D02*
X9866637Y-16595289D01*
X9866637Y-16595289D02*
X9857113Y-16576241D01*
X9857113Y-16576241D02*
X9857113Y-16404813D01*
X10047590Y-16604813D02*
X10047590Y-16500051D01*
X10047590Y-16500051D02*
X10038066Y-16481003D01*
X10038066Y-16481003D02*
X10019018Y-16471479D01*
X10019018Y-16471479D02*
X9980923Y-16471479D01*
X9980923Y-16471479D02*
X9961875Y-16481003D01*
X10047590Y-16595289D02*
X10028542Y-16604813D01*
X10028542Y-16604813D02*
X9980923Y-16604813D01*
X9980923Y-16604813D02*
X9961875Y-16595289D01*
X9961875Y-16595289D02*
X9952351Y-16576241D01*
X9952351Y-16576241D02*
X9952351Y-16557194D01*
X9952351Y-16557194D02*
X9961875Y-16538146D01*
X9961875Y-16538146D02*
X9980923Y-16528622D01*
X9980923Y-16528622D02*
X10028542Y-16528622D01*
X10028542Y-16528622D02*
X10047590Y-16519099D01*
X10114256Y-16471479D02*
X10190447Y-16471479D01*
X10142828Y-16404813D02*
X10142828Y-16576241D01*
X10142828Y-16576241D02*
X10152351Y-16595289D01*
X10152351Y-16595289D02*
X10171399Y-16604813D01*
X10171399Y-16604813D02*
X10190447Y-16604813D01*
X10333304Y-16595289D02*
X10314256Y-16604813D01*
X10314256Y-16604813D02*
X10276161Y-16604813D01*
X10276161Y-16604813D02*
X10257113Y-16595289D01*
X10257113Y-16595289D02*
X10247590Y-16576241D01*
X10247590Y-16576241D02*
X10247590Y-16500051D01*
X10247590Y-16500051D02*
X10257113Y-16481003D01*
X10257113Y-16481003D02*
X10276161Y-16471479D01*
X10276161Y-16471479D02*
X10314256Y-16471479D01*
X10314256Y-16471479D02*
X10333304Y-16481003D01*
X10333304Y-16481003D02*
X10342828Y-16500051D01*
X10342828Y-16500051D02*
X10342828Y-16519099D01*
X10342828Y-16519099D02*
X10247590Y-16538146D01*
X10514256Y-16604813D02*
X10514256Y-16404813D01*
X10514256Y-16595289D02*
X10495209Y-16604813D01*
X10495209Y-16604813D02*
X10457113Y-16604813D01*
X10457113Y-16604813D02*
X10438066Y-16595289D01*
X10438066Y-16595289D02*
X10428542Y-16585765D01*
X10428542Y-16585765D02*
X10419018Y-16566718D01*
X10419018Y-16566718D02*
X10419018Y-16509575D01*
X10419018Y-16509575D02*
X10428542Y-16490527D01*
X10428542Y-16490527D02*
X10438066Y-16481003D01*
X10438066Y-16481003D02*
X10457113Y-16471479D01*
X10457113Y-16471479D02*
X10495209Y-16471479D01*
X10495209Y-16471479D02*
X10514256Y-16481003D01*
X10590447Y-16681003D02*
X10599971Y-16671479D01*
X10599971Y-16671479D02*
X10619018Y-16642908D01*
X10619018Y-16642908D02*
X10628542Y-16623860D01*
X10628542Y-16623860D02*
X10638066Y-16595289D01*
X10638066Y-16595289D02*
X10647590Y-16547670D01*
X10647590Y-16547670D02*
X10647590Y-16509575D01*
X10647590Y-16509575D02*
X10638066Y-16461956D01*
X10638066Y-16461956D02*
X10628542Y-16433384D01*
X10628542Y-16433384D02*
X10619018Y-16414337D01*
X10619018Y-16414337D02*
X10599971Y-16385765D01*
X10599971Y-16385765D02*
X10590447Y-16376241D01*
X3643955Y-16803509D02*
G75*
G02*
X3443955Y-16803509I-100000J0D01*
G01*
X3443955Y-16803509D02*
G75*
G02*
X3643955Y-16803509I100000J0D01*
G01*
X3885684Y-16694993D02*
X4009494Y-16694993D01*
X4009494Y-16694993D02*
X3942827Y-16771183D01*
X3942827Y-16771183D02*
X3971398Y-16771183D01*
X3971398Y-16771183D02*
X3990446Y-16780707D01*
X3990446Y-16780707D02*
X3999970Y-16790231D01*
X3999970Y-16790231D02*
X4009494Y-16809279D01*
X4009494Y-16809279D02*
X4009494Y-16856898D01*
X4009494Y-16856898D02*
X3999970Y-16875945D01*
X3999970Y-16875945D02*
X3990446Y-16885469D01*
X3990446Y-16885469D02*
X3971398Y-16894993D01*
X3971398Y-16894993D02*
X3914256Y-16894993D01*
X3914256Y-16894993D02*
X3895208Y-16885469D01*
X3895208Y-16885469D02*
X3885684Y-16875945D01*
X4095208Y-16875945D02*
X4104732Y-16885469D01*
X4104732Y-16885469D02*
X4095208Y-16894993D01*
X4095208Y-16894993D02*
X4085684Y-16885469D01*
X4085684Y-16885469D02*
X4095208Y-16875945D01*
X4095208Y-16875945D02*
X4095208Y-16894993D01*
X4228541Y-16694993D02*
X4247589Y-16694993D01*
X4247589Y-16694993D02*
X4266637Y-16704517D01*
X4266637Y-16704517D02*
X4276160Y-16714040D01*
X4276160Y-16714040D02*
X4285684Y-16733088D01*
X4285684Y-16733088D02*
X4295208Y-16771183D01*
X4295208Y-16771183D02*
X4295208Y-16818802D01*
X4295208Y-16818802D02*
X4285684Y-16856898D01*
X4285684Y-16856898D02*
X4276160Y-16875945D01*
X4276160Y-16875945D02*
X4266637Y-16885469D01*
X4266637Y-16885469D02*
X4247589Y-16894993D01*
X4247589Y-16894993D02*
X4228541Y-16894993D01*
X4228541Y-16894993D02*
X4209494Y-16885469D01*
X4209494Y-16885469D02*
X4199970Y-16875945D01*
X4199970Y-16875945D02*
X4190446Y-16856898D01*
X4190446Y-16856898D02*
X4180922Y-16818802D01*
X4180922Y-16818802D02*
X4180922Y-16771183D01*
X4180922Y-16771183D02*
X4190446Y-16733088D01*
X4190446Y-16733088D02*
X4199970Y-16714040D01*
X4199970Y-16714040D02*
X4209494Y-16704517D01*
X4209494Y-16704517D02*
X4228541Y-16694993D01*
X4419018Y-16694993D02*
X4438065Y-16694993D01*
X4438065Y-16694993D02*
X4457113Y-16704517D01*
X4457113Y-16704517D02*
X4466637Y-16714040D01*
X4466637Y-16714040D02*
X4476160Y-16733088D01*
X4476160Y-16733088D02*
X4485684Y-16771183D01*
X4485684Y-16771183D02*
X4485684Y-16818802D01*
X4485684Y-16818802D02*
X4476160Y-16856898D01*
X4476160Y-16856898D02*
X4466637Y-16875945D01*
X4466637Y-16875945D02*
X4457113Y-16885469D01*
X4457113Y-16885469D02*
X4438065Y-16894993D01*
X4438065Y-16894993D02*
X4419018Y-16894993D01*
X4419018Y-16894993D02*
X4399970Y-16885469D01*
X4399970Y-16885469D02*
X4390446Y-16875945D01*
X4390446Y-16875945D02*
X4380922Y-16856898D01*
X4380922Y-16856898D02*
X4371399Y-16818802D01*
X4371399Y-16818802D02*
X4371399Y-16771183D01*
X4371399Y-16771183D02*
X4380922Y-16733088D01*
X4380922Y-16733088D02*
X4390446Y-16714040D01*
X4390446Y-16714040D02*
X4399970Y-16704517D01*
X4399970Y-16704517D02*
X4419018Y-16694993D01*
X4609494Y-16694993D02*
X4628541Y-16694993D01*
X4628541Y-16694993D02*
X4647589Y-16704517D01*
X4647589Y-16704517D02*
X4657113Y-16714040D01*
X4657113Y-16714040D02*
X4666637Y-16733088D01*
X4666637Y-16733088D02*
X4676160Y-16771183D01*
X4676160Y-16771183D02*
X4676160Y-16818802D01*
X4676160Y-16818802D02*
X4666637Y-16856898D01*
X4666637Y-16856898D02*
X4657113Y-16875945D01*
X4657113Y-16875945D02*
X4647589Y-16885469D01*
X4647589Y-16885469D02*
X4628541Y-16894993D01*
X4628541Y-16894993D02*
X4609494Y-16894993D01*
X4609494Y-16894993D02*
X4590446Y-16885469D01*
X4590446Y-16885469D02*
X4580922Y-16875945D01*
X4580922Y-16875945D02*
X4571399Y-16856898D01*
X4571399Y-16856898D02*
X4561875Y-16818802D01*
X4561875Y-16818802D02*
X4561875Y-16771183D01*
X4561875Y-16771183D02*
X4571399Y-16733088D01*
X4571399Y-16733088D02*
X4580922Y-16714040D01*
X4580922Y-16714040D02*
X4590446Y-16704517D01*
X4590446Y-16704517D02*
X4609494Y-16694993D01*
X4761875Y-16894993D02*
X4761875Y-16761659D01*
X4761875Y-16780707D02*
X4771399Y-16771183D01*
X4771399Y-16771183D02*
X4790446Y-16761659D01*
X4790446Y-16761659D02*
X4819018Y-16761659D01*
X4819018Y-16761659D02*
X4838065Y-16771183D01*
X4838065Y-16771183D02*
X4847589Y-16790231D01*
X4847589Y-16790231D02*
X4847589Y-16894993D01*
X4847589Y-16790231D02*
X4857113Y-16771183D01*
X4857113Y-16771183D02*
X4876160Y-16761659D01*
X4876160Y-16761659D02*
X4904732Y-16761659D01*
X4904732Y-16761659D02*
X4923780Y-16771183D01*
X4923780Y-16771183D02*
X4933303Y-16790231D01*
X4933303Y-16790231D02*
X4933303Y-16894993D01*
X5028541Y-16894993D02*
X5028541Y-16761659D01*
X5028541Y-16780707D02*
X5038065Y-16771183D01*
X5038065Y-16771183D02*
X5057113Y-16761659D01*
X5057113Y-16761659D02*
X5085684Y-16761659D01*
X5085684Y-16761659D02*
X5104732Y-16771183D01*
X5104732Y-16771183D02*
X5114256Y-16790231D01*
X5114256Y-16790231D02*
X5114256Y-16894993D01*
X5114256Y-16790231D02*
X5123780Y-16771183D01*
X5123780Y-16771183D02*
X5142827Y-16761659D01*
X5142827Y-16761659D02*
X5171399Y-16761659D01*
X5171399Y-16761659D02*
X5190446Y-16771183D01*
X5190446Y-16771183D02*
X5199970Y-16790231D01*
X5199970Y-16790231D02*
X5199970Y-16894993D01*
X5590446Y-16685469D02*
X5419018Y-16942612D01*
X5847589Y-16694993D02*
X5866637Y-16694993D01*
X5866637Y-16694993D02*
X5885684Y-16704517D01*
X5885684Y-16704517D02*
X5895208Y-16714040D01*
X5895208Y-16714040D02*
X5904732Y-16733088D01*
X5904732Y-16733088D02*
X5914256Y-16771183D01*
X5914256Y-16771183D02*
X5914256Y-16818802D01*
X5914256Y-16818802D02*
X5904732Y-16856898D01*
X5904732Y-16856898D02*
X5895208Y-16875945D01*
X5895208Y-16875945D02*
X5885684Y-16885469D01*
X5885684Y-16885469D02*
X5866637Y-16894993D01*
X5866637Y-16894993D02*
X5847589Y-16894993D01*
X5847589Y-16894993D02*
X5828541Y-16885469D01*
X5828541Y-16885469D02*
X5819018Y-16875945D01*
X5819018Y-16875945D02*
X5809494Y-16856898D01*
X5809494Y-16856898D02*
X5799970Y-16818802D01*
X5799970Y-16818802D02*
X5799970Y-16771183D01*
X5799970Y-16771183D02*
X5809494Y-16733088D01*
X5809494Y-16733088D02*
X5819018Y-16714040D01*
X5819018Y-16714040D02*
X5828541Y-16704517D01*
X5828541Y-16704517D02*
X5847589Y-16694993D01*
X5999970Y-16875945D02*
X6009494Y-16885469D01*
X6009494Y-16885469D02*
X5999970Y-16894993D01*
X5999970Y-16894993D02*
X5990446Y-16885469D01*
X5990446Y-16885469D02*
X5999970Y-16875945D01*
X5999970Y-16875945D02*
X5999970Y-16894993D01*
X6199970Y-16894993D02*
X6085684Y-16894993D01*
X6142827Y-16894993D02*
X6142827Y-16694993D01*
X6142827Y-16694993D02*
X6123780Y-16723564D01*
X6123780Y-16723564D02*
X6104732Y-16742612D01*
X6104732Y-16742612D02*
X6085684Y-16752136D01*
X6390446Y-16894993D02*
X6276161Y-16894993D01*
X6333303Y-16894993D02*
X6333303Y-16694993D01*
X6333303Y-16694993D02*
X6314256Y-16723564D01*
X6314256Y-16723564D02*
X6295208Y-16742612D01*
X6295208Y-16742612D02*
X6276161Y-16752136D01*
X6504732Y-16780707D02*
X6485684Y-16771183D01*
X6485684Y-16771183D02*
X6476161Y-16761659D01*
X6476161Y-16761659D02*
X6466637Y-16742612D01*
X6466637Y-16742612D02*
X6466637Y-16733088D01*
X6466637Y-16733088D02*
X6476161Y-16714040D01*
X6476161Y-16714040D02*
X6485684Y-16704517D01*
X6485684Y-16704517D02*
X6504732Y-16694993D01*
X6504732Y-16694993D02*
X6542827Y-16694993D01*
X6542827Y-16694993D02*
X6561875Y-16704517D01*
X6561875Y-16704517D02*
X6571399Y-16714040D01*
X6571399Y-16714040D02*
X6580922Y-16733088D01*
X6580922Y-16733088D02*
X6580922Y-16742612D01*
X6580922Y-16742612D02*
X6571399Y-16761659D01*
X6571399Y-16761659D02*
X6561875Y-16771183D01*
X6561875Y-16771183D02*
X6542827Y-16780707D01*
X6542827Y-16780707D02*
X6504732Y-16780707D01*
X6504732Y-16780707D02*
X6485684Y-16790231D01*
X6485684Y-16790231D02*
X6476161Y-16799755D01*
X6476161Y-16799755D02*
X6466637Y-16818802D01*
X6466637Y-16818802D02*
X6466637Y-16856898D01*
X6466637Y-16856898D02*
X6476161Y-16875945D01*
X6476161Y-16875945D02*
X6485684Y-16885469D01*
X6485684Y-16885469D02*
X6504732Y-16894993D01*
X6504732Y-16894993D02*
X6542827Y-16894993D01*
X6542827Y-16894993D02*
X6561875Y-16885469D01*
X6561875Y-16885469D02*
X6571399Y-16875945D01*
X6571399Y-16875945D02*
X6580922Y-16856898D01*
X6580922Y-16856898D02*
X6580922Y-16818802D01*
X6580922Y-16818802D02*
X6571399Y-16799755D01*
X6571399Y-16799755D02*
X6561875Y-16790231D01*
X6561875Y-16790231D02*
X6542827Y-16780707D01*
X6771399Y-16894993D02*
X6657113Y-16894993D01*
X6714256Y-16894993D02*
X6714256Y-16694993D01*
X6714256Y-16694993D02*
X6695208Y-16723564D01*
X6695208Y-16723564D02*
X6676161Y-16742612D01*
X6676161Y-16742612D02*
X6657113Y-16752136D01*
X6847589Y-16694993D02*
X6847589Y-16733088D01*
X6923780Y-16694993D02*
X6923780Y-16733088D01*
X7219018Y-16971183D02*
X7209494Y-16961660D01*
X7209494Y-16961660D02*
X7190446Y-16933088D01*
X7190446Y-16933088D02*
X7180923Y-16914041D01*
X7180923Y-16914041D02*
X7171399Y-16885469D01*
X7171399Y-16885469D02*
X7161875Y-16837850D01*
X7161875Y-16837850D02*
X7161875Y-16799755D01*
X7161875Y-16799755D02*
X7171399Y-16752136D01*
X7171399Y-16752136D02*
X7180923Y-16723564D01*
X7180923Y-16723564D02*
X7190446Y-16704517D01*
X7190446Y-16704517D02*
X7209494Y-16675945D01*
X7209494Y-16675945D02*
X7219018Y-16666421D01*
X7399970Y-16894993D02*
X7285684Y-16894993D01*
X7342827Y-16894993D02*
X7342827Y-16694993D01*
X7342827Y-16694993D02*
X7323780Y-16723564D01*
X7323780Y-16723564D02*
X7304732Y-16742612D01*
X7304732Y-16742612D02*
X7285684Y-16752136D01*
X7523780Y-16694993D02*
X7542827Y-16694993D01*
X7542827Y-16694993D02*
X7561875Y-16704517D01*
X7561875Y-16704517D02*
X7571399Y-16714040D01*
X7571399Y-16714040D02*
X7580923Y-16733088D01*
X7580923Y-16733088D02*
X7590446Y-16771183D01*
X7590446Y-16771183D02*
X7590446Y-16818802D01*
X7590446Y-16818802D02*
X7580923Y-16856898D01*
X7580923Y-16856898D02*
X7571399Y-16875945D01*
X7571399Y-16875945D02*
X7561875Y-16885469D01*
X7561875Y-16885469D02*
X7542827Y-16894993D01*
X7542827Y-16894993D02*
X7523780Y-16894993D01*
X7523780Y-16894993D02*
X7504732Y-16885469D01*
X7504732Y-16885469D02*
X7495208Y-16875945D01*
X7495208Y-16875945D02*
X7485684Y-16856898D01*
X7485684Y-16856898D02*
X7476161Y-16818802D01*
X7476161Y-16818802D02*
X7476161Y-16771183D01*
X7476161Y-16771183D02*
X7485684Y-16733088D01*
X7485684Y-16733088D02*
X7495208Y-16714040D01*
X7495208Y-16714040D02*
X7504732Y-16704517D01*
X7504732Y-16704517D02*
X7523780Y-16694993D01*
X7704732Y-16780707D02*
X7685684Y-16771183D01*
X7685684Y-16771183D02*
X7676161Y-16761659D01*
X7676161Y-16761659D02*
X7666637Y-16742612D01*
X7666637Y-16742612D02*
X7666637Y-16733088D01*
X7666637Y-16733088D02*
X7676161Y-16714040D01*
X7676161Y-16714040D02*
X7685684Y-16704517D01*
X7685684Y-16704517D02*
X7704732Y-16694993D01*
X7704732Y-16694993D02*
X7742827Y-16694993D01*
X7742827Y-16694993D02*
X7761875Y-16704517D01*
X7761875Y-16704517D02*
X7771399Y-16714040D01*
X7771399Y-16714040D02*
X7780923Y-16733088D01*
X7780923Y-16733088D02*
X7780923Y-16742612D01*
X7780923Y-16742612D02*
X7771399Y-16761659D01*
X7771399Y-16761659D02*
X7761875Y-16771183D01*
X7761875Y-16771183D02*
X7742827Y-16780707D01*
X7742827Y-16780707D02*
X7704732Y-16780707D01*
X7704732Y-16780707D02*
X7685684Y-16790231D01*
X7685684Y-16790231D02*
X7676161Y-16799755D01*
X7676161Y-16799755D02*
X7666637Y-16818802D01*
X7666637Y-16818802D02*
X7666637Y-16856898D01*
X7666637Y-16856898D02*
X7676161Y-16875945D01*
X7676161Y-16875945D02*
X7685684Y-16885469D01*
X7685684Y-16885469D02*
X7704732Y-16894993D01*
X7704732Y-16894993D02*
X7742827Y-16894993D01*
X7742827Y-16894993D02*
X7761875Y-16885469D01*
X7761875Y-16885469D02*
X7771399Y-16875945D01*
X7771399Y-16875945D02*
X7780923Y-16856898D01*
X7780923Y-16856898D02*
X7780923Y-16818802D01*
X7780923Y-16818802D02*
X7771399Y-16799755D01*
X7771399Y-16799755D02*
X7761875Y-16790231D01*
X7761875Y-16790231D02*
X7742827Y-16780707D01*
X8019018Y-16894993D02*
X8019018Y-16694993D01*
X8104732Y-16894993D02*
X8104732Y-16790231D01*
X8104732Y-16790231D02*
X8095208Y-16771183D01*
X8095208Y-16771183D02*
X8076161Y-16761659D01*
X8076161Y-16761659D02*
X8047589Y-16761659D01*
X8047589Y-16761659D02*
X8028542Y-16771183D01*
X8028542Y-16771183D02*
X8019018Y-16780707D01*
X8228542Y-16894993D02*
X8209494Y-16885469D01*
X8209494Y-16885469D02*
X8199970Y-16875945D01*
X8199970Y-16875945D02*
X8190446Y-16856898D01*
X8190446Y-16856898D02*
X8190446Y-16799755D01*
X8190446Y-16799755D02*
X8199970Y-16780707D01*
X8199970Y-16780707D02*
X8209494Y-16771183D01*
X8209494Y-16771183D02*
X8228542Y-16761659D01*
X8228542Y-16761659D02*
X8257113Y-16761659D01*
X8257113Y-16761659D02*
X8276161Y-16771183D01*
X8276161Y-16771183D02*
X8285685Y-16780707D01*
X8285685Y-16780707D02*
X8295208Y-16799755D01*
X8295208Y-16799755D02*
X8295208Y-16856898D01*
X8295208Y-16856898D02*
X8285685Y-16875945D01*
X8285685Y-16875945D02*
X8276161Y-16885469D01*
X8276161Y-16885469D02*
X8257113Y-16894993D01*
X8257113Y-16894993D02*
X8228542Y-16894993D01*
X8409494Y-16894993D02*
X8390447Y-16885469D01*
X8390447Y-16885469D02*
X8380923Y-16866421D01*
X8380923Y-16866421D02*
X8380923Y-16694993D01*
X8561875Y-16885469D02*
X8542828Y-16894993D01*
X8542828Y-16894993D02*
X8504732Y-16894993D01*
X8504732Y-16894993D02*
X8485685Y-16885469D01*
X8485685Y-16885469D02*
X8476161Y-16866421D01*
X8476161Y-16866421D02*
X8476161Y-16790231D01*
X8476161Y-16790231D02*
X8485685Y-16771183D01*
X8485685Y-16771183D02*
X8504732Y-16761659D01*
X8504732Y-16761659D02*
X8542828Y-16761659D01*
X8542828Y-16761659D02*
X8561875Y-16771183D01*
X8561875Y-16771183D02*
X8571399Y-16790231D01*
X8571399Y-16790231D02*
X8571399Y-16809279D01*
X8571399Y-16809279D02*
X8476161Y-16828326D01*
X8647589Y-16885469D02*
X8666637Y-16894993D01*
X8666637Y-16894993D02*
X8704732Y-16894993D01*
X8704732Y-16894993D02*
X8723780Y-16885469D01*
X8723780Y-16885469D02*
X8733304Y-16866421D01*
X8733304Y-16866421D02*
X8733304Y-16856898D01*
X8733304Y-16856898D02*
X8723780Y-16837850D01*
X8723780Y-16837850D02*
X8704732Y-16828326D01*
X8704732Y-16828326D02*
X8676161Y-16828326D01*
X8676161Y-16828326D02*
X8657113Y-16818802D01*
X8657113Y-16818802D02*
X8647589Y-16799755D01*
X8647589Y-16799755D02*
X8647589Y-16790231D01*
X8647589Y-16790231D02*
X8657113Y-16771183D01*
X8657113Y-16771183D02*
X8676161Y-16761659D01*
X8676161Y-16761659D02*
X8704732Y-16761659D01*
X8704732Y-16761659D02*
X8723780Y-16771183D01*
X8799970Y-16971183D02*
X8809494Y-16961660D01*
X8809494Y-16961660D02*
X8828542Y-16933088D01*
X8828542Y-16933088D02*
X8838066Y-16914041D01*
X8838066Y-16914041D02*
X8847589Y-16885469D01*
X8847589Y-16885469D02*
X8857113Y-16837850D01*
X8857113Y-16837850D02*
X8857113Y-16799755D01*
X8857113Y-16799755D02*
X8847589Y-16752136D01*
X8847589Y-16752136D02*
X8838066Y-16723564D01*
X8838066Y-16723564D02*
X8828542Y-16704517D01*
X8828542Y-16704517D02*
X8809494Y-16675945D01*
X8809494Y-16675945D02*
X8799970Y-16666421D01*
X9161875Y-16971183D02*
X9152351Y-16961660D01*
X9152351Y-16961660D02*
X9133304Y-16933088D01*
X9133304Y-16933088D02*
X9123780Y-16914041D01*
X9123780Y-16914041D02*
X9114256Y-16885469D01*
X9114256Y-16885469D02*
X9104732Y-16837850D01*
X9104732Y-16837850D02*
X9104732Y-16799755D01*
X9104732Y-16799755D02*
X9114256Y-16752136D01*
X9114256Y-16752136D02*
X9123780Y-16723564D01*
X9123780Y-16723564D02*
X9133304Y-16704517D01*
X9133304Y-16704517D02*
X9152351Y-16675945D01*
X9152351Y-16675945D02*
X9161875Y-16666421D01*
X9238066Y-16761659D02*
X9238066Y-16894993D01*
X9238066Y-16780707D02*
X9247589Y-16771183D01*
X9247589Y-16771183D02*
X9266637Y-16761659D01*
X9266637Y-16761659D02*
X9295209Y-16761659D01*
X9295209Y-16761659D02*
X9314256Y-16771183D01*
X9314256Y-16771183D02*
X9323780Y-16790231D01*
X9323780Y-16790231D02*
X9323780Y-16894993D01*
X9447589Y-16894993D02*
X9428542Y-16885469D01*
X9428542Y-16885469D02*
X9419018Y-16875945D01*
X9419018Y-16875945D02*
X9409494Y-16856898D01*
X9409494Y-16856898D02*
X9409494Y-16799755D01*
X9409494Y-16799755D02*
X9419018Y-16780707D01*
X9419018Y-16780707D02*
X9428542Y-16771183D01*
X9428542Y-16771183D02*
X9447589Y-16761659D01*
X9447589Y-16761659D02*
X9476161Y-16761659D01*
X9476161Y-16761659D02*
X9495209Y-16771183D01*
X9495209Y-16771183D02*
X9504732Y-16780707D01*
X9504732Y-16780707D02*
X9514256Y-16799755D01*
X9514256Y-16799755D02*
X9514256Y-16856898D01*
X9514256Y-16856898D02*
X9504732Y-16875945D01*
X9504732Y-16875945D02*
X9495209Y-16885469D01*
X9495209Y-16885469D02*
X9476161Y-16894993D01*
X9476161Y-16894993D02*
X9447589Y-16894993D01*
X9571399Y-16761659D02*
X9647589Y-16761659D01*
X9599970Y-16694993D02*
X9599970Y-16866421D01*
X9599970Y-16866421D02*
X9609494Y-16885469D01*
X9609494Y-16885469D02*
X9628542Y-16894993D01*
X9628542Y-16894993D02*
X9647589Y-16894993D01*
X9866637Y-16761659D02*
X9866637Y-16961660D01*
X9866637Y-16771183D02*
X9885685Y-16761659D01*
X9885685Y-16761659D02*
X9923780Y-16761659D01*
X9923780Y-16761659D02*
X9942828Y-16771183D01*
X9942828Y-16771183D02*
X9952351Y-16780707D01*
X9952351Y-16780707D02*
X9961875Y-16799755D01*
X9961875Y-16799755D02*
X9961875Y-16856898D01*
X9961875Y-16856898D02*
X9952351Y-16875945D01*
X9952351Y-16875945D02*
X9942828Y-16885469D01*
X9942828Y-16885469D02*
X9923780Y-16894993D01*
X9923780Y-16894993D02*
X9885685Y-16894993D01*
X9885685Y-16894993D02*
X9866637Y-16885469D01*
X10076161Y-16894993D02*
X10057113Y-16885469D01*
X10057113Y-16885469D02*
X10047590Y-16866421D01*
X10047590Y-16866421D02*
X10047590Y-16694993D01*
X10238066Y-16894993D02*
X10238066Y-16790231D01*
X10238066Y-16790231D02*
X10228542Y-16771183D01*
X10228542Y-16771183D02*
X10209494Y-16761659D01*
X10209494Y-16761659D02*
X10171399Y-16761659D01*
X10171399Y-16761659D02*
X10152351Y-16771183D01*
X10238066Y-16885469D02*
X10219018Y-16894993D01*
X10219018Y-16894993D02*
X10171399Y-16894993D01*
X10171399Y-16894993D02*
X10152351Y-16885469D01*
X10152351Y-16885469D02*
X10142828Y-16866421D01*
X10142828Y-16866421D02*
X10142828Y-16847374D01*
X10142828Y-16847374D02*
X10152351Y-16828326D01*
X10152351Y-16828326D02*
X10171399Y-16818802D01*
X10171399Y-16818802D02*
X10219018Y-16818802D01*
X10219018Y-16818802D02*
X10238066Y-16809279D01*
X10304732Y-16761659D02*
X10380923Y-16761659D01*
X10333304Y-16694993D02*
X10333304Y-16866421D01*
X10333304Y-16866421D02*
X10342828Y-16885469D01*
X10342828Y-16885469D02*
X10361875Y-16894993D01*
X10361875Y-16894993D02*
X10380923Y-16894993D01*
X10523780Y-16885469D02*
X10504732Y-16894993D01*
X10504732Y-16894993D02*
X10466637Y-16894993D01*
X10466637Y-16894993D02*
X10447590Y-16885469D01*
X10447590Y-16885469D02*
X10438066Y-16866421D01*
X10438066Y-16866421D02*
X10438066Y-16790231D01*
X10438066Y-16790231D02*
X10447590Y-16771183D01*
X10447590Y-16771183D02*
X10466637Y-16761659D01*
X10466637Y-16761659D02*
X10504732Y-16761659D01*
X10504732Y-16761659D02*
X10523780Y-16771183D01*
X10523780Y-16771183D02*
X10533304Y-16790231D01*
X10533304Y-16790231D02*
X10533304Y-16809279D01*
X10533304Y-16809279D02*
X10438066Y-16828326D01*
X10704732Y-16894993D02*
X10704732Y-16694993D01*
X10704732Y-16885469D02*
X10685685Y-16894993D01*
X10685685Y-16894993D02*
X10647590Y-16894993D01*
X10647590Y-16894993D02*
X10628542Y-16885469D01*
X10628542Y-16885469D02*
X10619018Y-16875945D01*
X10619018Y-16875945D02*
X10609494Y-16856898D01*
X10609494Y-16856898D02*
X10609494Y-16799755D01*
X10609494Y-16799755D02*
X10619018Y-16780707D01*
X10619018Y-16780707D02*
X10628542Y-16771183D01*
X10628542Y-16771183D02*
X10647590Y-16761659D01*
X10647590Y-16761659D02*
X10685685Y-16761659D01*
X10685685Y-16761659D02*
X10704732Y-16771183D01*
X10780923Y-16971183D02*
X10790447Y-16961660D01*
X10790447Y-16961660D02*
X10809494Y-16933088D01*
X10809494Y-16933088D02*
X10819018Y-16914041D01*
X10819018Y-16914041D02*
X10828542Y-16885469D01*
X10828542Y-16885469D02*
X10838066Y-16837850D01*
X10838066Y-16837850D02*
X10838066Y-16799755D01*
X10838066Y-16799755D02*
X10828542Y-16752136D01*
X10828542Y-16752136D02*
X10819018Y-16723564D01*
X10819018Y-16723564D02*
X10809494Y-16704517D01*
X10809494Y-16704517D02*
X10790447Y-16675945D01*
X10790447Y-16675945D02*
X10780923Y-16666421D01*
X3543955Y-17023509D02*
X3543955Y-17223509D01*
X3443955Y-17123509D02*
X3643955Y-17123509D01*
X3885684Y-17014993D02*
X4009494Y-17014993D01*
X4009494Y-17014993D02*
X3942827Y-17091183D01*
X3942827Y-17091183D02*
X3971398Y-17091183D01*
X3971398Y-17091183D02*
X3990446Y-17100707D01*
X3990446Y-17100707D02*
X3999970Y-17110231D01*
X3999970Y-17110231D02*
X4009494Y-17129279D01*
X4009494Y-17129279D02*
X4009494Y-17176898D01*
X4009494Y-17176898D02*
X3999970Y-17195945D01*
X3999970Y-17195945D02*
X3990446Y-17205469D01*
X3990446Y-17205469D02*
X3971398Y-17214993D01*
X3971398Y-17214993D02*
X3914256Y-17214993D01*
X3914256Y-17214993D02*
X3895208Y-17205469D01*
X3895208Y-17205469D02*
X3885684Y-17195945D01*
X4095208Y-17195945D02*
X4104732Y-17205469D01*
X4104732Y-17205469D02*
X4095208Y-17214993D01*
X4095208Y-17214993D02*
X4085684Y-17205469D01*
X4085684Y-17205469D02*
X4095208Y-17195945D01*
X4095208Y-17195945D02*
X4095208Y-17214993D01*
X4180922Y-17034041D02*
X4190446Y-17024517D01*
X4190446Y-17024517D02*
X4209494Y-17014993D01*
X4209494Y-17014993D02*
X4257113Y-17014993D01*
X4257113Y-17014993D02*
X4276160Y-17024517D01*
X4276160Y-17024517D02*
X4285684Y-17034041D01*
X4285684Y-17034041D02*
X4295208Y-17053088D01*
X4295208Y-17053088D02*
X4295208Y-17072136D01*
X4295208Y-17072136D02*
X4285684Y-17100707D01*
X4285684Y-17100707D02*
X4171398Y-17214993D01*
X4171398Y-17214993D02*
X4295208Y-17214993D01*
X4476160Y-17014993D02*
X4380922Y-17014993D01*
X4380922Y-17014993D02*
X4371399Y-17110231D01*
X4371399Y-17110231D02*
X4380922Y-17100707D01*
X4380922Y-17100707D02*
X4399970Y-17091183D01*
X4399970Y-17091183D02*
X4447589Y-17091183D01*
X4447589Y-17091183D02*
X4466637Y-17100707D01*
X4466637Y-17100707D02*
X4476160Y-17110231D01*
X4476160Y-17110231D02*
X4485684Y-17129279D01*
X4485684Y-17129279D02*
X4485684Y-17176898D01*
X4485684Y-17176898D02*
X4476160Y-17195945D01*
X4476160Y-17195945D02*
X4466637Y-17205469D01*
X4466637Y-17205469D02*
X4447589Y-17214993D01*
X4447589Y-17214993D02*
X4399970Y-17214993D01*
X4399970Y-17214993D02*
X4380922Y-17205469D01*
X4380922Y-17205469D02*
X4371399Y-17195945D01*
X4609494Y-17014993D02*
X4628541Y-17014993D01*
X4628541Y-17014993D02*
X4647589Y-17024517D01*
X4647589Y-17024517D02*
X4657113Y-17034041D01*
X4657113Y-17034041D02*
X4666637Y-17053088D01*
X4666637Y-17053088D02*
X4676160Y-17091183D01*
X4676160Y-17091183D02*
X4676160Y-17138802D01*
X4676160Y-17138802D02*
X4666637Y-17176898D01*
X4666637Y-17176898D02*
X4657113Y-17195945D01*
X4657113Y-17195945D02*
X4647589Y-17205469D01*
X4647589Y-17205469D02*
X4628541Y-17214993D01*
X4628541Y-17214993D02*
X4609494Y-17214993D01*
X4609494Y-17214993D02*
X4590446Y-17205469D01*
X4590446Y-17205469D02*
X4580922Y-17195945D01*
X4580922Y-17195945D02*
X4571399Y-17176898D01*
X4571399Y-17176898D02*
X4561875Y-17138802D01*
X4561875Y-17138802D02*
X4561875Y-17091183D01*
X4561875Y-17091183D02*
X4571399Y-17053088D01*
X4571399Y-17053088D02*
X4580922Y-17034041D01*
X4580922Y-17034041D02*
X4590446Y-17024517D01*
X4590446Y-17024517D02*
X4609494Y-17014993D01*
X4761875Y-17214993D02*
X4761875Y-17081660D01*
X4761875Y-17100707D02*
X4771399Y-17091183D01*
X4771399Y-17091183D02*
X4790446Y-17081660D01*
X4790446Y-17081660D02*
X4819018Y-17081660D01*
X4819018Y-17081660D02*
X4838065Y-17091183D01*
X4838065Y-17091183D02*
X4847589Y-17110231D01*
X4847589Y-17110231D02*
X4847589Y-17214993D01*
X4847589Y-17110231D02*
X4857113Y-17091183D01*
X4857113Y-17091183D02*
X4876160Y-17081660D01*
X4876160Y-17081660D02*
X4904732Y-17081660D01*
X4904732Y-17081660D02*
X4923780Y-17091183D01*
X4923780Y-17091183D02*
X4933303Y-17110231D01*
X4933303Y-17110231D02*
X4933303Y-17214993D01*
X5028541Y-17214993D02*
X5028541Y-17081660D01*
X5028541Y-17100707D02*
X5038065Y-17091183D01*
X5038065Y-17091183D02*
X5057113Y-17081660D01*
X5057113Y-17081660D02*
X5085684Y-17081660D01*
X5085684Y-17081660D02*
X5104732Y-17091183D01*
X5104732Y-17091183D02*
X5114256Y-17110231D01*
X5114256Y-17110231D02*
X5114256Y-17214993D01*
X5114256Y-17110231D02*
X5123780Y-17091183D01*
X5123780Y-17091183D02*
X5142827Y-17081660D01*
X5142827Y-17081660D02*
X5171399Y-17081660D01*
X5171399Y-17081660D02*
X5190446Y-17091183D01*
X5190446Y-17091183D02*
X5199970Y-17110231D01*
X5199970Y-17110231D02*
X5199970Y-17214993D01*
X5590446Y-17005469D02*
X5419018Y-17262612D01*
X5847589Y-17014993D02*
X5866637Y-17014993D01*
X5866637Y-17014993D02*
X5885684Y-17024517D01*
X5885684Y-17024517D02*
X5895208Y-17034041D01*
X5895208Y-17034041D02*
X5904732Y-17053088D01*
X5904732Y-17053088D02*
X5914256Y-17091183D01*
X5914256Y-17091183D02*
X5914256Y-17138802D01*
X5914256Y-17138802D02*
X5904732Y-17176898D01*
X5904732Y-17176898D02*
X5895208Y-17195945D01*
X5895208Y-17195945D02*
X5885684Y-17205469D01*
X5885684Y-17205469D02*
X5866637Y-17214993D01*
X5866637Y-17214993D02*
X5847589Y-17214993D01*
X5847589Y-17214993D02*
X5828541Y-17205469D01*
X5828541Y-17205469D02*
X5819018Y-17195945D01*
X5819018Y-17195945D02*
X5809494Y-17176898D01*
X5809494Y-17176898D02*
X5799970Y-17138802D01*
X5799970Y-17138802D02*
X5799970Y-17091183D01*
X5799970Y-17091183D02*
X5809494Y-17053088D01*
X5809494Y-17053088D02*
X5819018Y-17034041D01*
X5819018Y-17034041D02*
X5828541Y-17024517D01*
X5828541Y-17024517D02*
X5847589Y-17014993D01*
X5999970Y-17195945D02*
X6009494Y-17205469D01*
X6009494Y-17205469D02*
X5999970Y-17214993D01*
X5999970Y-17214993D02*
X5990446Y-17205469D01*
X5990446Y-17205469D02*
X5999970Y-17195945D01*
X5999970Y-17195945D02*
X5999970Y-17214993D01*
X6199970Y-17214993D02*
X6085684Y-17214993D01*
X6142827Y-17214993D02*
X6142827Y-17014993D01*
X6142827Y-17014993D02*
X6123780Y-17043564D01*
X6123780Y-17043564D02*
X6104732Y-17062612D01*
X6104732Y-17062612D02*
X6085684Y-17072136D01*
X6276161Y-17034041D02*
X6285684Y-17024517D01*
X6285684Y-17024517D02*
X6304732Y-17014993D01*
X6304732Y-17014993D02*
X6352351Y-17014993D01*
X6352351Y-17014993D02*
X6371399Y-17024517D01*
X6371399Y-17024517D02*
X6380922Y-17034041D01*
X6380922Y-17034041D02*
X6390446Y-17053088D01*
X6390446Y-17053088D02*
X6390446Y-17072136D01*
X6390446Y-17072136D02*
X6380922Y-17100707D01*
X6380922Y-17100707D02*
X6266637Y-17214993D01*
X6266637Y-17214993D02*
X6390446Y-17214993D01*
X6504732Y-17100707D02*
X6485684Y-17091183D01*
X6485684Y-17091183D02*
X6476161Y-17081660D01*
X6476161Y-17081660D02*
X6466637Y-17062612D01*
X6466637Y-17062612D02*
X6466637Y-17053088D01*
X6466637Y-17053088D02*
X6476161Y-17034041D01*
X6476161Y-17034041D02*
X6485684Y-17024517D01*
X6485684Y-17024517D02*
X6504732Y-17014993D01*
X6504732Y-17014993D02*
X6542827Y-17014993D01*
X6542827Y-17014993D02*
X6561875Y-17024517D01*
X6561875Y-17024517D02*
X6571399Y-17034041D01*
X6571399Y-17034041D02*
X6580922Y-17053088D01*
X6580922Y-17053088D02*
X6580922Y-17062612D01*
X6580922Y-17062612D02*
X6571399Y-17081660D01*
X6571399Y-17081660D02*
X6561875Y-17091183D01*
X6561875Y-17091183D02*
X6542827Y-17100707D01*
X6542827Y-17100707D02*
X6504732Y-17100707D01*
X6504732Y-17100707D02*
X6485684Y-17110231D01*
X6485684Y-17110231D02*
X6476161Y-17119755D01*
X6476161Y-17119755D02*
X6466637Y-17138802D01*
X6466637Y-17138802D02*
X6466637Y-17176898D01*
X6466637Y-17176898D02*
X6476161Y-17195945D01*
X6476161Y-17195945D02*
X6485684Y-17205469D01*
X6485684Y-17205469D02*
X6504732Y-17214993D01*
X6504732Y-17214993D02*
X6542827Y-17214993D01*
X6542827Y-17214993D02*
X6561875Y-17205469D01*
X6561875Y-17205469D02*
X6571399Y-17195945D01*
X6571399Y-17195945D02*
X6580922Y-17176898D01*
X6580922Y-17176898D02*
X6580922Y-17138802D01*
X6580922Y-17138802D02*
X6571399Y-17119755D01*
X6571399Y-17119755D02*
X6561875Y-17110231D01*
X6561875Y-17110231D02*
X6542827Y-17100707D01*
X6704732Y-17014993D02*
X6723780Y-17014993D01*
X6723780Y-17014993D02*
X6742827Y-17024517D01*
X6742827Y-17024517D02*
X6752351Y-17034041D01*
X6752351Y-17034041D02*
X6761875Y-17053088D01*
X6761875Y-17053088D02*
X6771399Y-17091183D01*
X6771399Y-17091183D02*
X6771399Y-17138802D01*
X6771399Y-17138802D02*
X6761875Y-17176898D01*
X6761875Y-17176898D02*
X6752351Y-17195945D01*
X6752351Y-17195945D02*
X6742827Y-17205469D01*
X6742827Y-17205469D02*
X6723780Y-17214993D01*
X6723780Y-17214993D02*
X6704732Y-17214993D01*
X6704732Y-17214993D02*
X6685684Y-17205469D01*
X6685684Y-17205469D02*
X6676161Y-17195945D01*
X6676161Y-17195945D02*
X6666637Y-17176898D01*
X6666637Y-17176898D02*
X6657113Y-17138802D01*
X6657113Y-17138802D02*
X6657113Y-17091183D01*
X6657113Y-17091183D02*
X6666637Y-17053088D01*
X6666637Y-17053088D02*
X6676161Y-17034041D01*
X6676161Y-17034041D02*
X6685684Y-17024517D01*
X6685684Y-17024517D02*
X6704732Y-17014993D01*
X6847589Y-17014993D02*
X6847589Y-17053088D01*
X6923780Y-17014993D02*
X6923780Y-17053088D01*
X7219018Y-17291183D02*
X7209494Y-17281660D01*
X7209494Y-17281660D02*
X7190446Y-17253088D01*
X7190446Y-17253088D02*
X7180923Y-17234041D01*
X7180923Y-17234041D02*
X7171399Y-17205469D01*
X7171399Y-17205469D02*
X7161875Y-17157850D01*
X7161875Y-17157850D02*
X7161875Y-17119755D01*
X7161875Y-17119755D02*
X7171399Y-17072136D01*
X7171399Y-17072136D02*
X7180923Y-17043564D01*
X7180923Y-17043564D02*
X7190446Y-17024517D01*
X7190446Y-17024517D02*
X7209494Y-16995945D01*
X7209494Y-16995945D02*
X7219018Y-16986421D01*
X7380923Y-17081660D02*
X7380923Y-17214993D01*
X7333303Y-17005469D02*
X7285684Y-17148326D01*
X7285684Y-17148326D02*
X7409494Y-17148326D01*
X7638065Y-17214993D02*
X7638065Y-17014993D01*
X7723780Y-17214993D02*
X7723780Y-17110231D01*
X7723780Y-17110231D02*
X7714256Y-17091183D01*
X7714256Y-17091183D02*
X7695208Y-17081660D01*
X7695208Y-17081660D02*
X7666637Y-17081660D01*
X7666637Y-17081660D02*
X7647589Y-17091183D01*
X7647589Y-17091183D02*
X7638065Y-17100707D01*
X7847589Y-17214993D02*
X7828542Y-17205469D01*
X7828542Y-17205469D02*
X7819018Y-17195945D01*
X7819018Y-17195945D02*
X7809494Y-17176898D01*
X7809494Y-17176898D02*
X7809494Y-17119755D01*
X7809494Y-17119755D02*
X7819018Y-17100707D01*
X7819018Y-17100707D02*
X7828542Y-17091183D01*
X7828542Y-17091183D02*
X7847589Y-17081660D01*
X7847589Y-17081660D02*
X7876161Y-17081660D01*
X7876161Y-17081660D02*
X7895208Y-17091183D01*
X7895208Y-17091183D02*
X7904732Y-17100707D01*
X7904732Y-17100707D02*
X7914256Y-17119755D01*
X7914256Y-17119755D02*
X7914256Y-17176898D01*
X7914256Y-17176898D02*
X7904732Y-17195945D01*
X7904732Y-17195945D02*
X7895208Y-17205469D01*
X7895208Y-17205469D02*
X7876161Y-17214993D01*
X7876161Y-17214993D02*
X7847589Y-17214993D01*
X8028542Y-17214993D02*
X8009494Y-17205469D01*
X8009494Y-17205469D02*
X7999970Y-17186421D01*
X7999970Y-17186421D02*
X7999970Y-17014993D01*
X8180923Y-17205469D02*
X8161875Y-17214993D01*
X8161875Y-17214993D02*
X8123780Y-17214993D01*
X8123780Y-17214993D02*
X8104732Y-17205469D01*
X8104732Y-17205469D02*
X8095208Y-17186421D01*
X8095208Y-17186421D02*
X8095208Y-17110231D01*
X8095208Y-17110231D02*
X8104732Y-17091183D01*
X8104732Y-17091183D02*
X8123780Y-17081660D01*
X8123780Y-17081660D02*
X8161875Y-17081660D01*
X8161875Y-17081660D02*
X8180923Y-17091183D01*
X8180923Y-17091183D02*
X8190446Y-17110231D01*
X8190446Y-17110231D02*
X8190446Y-17129279D01*
X8190446Y-17129279D02*
X8095208Y-17148326D01*
X8266637Y-17205469D02*
X8285685Y-17214993D01*
X8285685Y-17214993D02*
X8323780Y-17214993D01*
X8323780Y-17214993D02*
X8342827Y-17205469D01*
X8342827Y-17205469D02*
X8352351Y-17186421D01*
X8352351Y-17186421D02*
X8352351Y-17176898D01*
X8352351Y-17176898D02*
X8342827Y-17157850D01*
X8342827Y-17157850D02*
X8323780Y-17148326D01*
X8323780Y-17148326D02*
X8295208Y-17148326D01*
X8295208Y-17148326D02*
X8276161Y-17138802D01*
X8276161Y-17138802D02*
X8266637Y-17119755D01*
X8266637Y-17119755D02*
X8266637Y-17110231D01*
X8266637Y-17110231D02*
X8276161Y-17091183D01*
X8276161Y-17091183D02*
X8295208Y-17081660D01*
X8295208Y-17081660D02*
X8323780Y-17081660D01*
X8323780Y-17081660D02*
X8342827Y-17091183D01*
X8419018Y-17291183D02*
X8428542Y-17281660D01*
X8428542Y-17281660D02*
X8447589Y-17253088D01*
X8447589Y-17253088D02*
X8457113Y-17234041D01*
X8457113Y-17234041D02*
X8466637Y-17205469D01*
X8466637Y-17205469D02*
X8476161Y-17157850D01*
X8476161Y-17157850D02*
X8476161Y-17119755D01*
X8476161Y-17119755D02*
X8466637Y-17072136D01*
X8466637Y-17072136D02*
X8457113Y-17043564D01*
X8457113Y-17043564D02*
X8447589Y-17024517D01*
X8447589Y-17024517D02*
X8428542Y-16995945D01*
X8428542Y-16995945D02*
X8419018Y-16986421D01*
X8780923Y-17291183D02*
X8771399Y-17281660D01*
X8771399Y-17281660D02*
X8752351Y-17253088D01*
X8752351Y-17253088D02*
X8742828Y-17234041D01*
X8742828Y-17234041D02*
X8733304Y-17205469D01*
X8733304Y-17205469D02*
X8723780Y-17157850D01*
X8723780Y-17157850D02*
X8723780Y-17119755D01*
X8723780Y-17119755D02*
X8733304Y-17072136D01*
X8733304Y-17072136D02*
X8742828Y-17043564D01*
X8742828Y-17043564D02*
X8752351Y-17024517D01*
X8752351Y-17024517D02*
X8771399Y-16995945D01*
X8771399Y-16995945D02*
X8780923Y-16986421D01*
X8857113Y-17081660D02*
X8857113Y-17214993D01*
X8857113Y-17100707D02*
X8866637Y-17091183D01*
X8866637Y-17091183D02*
X8885685Y-17081660D01*
X8885685Y-17081660D02*
X8914256Y-17081660D01*
X8914256Y-17081660D02*
X8933304Y-17091183D01*
X8933304Y-17091183D02*
X8942828Y-17110231D01*
X8942828Y-17110231D02*
X8942828Y-17214993D01*
X9066637Y-17214993D02*
X9047589Y-17205469D01*
X9047589Y-17205469D02*
X9038066Y-17195945D01*
X9038066Y-17195945D02*
X9028542Y-17176898D01*
X9028542Y-17176898D02*
X9028542Y-17119755D01*
X9028542Y-17119755D02*
X9038066Y-17100707D01*
X9038066Y-17100707D02*
X9047589Y-17091183D01*
X9047589Y-17091183D02*
X9066637Y-17081660D01*
X9066637Y-17081660D02*
X9095209Y-17081660D01*
X9095209Y-17081660D02*
X9114256Y-17091183D01*
X9114256Y-17091183D02*
X9123780Y-17100707D01*
X9123780Y-17100707D02*
X9133304Y-17119755D01*
X9133304Y-17119755D02*
X9133304Y-17176898D01*
X9133304Y-17176898D02*
X9123780Y-17195945D01*
X9123780Y-17195945D02*
X9114256Y-17205469D01*
X9114256Y-17205469D02*
X9095209Y-17214993D01*
X9095209Y-17214993D02*
X9066637Y-17214993D01*
X9190447Y-17081660D02*
X9266637Y-17081660D01*
X9219018Y-17014993D02*
X9219018Y-17186421D01*
X9219018Y-17186421D02*
X9228542Y-17205469D01*
X9228542Y-17205469D02*
X9247589Y-17214993D01*
X9247589Y-17214993D02*
X9266637Y-17214993D01*
X9485685Y-17081660D02*
X9485685Y-17281660D01*
X9485685Y-17091183D02*
X9504732Y-17081660D01*
X9504732Y-17081660D02*
X9542828Y-17081660D01*
X9542828Y-17081660D02*
X9561875Y-17091183D01*
X9561875Y-17091183D02*
X9571399Y-17100707D01*
X9571399Y-17100707D02*
X9580923Y-17119755D01*
X9580923Y-17119755D02*
X9580923Y-17176898D01*
X9580923Y-17176898D02*
X9571399Y-17195945D01*
X9571399Y-17195945D02*
X9561875Y-17205469D01*
X9561875Y-17205469D02*
X9542828Y-17214993D01*
X9542828Y-17214993D02*
X9504732Y-17214993D01*
X9504732Y-17214993D02*
X9485685Y-17205469D01*
X9695209Y-17214993D02*
X9676161Y-17205469D01*
X9676161Y-17205469D02*
X9666637Y-17186421D01*
X9666637Y-17186421D02*
X9666637Y-17014993D01*
X9857113Y-17214993D02*
X9857113Y-17110231D01*
X9857113Y-17110231D02*
X9847590Y-17091183D01*
X9847590Y-17091183D02*
X9828542Y-17081660D01*
X9828542Y-17081660D02*
X9790447Y-17081660D01*
X9790447Y-17081660D02*
X9771399Y-17091183D01*
X9857113Y-17205469D02*
X9838066Y-17214993D01*
X9838066Y-17214993D02*
X9790447Y-17214993D01*
X9790447Y-17214993D02*
X9771399Y-17205469D01*
X9771399Y-17205469D02*
X9761875Y-17186421D01*
X9761875Y-17186421D02*
X9761875Y-17167374D01*
X9761875Y-17167374D02*
X9771399Y-17148326D01*
X9771399Y-17148326D02*
X9790447Y-17138802D01*
X9790447Y-17138802D02*
X9838066Y-17138802D01*
X9838066Y-17138802D02*
X9857113Y-17129279D01*
X9923780Y-17081660D02*
X9999970Y-17081660D01*
X9952351Y-17014993D02*
X9952351Y-17186421D01*
X9952351Y-17186421D02*
X9961875Y-17205469D01*
X9961875Y-17205469D02*
X9980923Y-17214993D01*
X9980923Y-17214993D02*
X9999970Y-17214993D01*
X10142828Y-17205469D02*
X10123780Y-17214993D01*
X10123780Y-17214993D02*
X10085685Y-17214993D01*
X10085685Y-17214993D02*
X10066637Y-17205469D01*
X10066637Y-17205469D02*
X10057113Y-17186421D01*
X10057113Y-17186421D02*
X10057113Y-17110231D01*
X10057113Y-17110231D02*
X10066637Y-17091183D01*
X10066637Y-17091183D02*
X10085685Y-17081660D01*
X10085685Y-17081660D02*
X10123780Y-17081660D01*
X10123780Y-17081660D02*
X10142828Y-17091183D01*
X10142828Y-17091183D02*
X10152351Y-17110231D01*
X10152351Y-17110231D02*
X10152351Y-17129279D01*
X10152351Y-17129279D02*
X10057113Y-17148326D01*
X10323780Y-17214993D02*
X10323780Y-17014993D01*
X10323780Y-17205469D02*
X10304732Y-17214993D01*
X10304732Y-17214993D02*
X10266637Y-17214993D01*
X10266637Y-17214993D02*
X10247590Y-17205469D01*
X10247590Y-17205469D02*
X10238066Y-17195945D01*
X10238066Y-17195945D02*
X10228542Y-17176898D01*
X10228542Y-17176898D02*
X10228542Y-17119755D01*
X10228542Y-17119755D02*
X10238066Y-17100707D01*
X10238066Y-17100707D02*
X10247590Y-17091183D01*
X10247590Y-17091183D02*
X10266637Y-17081660D01*
X10266637Y-17081660D02*
X10304732Y-17081660D01*
X10304732Y-17081660D02*
X10323780Y-17091183D01*
X10399971Y-17291183D02*
X10409494Y-17281660D01*
X10409494Y-17281660D02*
X10428542Y-17253088D01*
X10428542Y-17253088D02*
X10438066Y-17234041D01*
X10438066Y-17234041D02*
X10447590Y-17205469D01*
X10447590Y-17205469D02*
X10457113Y-17157850D01*
X10457113Y-17157850D02*
X10457113Y-17119755D01*
X10457113Y-17119755D02*
X10447590Y-17072136D01*
X10447590Y-17072136D02*
X10438066Y-17043564D01*
X10438066Y-17043564D02*
X10428542Y-17024517D01*
X10428542Y-17024517D02*
X10409494Y-16995945D01*
X10409494Y-16995945D02*
X10399971Y-16986421D01*
X3614666Y-17514221D02*
X3614666Y-17372798D01*
X3473244Y-17372798D01*
X3473244Y-17514221D01*
X3614666Y-17514221D01*
X3885684Y-17334993D02*
X4009494Y-17334993D01*
X4009494Y-17334993D02*
X3942827Y-17411183D01*
X3942827Y-17411183D02*
X3971398Y-17411183D01*
X3971398Y-17411183D02*
X3990446Y-17420707D01*
X3990446Y-17420707D02*
X3999970Y-17430231D01*
X3999970Y-17430231D02*
X4009494Y-17449279D01*
X4009494Y-17449279D02*
X4009494Y-17496898D01*
X4009494Y-17496898D02*
X3999970Y-17515945D01*
X3999970Y-17515945D02*
X3990446Y-17525469D01*
X3990446Y-17525469D02*
X3971398Y-17534993D01*
X3971398Y-17534993D02*
X3914256Y-17534993D01*
X3914256Y-17534993D02*
X3895208Y-17525469D01*
X3895208Y-17525469D02*
X3885684Y-17515945D01*
X4095208Y-17515945D02*
X4104732Y-17525469D01*
X4104732Y-17525469D02*
X4095208Y-17534993D01*
X4095208Y-17534993D02*
X4085684Y-17525469D01*
X4085684Y-17525469D02*
X4095208Y-17515945D01*
X4095208Y-17515945D02*
X4095208Y-17534993D01*
X4199970Y-17534993D02*
X4238065Y-17534993D01*
X4238065Y-17534993D02*
X4257113Y-17525469D01*
X4257113Y-17525469D02*
X4266637Y-17515945D01*
X4266637Y-17515945D02*
X4285684Y-17487374D01*
X4285684Y-17487374D02*
X4295208Y-17449279D01*
X4295208Y-17449279D02*
X4295208Y-17373088D01*
X4295208Y-17373088D02*
X4285684Y-17354041D01*
X4285684Y-17354041D02*
X4276160Y-17344517D01*
X4276160Y-17344517D02*
X4257113Y-17334993D01*
X4257113Y-17334993D02*
X4219018Y-17334993D01*
X4219018Y-17334993D02*
X4199970Y-17344517D01*
X4199970Y-17344517D02*
X4190446Y-17354041D01*
X4190446Y-17354041D02*
X4180922Y-17373088D01*
X4180922Y-17373088D02*
X4180922Y-17420707D01*
X4180922Y-17420707D02*
X4190446Y-17439755D01*
X4190446Y-17439755D02*
X4199970Y-17449279D01*
X4199970Y-17449279D02*
X4219018Y-17458802D01*
X4219018Y-17458802D02*
X4257113Y-17458802D01*
X4257113Y-17458802D02*
X4276160Y-17449279D01*
X4276160Y-17449279D02*
X4285684Y-17439755D01*
X4285684Y-17439755D02*
X4295208Y-17420707D01*
X4409494Y-17420707D02*
X4390446Y-17411183D01*
X4390446Y-17411183D02*
X4380922Y-17401660D01*
X4380922Y-17401660D02*
X4371399Y-17382612D01*
X4371399Y-17382612D02*
X4371399Y-17373088D01*
X4371399Y-17373088D02*
X4380922Y-17354041D01*
X4380922Y-17354041D02*
X4390446Y-17344517D01*
X4390446Y-17344517D02*
X4409494Y-17334993D01*
X4409494Y-17334993D02*
X4447589Y-17334993D01*
X4447589Y-17334993D02*
X4466637Y-17344517D01*
X4466637Y-17344517D02*
X4476160Y-17354041D01*
X4476160Y-17354041D02*
X4485684Y-17373088D01*
X4485684Y-17373088D02*
X4485684Y-17382612D01*
X4485684Y-17382612D02*
X4476160Y-17401660D01*
X4476160Y-17401660D02*
X4466637Y-17411183D01*
X4466637Y-17411183D02*
X4447589Y-17420707D01*
X4447589Y-17420707D02*
X4409494Y-17420707D01*
X4409494Y-17420707D02*
X4390446Y-17430231D01*
X4390446Y-17430231D02*
X4380922Y-17439755D01*
X4380922Y-17439755D02*
X4371399Y-17458802D01*
X4371399Y-17458802D02*
X4371399Y-17496898D01*
X4371399Y-17496898D02*
X4380922Y-17515945D01*
X4380922Y-17515945D02*
X4390446Y-17525469D01*
X4390446Y-17525469D02*
X4409494Y-17534993D01*
X4409494Y-17534993D02*
X4447589Y-17534993D01*
X4447589Y-17534993D02*
X4466637Y-17525469D01*
X4466637Y-17525469D02*
X4476160Y-17515945D01*
X4476160Y-17515945D02*
X4485684Y-17496898D01*
X4485684Y-17496898D02*
X4485684Y-17458802D01*
X4485684Y-17458802D02*
X4476160Y-17439755D01*
X4476160Y-17439755D02*
X4466637Y-17430231D01*
X4466637Y-17430231D02*
X4447589Y-17420707D01*
X4599970Y-17420707D02*
X4580922Y-17411183D01*
X4580922Y-17411183D02*
X4571399Y-17401660D01*
X4571399Y-17401660D02*
X4561875Y-17382612D01*
X4561875Y-17382612D02*
X4561875Y-17373088D01*
X4561875Y-17373088D02*
X4571399Y-17354041D01*
X4571399Y-17354041D02*
X4580922Y-17344517D01*
X4580922Y-17344517D02*
X4599970Y-17334993D01*
X4599970Y-17334993D02*
X4638065Y-17334993D01*
X4638065Y-17334993D02*
X4657113Y-17344517D01*
X4657113Y-17344517D02*
X4666637Y-17354041D01*
X4666637Y-17354041D02*
X4676160Y-17373088D01*
X4676160Y-17373088D02*
X4676160Y-17382612D01*
X4676160Y-17382612D02*
X4666637Y-17401660D01*
X4666637Y-17401660D02*
X4657113Y-17411183D01*
X4657113Y-17411183D02*
X4638065Y-17420707D01*
X4638065Y-17420707D02*
X4599970Y-17420707D01*
X4599970Y-17420707D02*
X4580922Y-17430231D01*
X4580922Y-17430231D02*
X4571399Y-17439755D01*
X4571399Y-17439755D02*
X4561875Y-17458802D01*
X4561875Y-17458802D02*
X4561875Y-17496898D01*
X4561875Y-17496898D02*
X4571399Y-17515945D01*
X4571399Y-17515945D02*
X4580922Y-17525469D01*
X4580922Y-17525469D02*
X4599970Y-17534993D01*
X4599970Y-17534993D02*
X4638065Y-17534993D01*
X4638065Y-17534993D02*
X4657113Y-17525469D01*
X4657113Y-17525469D02*
X4666637Y-17515945D01*
X4666637Y-17515945D02*
X4676160Y-17496898D01*
X4676160Y-17496898D02*
X4676160Y-17458802D01*
X4676160Y-17458802D02*
X4666637Y-17439755D01*
X4666637Y-17439755D02*
X4657113Y-17430231D01*
X4657113Y-17430231D02*
X4638065Y-17420707D01*
X4761875Y-17534993D02*
X4761875Y-17401660D01*
X4761875Y-17420707D02*
X4771399Y-17411183D01*
X4771399Y-17411183D02*
X4790446Y-17401660D01*
X4790446Y-17401660D02*
X4819018Y-17401660D01*
X4819018Y-17401660D02*
X4838065Y-17411183D01*
X4838065Y-17411183D02*
X4847589Y-17430231D01*
X4847589Y-17430231D02*
X4847589Y-17534993D01*
X4847589Y-17430231D02*
X4857113Y-17411183D01*
X4857113Y-17411183D02*
X4876160Y-17401660D01*
X4876160Y-17401660D02*
X4904732Y-17401660D01*
X4904732Y-17401660D02*
X4923780Y-17411183D01*
X4923780Y-17411183D02*
X4933303Y-17430231D01*
X4933303Y-17430231D02*
X4933303Y-17534993D01*
X5028541Y-17534993D02*
X5028541Y-17401660D01*
X5028541Y-17420707D02*
X5038065Y-17411183D01*
X5038065Y-17411183D02*
X5057113Y-17401660D01*
X5057113Y-17401660D02*
X5085684Y-17401660D01*
X5085684Y-17401660D02*
X5104732Y-17411183D01*
X5104732Y-17411183D02*
X5114256Y-17430231D01*
X5114256Y-17430231D02*
X5114256Y-17534993D01*
X5114256Y-17430231D02*
X5123780Y-17411183D01*
X5123780Y-17411183D02*
X5142827Y-17401660D01*
X5142827Y-17401660D02*
X5171399Y-17401660D01*
X5171399Y-17401660D02*
X5190446Y-17411183D01*
X5190446Y-17411183D02*
X5199970Y-17430231D01*
X5199970Y-17430231D02*
X5199970Y-17534993D01*
X5590446Y-17325469D02*
X5419018Y-17582612D01*
X5847589Y-17334993D02*
X5866637Y-17334993D01*
X5866637Y-17334993D02*
X5885684Y-17344517D01*
X5885684Y-17344517D02*
X5895208Y-17354041D01*
X5895208Y-17354041D02*
X5904732Y-17373088D01*
X5904732Y-17373088D02*
X5914256Y-17411183D01*
X5914256Y-17411183D02*
X5914256Y-17458802D01*
X5914256Y-17458802D02*
X5904732Y-17496898D01*
X5904732Y-17496898D02*
X5895208Y-17515945D01*
X5895208Y-17515945D02*
X5885684Y-17525469D01*
X5885684Y-17525469D02*
X5866637Y-17534993D01*
X5866637Y-17534993D02*
X5847589Y-17534993D01*
X5847589Y-17534993D02*
X5828541Y-17525469D01*
X5828541Y-17525469D02*
X5819018Y-17515945D01*
X5819018Y-17515945D02*
X5809494Y-17496898D01*
X5809494Y-17496898D02*
X5799970Y-17458802D01*
X5799970Y-17458802D02*
X5799970Y-17411183D01*
X5799970Y-17411183D02*
X5809494Y-17373088D01*
X5809494Y-17373088D02*
X5819018Y-17354041D01*
X5819018Y-17354041D02*
X5828541Y-17344517D01*
X5828541Y-17344517D02*
X5847589Y-17334993D01*
X5999970Y-17515945D02*
X6009494Y-17525469D01*
X6009494Y-17525469D02*
X5999970Y-17534993D01*
X5999970Y-17534993D02*
X5990446Y-17525469D01*
X5990446Y-17525469D02*
X5999970Y-17515945D01*
X5999970Y-17515945D02*
X5999970Y-17534993D01*
X6199970Y-17534993D02*
X6085684Y-17534993D01*
X6142827Y-17534993D02*
X6142827Y-17334993D01*
X6142827Y-17334993D02*
X6123780Y-17363564D01*
X6123780Y-17363564D02*
X6104732Y-17382612D01*
X6104732Y-17382612D02*
X6085684Y-17392136D01*
X6380922Y-17334993D02*
X6285684Y-17334993D01*
X6285684Y-17334993D02*
X6276161Y-17430231D01*
X6276161Y-17430231D02*
X6285684Y-17420707D01*
X6285684Y-17420707D02*
X6304732Y-17411183D01*
X6304732Y-17411183D02*
X6352351Y-17411183D01*
X6352351Y-17411183D02*
X6371399Y-17420707D01*
X6371399Y-17420707D02*
X6380922Y-17430231D01*
X6380922Y-17430231D02*
X6390446Y-17449279D01*
X6390446Y-17449279D02*
X6390446Y-17496898D01*
X6390446Y-17496898D02*
X6380922Y-17515945D01*
X6380922Y-17515945D02*
X6371399Y-17525469D01*
X6371399Y-17525469D02*
X6352351Y-17534993D01*
X6352351Y-17534993D02*
X6304732Y-17534993D01*
X6304732Y-17534993D02*
X6285684Y-17525469D01*
X6285684Y-17525469D02*
X6276161Y-17515945D01*
X6457113Y-17334993D02*
X6590446Y-17334993D01*
X6590446Y-17334993D02*
X6504732Y-17534993D01*
X6704732Y-17334993D02*
X6723780Y-17334993D01*
X6723780Y-17334993D02*
X6742827Y-17344517D01*
X6742827Y-17344517D02*
X6752351Y-17354041D01*
X6752351Y-17354041D02*
X6761875Y-17373088D01*
X6761875Y-17373088D02*
X6771399Y-17411183D01*
X6771399Y-17411183D02*
X6771399Y-17458802D01*
X6771399Y-17458802D02*
X6761875Y-17496898D01*
X6761875Y-17496898D02*
X6752351Y-17515945D01*
X6752351Y-17515945D02*
X6742827Y-17525469D01*
X6742827Y-17525469D02*
X6723780Y-17534993D01*
X6723780Y-17534993D02*
X6704732Y-17534993D01*
X6704732Y-17534993D02*
X6685684Y-17525469D01*
X6685684Y-17525469D02*
X6676161Y-17515945D01*
X6676161Y-17515945D02*
X6666637Y-17496898D01*
X6666637Y-17496898D02*
X6657113Y-17458802D01*
X6657113Y-17458802D02*
X6657113Y-17411183D01*
X6657113Y-17411183D02*
X6666637Y-17373088D01*
X6666637Y-17373088D02*
X6676161Y-17354041D01*
X6676161Y-17354041D02*
X6685684Y-17344517D01*
X6685684Y-17344517D02*
X6704732Y-17334993D01*
X6847589Y-17334993D02*
X6847589Y-17373088D01*
X6923780Y-17334993D02*
X6923780Y-17373088D01*
X7219018Y-17611183D02*
X7209494Y-17601660D01*
X7209494Y-17601660D02*
X7190446Y-17573088D01*
X7190446Y-17573088D02*
X7180923Y-17554041D01*
X7180923Y-17554041D02*
X7171399Y-17525469D01*
X7171399Y-17525469D02*
X7161875Y-17477850D01*
X7161875Y-17477850D02*
X7161875Y-17439755D01*
X7161875Y-17439755D02*
X7171399Y-17392136D01*
X7171399Y-17392136D02*
X7180923Y-17363564D01*
X7180923Y-17363564D02*
X7190446Y-17344517D01*
X7190446Y-17344517D02*
X7209494Y-17315945D01*
X7209494Y-17315945D02*
X7219018Y-17306421D01*
X7285684Y-17354041D02*
X7295208Y-17344517D01*
X7295208Y-17344517D02*
X7314256Y-17334993D01*
X7314256Y-17334993D02*
X7361875Y-17334993D01*
X7361875Y-17334993D02*
X7380923Y-17344517D01*
X7380923Y-17344517D02*
X7390446Y-17354041D01*
X7390446Y-17354041D02*
X7399970Y-17373088D01*
X7399970Y-17373088D02*
X7399970Y-17392136D01*
X7399970Y-17392136D02*
X7390446Y-17420707D01*
X7390446Y-17420707D02*
X7276161Y-17534993D01*
X7276161Y-17534993D02*
X7399970Y-17534993D01*
X7466637Y-17334993D02*
X7599970Y-17334993D01*
X7599970Y-17334993D02*
X7514256Y-17534993D01*
X7828542Y-17534993D02*
X7828542Y-17334993D01*
X7914256Y-17534993D02*
X7914256Y-17430231D01*
X7914256Y-17430231D02*
X7904732Y-17411183D01*
X7904732Y-17411183D02*
X7885685Y-17401660D01*
X7885685Y-17401660D02*
X7857113Y-17401660D01*
X7857113Y-17401660D02*
X7838065Y-17411183D01*
X7838065Y-17411183D02*
X7828542Y-17420707D01*
X8038065Y-17534993D02*
X8019018Y-17525469D01*
X8019018Y-17525469D02*
X8009494Y-17515945D01*
X8009494Y-17515945D02*
X7999970Y-17496898D01*
X7999970Y-17496898D02*
X7999970Y-17439755D01*
X7999970Y-17439755D02*
X8009494Y-17420707D01*
X8009494Y-17420707D02*
X8019018Y-17411183D01*
X8019018Y-17411183D02*
X8038065Y-17401660D01*
X8038065Y-17401660D02*
X8066637Y-17401660D01*
X8066637Y-17401660D02*
X8085685Y-17411183D01*
X8085685Y-17411183D02*
X8095208Y-17420707D01*
X8095208Y-17420707D02*
X8104732Y-17439755D01*
X8104732Y-17439755D02*
X8104732Y-17496898D01*
X8104732Y-17496898D02*
X8095208Y-17515945D01*
X8095208Y-17515945D02*
X8085685Y-17525469D01*
X8085685Y-17525469D02*
X8066637Y-17534993D01*
X8066637Y-17534993D02*
X8038065Y-17534993D01*
X8219018Y-17534993D02*
X8199970Y-17525469D01*
X8199970Y-17525469D02*
X8190446Y-17506421D01*
X8190446Y-17506421D02*
X8190446Y-17334993D01*
X8371399Y-17525469D02*
X8352351Y-17534993D01*
X8352351Y-17534993D02*
X8314256Y-17534993D01*
X8314256Y-17534993D02*
X8295208Y-17525469D01*
X8295208Y-17525469D02*
X8285685Y-17506421D01*
X8285685Y-17506421D02*
X8285685Y-17430231D01*
X8285685Y-17430231D02*
X8295208Y-17411183D01*
X8295208Y-17411183D02*
X8314256Y-17401660D01*
X8314256Y-17401660D02*
X8352351Y-17401660D01*
X8352351Y-17401660D02*
X8371399Y-17411183D01*
X8371399Y-17411183D02*
X8380923Y-17430231D01*
X8380923Y-17430231D02*
X8380923Y-17449279D01*
X8380923Y-17449279D02*
X8285685Y-17468326D01*
X8457113Y-17525469D02*
X8476161Y-17534993D01*
X8476161Y-17534993D02*
X8514256Y-17534993D01*
X8514256Y-17534993D02*
X8533304Y-17525469D01*
X8533304Y-17525469D02*
X8542828Y-17506421D01*
X8542828Y-17506421D02*
X8542828Y-17496898D01*
X8542828Y-17496898D02*
X8533304Y-17477850D01*
X8533304Y-17477850D02*
X8514256Y-17468326D01*
X8514256Y-17468326D02*
X8485685Y-17468326D01*
X8485685Y-17468326D02*
X8466637Y-17458802D01*
X8466637Y-17458802D02*
X8457113Y-17439755D01*
X8457113Y-17439755D02*
X8457113Y-17430231D01*
X8457113Y-17430231D02*
X8466637Y-17411183D01*
X8466637Y-17411183D02*
X8485685Y-17401660D01*
X8485685Y-17401660D02*
X8514256Y-17401660D01*
X8514256Y-17401660D02*
X8533304Y-17411183D01*
X8609494Y-17611183D02*
X8619018Y-17601660D01*
X8619018Y-17601660D02*
X8638066Y-17573088D01*
X8638066Y-17573088D02*
X8647589Y-17554041D01*
X8647589Y-17554041D02*
X8657113Y-17525469D01*
X8657113Y-17525469D02*
X8666637Y-17477850D01*
X8666637Y-17477850D02*
X8666637Y-17439755D01*
X8666637Y-17439755D02*
X8657113Y-17392136D01*
X8657113Y-17392136D02*
X8647589Y-17363564D01*
X8647589Y-17363564D02*
X8638066Y-17344517D01*
X8638066Y-17344517D02*
X8619018Y-17315945D01*
X8619018Y-17315945D02*
X8609494Y-17306421D01*
X8971399Y-17611183D02*
X8961875Y-17601660D01*
X8961875Y-17601660D02*
X8942828Y-17573088D01*
X8942828Y-17573088D02*
X8933304Y-17554041D01*
X8933304Y-17554041D02*
X8923780Y-17525469D01*
X8923780Y-17525469D02*
X8914256Y-17477850D01*
X8914256Y-17477850D02*
X8914256Y-17439755D01*
X8914256Y-17439755D02*
X8923780Y-17392136D01*
X8923780Y-17392136D02*
X8933304Y-17363564D01*
X8933304Y-17363564D02*
X8942828Y-17344517D01*
X8942828Y-17344517D02*
X8961875Y-17315945D01*
X8961875Y-17315945D02*
X8971399Y-17306421D01*
X9047589Y-17401660D02*
X9047589Y-17534993D01*
X9047589Y-17420707D02*
X9057113Y-17411183D01*
X9057113Y-17411183D02*
X9076161Y-17401660D01*
X9076161Y-17401660D02*
X9104732Y-17401660D01*
X9104732Y-17401660D02*
X9123780Y-17411183D01*
X9123780Y-17411183D02*
X9133304Y-17430231D01*
X9133304Y-17430231D02*
X9133304Y-17534993D01*
X9257113Y-17534993D02*
X9238066Y-17525469D01*
X9238066Y-17525469D02*
X9228542Y-17515945D01*
X9228542Y-17515945D02*
X9219018Y-17496898D01*
X9219018Y-17496898D02*
X9219018Y-17439755D01*
X9219018Y-17439755D02*
X9228542Y-17420707D01*
X9228542Y-17420707D02*
X9238066Y-17411183D01*
X9238066Y-17411183D02*
X9257113Y-17401660D01*
X9257113Y-17401660D02*
X9285685Y-17401660D01*
X9285685Y-17401660D02*
X9304732Y-17411183D01*
X9304732Y-17411183D02*
X9314256Y-17420707D01*
X9314256Y-17420707D02*
X9323780Y-17439755D01*
X9323780Y-17439755D02*
X9323780Y-17496898D01*
X9323780Y-17496898D02*
X9314256Y-17515945D01*
X9314256Y-17515945D02*
X9304732Y-17525469D01*
X9304732Y-17525469D02*
X9285685Y-17534993D01*
X9285685Y-17534993D02*
X9257113Y-17534993D01*
X9380923Y-17401660D02*
X9457113Y-17401660D01*
X9409494Y-17334993D02*
X9409494Y-17506421D01*
X9409494Y-17506421D02*
X9419018Y-17525469D01*
X9419018Y-17525469D02*
X9438066Y-17534993D01*
X9438066Y-17534993D02*
X9457113Y-17534993D01*
X9676161Y-17401660D02*
X9676161Y-17601660D01*
X9676161Y-17411183D02*
X9695209Y-17401660D01*
X9695209Y-17401660D02*
X9733304Y-17401660D01*
X9733304Y-17401660D02*
X9752351Y-17411183D01*
X9752351Y-17411183D02*
X9761875Y-17420707D01*
X9761875Y-17420707D02*
X9771399Y-17439755D01*
X9771399Y-17439755D02*
X9771399Y-17496898D01*
X9771399Y-17496898D02*
X9761875Y-17515945D01*
X9761875Y-17515945D02*
X9752351Y-17525469D01*
X9752351Y-17525469D02*
X9733304Y-17534993D01*
X9733304Y-17534993D02*
X9695209Y-17534993D01*
X9695209Y-17534993D02*
X9676161Y-17525469D01*
X9885685Y-17534993D02*
X9866637Y-17525469D01*
X9866637Y-17525469D02*
X9857113Y-17506421D01*
X9857113Y-17506421D02*
X9857113Y-17334993D01*
X10047590Y-17534993D02*
X10047590Y-17430231D01*
X10047590Y-17430231D02*
X10038066Y-17411183D01*
X10038066Y-17411183D02*
X10019018Y-17401660D01*
X10019018Y-17401660D02*
X9980923Y-17401660D01*
X9980923Y-17401660D02*
X9961875Y-17411183D01*
X10047590Y-17525469D02*
X10028542Y-17534993D01*
X10028542Y-17534993D02*
X9980923Y-17534993D01*
X9980923Y-17534993D02*
X9961875Y-17525469D01*
X9961875Y-17525469D02*
X9952351Y-17506421D01*
X9952351Y-17506421D02*
X9952351Y-17487374D01*
X9952351Y-17487374D02*
X9961875Y-17468326D01*
X9961875Y-17468326D02*
X9980923Y-17458802D01*
X9980923Y-17458802D02*
X10028542Y-17458802D01*
X10028542Y-17458802D02*
X10047590Y-17449279D01*
X10114256Y-17401660D02*
X10190447Y-17401660D01*
X10142828Y-17334993D02*
X10142828Y-17506421D01*
X10142828Y-17506421D02*
X10152351Y-17525469D01*
X10152351Y-17525469D02*
X10171399Y-17534993D01*
X10171399Y-17534993D02*
X10190447Y-17534993D01*
X10333304Y-17525469D02*
X10314256Y-17534993D01*
X10314256Y-17534993D02*
X10276161Y-17534993D01*
X10276161Y-17534993D02*
X10257113Y-17525469D01*
X10257113Y-17525469D02*
X10247590Y-17506421D01*
X10247590Y-17506421D02*
X10247590Y-17430231D01*
X10247590Y-17430231D02*
X10257113Y-17411183D01*
X10257113Y-17411183D02*
X10276161Y-17401660D01*
X10276161Y-17401660D02*
X10314256Y-17401660D01*
X10314256Y-17401660D02*
X10333304Y-17411183D01*
X10333304Y-17411183D02*
X10342828Y-17430231D01*
X10342828Y-17430231D02*
X10342828Y-17449279D01*
X10342828Y-17449279D02*
X10247590Y-17468326D01*
X10514256Y-17534993D02*
X10514256Y-17334993D01*
X10514256Y-17525469D02*
X10495209Y-17534993D01*
X10495209Y-17534993D02*
X10457113Y-17534993D01*
X10457113Y-17534993D02*
X10438066Y-17525469D01*
X10438066Y-17525469D02*
X10428542Y-17515945D01*
X10428542Y-17515945D02*
X10419018Y-17496898D01*
X10419018Y-17496898D02*
X10419018Y-17439755D01*
X10419018Y-17439755D02*
X10428542Y-17420707D01*
X10428542Y-17420707D02*
X10438066Y-17411183D01*
X10438066Y-17411183D02*
X10457113Y-17401660D01*
X10457113Y-17401660D02*
X10495209Y-17401660D01*
X10495209Y-17401660D02*
X10514256Y-17411183D01*
X10590447Y-17611183D02*
X10599971Y-17601660D01*
X10599971Y-17601660D02*
X10619018Y-17573088D01*
X10619018Y-17573088D02*
X10628542Y-17554041D01*
X10628542Y-17554041D02*
X10638066Y-17525469D01*
X10638066Y-17525469D02*
X10647590Y-17477850D01*
X10647590Y-17477850D02*
X10647590Y-17439755D01*
X10647590Y-17439755D02*
X10638066Y-17392136D01*
X10638066Y-17392136D02*
X10628542Y-17363564D01*
X10628542Y-17363564D02*
X10619018Y-17344517D01*
X10619018Y-17344517D02*
X10599971Y-17315945D01*
X10599971Y-17315945D02*
X10590447Y-17306421D01*
M02*
